G04*
G04 #@! TF.GenerationSoftware,Altium Limited,Altium Designer,24.5.2 (23)*
G04*
G04 Layer_Color=8421504*
%FSLAX25Y25*%
%MOIN*%
G70*
G04*
G04 #@! TF.SameCoordinates,C9A36013-1EDC-4BB1-827E-2851C72F543B*
G04*
G04*
G04 #@! TF.FilePolarity,Positive*
G04*
G01*
G75*
%ADD19R,0.03150X0.01575*%
%ADD20R,0.01575X0.03150*%
%ADD21R,0.04016X0.03701*%
%ADD22R,0.03701X0.04016*%
%ADD23R,0.03937X0.05512*%
%ADD24R,0.06693X0.04331*%
%ADD25R,0.01378X0.02362*%
%ADD26R,0.03543X0.03937*%
%ADD27R,0.04331X0.02559*%
%ADD28R,0.03937X0.03543*%
%ADD29R,0.13780X0.07284*%
%ADD30R,0.03150X0.03543*%
%ADD31R,0.06102X0.09252*%
%ADD32R,0.11024X0.08465*%
G36*
X25597Y55118D02*
X29528D01*
X29527Y55117D01*
Y54128D01*
X31479D01*
X31498Y54110D01*
Y55088D01*
X31497Y55118D01*
X35434D01*
Y51181D01*
X34447D01*
Y49251D01*
X34483Y49215D01*
X35431D01*
Y45278D01*
X34445D01*
X34394Y45329D01*
Y43360D01*
X35380D01*
X35434Y43307D01*
Y39370D01*
X31497D01*
Y43307D01*
X32490D01*
Y45288D01*
X32499Y45297D01*
X31500D01*
Y49209D01*
X31497Y49213D01*
X32372D01*
X32425Y49266D01*
Y51234D01*
X31550D01*
X31497Y51181D01*
Y52178D01*
X31499Y52180D01*
X29550D01*
X29528Y52203D01*
Y51181D01*
X29528Y51181D01*
X28542D01*
Y49260D01*
X28599Y49202D01*
X29451D01*
X29498Y49250D01*
Y45244D01*
X29491Y45252D01*
X28560D01*
X28521Y45213D01*
Y43304D01*
X28523Y43307D01*
X29528D01*
Y39370D01*
X25591D01*
Y43307D01*
X25644Y43360D01*
X26573D01*
X26581Y43368D01*
Y45268D01*
X25603D01*
X25572Y45300D01*
Y49178D01*
X25596Y49203D01*
X26526D01*
X26605Y49281D01*
Y51166D01*
X26590Y51182D01*
X25592D01*
X25591Y51181D01*
Y52156D01*
X25572Y52175D01*
X23617D01*
Y51187D01*
X22644D01*
X22638Y51181D01*
Y49195D01*
X23606D01*
X23623Y49213D01*
Y45276D01*
X22636D01*
X22583Y45329D01*
Y43362D01*
X23567D01*
X23623Y43307D01*
Y39370D01*
X22048D01*
X19686Y41732D01*
Y43307D01*
X20670D01*
X20667Y43310D01*
Y45277D01*
X19690D01*
X19686Y45281D01*
Y49213D01*
X19686Y49213D01*
X20677D01*
X20675Y49215D01*
Y51181D01*
X20669Y51175D01*
X19684D01*
X19686Y51176D01*
Y55118D01*
X23623D01*
X23627Y55114D01*
Y54123D01*
X23638Y54134D01*
X25591D01*
X25596Y54140D01*
Y55118D01*
X25597Y55118D01*
D02*
G37*
D19*
X3740Y26772D02*
D03*
Y29921D02*
D03*
Y33071D02*
D03*
Y36220D02*
D03*
Y39370D02*
D03*
Y42520D02*
D03*
Y45669D02*
D03*
Y48819D02*
D03*
Y51968D02*
D03*
Y55118D02*
D03*
Y58268D02*
D03*
Y61417D02*
D03*
Y64567D02*
D03*
Y67716D02*
D03*
X51378D02*
D03*
Y64567D02*
D03*
Y61417D02*
D03*
Y58268D02*
D03*
Y55118D02*
D03*
Y51968D02*
D03*
Y48819D02*
D03*
Y45669D02*
D03*
Y42520D02*
D03*
Y39370D02*
D03*
Y36220D02*
D03*
Y33071D02*
D03*
Y29921D02*
D03*
Y26772D02*
D03*
D20*
X8661Y70473D02*
D03*
X11811D02*
D03*
X14961D02*
D03*
X18110D02*
D03*
X21260D02*
D03*
X24409D02*
D03*
X27559D02*
D03*
X30709D02*
D03*
X33858D02*
D03*
X37008D02*
D03*
X40157D02*
D03*
X43307D02*
D03*
X46457D02*
D03*
Y24016D02*
D03*
X43307D02*
D03*
X40157D02*
D03*
X37008D02*
D03*
X33858D02*
D03*
X30709D02*
D03*
X27559D02*
D03*
X24409D02*
D03*
X21260D02*
D03*
X18110D02*
D03*
X14961D02*
D03*
X11811D02*
D03*
X8661D02*
D03*
D21*
X33603Y11254D02*
D03*
Y5033D02*
D03*
X220732Y76892D02*
D03*
Y83112D02*
D03*
X220732Y48543D02*
D03*
Y42323D02*
D03*
X196827Y96394D02*
D03*
Y102614D02*
D03*
X30512Y103504D02*
D03*
Y97284D02*
D03*
X36204Y142074D02*
D03*
Y135853D02*
D03*
X30426Y154717D02*
D03*
Y148496D02*
D03*
D22*
X75254Y22172D02*
D03*
X81475D02*
D03*
X77665Y46214D02*
D03*
X83885D02*
D03*
X178712Y109835D02*
D03*
X184933D02*
D03*
X190524Y109835D02*
D03*
X196745D02*
D03*
D23*
X77344Y29770D02*
D03*
X84824D02*
D03*
X81084Y38431D02*
D03*
X76973Y54182D02*
D03*
X84453D02*
D03*
X80713Y62843D02*
D03*
D24*
X200787Y47244D02*
D03*
X217341Y62438D02*
D03*
D25*
X198228Y51378D02*
D03*
X200787D02*
D03*
X203346D02*
D03*
Y43110D02*
D03*
X200787D02*
D03*
X198228D02*
D03*
X214782Y66572D02*
D03*
X217341D02*
D03*
X219900D02*
D03*
Y58304D02*
D03*
X217341D02*
D03*
X214782D02*
D03*
D26*
X204961Y36417D02*
D03*
X198268D02*
D03*
X8530Y4769D02*
D03*
X15223D02*
D03*
X8530Y16696D02*
D03*
X15223D02*
D03*
X8530Y10865D02*
D03*
X15223D02*
D03*
X229220Y74254D02*
D03*
Y86065D02*
D03*
X228895Y39370D02*
D03*
Y51181D02*
D03*
D27*
X60827Y15905D02*
D03*
X69095Y19685D02*
D03*
X60827Y23465D02*
D03*
D28*
X40964Y11162D02*
D03*
X52775D02*
D03*
X214763Y48622D02*
D03*
Y41929D02*
D03*
Y76813D02*
D03*
Y83506D02*
D03*
X30512Y109843D02*
D03*
Y116535D02*
D03*
X30387Y142152D02*
D03*
Y135459D02*
D03*
D29*
X203116Y77737D02*
D03*
X182250D02*
D03*
D30*
X181361Y96315D02*
D03*
X188448D02*
D03*
X184904Y104189D02*
D03*
D31*
X204341Y144481D02*
D03*
Y127552D02*
D03*
D32*
X180987Y146333D02*
D03*
Y127003D02*
D03*
M02*
