G04*
G04 #@! TF.GenerationSoftware,Altium Limited,Altium Designer,24.5.2 (23)*
G04*
G04 Layer_Physical_Order=2*
G04 Layer_Color=16711680*
%FSLAX25Y25*%
%MOIN*%
G70*
G04*
G04 #@! TF.SameCoordinates,C9A36013-1EDC-4BB1-827E-2851C72F543B*
G04*
G04*
G04 #@! TF.FilePolarity,Positive*
G04*
G01*
G75*
%ADD62C,0.03150*%
%ADD63C,0.01575*%
%ADD65C,0.03937*%
%ADD67C,0.01378*%
%ADD70C,0.04803*%
%ADD71R,0.04803X0.04803*%
%ADD72R,0.04803X0.04803*%
%ADD73C,0.05906*%
%ADD74R,0.05906X0.05906*%
%ADD75C,0.05118*%
%ADD76C,0.05394*%
%ADD77R,0.05394X0.05394*%
%ADD78C,0.07677*%
%ADD79C,0.06063*%
%ADD80R,0.19685X0.07874*%
%ADD81R,0.07874X0.19685*%
%ADD82C,0.03937*%
%ADD83C,0.19685*%
%ADD84C,0.23622*%
G36*
X234213Y2007D02*
X83700D01*
Y7874D01*
X83547Y8642D01*
X83112Y9293D01*
X82461Y9728D01*
X81693Y9881D01*
X25685D01*
X23259Y12307D01*
Y81197D01*
X26191Y84129D01*
X26930Y83823D01*
Y74964D01*
X32068D01*
X32496Y74164D01*
X32224Y73756D01*
X32040Y72835D01*
Y18098D01*
X31869Y17801D01*
X31680Y17097D01*
Y16368D01*
X31869Y15664D01*
X32234Y15032D01*
X32749Y14517D01*
X33380Y14152D01*
X34084Y13964D01*
X34438D01*
X34901Y13872D01*
X69430D01*
X70352Y14055D01*
X71133Y14577D01*
X88317Y31762D01*
X88839Y32543D01*
X89023Y33465D01*
Y37290D01*
X89811Y37477D01*
X90505Y36439D01*
X91388Y35556D01*
X92426Y34862D01*
X93579Y34384D01*
X93762Y34348D01*
X93874Y33510D01*
X93340Y33201D01*
X92706Y32568D01*
X92258Y31792D01*
X92041Y30979D01*
X95428D01*
X98816D01*
X98598Y31792D01*
X98150Y32568D01*
X97517Y33201D01*
X96982Y33510D01*
X97095Y34348D01*
X97277Y34384D01*
X98431Y34862D01*
X99469Y35556D01*
X100352Y36439D01*
X101045Y37477D01*
X101523Y38630D01*
X101767Y39855D01*
Y41104D01*
X101575Y42067D01*
X102052Y42867D01*
X104331D01*
X105252Y43050D01*
X106034Y43573D01*
X110328Y47867D01*
X155384D01*
X155661Y47199D01*
X156371Y46135D01*
X157230Y45276D01*
X156371Y44417D01*
X155661Y43353D01*
X155171Y42170D01*
X154921Y40915D01*
Y39636D01*
X155171Y38381D01*
X155661Y37199D01*
X156371Y36135D01*
X157230Y35276D01*
X156371Y34417D01*
X155661Y33353D01*
X155171Y32170D01*
X154921Y30915D01*
Y29636D01*
X155171Y28381D01*
X155661Y27199D01*
X156371Y26135D01*
X157276Y25230D01*
X158340Y24519D01*
X159335Y24107D01*
X159462Y23548D01*
X159422Y23233D01*
X159232Y23123D01*
X158569Y22461D01*
X158101Y21649D01*
X157867Y20776D01*
X161417D01*
X164968D01*
X164734Y21649D01*
X164265Y22461D01*
X163603Y23123D01*
X163412Y23233D01*
X163373Y23548D01*
X163500Y24107D01*
X164494Y24519D01*
X165558Y25230D01*
X166463Y26135D01*
X167107Y27099D01*
X170379D01*
X170884Y26299D01*
X170693Y25338D01*
Y24032D01*
X170948Y22750D01*
X171210Y22119D01*
X170693Y21319D01*
X170693D01*
Y8051D01*
X196439D01*
Y21319D01*
X196439D01*
X195923Y22119D01*
X196184Y22750D01*
X196439Y24032D01*
Y25338D01*
X196184Y26620D01*
X195684Y27827D01*
X194958Y28914D01*
X194034Y29838D01*
X192948Y30564D01*
X191740Y31064D01*
X190459Y31319D01*
X189152D01*
X187911Y31072D01*
X186461Y32522D01*
X185803Y33027D01*
X185037Y33344D01*
X184215Y33452D01*
X167107D01*
X166463Y34417D01*
X165604Y35276D01*
X166463Y36135D01*
X167174Y37199D01*
X167584Y38189D01*
X168159Y38572D01*
X170010Y40424D01*
X170532Y41205D01*
X170716Y42127D01*
Y53211D01*
X170532Y54133D01*
X170010Y54914D01*
X168103Y56821D01*
X167322Y57343D01*
X167272Y57436D01*
X167664Y58381D01*
X167913Y59636D01*
Y60915D01*
X167664Y62170D01*
X167174Y63353D01*
X166463Y64417D01*
X165604Y65276D01*
X166463Y66135D01*
X167174Y67199D01*
X167664Y68381D01*
X167913Y69636D01*
Y70915D01*
X167664Y72170D01*
X167174Y73353D01*
X166463Y74417D01*
X165558Y75321D01*
X164494Y76032D01*
X163312Y76522D01*
X162057Y76772D01*
X160777D01*
X159522Y76522D01*
X158340Y76032D01*
X157276Y75321D01*
X156371Y74417D01*
X155661Y73353D01*
X155171Y72170D01*
X154921Y70915D01*
Y69636D01*
X155171Y68381D01*
X155661Y67199D01*
X156371Y66135D01*
X157230Y65276D01*
X156371Y64417D01*
X155661Y63353D01*
X155171Y62170D01*
X154921Y60915D01*
Y59636D01*
X155171Y58381D01*
X155249Y58192D01*
X154805Y57527D01*
X104301D01*
X103995Y58266D01*
X127687Y81958D01*
X128209Y82740D01*
X128393Y83661D01*
Y143405D01*
X128209Y144327D01*
X127687Y145108D01*
X112628Y160168D01*
X111846Y160690D01*
X110925Y160873D01*
X54548D01*
X54041Y161492D01*
X54134Y161959D01*
Y163316D01*
X53869Y164647D01*
X53350Y165901D01*
X52596Y167030D01*
X51636Y167989D01*
X50508Y168743D01*
X49254Y169263D01*
X47923Y169528D01*
X46565D01*
X45234Y169263D01*
X43981Y168743D01*
X42852Y167989D01*
X41892Y167030D01*
X41138Y165901D01*
X40619Y164647D01*
X40354Y163316D01*
Y161959D01*
X40619Y160628D01*
X41138Y159374D01*
X41892Y158246D01*
X42500Y157638D01*
X41892Y157030D01*
X41138Y155901D01*
X40619Y154648D01*
X40354Y153316D01*
Y151959D01*
X40619Y150628D01*
X41138Y149374D01*
X41892Y148246D01*
X42852Y147286D01*
X43981Y146532D01*
X44316Y146393D01*
X44477Y145461D01*
X44081Y145065D01*
X43561Y144164D01*
X43291Y143158D01*
Y143138D01*
X47244D01*
X51197D01*
Y143158D01*
X50928Y144164D01*
X50407Y145065D01*
X50011Y145461D01*
X50172Y146393D01*
X50508Y146532D01*
X51636Y147286D01*
X52596Y148246D01*
X53350Y149374D01*
X53869Y150628D01*
X54134Y151959D01*
Y153103D01*
X109239D01*
X121001Y141341D01*
Y85725D01*
X102427Y67151D01*
X101609Y67213D01*
X101211Y67877D01*
X101523Y68630D01*
X101767Y69855D01*
Y71104D01*
X101523Y72328D01*
X101045Y73482D01*
X100352Y74520D01*
X99469Y75403D01*
X98431Y76096D01*
X97277Y76574D01*
X96052Y76818D01*
X94804D01*
X93579Y76574D01*
X92426Y76096D01*
X91388Y75403D01*
X90505Y74520D01*
X89811Y73482D01*
X89333Y72328D01*
X89090Y71104D01*
Y69855D01*
X89333Y68630D01*
X89645Y67877D01*
X89166Y67077D01*
X87306D01*
X86477Y66912D01*
X86215Y66982D01*
X85677Y67269D01*
Y75439D01*
X86271Y75685D01*
X87309Y76379D01*
X88192Y77262D01*
X88886Y78300D01*
X89363Y79453D01*
X89607Y80678D01*
Y81927D01*
X89363Y83151D01*
X88886Y84305D01*
X88192Y85343D01*
X87309Y86226D01*
X86271Y86919D01*
X85117Y87397D01*
X83893Y87641D01*
X82644D01*
X81420Y87397D01*
X80266Y86919D01*
X79228Y86226D01*
X78816Y85814D01*
X78268Y85401D01*
X77720Y85814D01*
X77309Y86226D01*
X76271Y86919D01*
X75117Y87397D01*
X73893Y87641D01*
X72644D01*
X71420Y87397D01*
X71001Y87224D01*
X70283Y87792D01*
X70139Y88520D01*
X69616Y89302D01*
X63711Y95207D01*
X62930Y95729D01*
X62008Y95912D01*
X58452D01*
X58155Y96084D01*
X57451Y96272D01*
X56722D01*
X56018Y96084D01*
X55387Y95719D01*
X54871Y95204D01*
X54507Y94573D01*
X54318Y93868D01*
Y93139D01*
X54507Y92435D01*
X54871Y91804D01*
X55387Y91289D01*
X56018Y90924D01*
X56722Y90735D01*
X57451D01*
X58155Y90924D01*
X58452Y91096D01*
X61010D01*
X63665Y88441D01*
X63334Y87641D01*
X62644D01*
X61420Y87397D01*
X60266Y86919D01*
X59228Y86226D01*
X58816Y85814D01*
X58268Y85401D01*
X57720Y85814D01*
X57309Y86226D01*
X56271Y86919D01*
X55117Y87397D01*
X53893Y87641D01*
X52644D01*
X51420Y87397D01*
X50266Y86919D01*
X49228Y86226D01*
X48816Y85814D01*
X48268Y85401D01*
X47720Y85814D01*
X47309Y86226D01*
X46271Y86919D01*
X45117Y87397D01*
X43893Y87641D01*
X42644D01*
X41594Y87432D01*
X40794Y87868D01*
Y91522D01*
X58790Y109517D01*
X59312Y110299D01*
X59495Y111221D01*
Y134843D01*
X59312Y135764D01*
X58790Y136546D01*
X55734Y139601D01*
X54953Y140123D01*
X54031Y140306D01*
X51262D01*
X50862Y140999D01*
X50928Y141112D01*
X51197Y142117D01*
Y142138D01*
X47244D01*
X43291D01*
Y142117D01*
X43561Y141112D01*
X43626Y140999D01*
X43226Y140306D01*
X37906D01*
X35596Y142616D01*
X35349Y142987D01*
X34426Y143909D01*
X33645Y144431D01*
X32723Y144615D01*
X26022D01*
X25725Y144786D01*
X25021Y144975D01*
X24292D01*
X23587Y144786D01*
X22956Y144422D01*
X22441Y143906D01*
X22076Y143275D01*
X21888Y142571D01*
Y141842D01*
X22040Y141271D01*
X21799Y140871D01*
X21482Y140567D01*
X20970Y140668D01*
X19439D01*
X17937Y140369D01*
X16522Y139783D01*
X15248Y138932D01*
X15138Y138823D01*
X14246Y139062D01*
X14158Y139390D01*
X13627Y140309D01*
X12877Y141060D01*
X11958Y141590D01*
X10932Y141865D01*
X10902D01*
Y137834D01*
Y133802D01*
X10932D01*
X11682Y134003D01*
X11994Y133859D01*
X12286Y133623D01*
X12429Y133425D01*
Y132127D01*
X12728Y130625D01*
X13314Y129210D01*
X14045Y128116D01*
X13314Y127023D01*
X12728Y125607D01*
X12650Y125214D01*
X12434Y125099D01*
X11088Y125367D01*
X9715D01*
X8369Y125099D01*
X7101Y124574D01*
X5959Y123811D01*
X4989Y122841D01*
X4226Y121699D01*
X3701Y120431D01*
X3433Y119085D01*
Y117712D01*
X3701Y116366D01*
X4226Y115098D01*
X4989Y113956D01*
X5959Y112986D01*
X7101Y112223D01*
X8369Y111698D01*
X9715Y111430D01*
X11088D01*
X12434Y111698D01*
X13702Y112223D01*
X14844Y112986D01*
X15814Y113956D01*
X16577Y115098D01*
X17047Y116231D01*
X17937Y115863D01*
X19439Y115564D01*
X20970D01*
X22473Y115863D01*
X23888Y116449D01*
X25161Y117300D01*
X26244Y118383D01*
X27095Y119656D01*
X27681Y121071D01*
X27980Y122573D01*
Y124105D01*
X27681Y125607D01*
X27095Y127023D01*
X26365Y128116D01*
X27095Y129210D01*
X27681Y130625D01*
X27980Y132127D01*
Y133659D01*
X27681Y135161D01*
X27095Y136576D01*
X26244Y137849D01*
X25386Y138707D01*
X25518Y139462D01*
X25607Y139595D01*
X25725Y139626D01*
X26022Y139798D01*
X31715D01*
X31943Y139458D01*
X35206Y136195D01*
X35987Y135672D01*
X36909Y135489D01*
X40354D01*
Y125748D01*
X43670D01*
Y111717D01*
X28740Y96787D01*
X27872Y97050D01*
X27681Y98009D01*
X27095Y99424D01*
X26244Y100698D01*
X25161Y101781D01*
X23888Y102632D01*
X22473Y103218D01*
X20970Y103516D01*
X19439D01*
X17937Y103218D01*
X16522Y102632D01*
X15248Y101781D01*
X15138Y101671D01*
X14246Y101910D01*
X14158Y102238D01*
X13627Y103157D01*
X12877Y103908D01*
X11958Y104439D01*
X10932Y104713D01*
X10902D01*
Y100682D01*
Y96650D01*
X10932D01*
X11682Y96851D01*
X11994Y96707D01*
X12286Y96471D01*
X12429Y96273D01*
Y94975D01*
X12728Y93473D01*
X13314Y92058D01*
X14165Y90784D01*
X15248Y89701D01*
X16522Y88850D01*
X17937Y88264D01*
X18896Y88073D01*
X19159Y87205D01*
X17158Y85204D01*
X16590Y84464D01*
X16233Y83602D01*
X16111Y82677D01*
Y10827D01*
X16130Y10681D01*
X15429Y9881D01*
X9843D01*
X9075Y9728D01*
X8423Y9293D01*
X7988Y8642D01*
X7835Y7874D01*
Y2007D01*
X6352D01*
X6021Y2807D01*
X6312Y3099D01*
X6703Y3776D01*
X6876Y4421D01*
X3937D01*
Y5421D01*
X6876D01*
X6703Y6067D01*
X6312Y6744D01*
X5760Y7297D01*
X5560Y7412D01*
Y8336D01*
X5760Y8451D01*
X6312Y9004D01*
X6703Y9681D01*
X6876Y10327D01*
X3937D01*
Y11327D01*
X6876D01*
X6703Y11973D01*
X6312Y12650D01*
X5760Y13202D01*
X5560Y13318D01*
Y14241D01*
X5760Y14357D01*
X6312Y14910D01*
X6703Y15586D01*
X6876Y16232D01*
X3937D01*
Y16732D01*
X3437D01*
Y19671D01*
X2973Y19547D01*
X2560Y19967D01*
X2446Y20199D01*
X2642Y20492D01*
X2795Y21260D01*
Y73228D01*
X2642Y73996D01*
X2207Y74648D01*
X2007Y74781D01*
Y194843D01*
X179175D01*
Y191144D01*
X200860D01*
Y194843D01*
X234213D01*
Y2007D01*
D02*
G37*
G36*
X48816Y76790D02*
X49228Y76379D01*
X50266Y75685D01*
X51420Y75207D01*
X52644Y74964D01*
X53893D01*
X53940Y74973D01*
X54558Y74466D01*
Y74328D01*
X54761Y73573D01*
X55152Y72896D01*
X55704Y72343D01*
X56381Y71953D01*
X57027Y71780D01*
Y74719D01*
X58027D01*
Y71780D01*
X58673Y71953D01*
X59350Y72343D01*
X59902Y72896D01*
X60293Y73573D01*
X60496Y74328D01*
Y74724D01*
X61221Y75289D01*
X61420Y75207D01*
X62644Y74964D01*
X63893D01*
X64705Y75125D01*
X65505Y74577D01*
Y63006D01*
X63239Y60739D01*
X62908Y60651D01*
X62277Y60286D01*
X61761Y59771D01*
X61397Y59140D01*
X61208Y58435D01*
Y57706D01*
X61397Y57002D01*
X61761Y56371D01*
X62277Y55856D01*
X62908Y55491D01*
X63612Y55302D01*
X64341D01*
X65045Y55491D01*
X65676Y55856D01*
X66192Y56371D01*
X66556Y57002D01*
X66645Y57333D01*
X69616Y60305D01*
X70139Y61086D01*
X70322Y62008D01*
Y74942D01*
X70987Y75386D01*
X71420Y75207D01*
X72644Y74964D01*
X73893D01*
X75117Y75207D01*
X76271Y75685D01*
X77309Y76379D01*
X77720Y76790D01*
X78268Y77204D01*
X78816Y76790D01*
X79228Y76379D01*
X80266Y75685D01*
X80860Y75439D01*
Y66549D01*
X73835Y59525D01*
X71880D01*
X70958Y59341D01*
X70177Y58819D01*
X62255Y50897D01*
X61923Y50808D01*
X61292Y50444D01*
X60777Y49928D01*
X60412Y49297D01*
X60224Y48593D01*
Y47864D01*
X60412Y47160D01*
X60777Y46528D01*
X61292Y46013D01*
X61851Y45690D01*
X61938Y45551D01*
X62050Y44787D01*
X57352Y40089D01*
X56830Y39307D01*
X56647Y38386D01*
Y34830D01*
X56475Y34533D01*
X56287Y33829D01*
Y33100D01*
X56475Y32396D01*
X56840Y31765D01*
X57355Y31249D01*
X57986Y30885D01*
X58691Y30696D01*
X59155D01*
X59480Y30631D01*
X68473D01*
X69395Y30815D01*
X70176Y31337D01*
X81706Y42867D01*
X84080D01*
X84412Y42067D01*
X84399Y42054D01*
X84034Y41423D01*
X83846Y40719D01*
Y39990D01*
X84034Y39286D01*
X84206Y38989D01*
Y34462D01*
X68432Y18689D01*
X36857D01*
Y71837D01*
X40089Y75069D01*
X40450Y75609D01*
X41420Y75207D01*
X42644Y74964D01*
X43893D01*
X45117Y75207D01*
X46271Y75685D01*
X47309Y76379D01*
X47720Y76790D01*
X48268Y77204D01*
X48816Y76790D01*
D02*
G37*
G36*
X81693Y2007D02*
X9843D01*
Y7874D01*
X81693D01*
Y2007D01*
D02*
G37*
%LPC*%
G36*
X200860Y190144D02*
X190517D01*
Y185707D01*
X200860D01*
Y190144D01*
D02*
G37*
G36*
X206765Y182982D02*
X202328D01*
Y172640D01*
X206765D01*
Y182982D01*
D02*
G37*
G36*
X201328D02*
X196891D01*
Y172640D01*
X201328D01*
Y182982D01*
D02*
G37*
G36*
X157255Y192574D02*
X155579D01*
X153925Y192312D01*
X152332Y191795D01*
X150839Y191034D01*
X149484Y190050D01*
X148299Y188865D01*
X147315Y187510D01*
X146554Y186017D01*
X146037Y184424D01*
X145774Y182769D01*
Y181094D01*
X146037Y179440D01*
X146554Y177847D01*
X147315Y176354D01*
X148299Y174999D01*
X149484Y173814D01*
X150839Y172829D01*
X152332Y172069D01*
X153925Y171551D01*
X155579Y171289D01*
X157255D01*
X158909Y171551D01*
X160502Y172069D01*
X161995Y172829D01*
X163350Y173814D01*
X164535Y174999D01*
X165519Y176354D01*
X166280Y177847D01*
X166797Y179440D01*
X167060Y181094D01*
Y182769D01*
X166797Y184424D01*
X166280Y186017D01*
X165519Y187510D01*
X164535Y188865D01*
X163350Y190050D01*
X161995Y191034D01*
X160502Y191795D01*
X158909Y192312D01*
X157255Y192574D01*
D02*
G37*
G36*
X76546D02*
X74871D01*
X73216Y192312D01*
X71623Y191795D01*
X70130Y191034D01*
X68775Y190050D01*
X67591Y188865D01*
X66606Y187510D01*
X65846Y186017D01*
X65328Y184424D01*
X65066Y182769D01*
Y181094D01*
X65328Y179440D01*
X65846Y177847D01*
X66606Y176354D01*
X67591Y174999D01*
X68775Y173814D01*
X70130Y172829D01*
X71623Y172069D01*
X73216Y171551D01*
X74871Y171289D01*
X76546D01*
X78201Y171551D01*
X79794Y172069D01*
X81286Y172829D01*
X82642Y173814D01*
X83826Y174999D01*
X84811Y176354D01*
X85571Y177847D01*
X86089Y179440D01*
X86351Y181094D01*
Y182769D01*
X86089Y184424D01*
X85571Y186017D01*
X84811Y187510D01*
X83826Y188865D01*
X82642Y190050D01*
X81286Y191034D01*
X79794Y191795D01*
X78201Y192312D01*
X76546Y192574D01*
D02*
G37*
G36*
X16740Y193713D02*
X14755D01*
X12795Y193403D01*
X10907Y192789D01*
X9138Y191888D01*
X7532Y190721D01*
X6129Y189318D01*
X4962Y187712D01*
X4061Y185943D01*
X3447Y184055D01*
X3137Y182095D01*
Y180110D01*
X3447Y178149D01*
X4061Y176261D01*
X4962Y174493D01*
X6129Y172887D01*
X7532Y171483D01*
X9138Y170316D01*
X10907Y169415D01*
X12795Y168802D01*
X14755Y168491D01*
X16740D01*
X17338Y168586D01*
X17557Y167811D01*
X16522Y167382D01*
X15248Y166531D01*
X14165Y165448D01*
X13314Y164174D01*
X12728Y162759D01*
X12650Y162366D01*
X12434Y162251D01*
X11088Y162519D01*
X9715D01*
X8369Y162251D01*
X7101Y161726D01*
X5959Y160963D01*
X4989Y159992D01*
X4226Y158851D01*
X3701Y157583D01*
X3433Y156237D01*
Y154864D01*
X3701Y153517D01*
X4226Y152249D01*
X4989Y151108D01*
X5959Y150137D01*
X7101Y149375D01*
X8369Y148849D01*
X9715Y148582D01*
X11088D01*
X12434Y148849D01*
X13702Y149375D01*
X14844Y150137D01*
X15814Y151108D01*
X16577Y152249D01*
X17047Y153383D01*
X17937Y153014D01*
X19439Y152716D01*
X20970D01*
X22473Y153014D01*
X23888Y153601D01*
X25161Y154451D01*
X26244Y155534D01*
X27095Y156808D01*
X27681Y158223D01*
X27980Y159725D01*
Y161257D01*
X27681Y162759D01*
X27095Y164174D01*
X26244Y165448D01*
X25161Y166531D01*
X23888Y167382D01*
X22473Y167968D01*
X20970Y168267D01*
X19643D01*
X19516Y169067D01*
X20589Y169415D01*
X22358Y170316D01*
X23964Y171483D01*
X25367Y172887D01*
X26534Y174493D01*
X27435Y176261D01*
X28049Y178149D01*
X28359Y180110D01*
Y182095D01*
X28049Y184055D01*
X27435Y185943D01*
X26534Y187712D01*
X25367Y189318D01*
X23964Y190721D01*
X22358Y191888D01*
X20589Y192789D01*
X18701Y193403D01*
X16740Y193713D01*
D02*
G37*
G36*
X206765Y171640D02*
X202328D01*
Y161297D01*
X206765D01*
Y171640D01*
D02*
G37*
G36*
X201328D02*
X196891D01*
Y161297D01*
X201328D01*
Y171640D01*
D02*
G37*
G36*
X189517Y190144D02*
X179175D01*
Y185919D01*
X169545D01*
Y158360D01*
X185293D01*
Y185707D01*
X189517D01*
Y190144D01*
D02*
G37*
G36*
X9901Y141865D02*
X9871D01*
X8845Y141590D01*
X7926Y141060D01*
X7175Y140309D01*
X6645Y139390D01*
X6370Y138364D01*
Y138334D01*
X9901D01*
Y141865D01*
D02*
G37*
G36*
X225013Y137972D02*
X224993D01*
Y134520D01*
X228445D01*
Y134540D01*
X228176Y135546D01*
X227656Y136447D01*
X226920Y137183D01*
X226018Y137703D01*
X225013Y137972D01*
D02*
G37*
G36*
X223993D02*
X223972D01*
X222967Y137703D01*
X222066Y137183D01*
X221330Y136447D01*
X220809Y135546D01*
X220540Y134540D01*
Y134520D01*
X223993D01*
Y137972D01*
D02*
G37*
G36*
X9901Y137334D02*
X6370D01*
Y137303D01*
X6645Y136277D01*
X7175Y135358D01*
X7926Y134608D01*
X8845Y134077D01*
X9871Y133802D01*
X9901D01*
Y137334D01*
D02*
G37*
G36*
X228445Y133520D02*
X224493D01*
X220540D01*
Y133499D01*
X220809Y132494D01*
X221224Y131775D01*
X220352Y131192D01*
X219447Y130287D01*
X218736Y129223D01*
X218246Y128041D01*
X217997Y126786D01*
Y125506D01*
X218246Y124251D01*
X218736Y123069D01*
X219310Y122209D01*
X218736Y121349D01*
X218246Y120167D01*
X217997Y118912D01*
Y117632D01*
X218246Y116377D01*
X218736Y115195D01*
X219310Y114335D01*
X218736Y113475D01*
X218246Y112293D01*
X217997Y111038D01*
Y109758D01*
X218246Y108503D01*
X218736Y107321D01*
X219447Y106257D01*
X220352Y105352D01*
X221224Y104769D01*
X220809Y104049D01*
X220540Y103044D01*
Y103024D01*
X224493D01*
X228445D01*
Y103044D01*
X228176Y104049D01*
X227761Y104769D01*
X228634Y105352D01*
X229538Y106257D01*
X230249Y107321D01*
X230739Y108503D01*
X230989Y109758D01*
Y111038D01*
X230739Y112293D01*
X230249Y113475D01*
X229675Y114335D01*
X230249Y115195D01*
X230739Y116377D01*
X230989Y117632D01*
Y118912D01*
X230739Y120167D01*
X230249Y121349D01*
X229675Y122209D01*
X230249Y123069D01*
X230739Y124251D01*
X230989Y125506D01*
Y126786D01*
X230739Y128041D01*
X230249Y129223D01*
X229538Y130287D01*
X228634Y131192D01*
X227761Y131775D01*
X228176Y132494D01*
X228445Y133499D01*
Y133520D01*
D02*
G37*
G36*
X9901Y104713D02*
X9871D01*
X8845Y104439D01*
X7926Y103908D01*
X7175Y103157D01*
X6645Y102238D01*
X6370Y101213D01*
Y101182D01*
X9901D01*
Y104713D01*
D02*
G37*
G36*
X228445Y102024D02*
X224993D01*
Y98571D01*
X225013D01*
X226018Y98840D01*
X226920Y99361D01*
X227656Y100097D01*
X228176Y100998D01*
X228445Y102003D01*
Y102024D01*
D02*
G37*
G36*
X223993D02*
X220540D01*
Y102003D01*
X220809Y100998D01*
X221330Y100097D01*
X222066Y99361D01*
X222967Y98840D01*
X223972Y98571D01*
X223993D01*
Y102024D01*
D02*
G37*
G36*
X9901Y100182D02*
X6370D01*
Y100151D01*
X6645Y99126D01*
X7175Y98207D01*
X7926Y97456D01*
X8845Y96925D01*
X9871Y96650D01*
X9901D01*
Y100182D01*
D02*
G37*
G36*
X157255Y111866D02*
X155579D01*
X153925Y111604D01*
X152332Y111086D01*
X150839Y110326D01*
X149484Y109341D01*
X148299Y108156D01*
X147315Y106801D01*
X146554Y105308D01*
X146037Y103715D01*
X145774Y102061D01*
Y100386D01*
X146037Y98731D01*
X146554Y97138D01*
X147315Y95645D01*
X148299Y94290D01*
X149484Y93106D01*
X150839Y92121D01*
X152332Y91360D01*
X153925Y90843D01*
X155579Y90581D01*
X157255D01*
X158909Y90843D01*
X160502Y91360D01*
X161995Y92121D01*
X163350Y93106D01*
X164535Y94290D01*
X165519Y95645D01*
X166280Y97138D01*
X166797Y98731D01*
X167060Y100386D01*
Y102061D01*
X166797Y103715D01*
X166280Y105308D01*
X165519Y106801D01*
X164535Y108156D01*
X163350Y109341D01*
X161995Y110326D01*
X160502Y111086D01*
X158909Y111604D01*
X157255Y111866D01*
D02*
G37*
G36*
X76546D02*
X74871D01*
X73216Y111604D01*
X71623Y111086D01*
X70130Y110326D01*
X68775Y109341D01*
X67591Y108156D01*
X66606Y106801D01*
X65846Y105308D01*
X65328Y103715D01*
X65066Y102061D01*
Y100386D01*
X65328Y98731D01*
X65846Y97138D01*
X66606Y95645D01*
X67591Y94290D01*
X68775Y93106D01*
X70130Y92121D01*
X71623Y91360D01*
X73216Y90843D01*
X74871Y90581D01*
X76546D01*
X78201Y90843D01*
X79794Y91360D01*
X81286Y92121D01*
X82642Y93106D01*
X83826Y94290D01*
X84811Y95645D01*
X85571Y97138D01*
X86089Y98731D01*
X86351Y100386D01*
Y102061D01*
X86089Y103715D01*
X85571Y105308D01*
X84811Y106801D01*
X83826Y108156D01*
X82642Y109341D01*
X81286Y110326D01*
X79794Y111086D01*
X78201Y111604D01*
X76546Y111866D01*
D02*
G37*
G36*
X203022Y99323D02*
X202293D01*
X201589Y99135D01*
X200958Y98770D01*
X200442Y98255D01*
X200078Y97624D01*
X199889Y96919D01*
Y96191D01*
X200078Y95486D01*
X200442Y94855D01*
X200958Y94340D01*
X201589Y93975D01*
X202293Y93787D01*
X203022D01*
X203726Y93975D01*
X204027Y94149D01*
X217548D01*
X218292Y93405D01*
Y89241D01*
X217492Y89136D01*
X217333Y89728D01*
X216942Y90405D01*
X216390Y90958D01*
X215713Y91349D01*
X215067Y91522D01*
Y88583D01*
Y85643D01*
X215713Y85817D01*
X216390Y86207D01*
X216942Y86760D01*
X217333Y87437D01*
X217492Y88029D01*
X218292Y87924D01*
Y73959D01*
X218020Y73489D01*
X217831Y72785D01*
Y72056D01*
X218020Y71351D01*
X218385Y70720D01*
X218900Y70205D01*
X219531Y69840D01*
X220235Y69652D01*
X220965D01*
X221669Y69840D01*
X222300Y70205D01*
X222815Y70720D01*
X223180Y71351D01*
X223369Y72056D01*
Y72785D01*
X223180Y73489D01*
X222908Y73959D01*
Y94361D01*
X222732Y95244D01*
X222232Y95993D01*
X222232Y95993D01*
X220136Y98089D01*
X219387Y98589D01*
X218504Y98765D01*
X204363D01*
X204358Y98770D01*
X203726Y99135D01*
X203022Y99323D01*
D02*
G37*
G36*
X214067Y91522D02*
X213421Y91349D01*
X212744Y90958D01*
X212192Y90405D01*
X211801Y89728D01*
X211628Y89083D01*
X214067D01*
Y91522D01*
D02*
G37*
G36*
X187492Y88569D02*
X186846Y88396D01*
X186169Y88005D01*
X186070Y87906D01*
X185531Y87515D01*
X184993Y87906D01*
X184894Y88005D01*
X184217Y88396D01*
X183571Y88569D01*
Y85630D01*
Y82691D01*
X184217Y82864D01*
X184894Y83254D01*
X184993Y83354D01*
X185531Y83745D01*
X186070Y83354D01*
X186169Y83254D01*
X186846Y82864D01*
X187492Y82691D01*
Y85630D01*
Y88569D01*
D02*
G37*
G36*
X188492D02*
Y86130D01*
X190931D01*
X190758Y86776D01*
X190367Y87453D01*
X189815Y88005D01*
X189138Y88396D01*
X188492Y88569D01*
D02*
G37*
G36*
X182571D02*
X181925Y88396D01*
X181248Y88005D01*
X180695Y87453D01*
X180305Y86776D01*
X180132Y86130D01*
X182571D01*
Y88569D01*
D02*
G37*
G36*
X214067Y88083D02*
X211628D01*
X211801Y87437D01*
X212192Y86760D01*
X212744Y86207D01*
X213421Y85817D01*
X214067Y85643D01*
Y88083D01*
D02*
G37*
G36*
X182571Y85130D02*
X180132D01*
X180305Y84484D01*
X180695Y83807D01*
X181248Y83254D01*
X181925Y82864D01*
X182571Y82691D01*
Y85130D01*
D02*
G37*
G36*
X190931D02*
X188492D01*
Y82691D01*
X189138Y82864D01*
X189815Y83254D01*
X190367Y83807D01*
X190758Y84484D01*
X190931Y85130D01*
D02*
G37*
G36*
X188492Y73805D02*
Y71366D01*
X190931D01*
X190758Y72012D01*
X190367Y72689D01*
X189815Y73242D01*
X189138Y73632D01*
X188492Y73805D01*
D02*
G37*
G36*
X182571D02*
X181925Y73632D01*
X181248Y73242D01*
X180695Y72689D01*
X180305Y72012D01*
X180132Y71366D01*
X182571D01*
Y73805D01*
D02*
G37*
G36*
X190931Y70366D02*
X188492D01*
Y67927D01*
X189138Y68100D01*
X189815Y68491D01*
X190367Y69043D01*
X190758Y69720D01*
X190931Y70366D01*
D02*
G37*
G36*
X183571Y73805D02*
Y70866D01*
Y67927D01*
X184217Y68100D01*
X184894Y68491D01*
X184993Y68590D01*
X185531Y68981D01*
X186070Y68590D01*
X186169Y68491D01*
X186846Y68100D01*
X187492Y67927D01*
Y70866D01*
Y73805D01*
X186846Y73632D01*
X186169Y73242D01*
X186070Y73142D01*
X185531Y72751D01*
X184993Y73142D01*
X184894Y73242D01*
X184217Y73632D01*
X183571Y73805D01*
D02*
G37*
G36*
X182571Y70366D02*
X180132D01*
X180305Y69720D01*
X180695Y69043D01*
X181248Y68491D01*
X181925Y68100D01*
X182571Y67927D01*
Y70366D01*
D02*
G37*
G36*
X226780Y65376D02*
Y62937D01*
X229219D01*
X229046Y63583D01*
X228655Y64260D01*
X228102Y64812D01*
X227426Y65203D01*
X226780Y65376D01*
D02*
G37*
G36*
X225780D02*
X225134Y65203D01*
X224457Y64812D01*
X223904Y64260D01*
X223514Y63583D01*
X223340Y62937D01*
X225780D01*
Y65376D01*
D02*
G37*
G36*
X209063D02*
Y62937D01*
X211502D01*
X211329Y63583D01*
X210939Y64260D01*
X210386Y64812D01*
X209709Y65203D01*
X209063Y65376D01*
D02*
G37*
G36*
X208063D02*
X207417Y65203D01*
X206740Y64812D01*
X206188Y64260D01*
X205797Y63583D01*
X205624Y62937D01*
X208063D01*
Y65376D01*
D02*
G37*
G36*
X229219Y61937D02*
X226780D01*
Y59498D01*
X227426Y59671D01*
X228102Y60062D01*
X228655Y60614D01*
X229046Y61291D01*
X229219Y61937D01*
D02*
G37*
G36*
X225780D02*
X223340D01*
X223514Y61291D01*
X223904Y60614D01*
X224457Y60062D01*
X225134Y59671D01*
X225780Y59498D01*
Y61937D01*
D02*
G37*
G36*
X211502D02*
X209063D01*
Y59498D01*
X209709Y59671D01*
X210386Y60062D01*
X210939Y60614D01*
X211329Y61291D01*
X211502Y61937D01*
D02*
G37*
G36*
X208063D02*
X205624D01*
X205797Y61291D01*
X206188Y60614D01*
X206740Y60062D01*
X207417Y59671D01*
X208063Y59498D01*
Y61937D01*
D02*
G37*
G36*
X209161Y50183D02*
Y47744D01*
X211601D01*
X211428Y48390D01*
X211037Y49067D01*
X210484Y49619D01*
X209807Y50010D01*
X209161Y50183D01*
D02*
G37*
G36*
X208161D02*
X207516Y50010D01*
X206839Y49619D01*
X206286Y49067D01*
X205895Y48390D01*
X205722Y47744D01*
X208161D01*
Y50183D01*
D02*
G37*
G36*
X192429D02*
Y47744D01*
X194868D01*
X194695Y48390D01*
X194305Y49067D01*
X193752Y49619D01*
X193075Y50010D01*
X192429Y50183D01*
D02*
G37*
G36*
X191429D02*
X190783Y50010D01*
X190106Y49619D01*
X189554Y49067D01*
X189163Y48390D01*
X188990Y47744D01*
X191429D01*
Y50183D01*
D02*
G37*
G36*
X211601Y46744D02*
X209161D01*
Y44305D01*
X209807Y44478D01*
X210484Y44869D01*
X211037Y45421D01*
X211428Y46098D01*
X211601Y46744D01*
D02*
G37*
G36*
X208161D02*
X205722D01*
X205895Y46098D01*
X206286Y45421D01*
X206839Y44869D01*
X207516Y44478D01*
X208161Y44305D01*
Y46744D01*
D02*
G37*
G36*
X194868D02*
X192429D01*
Y44305D01*
X193075Y44478D01*
X193752Y44869D01*
X194305Y45421D01*
X194695Y46098D01*
X194868Y46744D01*
D02*
G37*
G36*
X191429D02*
X188990D01*
X189163Y46098D01*
X189554Y45421D01*
X190106Y44869D01*
X190783Y44478D01*
X191429Y44305D01*
Y46744D01*
D02*
G37*
G36*
X215325Y39848D02*
Y37409D01*
X217764D01*
X217591Y38055D01*
X217200Y38732D01*
X216648Y39284D01*
X215971Y39675D01*
X215325Y39848D01*
D02*
G37*
G36*
X214325D02*
X213679Y39675D01*
X213002Y39284D01*
X212450Y38732D01*
X212059Y38055D01*
X211886Y37409D01*
X214325D01*
Y39848D01*
D02*
G37*
G36*
X217764Y36409D02*
X215325D01*
Y33970D01*
X215971Y34143D01*
X216648Y34533D01*
X217200Y35086D01*
X217591Y35763D01*
X217764Y36409D01*
D02*
G37*
G36*
X214325D02*
X211886D01*
X212059Y35763D01*
X212450Y35086D01*
X213002Y34533D01*
X213679Y34143D01*
X214325Y33970D01*
Y36409D01*
D02*
G37*
G36*
X202193Y28378D02*
Y25185D01*
X205386D01*
X205138Y26112D01*
X204651Y26955D01*
X203963Y27643D01*
X203120Y28130D01*
X202193Y28378D01*
D02*
G37*
G36*
X201193D02*
X200266Y28130D01*
X199423Y27643D01*
X198735Y26955D01*
X198248Y26112D01*
X198000Y25185D01*
X201193D01*
Y28378D01*
D02*
G37*
G36*
X205386Y24185D02*
X202193D01*
Y20992D01*
X203120Y21240D01*
X203963Y21727D01*
X204651Y22415D01*
X205138Y23258D01*
X205386Y24185D01*
D02*
G37*
G36*
X201193D02*
X198000D01*
X198248Y23258D01*
X198735Y22415D01*
X199423Y21727D01*
X200266Y21240D01*
X201193Y20992D01*
Y24185D01*
D02*
G37*
G36*
X4437Y19671D02*
Y17232D01*
X6876D01*
X6703Y17878D01*
X6312Y18555D01*
X5760Y19108D01*
X5083Y19499D01*
X4437Y19671D01*
D02*
G37*
G36*
X164968Y19776D02*
X161917D01*
Y16725D01*
X162791Y16959D01*
X163603Y17428D01*
X164265Y18090D01*
X164734Y18902D01*
X164968Y19776D01*
D02*
G37*
G36*
X160917D02*
X157867D01*
X158101Y18902D01*
X158569Y18090D01*
X159232Y17428D01*
X160044Y16959D01*
X160917Y16725D01*
Y19776D01*
D02*
G37*
G36*
X205390Y18382D02*
X202193D01*
Y15185D01*
X205390D01*
Y18382D01*
D02*
G37*
G36*
X201193D02*
X197996D01*
Y15185D01*
X201193D01*
Y18382D01*
D02*
G37*
G36*
X98816Y29979D02*
X95428D01*
X92041D01*
X92258Y29166D01*
X92706Y28391D01*
X93340Y27757D01*
X93581Y27618D01*
X93367Y26818D01*
X89090D01*
Y14141D01*
X101767D01*
Y26818D01*
X97490D01*
X97275Y27618D01*
X97517Y27757D01*
X98150Y28391D01*
X98598Y29166D01*
X98816Y29979D01*
D02*
G37*
G36*
X205390Y14185D02*
X202193D01*
Y10988D01*
X205390D01*
Y14185D01*
D02*
G37*
G36*
X201193D02*
X197996D01*
Y10988D01*
X201193D01*
Y14185D01*
D02*
G37*
G36*
X221465Y28359D02*
X219480D01*
X217519Y28049D01*
X215632Y27435D01*
X213863Y26534D01*
X212257Y25367D01*
X210853Y23964D01*
X209686Y22358D01*
X208785Y20589D01*
X208172Y18701D01*
X207861Y16740D01*
Y14755D01*
X208172Y12795D01*
X208785Y10907D01*
X209686Y9138D01*
X210853Y7532D01*
X212257Y6129D01*
X213863Y4962D01*
X215632Y4061D01*
X217519Y3447D01*
X219480Y3137D01*
X221465D01*
X223426Y3447D01*
X225313Y4061D01*
X227082Y4962D01*
X228688Y6129D01*
X230092Y7532D01*
X231258Y9138D01*
X232159Y10907D01*
X232773Y12795D01*
X233084Y14755D01*
Y16740D01*
X232773Y18701D01*
X232159Y20589D01*
X231258Y22358D01*
X230092Y23964D01*
X228688Y25367D01*
X227082Y26534D01*
X225313Y27435D01*
X223426Y28049D01*
X221465Y28359D01*
D02*
G37*
%LPD*%
D62*
X184215Y30276D02*
X189805Y24685D01*
X161417Y30276D02*
X184215D01*
D63*
X38386Y76772D02*
Y92520D01*
X34449Y16732D02*
Y72835D01*
X38386Y76772D01*
Y92520D02*
X57087Y111221D01*
X34449Y16732D02*
X34901Y16280D01*
X69430D01*
X36909Y137898D02*
X54031D01*
X57087Y134843D01*
X33646Y141161D02*
X36909Y137898D01*
X32723Y142206D02*
X33646Y141284D01*
Y141161D02*
Y141284D01*
X67913Y62008D02*
Y87598D01*
X57087Y93504D02*
X62008D01*
X67913Y87598D01*
X63976Y58071D02*
X67913Y62008D01*
X69430Y16280D02*
X86614Y33465D01*
X57087Y111221D02*
Y134843D01*
X24656Y142206D02*
X32723D01*
X110236Y155512D02*
X123409Y142339D01*
X110925Y158465D02*
X125984Y143405D01*
X50332Y155512D02*
X110236D01*
X47458Y152638D02*
X50332Y155512D01*
X47244Y162638D02*
X51417Y158465D01*
X110925D01*
X47244Y152638D02*
X47458D01*
X125984Y83661D02*
Y143405D01*
X97441Y55118D02*
X125984Y83661D01*
X103350Y64668D02*
X123409Y84728D01*
Y142339D01*
X97441Y55118D02*
X166400D01*
X82677D02*
X97441D01*
X87306Y64668D02*
X103350D01*
X59055Y33465D02*
Y38386D01*
X63976Y43307D01*
X65945D01*
X64961Y37402D02*
X82677Y55118D01*
X65945Y43307D02*
X87306Y64668D01*
X71880Y57116D02*
X74833D01*
X62992Y48228D02*
X71880Y57116D01*
X74833D02*
X83268Y65552D01*
X166400Y55118D02*
X168307Y53211D01*
Y42127D02*
Y53211D01*
X161417Y40276D02*
X166456D01*
X168307Y42127D01*
X83268Y65552D02*
Y81302D01*
X59055Y33465D02*
X59480Y33040D01*
X68473D01*
X80709Y45276D01*
X104331D02*
X109331Y50276D01*
X161417D01*
X80709Y45276D02*
X104331D01*
X86614Y33465D02*
Y40354D01*
D65*
X19685Y82677D02*
X47244Y110236D01*
Y132638D01*
X19685Y10827D02*
Y82677D01*
Y10827D02*
X25591Y4921D01*
X37402Y142717D02*
X37480Y142638D01*
X47244D01*
X55039D01*
X55118Y142717D01*
D67*
X202756Y96457D02*
X218504D01*
X202658Y96555D02*
X202756Y96457D01*
X218504D02*
X220600Y94361D01*
Y72420D02*
Y94361D01*
D70*
X83268Y81302D02*
D03*
X73269D02*
D03*
X63269D02*
D03*
X53268D02*
D03*
X43268D02*
D03*
X95428Y70479D02*
D03*
Y60479D02*
D03*
Y50479D02*
D03*
Y40479D02*
D03*
Y30479D02*
D03*
D71*
X33268Y81302D02*
D03*
D72*
X95428Y20479D02*
D03*
D73*
X47244Y162638D02*
D03*
Y152638D02*
D03*
Y142638D02*
D03*
X224493Y102524D02*
D03*
Y134020D02*
D03*
D74*
X47244Y132638D02*
D03*
D75*
X161417Y70276D02*
D03*
Y60276D02*
D03*
Y50276D02*
D03*
Y40276D02*
D03*
Y30276D02*
D03*
Y20276D02*
D03*
X224493Y110398D02*
D03*
Y118272D02*
D03*
Y126146D02*
D03*
D76*
X177327Y24685D02*
D03*
X189805D02*
D03*
X201693D02*
D03*
D77*
X177327Y14685D02*
D03*
X189805D02*
D03*
X201693D02*
D03*
D78*
X20205Y132893D02*
D03*
Y160491D02*
D03*
Y95741D02*
D03*
Y123339D02*
D03*
D79*
X10402Y137834D02*
D03*
Y155550D02*
D03*
Y100682D02*
D03*
Y118398D02*
D03*
D80*
X190017Y190644D02*
D03*
D81*
X201828Y172140D02*
D03*
X177419D02*
D03*
D82*
X3937Y10827D02*
D03*
X34449Y16732D02*
D03*
X57527Y74719D02*
D03*
X57087Y93504D02*
D03*
X24656Y142206D02*
D03*
X63976Y58071D02*
D03*
X64961Y37402D02*
D03*
X62992Y48228D02*
D03*
X59055Y33465D02*
D03*
X3937Y4921D02*
D03*
Y16732D02*
D03*
X86614Y40354D02*
D03*
X208661Y47244D02*
D03*
X191929D02*
D03*
X214825Y36909D02*
D03*
X187992Y85630D02*
D03*
X183071Y70866D02*
D03*
X187992D02*
D03*
X183071Y85630D02*
D03*
X208563Y62437D02*
D03*
X226280D02*
D03*
X220600Y72420D02*
D03*
X202658Y96555D02*
D03*
X214567Y88583D02*
D03*
D83*
X75708Y181932D02*
D03*
X156417D02*
D03*
Y101223D02*
D03*
X75708D02*
D03*
D84*
X15748Y181102D02*
D03*
X220472Y15748D02*
D03*
M02*
