G04*
G04 #@! TF.GenerationSoftware,Altium Limited,Altium Designer,24.5.2 (23)*
G04*
G04 Layer_Color=255*
%FSLAX25Y25*%
%MOIN*%
G70*
G04*
G04 #@! TF.SameCoordinates,C9A36013-1EDC-4BB1-827E-2851C72F543B*
G04*
G04*
G04 #@! TF.FilePolarity,Positive*
G04*
G01*
G75*
%ADD19R,0.03150X0.01575*%
%ADD20R,0.01575X0.03150*%
%ADD21R,0.04016X0.03701*%
%ADD22R,0.03701X0.04016*%
%ADD23R,0.03937X0.05512*%
%ADD24R,0.06693X0.04331*%
%ADD25R,0.01378X0.02362*%
%ADD26R,0.03543X0.03937*%
%ADD27R,0.04331X0.02559*%
%ADD28R,0.03937X0.03543*%
%ADD29R,0.13780X0.07284*%
%ADD30R,0.03150X0.03543*%
%ADD31R,0.06102X0.09252*%
%ADD32R,0.11024X0.08465*%
%AMCUSTOMSHAPE61*
4,1,109,0.07875,-0.07874,0.03938,-0.07874,0.03938,-0.03937,0.04931,-0.03937,0.04931,-0.01956,0.04940,-0.01947,0.03941,-0.01947,0.03941,0.01965,0.03938,0.01968,0.04813,0.01968,0.04867,0.02022,0.04867,0.03990,0.03991,0.03990,0.03938,0.03937,0.03938,0.04933,0.03940,0.04936,0.01991,0.04936,0.01969,0.04959,0.01969,0.03937,0.01969,0.03937,0.00983,0.03937,0.00983,0.02016,0.01040,0.01958,0.01892,0.01958,0.01939,0.02006,0.01939,-0.02000,0.01932,-0.01992,0.01001,-0.01992,0.00962,-0.02031,0.00962,-0.03940,0.00964,-0.03937,0.01969,-0.03937,0.01969,-0.07874,-0.01968,-0.07874,-0.01968,-0.03937,-0.01915,-0.03884,-0.00986,-0.03884,-0.00978,-0.03876,-0.00978,-0.01976,-0.01956,-0.01976,-0.01988,-0.01945,-0.01988,0.01934,-0.01963,0.01959,-0.01033,0.01959,-0.00954,0.02037,-0.00954,0.03922,-0.00970,0.03938,-0.01967,0.03938,-0.01968,0.03937,-0.01968,0.04912,-0.01987,0.04931,-0.03942,0.04931,-0.03942,0.03943,-0.04915,0.03943,-0.04921,0.03937,-0.04921,0.01951,-0.03954,0.01951,-0.03937,0.01968,-0.03937,-0.01969,-0.04923,-0.01969,-0.04976,-0.01915,-0.04976,-0.03882,-0.03992,-0.03882,-0.03937,-0.03937,-0.03937,-0.07874,-0.05511,-0.07874,-0.07874,-0.05512,-0.07874,-0.03937,-0.06889,-0.03937,-0.06892,-0.03934,-0.06892,-0.01967,-0.07869,-0.01967,-0.07874,-0.01963,-0.07874,0.01968,-0.07873,0.01969,-0.06882,0.01969,-0.06884,0.01971,-0.06884,0.03937,-0.06890,0.03931,-0.07875,0.03931,-0.07874,0.03932,-0.07874,0.07874,-0.03937,0.07874,-0.03932,0.07870,-0.03932,0.06879,-0.03921,0.06890,-0.01968,0.06890,-0.01963,0.06896,-0.01963,0.07874,-0.01962,0.07874,0.01969,0.07874,0.01968,0.07873,0.01968,0.06884,0.03920,0.06884,0.03939,0.06866,0.03939,0.07844,0.03938,0.07874,0.07875,0.07874,0.07875,0.03937,0.06888,0.03937,0.06888,0.02007,0.06924,0.01971,0.07872,0.01971,0.07872,-0.01966,0.06886,-0.01966,0.06835,-0.01915,0.06835,-0.03884,0.07821,-0.03884,0.07875,-0.03937,0.07875,-0.07874,0.0*%
%ADD61CUSTOMSHAPE61*%

%ADD70C,0.04803*%
%ADD71R,0.04803X0.04803*%
%ADD72R,0.04803X0.04803*%
%ADD73C,0.05906*%
%ADD74R,0.05906X0.05906*%
%ADD75C,0.05118*%
%ADD76C,0.05394*%
%ADD77R,0.05394X0.05394*%
%ADD78C,0.07677*%
%ADD79C,0.06063*%
%ADD80R,0.19685X0.07874*%
%ADD81R,0.07874X0.19685*%
D19*
X3740Y26772D02*
D03*
Y29921D02*
D03*
Y33071D02*
D03*
Y36220D02*
D03*
Y39370D02*
D03*
Y42520D02*
D03*
Y45669D02*
D03*
Y48819D02*
D03*
Y51968D02*
D03*
Y55118D02*
D03*
Y58268D02*
D03*
Y61417D02*
D03*
Y64567D02*
D03*
Y67716D02*
D03*
X51378D02*
D03*
Y64567D02*
D03*
Y61417D02*
D03*
Y58268D02*
D03*
Y55118D02*
D03*
Y51968D02*
D03*
Y48819D02*
D03*
Y45669D02*
D03*
Y42520D02*
D03*
Y39370D02*
D03*
Y36220D02*
D03*
Y33071D02*
D03*
Y29921D02*
D03*
Y26772D02*
D03*
D20*
X8661Y70473D02*
D03*
X11811D02*
D03*
X14961D02*
D03*
X18110D02*
D03*
X21260D02*
D03*
X24409D02*
D03*
X27559D02*
D03*
X30709D02*
D03*
X33858D02*
D03*
X37008D02*
D03*
X40157D02*
D03*
X43307D02*
D03*
X46457D02*
D03*
Y24016D02*
D03*
X43307D02*
D03*
X40157D02*
D03*
X37008D02*
D03*
X33858D02*
D03*
X30709D02*
D03*
X27559D02*
D03*
X24409D02*
D03*
X21260D02*
D03*
X18110D02*
D03*
X14961D02*
D03*
X11811D02*
D03*
X8661D02*
D03*
D21*
X33603Y11254D02*
D03*
Y5033D02*
D03*
X220732Y76892D02*
D03*
Y83112D02*
D03*
X220732Y48543D02*
D03*
Y42323D02*
D03*
X196827Y96394D02*
D03*
Y102614D02*
D03*
X30512Y103504D02*
D03*
Y97284D02*
D03*
X36204Y142074D02*
D03*
Y135853D02*
D03*
X30426Y154717D02*
D03*
Y148496D02*
D03*
D22*
X75254Y22172D02*
D03*
X81475D02*
D03*
X77665Y46214D02*
D03*
X83885D02*
D03*
X178712Y109835D02*
D03*
X184933D02*
D03*
X190524Y109835D02*
D03*
X196745D02*
D03*
D23*
X77344Y29770D02*
D03*
X84824D02*
D03*
X81084Y38431D02*
D03*
X76973Y54182D02*
D03*
X84453D02*
D03*
X80713Y62843D02*
D03*
D24*
X200787Y47244D02*
D03*
X217341Y62438D02*
D03*
D25*
X198228Y51378D02*
D03*
X200787D02*
D03*
X203346D02*
D03*
Y43110D02*
D03*
X200787D02*
D03*
X198228D02*
D03*
X214782Y66572D02*
D03*
X217341D02*
D03*
X219900D02*
D03*
Y58304D02*
D03*
X217341D02*
D03*
X214782D02*
D03*
D26*
X204961Y36417D02*
D03*
X198268D02*
D03*
X8530Y4769D02*
D03*
X15223D02*
D03*
X8530Y16696D02*
D03*
X15223D02*
D03*
X8530Y10865D02*
D03*
X15223D02*
D03*
X229220Y74254D02*
D03*
Y86065D02*
D03*
X228895Y39370D02*
D03*
Y51181D02*
D03*
D27*
X60827Y15905D02*
D03*
X69095Y19685D02*
D03*
X60827Y23465D02*
D03*
D28*
X40964Y11162D02*
D03*
X52775D02*
D03*
X214763Y48622D02*
D03*
Y41929D02*
D03*
Y76813D02*
D03*
Y83506D02*
D03*
X30512Y109843D02*
D03*
Y116535D02*
D03*
X30387Y142152D02*
D03*
Y135459D02*
D03*
D29*
X203116Y77737D02*
D03*
X182250D02*
D03*
D30*
X181361Y96315D02*
D03*
X188448D02*
D03*
X184904Y104189D02*
D03*
D31*
X204341Y144481D02*
D03*
Y127552D02*
D03*
D32*
X180987Y146333D02*
D03*
Y127003D02*
D03*
D61*
X27559Y47244D02*
D03*
D70*
X83268Y81302D02*
D03*
X73269D02*
D03*
X63269D02*
D03*
X53268D02*
D03*
X43268D02*
D03*
X95428Y70479D02*
D03*
Y60479D02*
D03*
Y50479D02*
D03*
Y40479D02*
D03*
Y30479D02*
D03*
D71*
X33268Y81302D02*
D03*
D72*
X95428Y20479D02*
D03*
D73*
X47244Y162638D02*
D03*
Y152638D02*
D03*
Y142638D02*
D03*
X224493Y102524D02*
D03*
Y134020D02*
D03*
D74*
X47244Y132638D02*
D03*
D75*
X161417Y70276D02*
D03*
Y60276D02*
D03*
Y50276D02*
D03*
Y40276D02*
D03*
Y30276D02*
D03*
Y20276D02*
D03*
X224493Y110398D02*
D03*
Y118272D02*
D03*
Y126146D02*
D03*
D76*
X177327Y24685D02*
D03*
X189805D02*
D03*
X201693D02*
D03*
D77*
X177327Y14685D02*
D03*
X189805D02*
D03*
X201693D02*
D03*
D78*
X20205Y132893D02*
D03*
Y160491D02*
D03*
Y95741D02*
D03*
Y123339D02*
D03*
D79*
X10402Y137834D02*
D03*
Y155550D02*
D03*
Y100682D02*
D03*
Y118398D02*
D03*
D80*
X190017Y190644D02*
D03*
D81*
X201828Y172140D02*
D03*
X177419D02*
D03*
M02*
