G04*
G04 #@! TF.GenerationSoftware,Altium Limited,Altium Designer,24.5.2 (23)*
G04*
G04 Layer_Color=255*
%FSLAX25Y25*%
%MOIN*%
G70*
G04*
G04 #@! TF.SameCoordinates,C9A36013-1EDC-4BB1-827E-2851C72F543B*
G04*
G04*
G04 #@! TF.FilePolarity,Positive*
G04*
G01*
G75*
%ADD70C,0.04803*%
%ADD71R,0.04803X0.04803*%
%ADD72R,0.04803X0.04803*%
%ADD73C,0.05906*%
%ADD74R,0.05906X0.05906*%
%ADD75C,0.05118*%
%ADD76C,0.05394*%
%ADD77R,0.05394X0.05394*%
%ADD78C,0.07677*%
%ADD79C,0.06063*%
%ADD80R,0.19685X0.07874*%
%ADD81R,0.07874X0.19685*%
D70*
X83268Y81302D02*
D03*
X73269D02*
D03*
X63269D02*
D03*
X53268D02*
D03*
X43268D02*
D03*
X95428Y70479D02*
D03*
Y60479D02*
D03*
Y50479D02*
D03*
Y40479D02*
D03*
Y30479D02*
D03*
D71*
X33268Y81302D02*
D03*
D72*
X95428Y20479D02*
D03*
D73*
X47244Y162638D02*
D03*
Y152638D02*
D03*
Y142638D02*
D03*
X224493Y102524D02*
D03*
Y134020D02*
D03*
D74*
X47244Y132638D02*
D03*
D75*
X161417Y70276D02*
D03*
Y60276D02*
D03*
Y50276D02*
D03*
Y40276D02*
D03*
Y30276D02*
D03*
Y20276D02*
D03*
X224493Y110398D02*
D03*
Y118272D02*
D03*
Y126146D02*
D03*
D76*
X177327Y24685D02*
D03*
X189805D02*
D03*
X201693D02*
D03*
D77*
X177327Y14685D02*
D03*
X189805D02*
D03*
X201693D02*
D03*
D78*
X20205Y132893D02*
D03*
Y160491D02*
D03*
Y95741D02*
D03*
Y123339D02*
D03*
D79*
X10402Y137834D02*
D03*
Y155550D02*
D03*
Y100682D02*
D03*
Y118398D02*
D03*
D80*
X190017Y190644D02*
D03*
D81*
X201828Y172140D02*
D03*
X177419D02*
D03*
M02*
