M48
;Layer_Color=9474304
;FILE_FORMAT=2:5
INCH,LZ
;TYPE=PLATED
T01F00S00C0.01968
T02F00S00C0.03150
T03F00S00C0.03189
T04F00S00C0.03543
T05F00S00C0.03898
T06F00S00C0.03937
T09F00S00C0.04016
T10F00S00C0.05118
T11F00S00C0.12205
%
T01
X0003937Y0004921
Y0010827
Y0016732
X0034449
X0059055Y0033465
X0064961Y0037402
X0086614Y0040354
X0214825Y0036909
X0208661Y0047244
X0208563Y0062437
X022628
X02206Y007242
X0214567Y0088583
X0202658Y0096555
X0187992Y008563
X0183071
Y0070866
X0187992
X0191929Y0047244
X0062992Y0048228
X0063976Y0058071
X0057527Y0074719
X0057087Y0093504
X0024656Y0142206
T02
X0224493Y0110398
Y0118272
Y0126146
T03
X0095428Y0020479
Y0030479
Y0040479
Y0050479
Y0060479
Y0070479
X0083268Y0081302
X0073269
X0063269
X0053268
X0043268
X0033268
T04
X0161417Y0020276
Y0030276
Y0040276
Y0050276
Y0060276
Y0070276
T05
X0010402Y0100682
Y0118398
Y0137834
Y015555
T06
X0224493Y0102524
Y013402
X0047244Y0142638
Y0152638
Y0162638
T09
X0177327Y0014685
Y0024685
X0189805
Y0014685
X0201693
Y0024685
T10
X0020205Y0095741
Y0123339
Y0132893
Y0160491
T11
X0220472Y0015748
X0156417Y0101223
Y0181932
X0075708
X0015748Y0181102
X0075708Y0101223
M30
