G04*
G04 #@! TF.GenerationSoftware,Altium Limited,Altium Designer,24.5.2 (23)*
G04*
G04 Layer_Color=32896*
%FSLAX25Y25*%
%MOIN*%
G70*
G04*
G04 #@! TF.SameCoordinates,843F1F9D-CF68-4CC6-824C-A0058C937974*
G04*
G04*
G04 #@! TF.FilePolarity,Positive*
G04*
G01*
G75*
%ADD10C,0.00394*%
%ADD12C,0.00500*%
%ADD16C,0.00799*%
%ADD113C,0.00984*%
G36*
X82313Y216526D02*
X38561D01*
Y226387D01*
X82313D01*
Y216526D01*
D02*
G37*
G36*
X117126Y226387D02*
Y216526D01*
X83662D01*
Y226387D01*
X117126D01*
D02*
G37*
%LPC*%
G36*
X70410Y223377D02*
X69572D01*
X69239Y222506D01*
X67696D01*
X67380Y223377D01*
X66559D01*
X68046Y219536D01*
X66559D01*
D01*
X70410D01*
D01*
X68867D01*
X70410Y223377D01*
D02*
G37*
G36*
X41922Y223449D02*
X41861D01*
X41822Y223444D01*
X41767D01*
X41706Y223438D01*
X41639Y223427D01*
X41561Y223416D01*
X41401Y223388D01*
X41223Y223344D01*
X41040Y223283D01*
X40957Y223244D01*
X40868Y223199D01*
X40862Y223194D01*
X40851Y223188D01*
X40823Y223172D01*
X40796Y223149D01*
X40757Y223127D01*
X40718Y223094D01*
X40668Y223055D01*
X40618Y223011D01*
X40507Y222911D01*
X40396Y222783D01*
X40290Y222639D01*
X40196Y222472D01*
Y222467D01*
X40185Y222450D01*
X40174Y222422D01*
X40163Y222389D01*
X40146Y222345D01*
X40124Y222295D01*
X40107Y222234D01*
X40085Y222167D01*
X40063Y222095D01*
X40046Y222012D01*
X40007Y221840D01*
X39985Y221651D01*
X39974Y221446D01*
Y221457D01*
Y221446D01*
Y219464D01*
X43565D01*
Y222861D01*
X43554Y222872D01*
X43537Y222883D01*
X43521Y222900D01*
X43493Y222922D01*
X43465Y222944D01*
X43387Y223000D01*
X43282Y223061D01*
X43160Y223133D01*
X43021Y223205D01*
X42855Y223272D01*
X42849D01*
X42832Y223277D01*
X42810Y223288D01*
X42777Y223299D01*
X42733Y223310D01*
X42683Y223327D01*
X42627Y223344D01*
X42566Y223360D01*
X42427Y223394D01*
X42266Y223421D01*
X42100Y223444D01*
X41922Y223449D01*
D02*
G37*
G36*
X54637D02*
X54587D01*
X54549Y223444D01*
X54504Y223438D01*
X54449Y223432D01*
X54393Y223427D01*
X54326Y223416D01*
X54193Y223383D01*
X54043Y223327D01*
X53971Y223299D01*
X53899Y223260D01*
X53833Y223216D01*
X53766Y223166D01*
X53760Y223161D01*
X53749Y223155D01*
X53733Y223138D01*
X53710Y223116D01*
X53688Y223083D01*
X53655Y223050D01*
X53627Y223011D01*
X53594Y222966D01*
X53555Y222911D01*
X53522Y222855D01*
X53461Y222722D01*
X53405Y222572D01*
X53389Y222489D01*
X53372Y222400D01*
X54105Y222323D01*
Y222334D01*
X54110Y222361D01*
X54121Y222411D01*
X54138Y222467D01*
X54160Y222528D01*
X54193Y222594D01*
X54238Y222656D01*
X54288Y222717D01*
X54293Y222722D01*
X54315Y222739D01*
X54349Y222761D01*
X54393Y222789D01*
X54443Y222816D01*
X54504Y222839D01*
X54576Y222855D01*
X54648Y222861D01*
X54659D01*
X54687Y222855D01*
X54732Y222850D01*
X54787Y222839D01*
X54848Y222816D01*
X54915Y222783D01*
X54981Y222733D01*
X55042Y222672D01*
X55048Y222661D01*
X55070Y222639D01*
X55092Y222594D01*
X55126Y222528D01*
X55153Y222450D01*
X55181Y222356D01*
X55198Y222239D01*
X55203Y222106D01*
Y222100D01*
Y222089D01*
Y222073D01*
Y222045D01*
X55198Y221984D01*
X55181Y221906D01*
X55164Y221817D01*
X55137Y221729D01*
X55098Y221645D01*
X55042Y221573D01*
X55037Y221568D01*
X55015Y221546D01*
X54976Y221518D01*
X54931Y221479D01*
X54870Y221446D01*
X54798Y221418D01*
X54715Y221396D01*
X54626Y221390D01*
X54593D01*
X54571Y221396D01*
X54515Y221407D01*
X54438Y221423D01*
X54349Y221457D01*
X54254Y221507D01*
X54204Y221540D01*
X54154Y221579D01*
X54105Y221623D01*
X54054Y221673D01*
X53461Y221590D01*
X53838Y219586D01*
X53372D01*
Y223449D01*
D01*
Y219586D01*
X55958D01*
D01*
X55786D01*
Y220275D01*
X54393D01*
X54277Y220930D01*
X54282D01*
X54288Y220924D01*
X54321Y220907D01*
X54371Y220891D01*
X54432Y220863D01*
X54510Y220841D01*
X54593Y220824D01*
X54687Y220807D01*
X54782Y220802D01*
X54831D01*
X54865Y220807D01*
X54904Y220813D01*
X54954Y220818D01*
X55009Y220830D01*
X55070Y220846D01*
X55198Y220891D01*
X55270Y220918D01*
X55337Y220952D01*
X55409Y220996D01*
X55481Y221046D01*
X55547Y221101D01*
X55614Y221163D01*
X55620Y221168D01*
X55631Y221179D01*
X55647Y221201D01*
X55670Y221229D01*
X55692Y221263D01*
X55725Y221307D01*
X55753Y221357D01*
X55786Y221412D01*
X55819Y221473D01*
X55847Y221546D01*
X55880Y221623D01*
X55903Y221701D01*
X55925Y221790D01*
X55941Y221884D01*
X55953Y221984D01*
X55958Y222089D01*
Y222134D01*
X55953Y222167D01*
Y222212D01*
X55941Y222262D01*
X55936Y222317D01*
X55925Y222373D01*
X55892Y222506D01*
X55842Y222650D01*
X55808Y222728D01*
X55775Y222800D01*
X55731Y222872D01*
X55681Y222944D01*
X55675Y222950D01*
X55664Y222966D01*
X55642Y222989D01*
X55614Y223022D01*
X55575Y223061D01*
X55525Y223105D01*
X55470Y223149D01*
X55409Y223194D01*
X55337Y223244D01*
X55259Y223288D01*
X55176Y223333D01*
X55081Y223372D01*
X54981Y223405D01*
X54876Y223427D01*
X54759Y223444D01*
X54637Y223449D01*
D02*
G37*
G36*
X76865Y223377D02*
X76088D01*
X74528Y220846D01*
Y223377D01*
X74980D01*
X73813D01*
Y219536D01*
X76865D01*
Y223377D01*
D02*
G37*
G36*
X66131D02*
X65354D01*
X63795Y220846D01*
Y223377D01*
X63079D01*
Y219536D01*
X66131D01*
Y223377D01*
D02*
G37*
G36*
X79351D02*
X77686D01*
Y219536D01*
X80900D01*
Y222311D01*
X80894Y222361D01*
X80883Y222428D01*
X80872Y222506D01*
X80850Y222594D01*
X80817Y222683D01*
X80778Y222778D01*
X80772Y222789D01*
X80756Y222816D01*
X80728Y222861D01*
X80689Y222916D01*
X80645Y222983D01*
X80584Y223044D01*
X80523Y223111D01*
X80445Y223172D01*
X80434Y223177D01*
X80406Y223194D01*
X80361Y223222D01*
X80300Y223249D01*
X80223Y223283D01*
X80134Y223310D01*
X80034Y223338D01*
X79923Y223355D01*
X79901D01*
X79879Y223360D01*
X79823D01*
X79784Y223366D01*
X79679D01*
X79612Y223372D01*
X79446D01*
X79351Y223377D01*
D02*
G37*
G36*
X73069D02*
X72292D01*
Y219536D01*
X73069D01*
Y223377D01*
D02*
G37*
G36*
X62335D02*
X61558D01*
Y219536D01*
X62335D01*
Y223377D01*
D02*
G37*
G36*
X58334D02*
X57495D01*
X56119Y219536D01*
D01*
X59699D01*
D01*
X58334Y223377D01*
D02*
G37*
G36*
X51374D02*
X48160D01*
Y219536D01*
X51374D01*
D01*
X49692D01*
X49737Y219542D01*
X49842Y219548D01*
X49959Y219553D01*
X50081Y219570D01*
X50197Y219586D01*
X50303Y219614D01*
X50308D01*
X50319Y219620D01*
X50336Y219625D01*
X50358Y219631D01*
X50425Y219658D01*
X50503Y219697D01*
X50591Y219747D01*
X50691Y219808D01*
X50786Y219881D01*
X50880Y219969D01*
X50885D01*
X50891Y219980D01*
X50919Y220014D01*
X50963Y220069D01*
X51013Y220141D01*
X51074Y220230D01*
X51135Y220336D01*
X51196Y220458D01*
X51246Y220591D01*
Y220597D01*
X51252Y220608D01*
X51257Y220630D01*
X51268Y220657D01*
X51274Y220691D01*
X51285Y220735D01*
X51296Y220785D01*
X51313Y220841D01*
X51324Y220902D01*
X51335Y220974D01*
X51346Y221046D01*
X51352Y221129D01*
X51368Y221301D01*
X51374Y221496D01*
Y221573D01*
X51368Y221618D01*
Y221662D01*
X51363Y221718D01*
X51357Y221779D01*
X51346Y221906D01*
X51324Y222040D01*
X51291Y222178D01*
X51252Y222311D01*
Y222317D01*
X51246Y222328D01*
X51235Y222350D01*
X51224Y222384D01*
X51213Y222417D01*
X51191Y222456D01*
X51146Y222556D01*
X51091Y222661D01*
X51019Y222778D01*
X50935Y222889D01*
X50841Y222994D01*
X50830Y223005D01*
X50802Y223027D01*
X50758Y223061D01*
X50697Y223105D01*
X50619Y223155D01*
X50530Y223205D01*
X50419Y223255D01*
X50297Y223299D01*
X50292D01*
X50286Y223305D01*
X50269D01*
X50253Y223310D01*
X50192Y223322D01*
X50114Y223338D01*
X50020Y223355D01*
X49903Y223366D01*
X49764Y223372D01*
X49615Y223377D01*
X51374D01*
D02*
G37*
G36*
X47339D02*
X44287D01*
Y219536D01*
X47339D01*
Y223377D01*
D02*
G37*
%LPD*%
G36*
X68451Y220430D02*
X67930Y221856D01*
X68990D01*
X68451Y220430D01*
D02*
G37*
G36*
X41961Y222783D02*
X42028Y222778D01*
X42100Y222766D01*
X42183Y222750D01*
X42272Y222728D01*
X42361Y222694D01*
X42366D01*
X42372Y222689D01*
X42399Y222678D01*
X42450Y222656D01*
X42505Y222628D01*
X42572Y222594D01*
X42644Y222556D01*
X42716Y222511D01*
X42783Y222461D01*
Y221967D01*
X41895D01*
Y221318D01*
X43565D01*
Y219464D01*
X41944D01*
X41994Y219470D01*
X42055Y219475D01*
X42128Y219481D01*
X42205Y219486D01*
X42289Y219503D01*
X42466Y219536D01*
X42649Y219592D01*
X42744Y219625D01*
X42832Y219664D01*
X42916Y219708D01*
X42993Y219764D01*
X42999Y219770D01*
X43010Y219775D01*
X43032Y219797D01*
X43060Y219819D01*
X43093Y219847D01*
X43127Y219886D01*
X43165Y219931D01*
X43210Y219980D01*
X43254Y220036D01*
X43299Y220097D01*
X43343Y220164D01*
X43382Y220241D01*
X43426Y220319D01*
X43460Y220402D01*
X43493Y220497D01*
X43515Y220591D01*
X42744Y220735D01*
Y220730D01*
X42738Y220724D01*
X42727Y220691D01*
X42705Y220641D01*
X42671Y220574D01*
X42633Y220502D01*
X42577Y220430D01*
X42511Y220358D01*
X42433Y220291D01*
X42422Y220286D01*
X42394Y220264D01*
X42344Y220236D01*
X42283Y220208D01*
X42200Y220175D01*
X42105Y220152D01*
X42000Y220130D01*
X41878Y220125D01*
X41828D01*
X41795Y220130D01*
X41750Y220136D01*
X41700Y220141D01*
X41645Y220152D01*
X41584Y220164D01*
X41456Y220202D01*
X41389Y220230D01*
X41323Y220264D01*
X41256Y220302D01*
X41190Y220341D01*
X41129Y220397D01*
X41067Y220452D01*
X41062Y220458D01*
X41056Y220469D01*
X41040Y220485D01*
X41023Y220513D01*
X41001Y220547D01*
X40973Y220585D01*
X40945Y220635D01*
X40923Y220691D01*
X40896Y220757D01*
X40868Y220830D01*
X40840Y220907D01*
X40818Y220990D01*
X40801Y221085D01*
X40784Y221190D01*
X40779Y221296D01*
X40773Y221412D01*
Y221418D01*
Y221440D01*
Y221479D01*
X40779Y221523D01*
X40784Y221584D01*
X40790Y221645D01*
X40801Y221723D01*
X40812Y221801D01*
X40846Y221967D01*
X40901Y222139D01*
X40934Y222223D01*
X40973Y222300D01*
X41023Y222378D01*
X41073Y222445D01*
X41079Y222450D01*
X41090Y222461D01*
X41106Y222478D01*
X41129Y222500D01*
X41162Y222522D01*
X41195Y222556D01*
X41240Y222583D01*
X41289Y222617D01*
X41345Y222650D01*
X41401Y222678D01*
X41539Y222733D01*
X41617Y222755D01*
X41695Y222772D01*
X41783Y222783D01*
X41872Y222789D01*
X41917D01*
X41961Y222783D01*
D02*
G37*
G36*
X39980Y221346D02*
Y221290D01*
X39985Y221229D01*
X39996Y221163D01*
X40007Y221085D01*
X40035Y220924D01*
X40080Y220741D01*
X40141Y220558D01*
X40179Y220469D01*
X40224Y220380D01*
X40229Y220374D01*
X40235Y220358D01*
X40252Y220336D01*
X40268Y220302D01*
X40296Y220264D01*
X40329Y220219D01*
X40368Y220169D01*
X40407Y220114D01*
X40457Y220058D01*
X40512Y219997D01*
X40574Y219936D01*
X40640Y219875D01*
X40712Y219819D01*
X40784Y219758D01*
X40957Y219658D01*
X40962D01*
X40973Y219647D01*
X40995Y219642D01*
X41023Y219625D01*
X41062Y219614D01*
X41101Y219598D01*
X41156Y219581D01*
X41212Y219559D01*
X41273Y219542D01*
X41345Y219525D01*
X41423Y219509D01*
X41500Y219492D01*
X41678Y219470D01*
X41878Y219464D01*
X39974D01*
Y221385D01*
X39980Y221346D01*
D02*
G37*
G36*
X76149Y219536D02*
X74562D01*
X76149Y222123D01*
Y219536D01*
D02*
G37*
G36*
X65415D02*
X63828D01*
X65415Y222123D01*
Y219536D01*
D02*
G37*
G36*
X79401Y222722D02*
X79490D01*
X79579Y222717D01*
X79651Y222711D01*
X79684D01*
X79707Y222706D01*
X79712D01*
X79734Y222700D01*
X79768Y222689D01*
X79807Y222678D01*
X79851Y222656D01*
X79901Y222628D01*
X79945Y222594D01*
X79990Y222556D01*
X79995Y222550D01*
X80006Y222533D01*
X80023Y222506D01*
X80045Y222467D01*
X80067Y222422D01*
X80084Y222367D01*
X80095Y222300D01*
X80101Y222228D01*
Y222223D01*
Y222200D01*
X80095Y222167D01*
X80090Y222128D01*
X80079Y222078D01*
X80062Y222034D01*
X80040Y221984D01*
X80012Y221934D01*
X80006Y221929D01*
X79995Y221912D01*
X79979Y221890D01*
X79951Y221867D01*
X79918Y221834D01*
X79873Y221806D01*
X79823Y221779D01*
X79768Y221756D01*
X79762D01*
X79734Y221745D01*
X79690Y221740D01*
X79662Y221734D01*
X79623Y221729D01*
X79584Y221723D01*
X79535Y221718D01*
X79479Y221712D01*
X79413D01*
X79346Y221707D01*
X79268Y221701D01*
X78463D01*
Y222728D01*
X79318D01*
X79401Y222722D01*
D02*
G37*
G36*
X79302Y221057D02*
X79474D01*
X79507Y221052D01*
X79540D01*
X79562Y221046D01*
X79596Y221041D01*
X79646Y221024D01*
X79695Y221007D01*
X79746Y220985D01*
X79795Y220957D01*
X79840Y220918D01*
X79845Y220913D01*
X79856Y220896D01*
X79879Y220874D01*
X79901Y220835D01*
X79918Y220791D01*
X79940Y220741D01*
X79951Y220680D01*
X79956Y220613D01*
Y220608D01*
Y220585D01*
X79951Y220552D01*
X79945Y220508D01*
X79934Y220463D01*
X79912Y220419D01*
X79890Y220369D01*
X79856Y220324D01*
X79851Y220319D01*
X79840Y220308D01*
X79812Y220286D01*
X79784Y220264D01*
X79740Y220241D01*
X79690Y220219D01*
X79629Y220202D01*
X79562Y220191D01*
X79557D01*
X79535Y220186D01*
X79474D01*
X79440Y220180D01*
X79296D01*
X79235Y220175D01*
X78463D01*
Y221063D01*
X79207D01*
X79302Y221057D01*
D02*
G37*
G36*
X80900Y219536D02*
X79374D01*
X79474Y219542D01*
X79584Y219548D01*
X79695Y219553D01*
X79801Y219564D01*
X79895Y219575D01*
X79906D01*
X79934Y219581D01*
X79973Y219592D01*
X80028Y219609D01*
X80090Y219631D01*
X80156Y219658D01*
X80228Y219692D01*
X80295Y219736D01*
X80300Y219742D01*
X80323Y219758D01*
X80356Y219786D01*
X80400Y219819D01*
X80445Y219869D01*
X80495Y219925D01*
X80545Y219986D01*
X80589Y220058D01*
X80595Y220069D01*
X80606Y220091D01*
X80628Y220136D01*
X80650Y220191D01*
X80672Y220258D01*
X80695Y220330D01*
X80706Y220419D01*
X80711Y220508D01*
Y220513D01*
Y220519D01*
Y220552D01*
X80706Y220602D01*
X80695Y220669D01*
X80672Y220746D01*
X80650Y220830D01*
X80611Y220913D01*
X80561Y221002D01*
X80556Y221013D01*
X80534Y221041D01*
X80500Y221079D01*
X80461Y221129D01*
X80406Y221179D01*
X80339Y221240D01*
X80262Y221290D01*
X80173Y221340D01*
X80178D01*
X80190Y221346D01*
X80206Y221351D01*
X80228Y221357D01*
X80295Y221385D01*
X80373Y221423D01*
X80456Y221468D01*
X80550Y221529D01*
X80633Y221601D01*
X80711Y221690D01*
X80717Y221701D01*
X80739Y221734D01*
X80772Y221784D01*
X80805Y221851D01*
X80839Y221940D01*
X80872Y222034D01*
X80894Y222145D01*
X80900Y222267D01*
Y219536D01*
D02*
G37*
G36*
X58872D02*
X56957D01*
X57934Y222378D01*
X58872Y219536D01*
D02*
G37*
G36*
X49692Y222722D02*
X49770D01*
X49848Y222711D01*
X49920Y222706D01*
X49981Y222694D01*
X49992D01*
X50014Y222683D01*
X50047Y222672D01*
X50092Y222656D01*
X50142Y222633D01*
X50192Y222606D01*
X50242Y222572D01*
X50292Y222533D01*
X50297Y222528D01*
X50314Y222511D01*
X50336Y222483D01*
X50364Y222445D01*
X50392Y222395D01*
X50430Y222334D01*
X50458Y222256D01*
X50491Y222167D01*
Y222162D01*
X50497Y222156D01*
Y222139D01*
X50503Y222117D01*
X50514Y222095D01*
X50519Y222062D01*
X50536Y221978D01*
X50547Y221879D01*
X50564Y221762D01*
X50569Y221618D01*
X50575Y221462D01*
Y221457D01*
Y221440D01*
Y221418D01*
Y221390D01*
Y221351D01*
X50569Y221307D01*
X50564Y221213D01*
X50552Y221101D01*
X50541Y220985D01*
X50519Y220880D01*
X50491Y220780D01*
Y220774D01*
X50486Y220768D01*
X50475Y220741D01*
X50458Y220696D01*
X50436Y220641D01*
X50403Y220585D01*
X50364Y220524D01*
X50319Y220463D01*
X50269Y220408D01*
X50264Y220402D01*
X50247Y220386D01*
X50214Y220363D01*
X50175Y220336D01*
X50120Y220302D01*
X50059Y220275D01*
X49992Y220247D01*
X49914Y220225D01*
X49909D01*
X49881Y220219D01*
X49837Y220214D01*
X49775Y220202D01*
X49737D01*
X49687Y220197D01*
X49637D01*
X49581Y220191D01*
X49515D01*
X49442Y220186D01*
X48937D01*
Y222728D01*
X49620D01*
X49692Y222722D01*
D02*
G37*
G36*
X45002Y220846D02*
Y223377D01*
X46562D01*
X45002Y220846D01*
D02*
G37*
G36*
X46623Y219536D02*
X45036D01*
X46623Y222123D01*
Y219536D01*
D02*
G37*
%LPC*%
G36*
X111455Y223449D02*
X111405D01*
X111366Y223444D01*
X111322Y223438D01*
X111266Y223432D01*
X111211Y223427D01*
X111144Y223416D01*
X111011Y223383D01*
X110861Y223327D01*
X110789Y223299D01*
X110717Y223260D01*
X110650Y223216D01*
X110583Y223166D01*
X110578Y223161D01*
X110567Y223155D01*
X110550Y223138D01*
X110528Y223116D01*
X110506Y223083D01*
X110473Y223050D01*
X110445Y223011D01*
X110412Y222966D01*
X110373Y222911D01*
X110339Y222855D01*
X110278Y222722D01*
X110223Y222572D01*
X110206Y222489D01*
X110189Y222400D01*
X110922Y222323D01*
Y222334D01*
X110928Y222361D01*
X110939Y222411D01*
X110955Y222467D01*
X110978Y222528D01*
X111011Y222594D01*
X111055Y222656D01*
X111105Y222717D01*
X111111Y222722D01*
X111133Y222739D01*
X111166Y222761D01*
X111211Y222789D01*
X111261Y222816D01*
X111322Y222839D01*
X111394Y222855D01*
X111466Y222861D01*
X111477D01*
X111505Y222855D01*
X111549Y222850D01*
X111605Y222839D01*
X111666Y222816D01*
X111732Y222783D01*
X111799Y222733D01*
X111860Y222672D01*
X111866Y222661D01*
X111888Y222639D01*
X111910Y222594D01*
X111943Y222528D01*
X111971Y222450D01*
X111999Y222356D01*
X112015Y222239D01*
X112021Y222106D01*
Y222100D01*
Y222089D01*
Y222073D01*
Y222045D01*
X112015Y221984D01*
X111999Y221906D01*
X111982Y221817D01*
X111954Y221729D01*
X111916Y221645D01*
X111860Y221573D01*
X111855Y221568D01*
X111832Y221546D01*
X111793Y221518D01*
X111749Y221479D01*
X111688Y221446D01*
X111616Y221418D01*
X111533Y221396D01*
X111444Y221390D01*
X111410D01*
X111388Y221396D01*
X111333Y221407D01*
X111255Y221423D01*
X111166Y221457D01*
X111072Y221507D01*
X111022Y221540D01*
X110972Y221579D01*
X110922Y221623D01*
X110872Y221673D01*
X110278Y221590D01*
X110656Y219586D01*
X110189D01*
Y223449D01*
D01*
Y219586D01*
X112776D01*
D01*
X112604D01*
Y220275D01*
X111211D01*
X111094Y220930D01*
X111100D01*
X111105Y220924D01*
X111138Y220907D01*
X111188Y220891D01*
X111249Y220863D01*
X111327Y220841D01*
X111410Y220824D01*
X111505Y220807D01*
X111599Y220802D01*
X111649D01*
X111682Y220807D01*
X111721Y220813D01*
X111771Y220818D01*
X111827Y220830D01*
X111888Y220846D01*
X112015Y220891D01*
X112088Y220918D01*
X112154Y220952D01*
X112226Y220996D01*
X112299Y221046D01*
X112365Y221101D01*
X112432Y221163D01*
X112437Y221168D01*
X112448Y221179D01*
X112465Y221201D01*
X112487Y221229D01*
X112509Y221263D01*
X112543Y221307D01*
X112570Y221357D01*
X112604Y221412D01*
X112637Y221473D01*
X112665Y221546D01*
X112698Y221623D01*
X112720Y221701D01*
X112742Y221790D01*
X112759Y221884D01*
X112770Y221984D01*
X112776Y222089D01*
Y222134D01*
X112770Y222167D01*
Y222212D01*
X112759Y222262D01*
X112754Y222317D01*
X112742Y222373D01*
X112709Y222506D01*
X112659Y222650D01*
X112626Y222728D01*
X112593Y222800D01*
X112548Y222872D01*
X112498Y222944D01*
X112493Y222950D01*
X112482Y222966D01*
X112459Y222989D01*
X112432Y223022D01*
X112393Y223061D01*
X112343Y223105D01*
X112287Y223149D01*
X112226Y223194D01*
X112154Y223244D01*
X112076Y223288D01*
X111993Y223333D01*
X111899Y223372D01*
X111799Y223405D01*
X111694Y223427D01*
X111577Y223444D01*
X111455Y223449D01*
D02*
G37*
G36*
X91636Y223377D02*
X90859D01*
X89299Y220846D01*
Y223377D01*
X89751D01*
X88583D01*
Y219536D01*
X91636D01*
Y223377D01*
D02*
G37*
G36*
X108347D02*
Y220186D01*
X107215D01*
Y223377D01*
X105300D01*
X106438D01*
Y220186D01*
X105300D01*
D01*
Y219536D01*
X108347D01*
Y223377D01*
D02*
G37*
G36*
X115151D02*
X114313D01*
X112937Y219536D01*
D01*
X116516D01*
D01*
X115151Y223377D01*
D02*
G37*
G36*
X105156D02*
X101304D01*
X102791Y219536D01*
X103613D01*
X105156Y223377D01*
D02*
G37*
G36*
X101038D02*
X97824D01*
Y219536D01*
X99356D01*
X99400Y219542D01*
X99506Y219548D01*
X99622Y219553D01*
X99744Y219570D01*
X99861Y219586D01*
X99966Y219614D01*
X99972D01*
X99983Y219620D01*
X100000Y219625D01*
X100022Y219631D01*
X100089Y219658D01*
X100166Y219697D01*
X100255Y219747D01*
X100355Y219808D01*
X100449Y219881D01*
X100544Y219969D01*
X100549D01*
X100555Y219980D01*
X100582Y220014D01*
X100627Y220069D01*
X100677Y220141D01*
X100738Y220230D01*
X100799Y220336D01*
X100860Y220458D01*
X100910Y220591D01*
Y220597D01*
X100915Y220608D01*
X100921Y220630D01*
X100932Y220657D01*
X100938Y220691D01*
X100949Y220735D01*
X100960Y220785D01*
X100977Y220841D01*
X100988Y220902D01*
X100999Y220974D01*
X101010Y221046D01*
X101015Y221129D01*
X101032Y221301D01*
X101038Y221496D01*
Y221573D01*
X101032Y221618D01*
Y221662D01*
X101026Y221718D01*
X101021Y221779D01*
X101010Y221906D01*
X100988Y222040D01*
X100954Y222178D01*
X100915Y222311D01*
Y222317D01*
X100910Y222328D01*
X100899Y222350D01*
X100888Y222384D01*
X100877Y222417D01*
X100854Y222456D01*
X100810Y222556D01*
X100754Y222661D01*
X100682Y222778D01*
X100599Y222889D01*
X100505Y222994D01*
X100494Y223005D01*
X100466Y223027D01*
X100422Y223061D01*
X100360Y223105D01*
X100283Y223155D01*
X100194Y223205D01*
X100083Y223255D01*
X99961Y223299D01*
X99955D01*
X99950Y223305D01*
X99933D01*
X99916Y223310D01*
X99855Y223322D01*
X99778Y223338D01*
X99683Y223355D01*
X99567Y223366D01*
X99428Y223372D01*
X99278Y223377D01*
X101038D01*
D02*
G37*
G36*
X93911D02*
X92457D01*
Y219536D01*
X95671D01*
D01*
X93989D01*
X94033Y219542D01*
X94139Y219548D01*
X94255Y219553D01*
X94377Y219570D01*
X94494Y219586D01*
X94599Y219614D01*
X94605D01*
X94616Y219620D01*
X94633Y219625D01*
X94655Y219631D01*
X94722Y219658D01*
X94799Y219697D01*
X94888Y219747D01*
X94988Y219808D01*
X95082Y219881D01*
X95177Y219969D01*
X95182D01*
X95188Y219980D01*
X95216Y220014D01*
X95260Y220069D01*
X95310Y220141D01*
X95371Y220230D01*
X95432Y220336D01*
X95493Y220458D01*
X95543Y220591D01*
Y220597D01*
X95549Y220608D01*
X95554Y220630D01*
X95565Y220657D01*
X95571Y220691D01*
X95582Y220735D01*
X95593Y220785D01*
X95610Y220841D01*
X95621Y220902D01*
X95632Y220974D01*
X95643Y221046D01*
X95648Y221129D01*
X95665Y221301D01*
X95671Y221496D01*
Y221573D01*
X95665Y221618D01*
Y221662D01*
X95660Y221718D01*
X95654Y221779D01*
X95643Y221906D01*
X95621Y222040D01*
X95587Y222178D01*
X95549Y222311D01*
Y222317D01*
X95543Y222328D01*
X95532Y222350D01*
X95521Y222384D01*
X95510Y222417D01*
X95487Y222456D01*
X95443Y222556D01*
X95388Y222661D01*
X95315Y222778D01*
X95232Y222889D01*
X95138Y222994D01*
X95127Y223005D01*
X95099Y223027D01*
X95055Y223061D01*
X94994Y223105D01*
X94916Y223155D01*
X94827Y223205D01*
X94716Y223255D01*
X94594Y223299D01*
X94588D01*
X94583Y223305D01*
X94566D01*
X94550Y223310D01*
X94489Y223322D01*
X94411Y223338D01*
X94317Y223355D01*
X94200Y223366D01*
X94061Y223372D01*
X93911Y223377D01*
D02*
G37*
G36*
X86219Y223449D02*
X86158D01*
X86119Y223444D01*
X86064D01*
X86003Y223438D01*
X85936Y223427D01*
X85858Y223416D01*
X85697Y223388D01*
X85520Y223344D01*
X85337Y223283D01*
X85253Y223244D01*
X85164Y223199D01*
X85159Y223194D01*
X85148Y223188D01*
X85120Y223172D01*
X85092Y223149D01*
X85053Y223127D01*
X85015Y223094D01*
X84965Y223055D01*
X84915Y223011D01*
X84804Y222911D01*
X84693Y222783D01*
X84587Y222639D01*
X84493Y222472D01*
Y222467D01*
X84482Y222450D01*
X84471Y222422D01*
X84460Y222389D01*
X84443Y222345D01*
X84421Y222295D01*
X84404Y222234D01*
X84382Y222167D01*
X84360Y222095D01*
X84343Y222012D01*
X84304Y221840D01*
X84282Y221651D01*
X84271Y221446D01*
Y219464D01*
X87862D01*
Y222861D01*
X87851Y222872D01*
X87834Y222883D01*
X87817Y222900D01*
X87790Y222922D01*
X87762Y222944D01*
X87684Y223000D01*
X87579Y223061D01*
X87457Y223133D01*
X87318Y223205D01*
X87151Y223272D01*
X87146D01*
X87129Y223277D01*
X87107Y223288D01*
X87074Y223299D01*
X87029Y223310D01*
X86979Y223327D01*
X86924Y223344D01*
X86863Y223360D01*
X86724Y223394D01*
X86563Y223421D01*
X86397Y223444D01*
X86219Y223449D01*
D02*
G37*
%LPD*%
G36*
X90920Y219536D02*
X89333D01*
X90920Y222123D01*
Y219536D01*
D02*
G37*
G36*
X115690D02*
X113775D01*
X114752Y222378D01*
X115690Y219536D01*
D02*
G37*
G36*
X103985Y222506D02*
X102442D01*
X102125Y223377D01*
X104318D01*
X103985Y222506D01*
D02*
G37*
G36*
X103197Y220430D02*
X102675Y221856D01*
X103735D01*
X103197Y220430D01*
D02*
G37*
G36*
X99356Y222722D02*
X99434D01*
X99511Y222711D01*
X99583Y222706D01*
X99645Y222694D01*
X99656D01*
X99678Y222683D01*
X99711Y222672D01*
X99756Y222656D01*
X99805Y222633D01*
X99855Y222606D01*
X99905Y222572D01*
X99955Y222533D01*
X99961Y222528D01*
X99977Y222511D01*
X100000Y222483D01*
X100027Y222445D01*
X100055Y222395D01*
X100094Y222334D01*
X100122Y222256D01*
X100155Y222167D01*
Y222162D01*
X100161Y222156D01*
Y222139D01*
X100166Y222117D01*
X100177Y222095D01*
X100183Y222062D01*
X100199Y221978D01*
X100211Y221879D01*
X100227Y221762D01*
X100233Y221618D01*
X100238Y221462D01*
Y221457D01*
Y221440D01*
Y221418D01*
Y221390D01*
Y221351D01*
X100233Y221307D01*
X100227Y221213D01*
X100216Y221101D01*
X100205Y220985D01*
X100183Y220880D01*
X100155Y220780D01*
Y220774D01*
X100150Y220768D01*
X100138Y220741D01*
X100122Y220696D01*
X100100Y220641D01*
X100066Y220585D01*
X100027Y220524D01*
X99983Y220463D01*
X99933Y220408D01*
X99928Y220402D01*
X99911Y220386D01*
X99878Y220363D01*
X99839Y220336D01*
X99783Y220302D01*
X99722Y220275D01*
X99656Y220247D01*
X99578Y220225D01*
X99572D01*
X99545Y220219D01*
X99500Y220214D01*
X99439Y220202D01*
X99400D01*
X99350Y220197D01*
X99300D01*
X99245Y220191D01*
X99178D01*
X99106Y220186D01*
X98601D01*
Y222728D01*
X99284D01*
X99356Y222722D01*
D02*
G37*
G36*
X93989D02*
X94067D01*
X94144Y222711D01*
X94217Y222706D01*
X94278Y222694D01*
X94289D01*
X94311Y222683D01*
X94344Y222672D01*
X94389Y222656D01*
X94439Y222633D01*
X94489Y222606D01*
X94538Y222572D01*
X94588Y222533D01*
X94594Y222528D01*
X94611Y222511D01*
X94633Y222483D01*
X94661Y222445D01*
X94688Y222395D01*
X94727Y222334D01*
X94755Y222256D01*
X94788Y222167D01*
Y222162D01*
X94794Y222156D01*
Y222139D01*
X94799Y222117D01*
X94810Y222095D01*
X94816Y222062D01*
X94833Y221978D01*
X94844Y221879D01*
X94860Y221762D01*
X94866Y221618D01*
X94871Y221462D01*
Y221457D01*
Y221440D01*
Y221418D01*
Y221390D01*
Y221351D01*
X94866Y221307D01*
X94860Y221213D01*
X94849Y221101D01*
X94838Y220985D01*
X94816Y220880D01*
X94788Y220780D01*
Y220774D01*
X94783Y220768D01*
X94772Y220741D01*
X94755Y220696D01*
X94733Y220641D01*
X94699Y220585D01*
X94661Y220524D01*
X94616Y220463D01*
X94566Y220408D01*
X94561Y220402D01*
X94544Y220386D01*
X94511Y220363D01*
X94472Y220336D01*
X94416Y220302D01*
X94355Y220275D01*
X94289Y220247D01*
X94211Y220225D01*
X94205D01*
X94178Y220219D01*
X94133Y220214D01*
X94072Y220202D01*
X94033D01*
X93984Y220197D01*
X93933D01*
X93878Y220191D01*
X93811D01*
X93739Y220186D01*
X93234D01*
Y222728D01*
X93917D01*
X93989Y222722D01*
D02*
G37*
G36*
X86258Y222783D02*
X86325Y222778D01*
X86397Y222766D01*
X86480Y222750D01*
X86569Y222728D01*
X86658Y222694D01*
X86663D01*
X86669Y222689D01*
X86696Y222678D01*
X86746Y222656D01*
X86802Y222628D01*
X86868Y222594D01*
X86940Y222556D01*
X87013Y222511D01*
X87079Y222461D01*
Y221967D01*
X86191D01*
Y221318D01*
X87862D01*
Y219464D01*
X86241D01*
X86291Y219470D01*
X86352Y219475D01*
X86424Y219481D01*
X86502Y219486D01*
X86585Y219503D01*
X86763Y219536D01*
X86946Y219592D01*
X87040Y219625D01*
X87129Y219664D01*
X87213Y219708D01*
X87290Y219764D01*
X87296Y219770D01*
X87307Y219775D01*
X87329Y219797D01*
X87357Y219819D01*
X87390Y219847D01*
X87423Y219886D01*
X87462Y219931D01*
X87507Y219980D01*
X87551Y220036D01*
X87595Y220097D01*
X87640Y220164D01*
X87679Y220241D01*
X87723Y220319D01*
X87756Y220402D01*
X87790Y220497D01*
X87812Y220591D01*
X87040Y220735D01*
Y220730D01*
X87035Y220724D01*
X87024Y220691D01*
X87002Y220641D01*
X86968Y220574D01*
X86929Y220502D01*
X86874Y220430D01*
X86807Y220358D01*
X86730Y220291D01*
X86718Y220286D01*
X86691Y220264D01*
X86641Y220236D01*
X86580Y220208D01*
X86497Y220175D01*
X86402Y220152D01*
X86297Y220130D01*
X86175Y220125D01*
X86125D01*
X86091Y220130D01*
X86047Y220136D01*
X85997Y220141D01*
X85941Y220152D01*
X85881Y220164D01*
X85753Y220202D01*
X85686Y220230D01*
X85620Y220264D01*
X85553Y220302D01*
X85486Y220341D01*
X85425Y220397D01*
X85364Y220452D01*
X85359Y220458D01*
X85353Y220469D01*
X85337Y220485D01*
X85320Y220513D01*
X85298Y220547D01*
X85270Y220585D01*
X85242Y220635D01*
X85220Y220691D01*
X85192Y220757D01*
X85164Y220830D01*
X85137Y220907D01*
X85115Y220990D01*
X85098Y221085D01*
X85081Y221190D01*
X85076Y221296D01*
X85070Y221412D01*
Y221418D01*
Y221440D01*
Y221479D01*
X85076Y221523D01*
X85081Y221584D01*
X85087Y221645D01*
X85098Y221723D01*
X85109Y221801D01*
X85142Y221967D01*
X85198Y222139D01*
X85231Y222223D01*
X85270Y222300D01*
X85320Y222378D01*
X85370Y222445D01*
X85375Y222450D01*
X85387Y222461D01*
X85403Y222478D01*
X85425Y222500D01*
X85459Y222522D01*
X85492Y222556D01*
X85536Y222583D01*
X85586Y222617D01*
X85642Y222650D01*
X85697Y222678D01*
X85836Y222733D01*
X85914Y222755D01*
X85992Y222772D01*
X86080Y222783D01*
X86169Y222789D01*
X86213D01*
X86258Y222783D01*
D02*
G37*
G36*
X84276Y221346D02*
Y221290D01*
X84282Y221229D01*
X84293Y221163D01*
X84304Y221085D01*
X84332Y220924D01*
X84376Y220741D01*
X84438Y220558D01*
X84476Y220469D01*
X84521Y220380D01*
X84526Y220374D01*
X84532Y220358D01*
X84548Y220336D01*
X84565Y220302D01*
X84593Y220264D01*
X84626Y220219D01*
X84665Y220169D01*
X84704Y220114D01*
X84754Y220058D01*
X84809Y219997D01*
X84870Y219936D01*
X84937Y219875D01*
X85009Y219819D01*
X85081Y219758D01*
X85253Y219658D01*
X85259D01*
X85270Y219647D01*
X85292Y219642D01*
X85320Y219625D01*
X85359Y219614D01*
X85398Y219598D01*
X85453Y219581D01*
X85509Y219559D01*
X85570Y219542D01*
X85642Y219525D01*
X85720Y219509D01*
X85797Y219492D01*
X85975Y219470D01*
X86175Y219464D01*
X84271D01*
Y221385D01*
X84276Y221346D01*
D02*
G37*
D10*
X100934Y29140D02*
X103439Y31645D01*
X96758Y33316D02*
X99263Y35821D01*
D12*
X120673Y102308D02*
X120452Y103271D01*
X120200Y104226D01*
X119917Y105173D01*
X119603Y106111D01*
X119259Y107037D01*
X118886Y107952D01*
X118483Y108854D01*
X118051Y109743D01*
X117590Y110618D01*
X117101Y111477D01*
X116585Y112319D01*
X116041Y113145D01*
X115471Y113952D01*
X114876Y114741D01*
X114255Y115509D01*
X113609Y116258D01*
X112940Y116985D01*
X112247Y117690D01*
X111532Y118372D01*
X110795Y119030D01*
X110037Y119665D01*
X109259Y120274D01*
X108461Y120858D01*
X107645Y121416D01*
X106812Y121947D01*
X105962Y122450D01*
X105096Y122926D01*
X104214Y123374D01*
X103319Y123793D01*
X102411Y124182D01*
X101490Y124542D01*
X100559Y124872D01*
X99617Y125172D01*
X98666Y125441D01*
X97707Y125678D01*
X96740Y125885D01*
X95768Y126060D01*
X94790Y126204D01*
X93808Y126316D01*
X92823Y126396D01*
X91836Y126444D01*
X90848Y126460D01*
X74115Y123057D02*
X74880Y122208D01*
X74878Y122208D02*
X75594Y122367D01*
X90839Y126460D02*
X89843Y126444D01*
X88848Y126395D01*
X87856Y126313D01*
X86866Y126199D01*
X85881Y126053D01*
X84901Y125875D01*
X83927Y125665D01*
X82961Y125423D01*
X82003Y125149D01*
X81055Y124845D01*
X80117Y124509D01*
X79191Y124143D01*
X78277Y123747D01*
X77376Y123321D01*
X76490Y122866D01*
X75620Y122382D01*
X62541Y107289D02*
X62174Y106333D01*
X61840Y105363D01*
X61541Y104383D01*
X61275Y103393D01*
X61045Y102395D01*
X90848Y65476D02*
X91836Y65492D01*
X92823Y65540D01*
X93808Y65620D01*
X94790Y65732D01*
X95768Y65875D01*
X96740Y66050D01*
X97707Y66257D01*
X98666Y66495D01*
X99617Y66764D01*
X100559Y67063D01*
X101490Y67393D01*
X102411Y67753D01*
X103319Y68143D01*
X104214Y68562D01*
X105096Y69009D01*
X105962Y69485D01*
X106812Y69989D01*
X107645Y70520D01*
X108461Y71078D01*
X109259Y71662D01*
X110037Y72271D01*
X110795Y72905D01*
X111532Y73564D01*
X112247Y74246D01*
X112940Y74951D01*
X113609Y75678D01*
X114255Y76426D01*
X114876Y77195D01*
X115471Y77983D01*
X116041Y78791D01*
X116585Y79616D01*
X117101Y80459D01*
X117590Y81318D01*
X118051Y82192D01*
X118483Y83081D01*
X118886Y83984D01*
X119260Y84899D01*
X119603Y85825D01*
X119917Y86762D01*
X120200Y87709D01*
X120452Y88665D01*
X120673Y89628D01*
X74880Y69727D02*
X74115Y68878D01*
X75594Y69569D02*
X74878Y69727D01*
X75620Y69554D02*
X76490Y69070D01*
X77376Y68615D01*
X78277Y68189D01*
X79191Y67793D01*
X80117Y67427D01*
X81055Y67091D01*
X82003Y66786D01*
X82961Y66513D01*
X83927Y66271D01*
X84901Y66061D01*
X85881Y65882D01*
X86866Y65736D01*
X87856Y65622D01*
X88848Y65541D01*
X89843Y65492D01*
X90839Y65476D01*
X61045Y89541D02*
X61275Y88542D01*
X61541Y87552D01*
X61840Y86572D01*
X62174Y85603D01*
X62541Y84646D01*
X62501Y107188D02*
Y124314D01*
X74115D01*
Y123054D02*
Y124314D01*
X62501Y67621D02*
Y84747D01*
Y67621D02*
X74115D01*
Y68881D01*
D16*
X97935Y38285D02*
X95709Y40512D01*
X94595Y39398D01*
Y38656D01*
X95338Y37914D01*
X96080Y37914D01*
X97193Y39027D01*
X96451Y38285D02*
Y36801D01*
X94595Y34945D02*
X92369Y37172D01*
X94595Y37172D01*
X93111Y35688D01*
X127559Y81825D02*
Y80775D01*
Y81300D01*
X124935D01*
X124410Y80775D01*
Y80251D01*
X124935Y79726D01*
X124410Y82874D02*
Y83924D01*
Y83399D01*
X127559D01*
X127034Y82874D01*
X124410Y87597D02*
Y85498D01*
X126509Y87597D01*
X127034D01*
X127559Y87072D01*
Y86023D01*
X127034Y85498D01*
X241471Y173623D02*
Y176246D01*
X241995Y176771D01*
X243045D01*
X243570Y176246D01*
Y173623D01*
X244619Y174147D02*
X245144Y173623D01*
X246194D01*
X246718Y174147D01*
Y174672D01*
X246194Y175197D01*
X245669D01*
X246194D01*
X246718Y175722D01*
Y176246D01*
X246194Y176771D01*
X245144D01*
X244619Y176246D01*
X259470Y169440D02*
Y166291D01*
X261045D01*
X261569Y166816D01*
Y167865D01*
X261045Y168390D01*
X259470D01*
X260520D02*
X261569Y169440D01*
X262619D02*
X263668D01*
X263144D01*
Y166291D01*
X262619Y166816D01*
X265243Y169440D02*
X266292D01*
X265768D01*
Y166291D01*
X265243Y166816D01*
X259253Y192915D02*
X262401D01*
Y194489D01*
X261876Y195014D01*
X260827D01*
X260302Y194489D01*
Y192915D01*
Y193964D02*
X259253Y195014D01*
Y196063D02*
Y197113D01*
Y196588D01*
X262401D01*
X261876Y196063D01*
Y198687D02*
X262401Y199212D01*
Y200261D01*
X261876Y200786D01*
X259777D01*
X259253Y200261D01*
Y199212D01*
X259777Y198687D01*
X261876D01*
X259253Y171589D02*
X262401D01*
Y173163D01*
X261876Y173688D01*
X260827D01*
X260302Y173163D01*
Y171589D01*
Y172638D02*
X259253Y173688D01*
X259777Y174737D02*
X259253Y175262D01*
Y176312D01*
X259777Y176836D01*
X261876D01*
X262401Y176312D01*
Y175262D01*
X261876Y174737D01*
X261351D01*
X260827Y175262D01*
Y176836D01*
D113*
X237303Y187992D02*
X236565Y188418D01*
Y187566D01*
X237303Y187992D01*
X238189Y181299D02*
Y185236D01*
Y181299D02*
X240846D01*
X250000D02*
Y185236D01*
X247342Y181299D02*
X250000D01*
M02*
