G04*
G04 #@! TF.GenerationSoftware,Altium Limited,Altium Designer,24.5.2 (23)*
G04*
G04 Layer_Color=8421504*
%FSLAX25Y25*%
%MOIN*%
G70*
G04*
G04 #@! TF.SameCoordinates,843F1F9D-CF68-4CC6-824C-A0058C937974*
G04*
G04*
G04 #@! TF.FilePolarity,Positive*
G04*
G01*
G75*
%ADD17R,0.01575X0.01575*%
%ADD18R,0.03701X0.04016*%
%ADD19R,0.04508X0.02165*%
%ADD20R,0.02165X0.04508*%
%ADD21R,0.04016X0.03701*%
%ADD22R,0.03937X0.03543*%
%ADD23R,0.03543X0.03937*%
%ADD24R,0.22638X0.09646*%
%ADD25R,0.12205X0.08661*%
%ADD26R,0.11417X0.21260*%
%ADD27R,0.02756X0.06004*%
%ADD28R,0.13583X0.10079*%
%ADD29R,0.04528X0.06693*%
%ADD30R,0.06693X0.04528*%
%ADD31R,0.01968X0.03150*%
%ADD32R,0.08465X0.11024*%
G04:AMPARAMS|DCode=33|XSize=15.75mil|YSize=31.5mil|CornerRadius=0mil|HoleSize=0mil|Usage=FLASHONLY|Rotation=135.000|XOffset=0mil|YOffset=0mil|HoleType=Round|Shape=Rectangle|*
%AMROTATEDRECTD33*
4,1,4,0.01670,0.00557,-0.00557,-0.01670,-0.01670,-0.00557,0.00557,0.01670,0.01670,0.00557,0.0*
%
%ADD33ROTATEDRECTD33*%

G04:AMPARAMS|DCode=34|XSize=31.5mil|YSize=15.75mil|CornerRadius=0mil|HoleSize=0mil|Usage=FLASHONLY|Rotation=135.000|XOffset=0mil|YOffset=0mil|HoleType=Round|Shape=Rectangle|*
%AMROTATEDRECTD34*
4,1,4,0.01670,-0.00557,0.00557,-0.01670,-0.01670,0.00557,-0.00557,0.01670,0.01670,-0.00557,0.0*
%
%ADD34ROTATEDRECTD34*%

G04:AMPARAMS|DCode=35|XSize=39.37mil|YSize=35.43mil|CornerRadius=0mil|HoleSize=0mil|Usage=FLASHONLY|Rotation=135.000|XOffset=0mil|YOffset=0mil|HoleType=Round|Shape=Rectangle|*
%AMROTATEDRECTD35*
4,1,4,0.02645,-0.00139,0.00139,-0.02645,-0.02645,0.00139,-0.00139,0.02645,0.02645,-0.00139,0.0*
%
%ADD35ROTATEDRECTD35*%

%ADD36R,0.05512X0.03937*%
G04:AMPARAMS|DCode=37|XSize=39.37mil|YSize=35.43mil|CornerRadius=0mil|HoleSize=0mil|Usage=FLASHONLY|Rotation=225.000|XOffset=0mil|YOffset=0mil|HoleType=Round|Shape=Rectangle|*
%AMROTATEDRECTD37*
4,1,4,0.00139,0.02645,0.02645,0.00139,-0.00139,-0.02645,-0.02645,-0.00139,0.00139,0.02645,0.0*
%
%ADD37ROTATEDRECTD37*%

%ADD38R,0.00945X0.03543*%
%ADD39R,0.03543X0.00945*%
%ADD40R,0.05906X0.08268*%
%ADD41R,0.02362X0.01181*%
%ADD42R,0.01181X0.02362*%
%ADD43R,0.06693X0.04331*%
%ADD44R,0.01378X0.02362*%
G36*
X45655Y74977D02*
X44959Y74281D01*
X46351Y72889D01*
X47047Y73585D01*
X49831Y70801D01*
X49135Y70105D01*
X50527Y68713D01*
X51223Y69409D01*
X54007Y66625D01*
X51223Y63841D01*
X48439Y66625D01*
X49135Y67321D01*
X47743Y68713D01*
X47047Y68017D01*
X44263Y70801D01*
X44959Y71497D01*
X43567Y72889D01*
X42871Y72193D01*
X42175Y72889D01*
X40783Y71497D01*
X41479Y70801D01*
X40783Y70105D01*
X42175Y68713D01*
X42871Y69409D01*
X45655Y66625D01*
X42871Y63841D01*
X40087Y66625D01*
X40783Y67321D01*
X39391Y68713D01*
X38695Y68017D01*
X37999Y68713D01*
X36607Y67321D01*
X37303Y66625D01*
X36607Y65929D01*
X37999Y64537D01*
X38695Y65233D01*
X41479Y62449D01*
X40783Y61753D01*
X42175Y60361D01*
X42871Y61057D01*
X45655Y58273D01*
X44263Y56881D01*
X41479D01*
X40087Y58273D01*
X40783Y58969D01*
X39391Y60361D01*
X38695Y59665D01*
X35911Y62449D01*
X36607Y63145D01*
X35215Y64537D01*
X34519Y63841D01*
X31736Y66625D01*
X34519Y69409D01*
X35215Y68713D01*
X36607Y70105D01*
X35911Y70801D01*
X38695Y73585D01*
X39391Y72889D01*
X40783Y74281D01*
X40087Y74977D01*
X42871Y77761D01*
X45655Y74977D01*
D02*
G37*
D17*
X139567Y125984D02*
D03*
Y124016D02*
D03*
Y127953D02*
D03*
Y129921D02*
D03*
X143701Y124016D02*
D03*
X141732D02*
D03*
X145866D02*
D03*
X143701Y129921D02*
D03*
X141732D02*
D03*
X145866Y125984D02*
D03*
Y129921D02*
D03*
Y127953D02*
D03*
D18*
X146496Y24606D02*
D03*
X152717D02*
D03*
X129278Y43143D02*
D03*
X135498D02*
D03*
X152717D02*
D03*
X146496D02*
D03*
X146496Y18701D02*
D03*
X152717D02*
D03*
Y12368D02*
D03*
X146496D02*
D03*
X267717Y190945D02*
D03*
X261496D02*
D03*
X215170Y132601D02*
D03*
X221390D02*
D03*
X233110Y161417D02*
D03*
X239331D02*
D03*
X77814Y102057D02*
D03*
X84034D02*
D03*
X87335Y90285D02*
D03*
X93556D02*
D03*
X97570Y84399D02*
D03*
X91349D02*
D03*
X101093Y90536D02*
D03*
X107314D02*
D03*
X124843Y131890D02*
D03*
X131063D02*
D03*
Y125236D02*
D03*
X124843D02*
D03*
X139336Y136099D02*
D03*
X145556D02*
D03*
X124843Y118752D02*
D03*
X131063D02*
D03*
X96614Y125984D02*
D03*
X90394D02*
D03*
X79567Y172244D02*
D03*
X85787D02*
D03*
X67756D02*
D03*
X73976D02*
D03*
X43976D02*
D03*
X50197D02*
D03*
X55945D02*
D03*
X62165D02*
D03*
X123858Y81089D02*
D03*
X130079D02*
D03*
X123858Y75246D02*
D03*
X130079D02*
D03*
X156796Y87598D02*
D03*
X150576D02*
D03*
X145377Y93379D02*
D03*
X139157D02*
D03*
X123858Y87598D02*
D03*
X130079D02*
D03*
X156796Y81089D02*
D03*
X150576D02*
D03*
D19*
X130905Y34843D02*
D03*
Y31693D02*
D03*
Y28543D02*
D03*
Y25394D02*
D03*
Y22244D02*
D03*
Y19094D02*
D03*
X138858Y34843D02*
D03*
Y31693D02*
D03*
Y28543D02*
D03*
Y25394D02*
D03*
Y22244D02*
D03*
Y19094D02*
D03*
D20*
X134882Y34882D02*
D03*
Y19055D02*
D03*
D21*
X152559Y36575D02*
D03*
Y30354D02*
D03*
X176525Y10552D02*
D03*
Y16772D02*
D03*
X209106Y150151D02*
D03*
Y143931D02*
D03*
X215485Y144121D02*
D03*
Y150341D02*
D03*
X221390Y144121D02*
D03*
Y150341D02*
D03*
X227281Y132277D02*
D03*
Y138498D02*
D03*
X48337Y119864D02*
D03*
Y113644D02*
D03*
X58474Y113644D02*
D03*
Y119864D02*
D03*
X71536Y119864D02*
D03*
Y113644D02*
D03*
X81984D02*
D03*
Y119864D02*
D03*
X105315Y120607D02*
D03*
Y126828D02*
D03*
X65831Y18310D02*
D03*
Y24530D02*
D03*
X89873Y18852D02*
D03*
Y25073D02*
D03*
X105315Y185197D02*
D03*
Y178976D02*
D03*
X30512Y136658D02*
D03*
Y130438D02*
D03*
X36417Y182913D02*
D03*
Y189134D02*
D03*
X30512Y189134D02*
D03*
Y182913D02*
D03*
D22*
X123031Y34843D02*
D03*
Y28150D02*
D03*
X195317Y10360D02*
D03*
X183506D02*
D03*
X233186Y132041D02*
D03*
Y138734D02*
D03*
X30512Y142319D02*
D03*
Y149012D02*
D03*
X30512Y176575D02*
D03*
Y169882D02*
D03*
D23*
X267717Y184055D02*
D03*
Y172244D02*
D03*
X177067Y81397D02*
D03*
X170374D02*
D03*
X248933Y124636D02*
D03*
X255626D02*
D03*
X214933Y138380D02*
D03*
X221626D02*
D03*
X176761Y51055D02*
D03*
X170068D02*
D03*
X170068Y44667D02*
D03*
X176761D02*
D03*
X254195Y162046D02*
D03*
X247502D02*
D03*
X247502Y168054D02*
D03*
X254195D02*
D03*
X103634Y108002D02*
D03*
X96941D02*
D03*
X77578Y108002D02*
D03*
X84270D02*
D03*
X152165Y122047D02*
D03*
X158858D02*
D03*
X152165Y127953D02*
D03*
X158858D02*
D03*
X120257Y13662D02*
D03*
X126950D02*
D03*
X123622Y69358D02*
D03*
X130315D02*
D03*
X157033Y74803D02*
D03*
X150340D02*
D03*
X170571Y102965D02*
D03*
X177264D02*
D03*
D24*
X239933Y49434D02*
D03*
X196626D02*
D03*
X179134Y185039D02*
D03*
X222441D02*
D03*
D25*
X258777Y88143D02*
D03*
Y115702D02*
D03*
D26*
X239491Y102022D02*
D03*
X200514D02*
D03*
D27*
X254466Y152954D02*
D03*
X249466D02*
D03*
X244466D02*
D03*
X239466D02*
D03*
Y131600D02*
D03*
X244466D02*
D03*
X249466D02*
D03*
X254466D02*
D03*
D28*
X246966Y142277D02*
D03*
D29*
X61752Y189924D02*
D03*
X49350D02*
D03*
D30*
X35427Y121852D02*
D03*
Y109451D02*
D03*
D31*
X90052Y102490D02*
D03*
X93595D02*
D03*
X97138D02*
D03*
X100681D02*
D03*
Y97766D02*
D03*
X97138D02*
D03*
X93595D02*
D03*
X90052D02*
D03*
D32*
X210294Y222247D02*
D03*
X229625D02*
D03*
D33*
X40505Y35306D02*
D03*
X38278Y37534D02*
D03*
X36051Y39761D02*
D03*
X33823Y41988D02*
D03*
X31596Y44215D02*
D03*
X29369Y46442D02*
D03*
X27142Y48669D02*
D03*
X24915Y50896D02*
D03*
X22688Y53123D02*
D03*
X20461Y55350D02*
D03*
X18234Y57577D02*
D03*
X16006Y59805D02*
D03*
X13779Y62032D02*
D03*
X11552Y64259D02*
D03*
X45237Y97944D02*
D03*
X47464Y95717D02*
D03*
X49692Y93490D02*
D03*
X51919Y91263D02*
D03*
X54146Y89035D02*
D03*
X56373Y86808D02*
D03*
X58600Y84581D02*
D03*
X60827Y82354D02*
D03*
X63054Y80127D02*
D03*
X65281Y77900D02*
D03*
X67508Y75673D02*
D03*
X69735Y73446D02*
D03*
X71963Y71219D02*
D03*
X74190Y68991D02*
D03*
D34*
X13083Y69687D02*
D03*
X15311Y71914D02*
D03*
X17538Y74142D02*
D03*
X19765Y76369D02*
D03*
X21992Y78596D02*
D03*
X24219Y80823D02*
D03*
X26446Y83050D02*
D03*
X28673Y85277D02*
D03*
X30900Y87504D02*
D03*
X33127Y89731D02*
D03*
X35355Y91958D02*
D03*
X37582Y94186D02*
D03*
X39809Y96413D02*
D03*
X72659Y63563D02*
D03*
X70432Y61336D02*
D03*
X68204Y59109D02*
D03*
X65977Y56881D02*
D03*
X63750Y54654D02*
D03*
X61523Y52427D02*
D03*
X59296Y50200D02*
D03*
X57069Y47973D02*
D03*
X54842Y45746D02*
D03*
X52615Y43519D02*
D03*
X50388Y41292D02*
D03*
X48160Y39065D02*
D03*
X45933Y36838D02*
D03*
D35*
X55639Y35766D02*
D03*
X50906Y31033D02*
D03*
X59739Y31608D02*
D03*
X55007Y26875D02*
D03*
D36*
X82087Y21654D02*
D03*
X73425Y17913D02*
D03*
Y25394D02*
D03*
X106502Y22024D02*
D03*
X97841Y18284D02*
D03*
Y25765D02*
D03*
D37*
X59380Y39876D02*
D03*
X64113Y35143D02*
D03*
D38*
X80709Y191142D02*
D03*
Y178937D02*
D03*
X82677D02*
D03*
Y191142D02*
D03*
D39*
X76575Y188976D02*
D03*
Y187008D02*
D03*
Y185039D02*
D03*
Y183071D02*
D03*
Y181102D02*
D03*
X86811D02*
D03*
Y183071D02*
D03*
Y185039D02*
D03*
Y187008D02*
D03*
Y188976D02*
D03*
D40*
X105394Y134646D02*
D03*
X95394D02*
D03*
Y170472D02*
D03*
X105394D02*
D03*
X81772Y127756D02*
D03*
X71772D02*
D03*
Y163583D02*
D03*
X81772D02*
D03*
X58150Y127756D02*
D03*
X48150D02*
D03*
Y163583D02*
D03*
X58150D02*
D03*
D41*
X136221Y80709D02*
D03*
Y78740D02*
D03*
Y76772D02*
D03*
Y74803D02*
D03*
X145276D02*
D03*
Y76772D02*
D03*
Y78740D02*
D03*
Y80709D02*
D03*
D42*
X138779Y74213D02*
D03*
X140748D02*
D03*
X142717D02*
D03*
Y81299D02*
D03*
X140748D02*
D03*
X138779D02*
D03*
D43*
X173721Y92114D02*
D03*
D44*
X176279Y87980D02*
D03*
X173721D02*
D03*
X171161D02*
D03*
Y96248D02*
D03*
X173721D02*
D03*
X176279D02*
D03*
M02*
