G04*
G04 #@! TF.GenerationSoftware,Altium Limited,Altium Designer,24.5.2 (23)*
G04*
G04 Layer_Physical_Order=2*
G04 Layer_Color=16711680*
%FSLAX25Y25*%
%MOIN*%
G70*
G04*
G04 #@! TF.SameCoordinates,843F1F9D-CF68-4CC6-824C-A0058C937974*
G04*
G04*
G04 #@! TF.FilePolarity,Positive*
G04*
G01*
G75*
%ADD15C,0.00800*%
%ADD18R,0.03701X0.04016*%
%ADD87C,0.01575*%
%ADD88C,0.03150*%
%ADD89C,0.01968*%
%ADD90C,0.02756*%
%ADD91C,0.01378*%
%ADD92C,0.03937*%
%ADD94C,0.03937*%
%ADD95C,0.05118*%
%ADD96C,0.04331*%
%ADD97R,0.04331X0.04331*%
%ADD98R,0.04803X0.04803*%
%ADD99C,0.04803*%
%ADD100R,0.07677X0.07677*%
%ADD101C,0.07677*%
%ADD102C,0.06063*%
%ADD103C,0.05906*%
%ADD104R,0.07874X0.19685*%
%ADD105R,0.19685X0.07874*%
%ADD106C,0.23622*%
G04:AMPARAMS|DCode=107|XSize=66.93mil|YSize=45.28mil|CornerRadius=0mil|HoleSize=0mil|Usage=FLASHONLY|Rotation=315.000|XOffset=0mil|YOffset=0mil|HoleType=Round|Shape=Rectangle|*
%AMROTATEDRECTD107*
4,1,4,-0.03967,0.00766,-0.00766,0.03967,0.03967,-0.00766,0.00766,-0.03967,-0.03967,0.00766,0.0*
%
%ADD107ROTATEDRECTD107*%

%ADD108R,0.03150X0.03543*%
%ADD109R,0.14173X0.10236*%
G36*
X273584Y2007D02*
X163031D01*
Y10563D01*
X162960Y10920D01*
X162899Y11279D01*
X162883Y11303D01*
X162878Y11331D01*
X162676Y11634D01*
X162482Y11942D01*
X162443Y12223D01*
Y12542D01*
X162482Y12824D01*
X162676Y13133D01*
X162878Y13435D01*
X162883Y13463D01*
X162899Y13487D01*
X162960Y13846D01*
X163031Y14203D01*
Y36130D01*
X163000Y36283D01*
X163006Y36441D01*
X162924Y36664D01*
X162878Y36898D01*
X162791Y37028D01*
X162736Y37176D01*
X162575Y37351D01*
X162443Y37549D01*
X162312Y37636D01*
X162206Y37751D01*
X161990Y37852D01*
X161792Y37984D01*
X161638Y38014D01*
X161495Y38080D01*
X160746Y38261D01*
X160508Y38271D01*
X160275Y38317D01*
X160121Y38287D01*
X159964Y38293D01*
X159896Y38269D01*
X159598Y38785D01*
X159082Y39301D01*
X158451Y39665D01*
X158140Y39749D01*
X158146Y39783D01*
Y40619D01*
X158549Y40727D01*
X159180Y41092D01*
X159696Y41607D01*
X160060Y42239D01*
X160118Y42455D01*
X160224Y42434D01*
X160418Y42473D01*
X160615D01*
X161415Y42632D01*
X161598Y42707D01*
X161792Y42746D01*
X161956Y42856D01*
X162139Y42932D01*
X162278Y43071D01*
X162443Y43181D01*
X162553Y43345D01*
X162692Y43485D01*
X162768Y43668D01*
X162878Y43832D01*
X162917Y44026D01*
X162992Y44209D01*
Y44407D01*
X163031Y44600D01*
Y104292D01*
X183858D01*
X184626Y104445D01*
X185277Y104880D01*
X185713Y105531D01*
X185865Y106299D01*
Y152497D01*
X185713Y153265D01*
X185277Y153916D01*
X184626Y154351D01*
X183858Y154504D01*
X87637D01*
Y186829D01*
X87484Y187597D01*
X87049Y188249D01*
X86398Y188684D01*
X86129Y189137D01*
X86251Y190062D01*
Y200436D01*
X86129Y201361D01*
X85772Y202223D01*
X85204Y202964D01*
X83212Y204956D01*
Y212663D01*
X83303Y212754D01*
X87909D01*
X88123Y211953D01*
X87423Y211549D01*
X86522Y210648D01*
X85885Y209545D01*
X85555Y208314D01*
Y208177D01*
X90394D01*
Y207677D01*
X90894D01*
Y202839D01*
X91031D01*
X92261Y203168D01*
X93365Y203805D01*
X93648Y203777D01*
X94354Y202720D01*
X95437Y201638D01*
X96711Y200786D01*
X98126Y200200D01*
X99628Y199902D01*
X101160D01*
X102334Y200135D01*
X102618Y199902D01*
Y199902D01*
X106820D01*
Y175039D01*
X106942Y174114D01*
X107299Y173252D01*
X107867Y172512D01*
X120504Y159874D01*
X121245Y159307D01*
X122107Y158949D01*
X123031Y158828D01*
X186512D01*
X193277Y152063D01*
Y92032D01*
X180024Y78779D01*
X166339D01*
X165570Y78626D01*
X164919Y78191D01*
X164484Y77540D01*
X164331Y76772D01*
Y56102D01*
X164484Y55334D01*
X164919Y54683D01*
X165570Y54248D01*
X166339Y54095D01*
X181102D01*
X181870Y54248D01*
X182522Y54683D01*
X182957Y55334D01*
X183109Y56102D01*
Y71756D01*
X199378Y88024D01*
X199945Y88764D01*
X200303Y89626D01*
X200424Y90551D01*
X200424Y90551D01*
Y153543D01*
X200303Y154468D01*
X199945Y155330D01*
X199378Y156070D01*
X190519Y164929D01*
X189779Y165497D01*
X188917Y165854D01*
X187992Y165975D01*
X124512D01*
X113968Y176520D01*
Y199902D01*
X118169D01*
Y215453D01*
X113368D01*
X111441Y217379D01*
X110701Y217947D01*
X109839Y218304D01*
X109157Y218394D01*
X108804Y218854D01*
X108063Y219422D01*
X107202Y219779D01*
X106277Y219901D01*
X81823D01*
X81823Y219901D01*
X80898Y219779D01*
X80036Y219422D01*
X79295Y218854D01*
X75894Y215453D01*
X67661D01*
Y215453D01*
X67376Y215219D01*
X66202Y215453D01*
X64671D01*
X63168Y215154D01*
X61753Y214568D01*
X60480Y213717D01*
X60436Y213673D01*
X60393Y213717D01*
X59120Y214568D01*
X57705Y215154D01*
X56202Y215453D01*
X54671D01*
X53168Y215154D01*
X51753Y214568D01*
X50480Y213717D01*
X49397Y212634D01*
X48691Y211577D01*
X48408Y211549D01*
X47304Y212186D01*
X46073Y212516D01*
X45937D01*
Y207677D01*
Y202839D01*
X46073D01*
X47304Y203168D01*
X48408Y203805D01*
X48691Y203778D01*
X49397Y202720D01*
X50480Y201638D01*
X51753Y200786D01*
X53168Y200200D01*
X54671Y199902D01*
X56202D01*
X57705Y200200D01*
X59120Y200786D01*
X60393Y201638D01*
X60436Y201681D01*
X60480Y201638D01*
X61753Y200786D01*
X63168Y200200D01*
X64671Y199902D01*
X66202D01*
X67376Y200135D01*
X67661Y199902D01*
Y199902D01*
X78158D01*
X79103Y198956D01*
Y197235D01*
X78370Y196676D01*
X78042Y196729D01*
X77489Y197282D01*
X76812Y197673D01*
X76167Y197846D01*
Y194907D01*
X75167D01*
Y197846D01*
X74521Y197673D01*
X73844Y197282D01*
X73383Y196821D01*
X73135Y196838D01*
X72878Y196889D01*
X27860D01*
X27797Y196881D01*
X27762Y196887D01*
X27217Y196811D01*
X26631Y198226D01*
X25780Y199500D01*
X24697Y200583D01*
X23423Y201434D01*
X22008Y202020D01*
X20506Y202319D01*
X18974D01*
X17472Y202020D01*
X16057Y201434D01*
X14784Y200583D01*
X13701Y199500D01*
X12849Y198226D01*
X12263Y196811D01*
X12185Y196418D01*
X11970Y196303D01*
X10623Y196571D01*
X9251D01*
X7904Y196303D01*
X6636Y195778D01*
X5495Y195015D01*
X4524Y194044D01*
X3762Y192903D01*
X3236Y191635D01*
X2968Y190289D01*
Y188916D01*
X3236Y187570D01*
X3762Y186302D01*
X4524Y185160D01*
X5495Y184190D01*
X6636Y183427D01*
X7904Y182902D01*
X9251Y182634D01*
X10623D01*
X11970Y182902D01*
X13238Y183427D01*
X14379Y184190D01*
X15350Y185160D01*
X16112Y186302D01*
X16582Y187435D01*
X17472Y187066D01*
X17678Y186680D01*
Y174808D01*
X17472Y174422D01*
X16057Y173836D01*
X14784Y172985D01*
X14674Y172875D01*
X13782Y173114D01*
X13694Y173442D01*
X13163Y174361D01*
X12412Y175112D01*
X11493Y175643D01*
X10468Y175917D01*
X10437D01*
Y171886D01*
Y167854D01*
X10468D01*
X11217Y168055D01*
X11530Y167911D01*
X11822Y167675D01*
X11965Y167478D01*
Y166179D01*
X12263Y164677D01*
X12849Y163262D01*
X13701Y161988D01*
X14630Y161059D01*
X13701Y160130D01*
X12849Y158856D01*
X12263Y157441D01*
X12185Y157048D01*
X11970Y156933D01*
X10623Y157201D01*
X9251D01*
X7904Y156933D01*
X6636Y156408D01*
X5495Y155645D01*
X4524Y154674D01*
X3762Y153533D01*
X3236Y152265D01*
X2968Y150919D01*
Y149546D01*
X3236Y148200D01*
X3762Y146932D01*
X4524Y145790D01*
X5495Y144819D01*
X6636Y144057D01*
X7904Y143532D01*
X9251Y143264D01*
X10623D01*
X11970Y143532D01*
X13238Y144057D01*
X14379Y144819D01*
X15350Y145790D01*
X16112Y146932D01*
X16582Y148065D01*
X17472Y147696D01*
X17678Y147310D01*
Y135438D01*
X17472Y135052D01*
X16057Y134465D01*
X14784Y133615D01*
X14674Y133505D01*
X13782Y133744D01*
X13694Y134072D01*
X13163Y134991D01*
X12412Y135742D01*
X11493Y136273D01*
X10468Y136547D01*
X10437D01*
Y132516D01*
Y128484D01*
X10468D01*
X11217Y128685D01*
X11530Y128541D01*
X11822Y128305D01*
X11965Y128107D01*
Y126809D01*
X12263Y125307D01*
X12849Y123892D01*
X13253Y123287D01*
X12826Y122487D01*
X10827D01*
X9905Y122304D01*
X9124Y121782D01*
X3596Y116254D01*
X3074Y115473D01*
X2891Y114551D01*
Y70488D01*
X3074Y69567D01*
X3596Y68785D01*
X16998Y55384D01*
X17779Y54861D01*
X18701Y54678D01*
X31483D01*
X53415Y32746D01*
X54196Y32224D01*
X55118Y32040D01*
X70853D01*
X81301Y21592D01*
Y18076D01*
X81130Y17779D01*
X80941Y17075D01*
Y16346D01*
X81130Y15642D01*
X81495Y15010D01*
X81525Y14980D01*
X81194Y14180D01*
X81014D01*
X79790Y13936D01*
X78636Y13458D01*
X77598Y12765D01*
X76715Y11882D01*
X76022Y10844D01*
X75544Y9690D01*
X75507Y9508D01*
X74669Y9395D01*
X74361Y9930D01*
X73727Y10563D01*
X72952Y11011D01*
X72139Y11229D01*
Y7841D01*
Y4454D01*
X72952Y4671D01*
X73727Y5119D01*
X74361Y5753D01*
X74669Y6287D01*
X75507Y6175D01*
X75544Y5992D01*
X76022Y4839D01*
X76715Y3801D01*
X77598Y2918D01*
X77764Y2807D01*
X77521Y2007D01*
X67977D01*
Y5780D01*
X68777Y5994D01*
X68917Y5753D01*
X69550Y5119D01*
X70326Y4671D01*
X71139Y4454D01*
Y7841D01*
Y11229D01*
X70326Y11011D01*
X69550Y10563D01*
X68917Y9930D01*
X68777Y9688D01*
X67977Y9903D01*
Y14180D01*
X55300D01*
Y2007D01*
X2007D01*
Y47244D01*
Y100394D01*
Y234213D01*
X163441D01*
X163542Y234080D01*
X163367Y233005D01*
X162931Y232714D01*
X161971Y231754D01*
X161217Y230626D01*
X160698Y229372D01*
X160433Y228041D01*
Y226684D01*
X160698Y225353D01*
X161217Y224099D01*
X161971Y222970D01*
X162931Y222011D01*
X164059Y221257D01*
X165313Y220737D01*
X166644Y220472D01*
X168001D01*
X169333Y220737D01*
X170586Y221257D01*
X170823Y221415D01*
X171623Y220987D01*
Y218016D01*
X157906Y204299D01*
X157338Y203559D01*
X156981Y202697D01*
X156859Y201772D01*
Y185804D01*
X156299Y185236D01*
X128953D01*
Y189461D01*
X124516D01*
Y179118D01*
X128740D01*
Y169488D01*
X156299D01*
Y173788D01*
X157677D01*
X158602Y173910D01*
X159464Y174267D01*
X160204Y174835D01*
X162960Y177591D01*
X162960Y177591D01*
X163528Y178331D01*
X163885Y179193D01*
X164007Y180118D01*
X164007Y180118D01*
Y200291D01*
X177724Y214008D01*
X178292Y214749D01*
X178649Y215610D01*
X178771Y216535D01*
Y221461D01*
X179571Y221888D01*
X179994Y221605D01*
X181176Y221116D01*
X182431Y220866D01*
X183711D01*
X184966Y221116D01*
X186148Y221605D01*
X187008Y222180D01*
X187868Y221605D01*
X189050Y221116D01*
X190305Y220866D01*
X191585D01*
X192840Y221116D01*
X194022Y221605D01*
X194528Y221943D01*
X195555Y221257D01*
X196809Y220737D01*
X198140Y220472D01*
X199497D01*
X200829Y220737D01*
X202082Y221257D01*
X203211Y222011D01*
X204170Y222970D01*
X204925Y224099D01*
X205444Y225353D01*
X205709Y226684D01*
Y228041D01*
X205444Y229372D01*
X204925Y230626D01*
X204170Y231754D01*
X203211Y232714D01*
X202775Y233005D01*
X202599Y234080D01*
X202700Y234213D01*
X273584D01*
X273584Y2007D01*
D02*
G37*
G36*
X181102Y56102D02*
X166339D01*
Y76772D01*
X181102D01*
Y56102D01*
D02*
G37*
G36*
X72969Y194184D02*
X73248Y193510D01*
X73692Y192932D01*
X74270Y192488D01*
X74944Y192209D01*
X75667Y192114D01*
X76389Y192209D01*
X77063Y192488D01*
X77641Y192932D01*
X78085Y193510D01*
X78364Y194184D01*
X79103Y193986D01*
Y191542D01*
X69284Y181723D01*
X67913D01*
X66988Y181602D01*
X66127Y181245D01*
X65386Y180677D01*
X64818Y179937D01*
X64461Y179075D01*
X64340Y178150D01*
X64461Y177225D01*
X64586Y176924D01*
Y176362D01*
X63645Y175421D01*
X47304D01*
Y177471D01*
X47196Y178293D01*
X46878Y179059D01*
X46373Y179717D01*
X46223Y179868D01*
X45565Y180373D01*
X44799Y180690D01*
X43976Y180798D01*
X43154Y180690D01*
X42388Y180373D01*
X41730Y179868D01*
X41225Y179210D01*
X40908Y178444D01*
X40800Y177622D01*
X40908Y176799D01*
X40950Y176697D01*
Y174089D01*
X41058Y173267D01*
X41376Y172501D01*
X41881Y171843D01*
X43726Y169998D01*
X44384Y169493D01*
X45150Y169176D01*
X45972Y169067D01*
X64961D01*
X65783Y169176D01*
X66549Y169493D01*
X67207Y169998D01*
X70009Y172800D01*
X70514Y173458D01*
X70831Y174224D01*
X70880Y174591D01*
X71690Y174697D01*
X72552Y175055D01*
X73292Y175622D01*
X84830Y187161D01*
X85630Y186829D01*
Y152497D01*
X183858D01*
Y106299D01*
X161024D01*
Y44600D01*
X160224Y44441D01*
X160073Y44804D01*
X159598Y45424D01*
X158977Y45900D01*
X158255Y46199D01*
X157980Y46235D01*
Y43307D01*
X157480D01*
Y42807D01*
X154552D01*
X154588Y42532D01*
X154887Y41810D01*
X155363Y41190D01*
X155983Y40714D01*
X156139Y40649D01*
Y39783D01*
X155886Y39678D01*
X155265Y39203D01*
X154790Y38583D01*
X154490Y37860D01*
X154454Y37585D01*
X157383D01*
Y37085D01*
X157883D01*
Y34157D01*
X158158Y34193D01*
X158880Y34492D01*
X159500Y34968D01*
X159976Y35588D01*
X160275Y36310D01*
X161024Y36130D01*
Y14203D01*
X160588Y14008D01*
X160224Y13982D01*
X159826Y14500D01*
X159205Y14976D01*
X158483Y15275D01*
X158209Y15311D01*
Y12383D01*
Y9455D01*
X158483Y9491D01*
X159205Y9790D01*
X159826Y10266D01*
X160224Y10785D01*
X160588Y10758D01*
X161024Y10563D01*
Y2007D01*
X121063D01*
Y19685D01*
X118564D01*
X106007Y32242D01*
X107203Y33438D01*
X104130Y36511D01*
X101056Y39585D01*
X99860Y38389D01*
X88838Y49411D01*
Y63177D01*
X88655Y64098D01*
X88133Y64880D01*
X81333Y71680D01*
X80552Y72202D01*
X79630Y72385D01*
X78866D01*
X78707Y73185D01*
X79152Y73369D01*
X79730Y73813D01*
X80174Y74391D01*
X80453Y75065D01*
X80548Y75787D01*
X80453Y76510D01*
X80174Y77184D01*
X79955Y77469D01*
X80213Y78291D01*
X80253Y78334D01*
X80600Y78396D01*
X107267Y51728D01*
X108049Y51206D01*
X108970Y51023D01*
X113671D01*
X113683Y51013D01*
X114357Y50734D01*
X115080Y50639D01*
X115802Y50734D01*
X116476Y51013D01*
X117054Y51457D01*
X117498Y52035D01*
X117777Y52708D01*
X117872Y53431D01*
X117777Y54154D01*
X117498Y54827D01*
X117488Y54840D01*
Y58149D01*
X117305Y59070D01*
X116783Y59852D01*
X115597Y61037D01*
Y90050D01*
X129521D01*
Y92656D01*
X132038D01*
X132861Y92764D01*
X133627Y93081D01*
X134285Y93586D01*
X134790Y94244D01*
X135107Y95011D01*
X135215Y95833D01*
X135107Y96655D01*
X134790Y97421D01*
X134285Y98079D01*
X133627Y98584D01*
X132861Y98901D01*
X132038Y99010D01*
X129521D01*
Y101886D01*
X115597D01*
Y105875D01*
X115607Y105887D01*
X115886Y106561D01*
X115981Y107283D01*
X115886Y108006D01*
X115607Y108680D01*
X115597Y108692D01*
Y131502D01*
X115820Y132038D01*
X115915Y132761D01*
X115820Y133484D01*
X115541Y134157D01*
X115097Y134735D01*
X114519Y135179D01*
X113845Y135458D01*
X113122Y135553D01*
X112400Y135458D01*
X111726Y135179D01*
X111148Y134735D01*
X110704Y134157D01*
X110425Y133484D01*
X110330Y132761D01*
X110425Y132038D01*
X110704Y131365D01*
X110781Y131265D01*
Y118387D01*
X109980Y117852D01*
X109975Y117855D01*
X109252Y117950D01*
X108529Y117855D01*
X107856Y117576D01*
X107277Y117132D01*
X106834Y116554D01*
X106555Y115880D01*
X106460Y115157D01*
X106555Y114435D01*
X106834Y113761D01*
X106843Y113749D01*
Y105740D01*
X106834Y105727D01*
X106555Y105053D01*
X106460Y104331D01*
X106555Y103608D01*
X106834Y102935D01*
X106843Y102922D01*
Y99381D01*
X106044Y98889D01*
X105493Y98962D01*
X104718Y98860D01*
X103996Y98561D01*
X103376Y98085D01*
X102900Y97465D01*
X102601Y96743D01*
X102499Y95968D01*
X102601Y95193D01*
X102900Y94471D01*
X103376Y93851D01*
X103996Y93375D01*
X104718Y93076D01*
X105493Y92974D01*
X106044Y93046D01*
X106843Y92555D01*
Y89241D01*
X106876Y89076D01*
X106476Y88655D01*
Y85402D01*
Y82474D01*
X106524Y82480D01*
X107324Y81987D01*
Y75648D01*
X107027Y75204D01*
X106843Y74282D01*
Y67829D01*
X106104Y67523D01*
X91364Y82264D01*
X90582Y82786D01*
X90573Y82788D01*
X90104Y83361D01*
X90014Y83530D01*
X90019Y83542D01*
X90055Y83817D01*
X87127D01*
Y84817D01*
X90055D01*
X90019Y85092D01*
X89720Y85814D01*
X89836Y86515D01*
X90094Y86688D01*
X101112Y97706D01*
X101635Y98488D01*
X101818Y99410D01*
Y113029D01*
X102310Y113429D01*
Y116649D01*
Y119577D01*
X102035Y119541D01*
X101313Y119242D01*
X100693Y118766D01*
X100414Y118403D01*
X99614Y118675D01*
Y120115D01*
X99538Y120501D01*
X99546Y120567D01*
X99451Y121290D01*
X99172Y121964D01*
X98728Y122542D01*
X98150Y122986D01*
X97477Y123265D01*
X96754Y123360D01*
X96031Y123265D01*
X95358Y122986D01*
X94779Y122542D01*
X94336Y121964D01*
X94057Y121290D01*
X93962Y120567D01*
X94057Y119845D01*
X94336Y119171D01*
X94779Y118593D01*
X94797Y118579D01*
Y116554D01*
X94371Y116055D01*
X94073Y115865D01*
X93919Y115885D01*
X93196Y115790D01*
X92523Y115511D01*
X91945Y115067D01*
X91501Y114489D01*
X91341Y114102D01*
X90519Y114210D01*
X90491Y114429D01*
X90191Y115151D01*
X89716Y115771D01*
X89095Y116247D01*
X88373Y116546D01*
X88098Y116582D01*
Y113654D01*
X87598D01*
Y113154D01*
X84670D01*
X84706Y112879D01*
X85005Y112157D01*
X85481Y111537D01*
X86101Y111061D01*
X86547Y110876D01*
X86672Y110662D01*
X86795Y110173D01*
X86785Y109960D01*
X86477Y109558D01*
X86177Y108836D01*
X86141Y108561D01*
X89070D01*
Y108061D01*
X89570D01*
Y105133D01*
X89845Y105169D01*
X90567Y105468D01*
X90711Y105579D01*
X91511Y105184D01*
Y98854D01*
X86834Y94177D01*
X86452Y94243D01*
X85980Y95121D01*
X85980Y95123D01*
X86016Y95398D01*
X83088D01*
Y95898D01*
X82588D01*
Y98826D01*
X82313Y98790D01*
X81591Y98491D01*
X80971Y98015D01*
X80495Y97395D01*
X80281Y96879D01*
X79588Y96894D01*
X79457Y96933D01*
X79113Y97763D01*
X78543Y98506D01*
X77799Y99077D01*
X76934Y99435D01*
X76005Y99558D01*
X75076Y99435D01*
X74210Y99077D01*
X73466Y98506D01*
X72896Y97763D01*
X72537Y96897D01*
X72415Y95968D01*
X72537Y95039D01*
X72719Y94601D01*
X72223Y93801D01*
X67460D01*
X67368Y93862D01*
X67356Y93865D01*
Y101886D01*
X51583D01*
Y90050D01*
X61981D01*
X62097Y89934D01*
X62878Y89412D01*
X63800Y89229D01*
X64108D01*
X64414Y88490D01*
X63258Y87333D01*
X62735Y86552D01*
X62552Y85630D01*
Y78740D01*
X62735Y77819D01*
X63258Y77037D01*
X67110Y73185D01*
X66778Y72385D01*
X36032D01*
X20155Y88262D01*
X19685Y88576D01*
Y91088D01*
X20485Y91720D01*
X20669Y91696D01*
X21392Y91791D01*
X22065Y92070D01*
X22078Y92080D01*
X37590D01*
X38512Y92263D01*
X39293Y92785D01*
X50026Y103518D01*
X50548Y104299D01*
X50731Y105221D01*
Y113270D01*
X55012Y117551D01*
X64669D01*
X64682Y117541D01*
X65355Y117262D01*
X66078Y117167D01*
X66801Y117262D01*
X67474Y117541D01*
X68053Y117984D01*
X68497Y118563D01*
X68775Y119236D01*
X68871Y119959D01*
X68775Y120682D01*
X68497Y121355D01*
X68053Y121933D01*
X67474Y122377D01*
X66801Y122656D01*
X66078Y122751D01*
X65355Y122656D01*
X64682Y122377D01*
X64669Y122368D01*
X54014D01*
X53092Y122184D01*
X52311Y121662D01*
X46619Y115971D01*
X46097Y115189D01*
X46043Y114917D01*
X45243Y114996D01*
Y118495D01*
X45253Y118508D01*
X45532Y119181D01*
X45627Y119904D01*
X45532Y120626D01*
X45253Y121300D01*
X44809Y121878D01*
X44231Y122322D01*
X43558Y122601D01*
X42835Y122696D01*
X42112Y122601D01*
X41439Y122322D01*
X40860Y121878D01*
X40417Y121300D01*
X40138Y120626D01*
X40042Y119904D01*
X40138Y119181D01*
X40417Y118508D01*
X40426Y118495D01*
Y104856D01*
X37388Y101818D01*
X27846D01*
X27452Y102618D01*
X27746Y103587D01*
X27756Y103681D01*
X27835D01*
Y104484D01*
X27864Y104783D01*
X27835Y105083D01*
Y115886D01*
X19685D01*
Y117670D01*
X30476D01*
X31398Y117854D01*
X32179Y118376D01*
X40994Y127190D01*
X41516Y127972D01*
X41699Y128893D01*
Y151765D01*
X41516Y152687D01*
X40994Y153468D01*
X38826Y155636D01*
Y176741D01*
X38836Y176753D01*
X39115Y177427D01*
X39210Y178150D01*
X39115Y178872D01*
X38836Y179546D01*
X38392Y180124D01*
X37813Y180568D01*
X37140Y180847D01*
X36417Y180942D01*
X35695Y180847D01*
X35021Y180568D01*
X34443Y180124D01*
X33999Y179546D01*
X33720Y178872D01*
X33625Y178150D01*
X33720Y177427D01*
X33999Y176753D01*
X34009Y176741D01*
Y154639D01*
X34192Y153717D01*
X34714Y152935D01*
X36882Y150768D01*
Y133639D01*
X36082Y133169D01*
X35535Y133241D01*
X34812Y133146D01*
X34138Y132867D01*
X33560Y132424D01*
X33116Y131845D01*
X32837Y131172D01*
X32742Y130449D01*
X32837Y129726D01*
X33116Y129053D01*
X33560Y128475D01*
X33998Y128138D01*
X34232Y127241D01*
X29478Y122487D01*
X26559D01*
X26391Y122844D01*
X26265Y123287D01*
X26959Y124585D01*
X27403Y126050D01*
X27553Y127575D01*
X27403Y129099D01*
X26959Y130565D01*
X26237Y131916D01*
X25265Y133100D01*
X24081Y134071D01*
X22730Y134793D01*
X21264Y135238D01*
X19740Y135388D01*
X19685Y135438D01*
Y147310D01*
X19740Y147360D01*
X21264Y147510D01*
X22730Y147955D01*
X24081Y148677D01*
X25265Y149648D01*
X26237Y150832D01*
X26959Y152183D01*
X27403Y153649D01*
X27553Y155173D01*
X27403Y156697D01*
X26959Y158163D01*
X26237Y159514D01*
X25265Y160698D01*
Y161420D01*
X26237Y162604D01*
X26959Y163955D01*
X27403Y165421D01*
X27553Y166945D01*
X27403Y168469D01*
X26959Y169935D01*
X26237Y171286D01*
X25265Y172470D01*
X24081Y173441D01*
X22730Y174163D01*
X21264Y174608D01*
X19740Y174758D01*
X19685Y174808D01*
Y186680D01*
X19740Y186730D01*
X21264Y186880D01*
X22730Y187325D01*
X24081Y188047D01*
X25265Y189018D01*
X26237Y190202D01*
X26959Y191553D01*
X27403Y193019D01*
X27553Y194543D01*
X27860Y194882D01*
X72878D01*
X72969Y194184D01*
D02*
G37*
G36*
X20803Y62418D02*
X70496D01*
X75111Y57804D01*
X75892Y57282D01*
X76741Y57113D01*
X76766Y57081D01*
X77344Y56637D01*
X78017Y56358D01*
X78740Y56263D01*
X79463Y56358D01*
X80136Y56637D01*
X80646Y57028D01*
X80939Y56970D01*
X81446Y56720D01*
Y47346D01*
X81630Y46425D01*
X82152Y45643D01*
X94633Y33162D01*
X92994Y31523D01*
X96067Y28449D01*
X99141Y25376D01*
X100780Y27015D01*
X107371Y20424D01*
X107065Y19685D01*
X86119D01*
Y22589D01*
X85935Y23511D01*
X85413Y24292D01*
X74259Y35446D01*
Y44844D01*
X74076Y45766D01*
X73553Y46547D01*
X72819Y47281D01*
X72768Y47670D01*
X72489Y48344D01*
X72045Y48922D01*
X71467Y49366D01*
X70793Y49645D01*
X70071Y49740D01*
X69348Y49645D01*
X68674Y49366D01*
X68096Y48922D01*
X67652Y48344D01*
X67373Y47670D01*
X67278Y46947D01*
X67373Y46225D01*
X67652Y45551D01*
X68096Y44973D01*
X68674Y44529D01*
X68819Y44469D01*
X69442Y43846D01*
Y36857D01*
X56116D01*
X34183Y58790D01*
X33402Y59312D01*
X32480Y59495D01*
X19698D01*
X19685Y59509D01*
Y61844D01*
X20485Y62482D01*
X20803Y62418D01*
D02*
G37*
%LPC*%
G36*
X256914Y229346D02*
X256405D01*
Y217035D01*
X268717D01*
Y217544D01*
X268401Y219535D01*
X267778Y221453D01*
X266863Y223250D01*
X265677Y224881D01*
X264251Y226307D01*
X262620Y227492D01*
X260823Y228408D01*
X258905Y229031D01*
X256914Y229346D01*
D02*
G37*
G36*
X255405D02*
X254897D01*
X252906Y229031D01*
X250988Y228408D01*
X249191Y227492D01*
X247560Y226307D01*
X246134Y224881D01*
X244949Y223250D01*
X244033Y221453D01*
X243410Y219535D01*
X243094Y217544D01*
Y217035D01*
X255405D01*
Y229346D01*
D02*
G37*
G36*
X20693D02*
X20185D01*
Y217035D01*
X32496D01*
Y217544D01*
X32181Y219535D01*
X31558Y221453D01*
X30642Y223250D01*
X29457Y224881D01*
X28031Y226307D01*
X26399Y227492D01*
X24603Y228408D01*
X22685Y229031D01*
X20693Y229346D01*
D02*
G37*
G36*
X19185D02*
X18677D01*
X16685Y229031D01*
X14767Y228408D01*
X12971Y227492D01*
X11339Y226307D01*
X9913Y224881D01*
X8728Y223250D01*
X7813Y221453D01*
X7190Y219535D01*
X6874Y217544D01*
Y217035D01*
X19185D01*
Y229346D01*
D02*
G37*
G36*
X44936Y212516D02*
X44800D01*
X43569Y212186D01*
X42465Y211549D01*
X41565Y210648D01*
X40928Y209545D01*
X40598Y208314D01*
Y208177D01*
X44936D01*
Y212516D01*
D02*
G37*
G36*
X268717Y216035D02*
X256405D01*
Y203724D01*
X256914D01*
X258905Y204040D01*
X260823Y204663D01*
X262620Y205578D01*
X264251Y206764D01*
X265677Y208190D01*
X266863Y209821D01*
X267778Y211618D01*
X268401Y213535D01*
X268717Y215527D01*
Y216035D01*
D02*
G37*
G36*
X255405D02*
X243094D01*
Y215527D01*
X243410Y213535D01*
X244033Y211618D01*
X244949Y209821D01*
X246134Y208190D01*
X247560Y206764D01*
X249191Y205578D01*
X250988Y204663D01*
X252906Y204040D01*
X254897Y203724D01*
X255405D01*
Y216035D01*
D02*
G37*
G36*
X32496D02*
X20185D01*
Y203724D01*
X20693D01*
X22685Y204040D01*
X24603Y204663D01*
X26399Y205578D01*
X28031Y206764D01*
X29457Y208190D01*
X30642Y209821D01*
X31558Y211618D01*
X32181Y213535D01*
X32496Y215527D01*
Y216035D01*
D02*
G37*
G36*
X19185D02*
X6874D01*
Y215527D01*
X7190Y213535D01*
X7813Y211618D01*
X8728Y209821D01*
X9913Y208190D01*
X11339Y206764D01*
X12971Y205578D01*
X14767Y204663D01*
X16685Y204040D01*
X18677Y203724D01*
X19185D01*
Y216035D01*
D02*
G37*
G36*
X44936Y207177D02*
X40598D01*
Y207040D01*
X40928Y205810D01*
X41565Y204706D01*
X42465Y203805D01*
X43569Y203168D01*
X44800Y202839D01*
X44936D01*
Y207177D01*
D02*
G37*
G36*
X89894Y207177D02*
X85555D01*
Y207040D01*
X85885Y205809D01*
X86522Y204706D01*
X87423Y203805D01*
X88526Y203168D01*
X89757Y202839D01*
X89894D01*
Y207177D01*
D02*
G37*
G36*
X153362Y206709D02*
X143020D01*
Y202272D01*
X153362D01*
Y206709D01*
D02*
G37*
G36*
X142020D02*
X131677D01*
Y202272D01*
X142020D01*
Y206709D01*
D02*
G37*
G36*
X153362Y201272D02*
X143020D01*
Y196835D01*
X153362D01*
Y201272D01*
D02*
G37*
G36*
X142020D02*
X131677D01*
Y196835D01*
X142020D01*
Y201272D01*
D02*
G37*
G36*
X128953Y200803D02*
X124516D01*
Y190461D01*
X128953D01*
Y200803D01*
D02*
G37*
G36*
X123516D02*
X119079D01*
Y190461D01*
X123516D01*
Y200803D01*
D02*
G37*
G36*
X243126Y190764D02*
X241051D01*
Y188492D01*
X243126D01*
Y190764D01*
D02*
G37*
G36*
X240051D02*
X237976D01*
Y188492D01*
X240051D01*
Y190764D01*
D02*
G37*
G36*
X243126Y187492D02*
X241051D01*
Y185221D01*
X243126D01*
Y187492D01*
D02*
G37*
G36*
X240051D02*
X237976D01*
Y185221D01*
X240051D01*
Y187492D01*
D02*
G37*
G36*
X123516Y189461D02*
X119079D01*
Y179118D01*
X123516D01*
Y189461D01*
D02*
G37*
G36*
X242193Y198108D02*
X241309Y197932D01*
X240561Y197432D01*
X240060Y196683D01*
X239884Y195800D01*
X240060Y194916D01*
X240352Y194480D01*
X240530Y193813D01*
X240895Y193182D01*
X241410Y192666D01*
X242042Y192302D01*
X242746Y192113D01*
X243475D01*
X244179Y192302D01*
X244650Y192574D01*
X245723D01*
Y190564D01*
X245263D01*
Y185421D01*
X250013D01*
Y187276D01*
X250164Y187503D01*
X250340Y188386D01*
Y192074D01*
X251301D01*
X251509Y192074D01*
X252100Y191571D01*
Y177523D01*
X251509Y177021D01*
X251301Y177021D01*
X246676D01*
Y180118D01*
X246588Y180786D01*
X246469Y181072D01*
Y182690D01*
X244166D01*
X244094Y182699D01*
X244022Y182690D01*
X241720D01*
Y181072D01*
X241601Y180786D01*
X241513Y180118D01*
Y175541D01*
X241601Y174873D01*
X241859Y174250D01*
X242269Y173716D01*
X243423Y172563D01*
X243957Y172153D01*
X244580Y171895D01*
X245248Y171807D01*
X245947D01*
X246208Y171115D01*
X246208Y171115D01*
X246208D01*
X246208Y171115D01*
Y165499D01*
X251428D01*
X251509Y165499D01*
X252228Y165305D01*
Y165299D01*
X254579D01*
Y168307D01*
X255079D01*
Y168807D01*
X257929D01*
Y171315D01*
X257729Y171405D01*
Y172895D01*
X257956Y173442D01*
X258057Y174213D01*
Y194882D01*
X257956Y195653D01*
X257729Y196199D01*
Y197690D01*
X256016D01*
X255850Y197759D01*
X255079Y197860D01*
X254308Y197759D01*
X254142Y197690D01*
X252428D01*
Y196702D01*
X252309Y196592D01*
X251509Y196944D01*
Y197690D01*
X246208D01*
Y197190D01*
X244650D01*
X244179Y197462D01*
X243512Y197640D01*
X243076Y197932D01*
X242193Y198108D01*
D02*
G37*
G36*
X9437Y175917D02*
X9406D01*
X8381Y175643D01*
X7462Y175112D01*
X6711Y174361D01*
X6180Y173442D01*
X5906Y172417D01*
Y172386D01*
X9437D01*
Y175917D01*
D02*
G37*
G36*
Y171386D02*
X5906D01*
Y171355D01*
X6180Y170330D01*
X6711Y169410D01*
X7462Y168660D01*
X8381Y168129D01*
X9406Y167854D01*
X9437D01*
Y171386D01*
D02*
G37*
G36*
X257929Y167807D02*
X255579D01*
Y165299D01*
X257929D01*
Y167807D01*
D02*
G37*
G36*
X249500Y145656D02*
X248854Y145483D01*
X248177Y145092D01*
X247625Y144539D01*
X247509Y144339D01*
X246585D01*
X246470Y144539D01*
X245917Y145092D01*
X245240Y145483D01*
X244595Y145656D01*
Y142717D01*
Y139777D01*
X245240Y139950D01*
X245917Y140341D01*
X246470Y140894D01*
X246585Y141094D01*
X247509D01*
X247625Y140894D01*
X248177Y140341D01*
X248854Y139950D01*
X249500Y139777D01*
Y142717D01*
Y145656D01*
D02*
G37*
G36*
X250500D02*
Y143217D01*
X252939D01*
X252766Y143862D01*
X252375Y144539D01*
X251823Y145092D01*
X251146Y145483D01*
X250500Y145656D01*
D02*
G37*
G36*
X243595D02*
X242949Y145483D01*
X242272Y145092D01*
X241719Y144539D01*
X241328Y143862D01*
X241155Y143217D01*
X243595D01*
Y145656D01*
D02*
G37*
G36*
X252939Y142217D02*
X250500D01*
Y139777D01*
X251146Y139950D01*
X251823Y140341D01*
X252375Y140894D01*
X252766Y141571D01*
X252939Y142217D01*
D02*
G37*
G36*
X243595D02*
X241155D01*
X241328Y141571D01*
X241719Y140894D01*
X242272Y140341D01*
X242949Y139950D01*
X243595Y139777D01*
Y142217D01*
D02*
G37*
G36*
X9437Y136547D02*
X9406D01*
X8381Y136273D01*
X7462Y135742D01*
X6711Y134991D01*
X6180Y134072D01*
X5906Y133046D01*
Y133016D01*
X9437D01*
Y136547D01*
D02*
G37*
G36*
Y132016D02*
X5906D01*
Y131985D01*
X6180Y130960D01*
X6711Y130040D01*
X7462Y129290D01*
X8381Y128759D01*
X9406Y128484D01*
X9437D01*
Y132016D01*
D02*
G37*
G36*
X256914Y32496D02*
X256405D01*
Y20185D01*
X268717D01*
Y20693D01*
X268401Y22685D01*
X267778Y24603D01*
X266863Y26399D01*
X265677Y28031D01*
X264251Y29457D01*
X262620Y30642D01*
X260823Y31558D01*
X258905Y32181D01*
X256914Y32496D01*
D02*
G37*
G36*
X255405D02*
X254897D01*
X252906Y32181D01*
X250988Y31558D01*
X249191Y30642D01*
X247560Y29457D01*
X246134Y28031D01*
X244949Y26399D01*
X244033Y24603D01*
X243410Y22685D01*
X243094Y20693D01*
Y20185D01*
X255405D01*
Y32496D01*
D02*
G37*
G36*
X20693D02*
X20185D01*
Y20185D01*
X32496D01*
Y20693D01*
X32181Y22685D01*
X31558Y24603D01*
X30642Y26399D01*
X29457Y28031D01*
X28031Y29457D01*
X26399Y30642D01*
X24603Y31558D01*
X22685Y32181D01*
X20693Y32496D01*
D02*
G37*
G36*
X19185D02*
X18677D01*
X16685Y32181D01*
X14767Y31558D01*
X12971Y30642D01*
X11339Y29457D01*
X9913Y28031D01*
X8728Y26399D01*
X7813Y24603D01*
X7190Y22685D01*
X6874Y20693D01*
Y20185D01*
X19185D01*
Y32496D01*
D02*
G37*
G36*
X268717Y19185D02*
X256405D01*
Y6874D01*
X256914D01*
X258905Y7190D01*
X260823Y7813D01*
X262620Y8728D01*
X264251Y9913D01*
X265677Y11339D01*
X266863Y12971D01*
X267778Y14767D01*
X268401Y16685D01*
X268717Y18677D01*
Y19185D01*
D02*
G37*
G36*
X255405D02*
X243094D01*
Y18677D01*
X243410Y16685D01*
X244033Y14767D01*
X244949Y12971D01*
X246134Y11339D01*
X247560Y9913D01*
X249191Y8728D01*
X250988Y7813D01*
X252906Y7190D01*
X254897Y6874D01*
X255405D01*
Y19185D01*
D02*
G37*
G36*
X32496D02*
X20185D01*
Y6874D01*
X20693D01*
X22685Y7190D01*
X24603Y7813D01*
X26399Y8728D01*
X28031Y9913D01*
X29457Y11339D01*
X30642Y12971D01*
X31558Y14767D01*
X32181Y16685D01*
X32496Y18677D01*
Y19185D01*
D02*
G37*
G36*
X19185D02*
X6874D01*
Y18677D01*
X7190Y16685D01*
X7813Y14767D01*
X8728Y12971D01*
X9913Y11339D01*
X11339Y9913D01*
X12971Y8728D01*
X14767Y7813D01*
X16685Y7190D01*
X18677Y6874D01*
X19185D01*
Y19185D01*
D02*
G37*
G36*
X41839Y191905D02*
Y189476D01*
X44267D01*
X44231Y189751D01*
X43932Y190473D01*
X43456Y191094D01*
X42836Y191569D01*
X42114Y191868D01*
X41839Y191905D01*
D02*
G37*
G36*
X40839D02*
X40564Y191868D01*
X39841Y191569D01*
X39221Y191094D01*
X38746Y190473D01*
X38447Y189751D01*
X38410Y189476D01*
X40839D01*
Y191905D01*
D02*
G37*
G36*
X44267Y188476D02*
X41839D01*
Y186048D01*
X42114Y186084D01*
X42836Y186383D01*
X43456Y186859D01*
X43932Y187479D01*
X44231Y188201D01*
X44267Y188476D01*
D02*
G37*
G36*
X40839D02*
X38410D01*
X38447Y188201D01*
X38746Y187479D01*
X39221Y186859D01*
X39841Y186383D01*
X40564Y186084D01*
X40839Y186048D01*
Y188476D01*
D02*
G37*
G36*
X68654Y192168D02*
X67932Y192073D01*
X67258Y191794D01*
X66680Y191350D01*
X66236Y190772D01*
X65957Y190099D01*
X65870Y189439D01*
X59095Y182664D01*
X58659Y182011D01*
X58577Y181599D01*
X58522Y181577D01*
X57944Y181133D01*
X57500Y180555D01*
X57221Y179881D01*
X57126Y179159D01*
X57221Y178436D01*
X57500Y177762D01*
X57944Y177184D01*
X58522Y176740D01*
X59196Y176461D01*
X59919Y176366D01*
X60641Y176461D01*
X61315Y176740D01*
X61893Y177184D01*
X62337Y177762D01*
X62616Y178436D01*
X62711Y179159D01*
X62616Y179881D01*
X62532Y180083D01*
Y180406D01*
X68718Y186592D01*
X69377Y186679D01*
X70051Y186958D01*
X70629Y187401D01*
X71073Y187980D01*
X71352Y188653D01*
X71447Y189376D01*
X71352Y190099D01*
X71073Y190772D01*
X70629Y191350D01*
X70051Y191794D01*
X69377Y192073D01*
X68654Y192168D01*
D02*
G37*
G36*
X152567Y138755D02*
Y136327D01*
X154995D01*
X154959Y136602D01*
X154660Y137324D01*
X154184Y137944D01*
X153564Y138420D01*
X152842Y138719D01*
X152567Y138755D01*
D02*
G37*
G36*
X151567D02*
X151292Y138719D01*
X150570Y138420D01*
X149950Y137944D01*
X149474Y137324D01*
X149175Y136602D01*
X149139Y136327D01*
X151567D01*
Y138755D01*
D02*
G37*
G36*
X154995Y135327D02*
X152567D01*
Y132898D01*
X152842Y132935D01*
X153564Y133234D01*
X154184Y133710D01*
X154660Y134330D01*
X154959Y135052D01*
X154995Y135327D01*
D02*
G37*
G36*
X151567D02*
X149139D01*
X149175Y135052D01*
X149474Y134330D01*
X149950Y133710D01*
X150570Y133234D01*
X151292Y132935D01*
X151567Y132898D01*
Y135327D01*
D02*
G37*
G36*
X177665Y126944D02*
Y124516D01*
X180094D01*
X180057Y124791D01*
X179758Y125513D01*
X179282Y126133D01*
X178662Y126609D01*
X177940Y126908D01*
X177665Y126944D01*
D02*
G37*
G36*
X176665D02*
X176390Y126908D01*
X175668Y126609D01*
X175048Y126133D01*
X174572Y125513D01*
X174273Y124791D01*
X174237Y124516D01*
X176665D01*
Y126944D01*
D02*
G37*
G36*
X170776D02*
Y124516D01*
X173204D01*
X173168Y124791D01*
X172869Y125513D01*
X172393Y126133D01*
X171773Y126609D01*
X171051Y126908D01*
X170776Y126944D01*
D02*
G37*
G36*
X169776D02*
X169501Y126908D01*
X168779Y126609D01*
X168158Y126133D01*
X167683Y125513D01*
X167384Y124791D01*
X167347Y124516D01*
X169776D01*
Y126944D01*
D02*
G37*
G36*
X137171Y121808D02*
Y119380D01*
X139599D01*
X139563Y119655D01*
X139263Y120377D01*
X138788Y120997D01*
X138168Y121473D01*
X137445Y121772D01*
X137171Y121808D01*
D02*
G37*
G36*
X136170D02*
X135896Y121772D01*
X135173Y121473D01*
X134553Y120997D01*
X134078Y120377D01*
X133778Y119655D01*
X133742Y119380D01*
X136170D01*
Y121808D01*
D02*
G37*
G36*
X173204Y123516D02*
X167347D01*
X167384Y123241D01*
X167683Y122519D01*
X168158Y121899D01*
X168655Y121518D01*
X168724Y121063D01*
X168655Y120608D01*
X168158Y120227D01*
X167683Y119607D01*
X167384Y118885D01*
X167347Y118610D01*
X173204D01*
X173168Y118885D01*
X172869Y119607D01*
X172393Y120227D01*
X171897Y120608D01*
X171827Y121063D01*
X171897Y121518D01*
X172393Y121899D01*
X172869Y122519D01*
X173168Y123241D01*
X173204Y123516D01*
D02*
G37*
G36*
X180094D02*
X174237D01*
X174273Y123241D01*
X174572Y122519D01*
X175048Y121899D01*
X175668Y121423D01*
X175931Y121314D01*
Y120448D01*
X175668Y120339D01*
X175048Y119863D01*
X174572Y119243D01*
X174273Y118521D01*
X174237Y118246D01*
X180094D01*
X180057Y118521D01*
X179758Y119243D01*
X179282Y119863D01*
X178662Y120339D01*
X178400Y120448D01*
Y121314D01*
X178662Y121423D01*
X179282Y121899D01*
X179758Y122519D01*
X180057Y123241D01*
X180094Y123516D01*
D02*
G37*
G36*
X152580Y120455D02*
Y118026D01*
X155008D01*
X154972Y118301D01*
X154673Y119024D01*
X154197Y119644D01*
X153577Y120119D01*
X152855Y120419D01*
X152580Y120455D01*
D02*
G37*
G36*
X151580D02*
X151305Y120419D01*
X150583Y120119D01*
X149963Y119644D01*
X149487Y119024D01*
X149188Y118301D01*
X149152Y118026D01*
X151580D01*
Y120455D01*
D02*
G37*
G36*
X103310Y119577D02*
Y117149D01*
X105738D01*
X105702Y117424D01*
X105403Y118146D01*
X104927Y118766D01*
X104307Y119242D01*
X103585Y119541D01*
X103310Y119577D01*
D02*
G37*
G36*
X139599Y118380D02*
X137171D01*
Y115951D01*
X137445Y115988D01*
X138168Y116287D01*
X138788Y116762D01*
X139263Y117383D01*
X139563Y118105D01*
X139599Y118380D01*
D02*
G37*
G36*
X136170D02*
X133742D01*
X133778Y118105D01*
X134078Y117383D01*
X134553Y116762D01*
X135173Y116287D01*
X135896Y115988D01*
X136170Y115951D01*
Y118380D01*
D02*
G37*
G36*
X155008Y117026D02*
X152580D01*
Y114598D01*
X152855Y114634D01*
X153577Y114933D01*
X154197Y115409D01*
X154673Y116029D01*
X154972Y116752D01*
X155008Y117026D01*
D02*
G37*
G36*
X151580D02*
X149152D01*
X149188Y116752D01*
X149487Y116029D01*
X149963Y115409D01*
X150583Y114933D01*
X151305Y114634D01*
X151580Y114598D01*
Y117026D01*
D02*
G37*
G36*
X87098Y116582D02*
X86823Y116546D01*
X86101Y116247D01*
X85481Y115771D01*
X85005Y115151D01*
X84706Y114429D01*
X84670Y114154D01*
X87098D01*
Y116582D01*
D02*
G37*
G36*
X105738Y116149D02*
X103310D01*
Y113721D01*
X103585Y113757D01*
X104307Y114056D01*
X104927Y114532D01*
X105403Y115152D01*
X105702Y115874D01*
X105738Y116149D01*
D02*
G37*
G36*
X180094Y117246D02*
X174237D01*
X174273Y116971D01*
X174572Y116249D01*
X175048Y115629D01*
X175273Y115457D01*
Y114494D01*
X175048Y114322D01*
X174572Y113702D01*
X174273Y112980D01*
X174237Y112705D01*
X180094D01*
X180057Y112980D01*
X179758Y113702D01*
X179282Y114322D01*
X179058Y114494D01*
Y115457D01*
X179282Y115629D01*
X179758Y116249D01*
X180057Y116971D01*
X180094Y117246D01*
D02*
G37*
G36*
X173204Y117610D02*
X167347D01*
X167384Y117335D01*
X167683Y116613D01*
X168158Y115993D01*
X168655Y115612D01*
X168724Y115157D01*
X168655Y114703D01*
X168158Y114322D01*
X167683Y113702D01*
X167384Y112980D01*
X167347Y112705D01*
X173204D01*
X173168Y112980D01*
X172869Y113702D01*
X172393Y114322D01*
X171897Y114703D01*
X171827Y115157D01*
X171897Y115612D01*
X172393Y115993D01*
X172869Y116613D01*
X173168Y117335D01*
X173204Y117610D01*
D02*
G37*
G36*
X58571Y112180D02*
Y109752D01*
X60999D01*
X60963Y110027D01*
X60664Y110749D01*
X60188Y111369D01*
X59568Y111845D01*
X58846Y112144D01*
X58571Y112180D01*
D02*
G37*
G36*
X57571D02*
X57296Y112144D01*
X56574Y111845D01*
X55954Y111369D01*
X55478Y110749D01*
X55179Y110027D01*
X55143Y109752D01*
X57571D01*
Y112180D01*
D02*
G37*
G36*
X180094Y111705D02*
X177665D01*
Y109276D01*
X177940Y109313D01*
X178662Y109612D01*
X179282Y110088D01*
X179758Y110708D01*
X180057Y111430D01*
X180094Y111705D01*
D02*
G37*
G36*
X176665D02*
X174237D01*
X174273Y111430D01*
X174572Y110708D01*
X175048Y110088D01*
X175668Y109612D01*
X176390Y109313D01*
X176665Y109276D01*
Y111705D01*
D02*
G37*
G36*
X173204D02*
X170776D01*
Y109276D01*
X171051Y109313D01*
X171773Y109612D01*
X172393Y110088D01*
X172869Y110708D01*
X173168Y111430D01*
X173204Y111705D01*
D02*
G37*
G36*
X169776D02*
X167347D01*
X167384Y111430D01*
X167683Y110708D01*
X168158Y110088D01*
X168779Y109612D01*
X169501Y109313D01*
X169776Y109276D01*
Y111705D01*
D02*
G37*
G36*
X60999Y108752D02*
X58571D01*
Y106324D01*
X58846Y106360D01*
X59568Y106659D01*
X60188Y107135D01*
X60664Y107755D01*
X60963Y108477D01*
X60999Y108752D01*
D02*
G37*
G36*
X57571D02*
X55143D01*
X55179Y108477D01*
X55478Y107755D01*
X55954Y107135D01*
X56574Y106659D01*
X57296Y106360D01*
X57571Y106324D01*
Y108752D01*
D02*
G37*
G36*
X88570Y107561D02*
X86141D01*
X86177Y107286D01*
X86477Y106564D01*
X86952Y105944D01*
X87573Y105468D01*
X88295Y105169D01*
X88570Y105133D01*
Y107561D01*
D02*
G37*
G36*
X146169Y101354D02*
Y98925D01*
X148598D01*
X148561Y99200D01*
X148262Y99922D01*
X147786Y100542D01*
X147166Y101018D01*
X146444Y101317D01*
X146169Y101354D01*
D02*
G37*
G36*
X145169D02*
X144894Y101317D01*
X144172Y101018D01*
X143552Y100542D01*
X143076Y99922D01*
X142777Y99200D01*
X142741Y98925D01*
X145169D01*
Y101354D01*
D02*
G37*
G36*
X83588Y98826D02*
Y96398D01*
X86016D01*
X85980Y96673D01*
X85681Y97395D01*
X85205Y98015D01*
X84585Y98491D01*
X83863Y98790D01*
X83588Y98826D01*
D02*
G37*
G36*
X148598Y97925D02*
X146169D01*
Y95497D01*
X146444Y95533D01*
X147166Y95832D01*
X147786Y96308D01*
X148262Y96928D01*
X148561Y97650D01*
X148598Y97925D01*
D02*
G37*
G36*
X145169D02*
X142741D01*
X142777Y97650D01*
X143076Y96928D01*
X143552Y96308D01*
X144172Y95832D01*
X144894Y95533D01*
X145169Y95497D01*
Y97925D01*
D02*
G37*
G36*
X157216Y96320D02*
Y93892D01*
X159644D01*
X159608Y94166D01*
X159309Y94889D01*
X158833Y95509D01*
X158213Y95985D01*
X157491Y96284D01*
X157216Y96320D01*
D02*
G37*
G36*
X156216D02*
X155941Y96284D01*
X155219Y95985D01*
X154598Y95509D01*
X154123Y94889D01*
X153824Y94166D01*
X153787Y93892D01*
X156216D01*
Y96320D01*
D02*
G37*
G36*
X159644Y92892D02*
X157216D01*
Y90463D01*
X157491Y90500D01*
X158213Y90799D01*
X158833Y91274D01*
X159309Y91895D01*
X159608Y92617D01*
X159644Y92892D01*
D02*
G37*
G36*
X156216D02*
X153787D01*
X153824Y92617D01*
X154123Y91895D01*
X154598Y91274D01*
X155219Y90799D01*
X155941Y90500D01*
X156216Y90463D01*
Y92892D01*
D02*
G37*
G36*
X135400Y90440D02*
Y88011D01*
X137829D01*
X137793Y88286D01*
X137493Y89008D01*
X137018Y89628D01*
X136398Y90104D01*
X135675Y90403D01*
X135400Y90440D01*
D02*
G37*
G36*
X134400D02*
X134125Y90403D01*
X133403Y90104D01*
X132783Y89628D01*
X132307Y89008D01*
X132008Y88286D01*
X131972Y88011D01*
X134400D01*
Y90440D01*
D02*
G37*
G36*
X105476Y88331D02*
X105201Y88295D01*
X104479Y87995D01*
X103859Y87520D01*
X103383Y86899D01*
X103084Y86177D01*
X103048Y85902D01*
X105476D01*
Y88331D01*
D02*
G37*
G36*
X137829Y87011D02*
X135400D01*
Y84583D01*
X135675Y84619D01*
X136398Y84918D01*
X137018Y85394D01*
X137493Y86014D01*
X137793Y86736D01*
X137829Y87011D01*
D02*
G37*
G36*
X134400D02*
X131972D01*
X132008Y86736D01*
X132307Y86014D01*
X132783Y85394D01*
X133403Y84918D01*
X134125Y84619D01*
X134400Y84583D01*
Y87011D01*
D02*
G37*
G36*
X105476Y84902D02*
X103048D01*
X103084Y84627D01*
X103383Y83905D01*
X103859Y83285D01*
X104479Y82809D01*
X105201Y82510D01*
X105476Y82474D01*
Y84902D01*
D02*
G37*
G36*
X150500Y72539D02*
Y70111D01*
X152929D01*
X152892Y70386D01*
X152593Y71108D01*
X152118Y71728D01*
X151497Y72204D01*
X150775Y72503D01*
X150500Y72539D01*
D02*
G37*
G36*
X149500D02*
X149225Y72503D01*
X148503Y72204D01*
X147883Y71728D01*
X147407Y71108D01*
X147108Y70386D01*
X147072Y70111D01*
X149500D01*
Y72539D01*
D02*
G37*
G36*
X152929Y69111D02*
X150500D01*
Y66683D01*
X150775Y66719D01*
X151497Y67018D01*
X152118Y67494D01*
X152593Y68114D01*
X152892Y68836D01*
X152929Y69111D01*
D02*
G37*
G36*
X149500D02*
X147072D01*
X147108Y68836D01*
X147407Y68114D01*
X147883Y67494D01*
X148503Y67018D01*
X149225Y66719D01*
X149500Y66683D01*
Y69111D01*
D02*
G37*
G36*
X130930Y66993D02*
Y64565D01*
X133358D01*
X133322Y64840D01*
X133023Y65562D01*
X132547Y66182D01*
X131927Y66658D01*
X131205Y66957D01*
X130930Y66993D01*
D02*
G37*
G36*
X129930D02*
X129655Y66957D01*
X128933Y66658D01*
X128313Y66182D01*
X127837Y65562D01*
X127538Y64840D01*
X127501Y64565D01*
X129930D01*
Y66993D01*
D02*
G37*
G36*
X133358Y63565D02*
X130930D01*
Y61137D01*
X131205Y61173D01*
X131927Y61472D01*
X132547Y61948D01*
X133023Y62568D01*
X133322Y63290D01*
X133358Y63565D01*
D02*
G37*
G36*
X129930D02*
X127501D01*
X127538Y63290D01*
X127837Y62568D01*
X128313Y61948D01*
X128933Y61472D01*
X129655Y61173D01*
X129930Y61137D01*
Y63565D01*
D02*
G37*
G36*
X156980Y46235D02*
X156705Y46199D01*
X155983Y45900D01*
X155363Y45424D01*
X154887Y44804D01*
X154588Y44082D01*
X154552Y43807D01*
X156980D01*
Y46235D01*
D02*
G37*
G36*
X123531Y45995D02*
Y43567D01*
X125960D01*
X125924Y43842D01*
X125625Y44564D01*
X125149Y45184D01*
X124529Y45660D01*
X123806Y45959D01*
X123531Y45995D01*
D02*
G37*
G36*
X122531D02*
X122257Y45959D01*
X121534Y45660D01*
X120914Y45184D01*
X120439Y44564D01*
X120139Y43842D01*
X120103Y43567D01*
X122531D01*
Y45995D01*
D02*
G37*
G36*
X125960Y42567D02*
X123531D01*
Y40139D01*
X123806Y40175D01*
X124529Y40474D01*
X125149Y40950D01*
X125625Y41570D01*
X125924Y42292D01*
X125960Y42567D01*
D02*
G37*
G36*
X122531D02*
X120103D01*
X120139Y42292D01*
X120439Y41570D01*
X120914Y40950D01*
X121534Y40474D01*
X122257Y40175D01*
X122531Y40139D01*
Y42567D01*
D02*
G37*
G36*
X103718Y42246D02*
X101763Y40292D01*
X104483Y37572D01*
X106437Y39526D01*
X103718Y42246D01*
D02*
G37*
G36*
X156883Y36585D02*
X154454D01*
X154490Y36310D01*
X154790Y35588D01*
X155265Y34968D01*
X155886Y34492D01*
X156608Y34193D01*
X156883Y34157D01*
Y36585D01*
D02*
G37*
G36*
X107144Y38819D02*
X105190Y36865D01*
X107910Y34145D01*
X109864Y36099D01*
X107144Y38819D01*
D02*
G37*
G36*
X157209Y15311D02*
X156933Y15275D01*
X156211Y14976D01*
X155591Y14500D01*
X155115Y13880D01*
X154816Y13158D01*
X154780Y12883D01*
X157209D01*
Y15311D01*
D02*
G37*
G36*
Y11883D02*
X154780D01*
X154816Y11608D01*
X155115Y10886D01*
X155591Y10266D01*
X156211Y9790D01*
X156933Y9491D01*
X157209Y9455D01*
Y11883D01*
D02*
G37*
G36*
X127450Y10726D02*
Y8298D01*
X129878D01*
X129842Y8573D01*
X129543Y9295D01*
X129067Y9915D01*
X128446Y10391D01*
X127724Y10690D01*
X127450Y10726D01*
D02*
G37*
G36*
X126450D02*
X126174Y10690D01*
X125452Y10391D01*
X124832Y9915D01*
X124356Y9295D01*
X124057Y8573D01*
X124021Y8298D01*
X126450D01*
Y10726D01*
D02*
G37*
G36*
X129878Y7298D02*
X127450D01*
Y4869D01*
X127724Y4905D01*
X128446Y5205D01*
X129067Y5680D01*
X129543Y6301D01*
X129842Y7023D01*
X129878Y7298D01*
D02*
G37*
G36*
X126450D02*
X124021D01*
X124057Y7023D01*
X124356Y6301D01*
X124832Y5680D01*
X125452Y5205D01*
X126174Y4905D01*
X126450Y4869D01*
Y7298D01*
D02*
G37*
G36*
X73819Y56926D02*
X73096Y56831D01*
X72423Y56552D01*
X71844Y56108D01*
X71401Y55530D01*
X71122Y54857D01*
X71026Y54134D01*
X71122Y53411D01*
X71401Y52738D01*
X71844Y52159D01*
X72423Y51716D01*
X73096Y51437D01*
X73819Y51341D01*
X74542Y51437D01*
X75215Y51716D01*
X75793Y52159D01*
X76237Y52738D01*
X76516Y53411D01*
X76611Y54134D01*
X76516Y54857D01*
X76237Y55530D01*
X75793Y56108D01*
X75215Y56552D01*
X74542Y56831D01*
X73819Y56926D01*
D02*
G37*
G36*
X63763Y46491D02*
Y44063D01*
X66191D01*
X66155Y44338D01*
X65856Y45060D01*
X65380Y45680D01*
X64760Y46156D01*
X64038Y46455D01*
X63763Y46491D01*
D02*
G37*
G36*
X62763D02*
X62488Y46455D01*
X61766Y46156D01*
X61146Y45680D01*
X60670Y45060D01*
X60371Y44338D01*
X60335Y44063D01*
X62763D01*
Y46491D01*
D02*
G37*
G36*
X66191Y43063D02*
X63763D01*
Y40635D01*
X64038Y40671D01*
X64760Y40970D01*
X65380Y41446D01*
X65856Y42066D01*
X66155Y42788D01*
X66191Y43063D01*
D02*
G37*
G36*
X62763D02*
X60335D01*
X60371Y42788D01*
X60670Y42066D01*
X61146Y41446D01*
X61766Y40970D01*
X62488Y40671D01*
X62763Y40635D01*
Y43063D01*
D02*
G37*
G36*
X92287Y30816D02*
X90333Y28861D01*
X93052Y26141D01*
X95007Y28096D01*
X92287Y30816D01*
D02*
G37*
G36*
X95714Y27389D02*
X93760Y25434D01*
X96479Y22714D01*
X98434Y24669D01*
X95714Y27389D01*
D02*
G37*
%LPD*%
D15*
X60519Y181240D02*
X68654Y189376D01*
X59919Y179159D02*
X60519Y179759D01*
Y181240D01*
D18*
X248858Y174213D02*
D03*
X255079D02*
D03*
X248858Y194882D02*
D03*
X255079D02*
D03*
X255079Y168307D02*
D03*
X248858D02*
D03*
D87*
X36417Y154639D02*
X39290Y151765D01*
X30476Y120079D02*
X39290Y128893D01*
X10827Y120079D02*
X30476D01*
X36417Y154639D02*
Y178150D01*
X39290Y128893D02*
Y151765D01*
X5299Y114551D02*
X10827Y120079D01*
X5299Y70488D02*
X18701Y57087D01*
X5299Y70488D02*
Y114551D01*
X7874Y87598D02*
X11617Y91341D01*
X7874Y77756D02*
Y87598D01*
X12263Y83129D02*
X17457D01*
X11811Y82677D02*
X12263Y83129D01*
X18701Y57087D02*
X32480D01*
X20803Y64827D02*
X71494D01*
X7874Y77756D02*
X20803Y64827D01*
X55118Y34449D02*
X71850D01*
X32480Y57087D02*
X55118Y34449D01*
X66691Y91392D02*
X87455D01*
X59469Y95968D02*
X63800Y91637D01*
X66446D01*
X87455Y91392D02*
X93919Y97856D01*
X66446Y91637D02*
X66691Y91392D01*
X67722Y88391D02*
X88391D01*
X64961Y85630D02*
X67722Y88391D01*
X88391D02*
X99410Y99410D01*
X64961Y78740D02*
Y85630D01*
X93919Y97856D02*
Y113093D01*
X37590Y94488D02*
X48323Y105221D01*
X54014Y119959D02*
X66078D01*
X48323Y105221D02*
Y114268D01*
X54014Y119959D01*
X18701Y99410D02*
X38386D01*
X42835Y103858D02*
Y119904D01*
X20669Y94488D02*
X37590D01*
X38386Y99410D02*
X42835Y103858D01*
X64961Y78740D02*
X69555Y74145D01*
X75652D01*
X69882Y83661D02*
X70521D01*
X71505Y84646D01*
X74458Y79724D02*
X75820Y81087D01*
X73819Y79724D02*
X74458D01*
X97206Y116327D02*
X99410Y114123D01*
X97206Y116327D02*
Y120115D01*
X75652Y74145D02*
X77294Y75787D01*
X77756D01*
X96754Y120567D02*
X97206Y120115D01*
X99410Y99410D02*
Y114123D01*
X70071Y46624D02*
X71850Y44844D01*
X70071Y46624D02*
Y46947D01*
X71850Y34449D02*
X83710Y22589D01*
X71850Y34449D02*
Y44844D01*
X11617Y91341D02*
Y104668D01*
X11732Y104783D01*
X15372Y92312D02*
X15824Y92764D01*
Y96533D01*
X18701Y99410D01*
X113189Y107283D02*
Y132761D01*
Y60039D02*
Y107283D01*
X109252Y89241D02*
Y115157D01*
X109732Y74762D02*
Y88761D01*
X109252Y74282D02*
X109732Y74762D01*
X109252Y60996D02*
Y74282D01*
Y89241D02*
X109732Y88761D01*
X85571Y80561D02*
X89661D01*
X71505Y84646D02*
X81486D01*
X89661Y80561D02*
X109226Y60996D01*
X81486Y84646D02*
X85571Y80561D01*
X14176Y87011D02*
X14628Y86559D01*
X18452D01*
X35035Y69976D01*
X17457Y83129D02*
X33184Y67402D01*
X81315Y81087D02*
X108970Y53431D01*
X115080D01*
X75820Y81087D02*
X81315D01*
X113189Y60039D02*
X115080Y58149D01*
Y53431D02*
Y58149D01*
X35035Y69976D02*
X79630D01*
X33184Y67402D02*
X78563D01*
X71494Y64827D02*
X76814Y59507D01*
X79630Y69976D02*
X86430Y63177D01*
X78563Y67402D02*
X83855Y62110D01*
X86430Y48413D02*
X118110Y16732D01*
X86430Y48413D02*
Y63177D01*
X83855Y47346D02*
Y62110D01*
Y47346D02*
X111639Y19563D01*
X118110Y5479D02*
Y16732D01*
X115267Y2635D02*
X118110Y5479D01*
X104053Y2635D02*
X115267D01*
X102037Y4652D02*
Y7443D01*
X101639Y7841D02*
X102037Y7443D01*
Y4652D02*
X104053Y2635D01*
X111639Y7841D02*
Y19563D01*
X78288Y59507D02*
X78740Y59055D01*
X76814Y59507D02*
X78288D01*
X83710Y16710D02*
Y22589D01*
D88*
X121634Y95968D02*
X121770Y95833D01*
X132038D01*
X67763Y175046D02*
Y177999D01*
X67913Y178150D01*
X64961Y172244D02*
X67763Y175046D01*
X44127Y174089D02*
Y177471D01*
Y174089D02*
X45972Y172244D01*
X64961D01*
X43976Y177622D02*
X44127Y177471D01*
D89*
X245248Y174388D02*
X248683D01*
X244094Y175541D02*
Y180118D01*
X248683Y174388D02*
X248858Y174213D01*
X244094Y175541D02*
X245248Y174388D01*
X248858Y168307D02*
X248858Y168307D01*
Y174213D02*
X248858Y174213D01*
X248858Y168307D02*
Y174213D01*
D90*
X255079Y174213D02*
Y194882D01*
D91*
X243110D02*
X248858D01*
X242193Y195800D02*
X243110Y194882D01*
X247638Y187992D02*
X248031Y188386D01*
Y194055D02*
X248858Y194882D01*
X248031Y188386D02*
Y194055D01*
D92*
X177165Y73819D02*
X180118D01*
X196850Y90551D02*
Y153543D01*
X180118Y73819D02*
X196850Y90551D01*
X187992Y162402D02*
X196850Y153543D01*
X123031Y162402D02*
X187992D01*
X110394Y175039D02*
X123031Y162402D01*
X110394Y175039D02*
Y207677D01*
X160433Y201772D02*
X175197Y216535D01*
X160433Y180118D02*
Y201772D01*
X175197Y216535D02*
Y227362D01*
X142520Y177362D02*
X157677D01*
X160433Y180118D01*
X75437Y207677D02*
X77307Y209547D01*
Y211811D02*
X81823Y216327D01*
X77307Y209547D02*
Y211811D01*
X81823Y216327D02*
X106277D01*
X108914Y214852D02*
X111221Y212546D01*
Y208504D02*
Y212546D01*
X108690Y214852D02*
X108914D01*
X110394Y207677D02*
X111221Y208504D01*
X70765Y178150D02*
X82677Y190062D01*
X67913Y178150D02*
X70765D01*
X82677Y190062D02*
Y200436D01*
X75437Y207677D02*
X82677Y200436D01*
D94*
X105493Y95968D02*
D03*
X157709Y12383D02*
D03*
X157480Y43307D02*
D03*
X157383Y37085D02*
D03*
X243110Y194882D02*
D03*
X254921Y183071D02*
D03*
X35535Y130449D02*
D03*
X11811Y82677D02*
D03*
X170276Y112205D02*
D03*
Y124016D02*
D03*
Y118110D02*
D03*
X177165Y117746D02*
D03*
Y124016D02*
D03*
X169253Y68777D02*
D03*
X169291Y73819D02*
D03*
Y63976D02*
D03*
Y59055D02*
D03*
X177127Y68777D02*
D03*
X177165Y73819D02*
D03*
Y63976D02*
D03*
Y59055D02*
D03*
Y112205D02*
D03*
X250000Y142717D02*
D03*
X244094D02*
D03*
X132038Y95833D02*
D03*
X83088Y95898D02*
D03*
X58071Y109252D02*
D03*
X69882Y83661D02*
D03*
X73819Y79724D02*
D03*
X87598Y113654D02*
D03*
X70071Y46947D02*
D03*
X63263Y43563D02*
D03*
X15372Y92312D02*
D03*
X96754Y120567D02*
D03*
X109252Y115157D02*
D03*
X102810Y116649D02*
D03*
X105976Y85402D02*
D03*
X89070Y108061D02*
D03*
X87127Y84317D02*
D03*
X93919Y113093D02*
D03*
X42835Y119904D02*
D03*
X66078Y119959D02*
D03*
X20669Y94488D02*
D03*
X14176Y87011D02*
D03*
X109226Y60996D02*
D03*
X78740Y59055D02*
D03*
X73819Y54134D02*
D03*
X77756Y75787D02*
D03*
X83710Y16710D02*
D03*
X75667Y194907D02*
D03*
X43976Y177622D02*
D03*
X67913Y178150D02*
D03*
X59919Y179159D02*
D03*
X68654Y189376D02*
D03*
X41339Y188976D02*
D03*
X136670Y118880D02*
D03*
X152080Y117526D02*
D03*
X113122Y132761D02*
D03*
X109252Y104331D02*
D03*
X113189Y107283D02*
D03*
X145669Y98425D02*
D03*
X126950Y7798D02*
D03*
X123031Y43067D02*
D03*
X115080Y53431D02*
D03*
X152067Y135827D02*
D03*
X150000Y69611D02*
D03*
X130430Y64065D02*
D03*
X156716Y93392D02*
D03*
X134900Y87511D02*
D03*
X36417Y178150D02*
D03*
D95*
X76005Y95968D02*
D03*
X190945Y227362D02*
D03*
X183071D02*
D03*
X175197D02*
D03*
D96*
X11732Y104783D02*
D03*
Y109783D02*
D03*
X16732Y104783D02*
D03*
Y109783D02*
D03*
X21732Y104783D02*
D03*
D97*
Y109783D02*
D03*
D98*
X61639Y7841D02*
D03*
D99*
X71639D02*
D03*
X81639D02*
D03*
X91639D02*
D03*
X101639D02*
D03*
X111639D02*
D03*
D100*
X110394Y207677D02*
D03*
X75437Y207677D02*
D03*
D101*
X100394Y207677D02*
D03*
X90394D02*
D03*
X45436Y207677D02*
D03*
X65437D02*
D03*
X55436D02*
D03*
X19740Y166945D02*
D03*
Y194543D02*
D03*
Y127575D02*
D03*
Y155173D02*
D03*
D102*
X9937Y171886D02*
D03*
Y189602D02*
D03*
Y132516D02*
D03*
Y150232D02*
D03*
D103*
X198819Y227362D02*
D03*
X167323D02*
D03*
D104*
X124016Y189961D02*
D03*
D105*
X142520Y201772D02*
D03*
Y177362D02*
D03*
D106*
X255906Y216535D02*
D03*
X19685Y19685D02*
D03*
Y216535D02*
D03*
X255906Y19685D02*
D03*
D107*
X95714Y28096D02*
D03*
X104483Y36865D02*
D03*
D108*
X240551Y187992D02*
D03*
X247638D02*
D03*
X244094Y180118D02*
D03*
D109*
X121634Y95968D02*
D03*
X59469D02*
D03*
M02*
