G04*
G04 #@! TF.GenerationSoftware,Altium Limited,Altium Designer,24.5.2 (23)*
G04*
G04 Layer_Color=16711935*
%FSLAX25Y25*%
%MOIN*%
G70*
G04*
G04 #@! TF.SameCoordinates,843F1F9D-CF68-4CC6-824C-A0058C937974*
G04*
G04*
G04 #@! TF.FilePolarity,Negative*
G04*
G01*
G75*
%ADD46R,0.04501X0.04816*%
%ADD73C,0.04737*%
%ADD74C,0.05918*%
%ADD75C,0.05131*%
%ADD76R,0.05131X0.05131*%
%ADD77R,0.05603X0.05603*%
%ADD78C,0.05603*%
%ADD79R,0.08477X0.08477*%
%ADD80C,0.08477*%
%ADD81C,0.06863*%
%ADD82C,0.06706*%
%ADD83R,0.08674X0.20485*%
%ADD84R,0.20485X0.08674*%
%ADD85C,0.24422*%
G04:AMPARAMS|DCode=110|XSize=74.93mil|YSize=53.28mil|CornerRadius=0mil|HoleSize=0mil|Usage=FLASHONLY|Rotation=315.000|XOffset=0mil|YOffset=0mil|HoleType=Round|Shape=Rectangle|*
%AMROTATEDRECTD110*
4,1,4,-0.04533,0.00766,-0.00766,0.04533,0.04533,-0.00766,0.00766,-0.04533,-0.04533,0.00766,0.0*
%
%ADD110ROTATEDRECTD110*%

%ADD111R,0.03950X0.04343*%
%ADD112R,0.14973X0.11036*%
D46*
X248858Y174213D02*
D03*
X255079D02*
D03*
X248858Y194882D02*
D03*
X255079D02*
D03*
X255079Y168307D02*
D03*
X248858D02*
D03*
D73*
X105493Y95968D02*
D03*
D74*
X76005D02*
D03*
X190945Y227362D02*
D03*
X183071D02*
D03*
X175197D02*
D03*
D75*
X11732Y104783D02*
D03*
Y109783D02*
D03*
X16732Y104783D02*
D03*
Y109783D02*
D03*
X21732Y104783D02*
D03*
D76*
Y109783D02*
D03*
D77*
X61639Y7841D02*
D03*
D78*
X71639D02*
D03*
X81639D02*
D03*
X91639D02*
D03*
X101639D02*
D03*
X111639D02*
D03*
D79*
X110394Y207677D02*
D03*
X75437Y207677D02*
D03*
D80*
X100394Y207677D02*
D03*
X90394D02*
D03*
X45436Y207677D02*
D03*
X65437D02*
D03*
X55436D02*
D03*
X19740Y166945D02*
D03*
Y194543D02*
D03*
Y127575D02*
D03*
Y155173D02*
D03*
D81*
X9937Y171886D02*
D03*
Y189602D02*
D03*
Y132516D02*
D03*
Y150232D02*
D03*
D82*
X198819Y227362D02*
D03*
X167323D02*
D03*
D83*
X124016Y189961D02*
D03*
D84*
X142520Y201772D02*
D03*
Y177362D02*
D03*
D85*
X255906Y216535D02*
D03*
X19685Y19685D02*
D03*
Y216535D02*
D03*
X255906Y19685D02*
D03*
D110*
X95714Y28096D02*
D03*
X104483Y36865D02*
D03*
D111*
X240551Y187992D02*
D03*
X247638D02*
D03*
X244094Y180118D02*
D03*
D112*
X121634Y95968D02*
D03*
X59469D02*
D03*
M02*
