M48
;Layer_Color=9474304
;FILE_FORMAT=2:5
INCH,TZ
;TYPE=PLATED
T01F00S00C0.01968
T02F00S00C0.02559
T03F00S00C0.03150
T04F00S00C0.03189
T05F00S00C0.03898
T06F00S00C0.03937
T08F00S00C0.05118
T09F00S00C0.12205
;TYPE=NON_PLATED
T10F00S00C0.03937
T11F00S00C0.05118
%
T01
X83710Y16710
X126950Y7798
X157709Y12383
X157383Y37085
X169291Y59055
Y63976
X169253Y68777
X169291Y73819
X177165
X177127Y68777
X177165Y63976
Y59055
Y112205
Y117746
Y124016
X170276
Y118110
Y112205
X244094Y142717
X250000
X254921Y183071
X243110Y194882
X152067Y135827
X152080Y117526
X136670Y118880
X132038Y95833
X134900Y87511
X145669Y98425
X156716Y93392
X150000Y69611
X130430Y64065
X109226Y60996
X115080Y53431
X123031Y43067
X157480Y43307
X70071Y46947
X63263Y43563
X73819Y54134
X78740Y59055
X77756Y75787
X73819Y79724
X69882Y83661
X87127Y84317
X83088Y95898
X89070Y108061
X87598Y113654
X93919Y113093
X96754Y120567
X102810Y116649
X109252Y115157
Y104331
X113189Y107283
X113122Y132761
X105976Y85402
X58071Y109252
X66078Y119959
X42835Y119904
X35535Y130449
X36417Y178150
X43976Y177622
X41339Y188976
X68654Y189376
X67913Y178150
X59919Y179159
X75667Y194907
X20669Y94488
X15372Y92312
X14176Y87011
X11811Y82677
T02
X11732Y104783
Y109783
X16732
Y104783
X21732
Y109783
T03
X175197Y227362
X183071
X190945
T04
X61639Y7841
X71639
X81639
X91639
X101639
X111639
T05
X9937Y132516
Y150232
Y171886
Y189602
T06
X167323Y227362
X198819
T08
X19740Y127575
Y155173
Y166945
Y194543
X45436Y207677
X55436
X65437
X75437
X90394Y207677
X100394
X110394
T09
X19685Y19685
X255906
X19685Y216535
X255906
T10
X105493Y95968
T11
X76005Y95968
M30
