G04*
G04 #@! TF.GenerationSoftware,Altium Limited,Altium Designer,24.5.2 (23)*
G04*
G04 Layer_Physical_Order=1*
G04 Layer_Color=255*
%FSLAX25Y25*%
%MOIN*%
G70*
G04*
G04 #@! TF.SameCoordinates,843F1F9D-CF68-4CC6-824C-A0058C937974*
G04*
G04*
G04 #@! TF.FilePolarity,Positive*
G04*
G01*
G75*
%ADD13C,0.01181*%
%ADD15C,0.00800*%
%ADD17R,0.01575X0.01575*%
%ADD18R,0.03701X0.04016*%
%ADD19R,0.04508X0.02165*%
%ADD20R,0.02165X0.04508*%
%ADD21R,0.04016X0.03701*%
%ADD22R,0.03937X0.03543*%
%ADD23R,0.03543X0.03937*%
%ADD24R,0.22638X0.09646*%
%ADD25R,0.12205X0.08661*%
%ADD26R,0.11417X0.21260*%
%ADD27R,0.02756X0.06004*%
%ADD28R,0.13583X0.10079*%
%ADD29R,0.04528X0.06693*%
%ADD30R,0.06693X0.04528*%
%ADD31R,0.01968X0.03150*%
%ADD32R,0.08465X0.11024*%
G04:AMPARAMS|DCode=33|XSize=15.75mil|YSize=31.5mil|CornerRadius=0mil|HoleSize=0mil|Usage=FLASHONLY|Rotation=135.000|XOffset=0mil|YOffset=0mil|HoleType=Round|Shape=Rectangle|*
%AMROTATEDRECTD33*
4,1,4,0.01670,0.00557,-0.00557,-0.01670,-0.01670,-0.00557,0.00557,0.01670,0.01670,0.00557,0.0*
%
%ADD33ROTATEDRECTD33*%

G04:AMPARAMS|DCode=34|XSize=31.5mil|YSize=15.75mil|CornerRadius=0mil|HoleSize=0mil|Usage=FLASHONLY|Rotation=135.000|XOffset=0mil|YOffset=0mil|HoleType=Round|Shape=Rectangle|*
%AMROTATEDRECTD34*
4,1,4,0.01670,-0.00557,0.00557,-0.01670,-0.01670,0.00557,-0.00557,0.01670,0.01670,-0.00557,0.0*
%
%ADD34ROTATEDRECTD34*%

G04:AMPARAMS|DCode=35|XSize=39.37mil|YSize=35.43mil|CornerRadius=0mil|HoleSize=0mil|Usage=FLASHONLY|Rotation=135.000|XOffset=0mil|YOffset=0mil|HoleType=Round|Shape=Rectangle|*
%AMROTATEDRECTD35*
4,1,4,0.02645,-0.00139,0.00139,-0.02645,-0.02645,0.00139,-0.00139,0.02645,0.02645,-0.00139,0.0*
%
%ADD35ROTATEDRECTD35*%

%ADD36R,0.05512X0.03937*%
G04:AMPARAMS|DCode=37|XSize=39.37mil|YSize=35.43mil|CornerRadius=0mil|HoleSize=0mil|Usage=FLASHONLY|Rotation=225.000|XOffset=0mil|YOffset=0mil|HoleType=Round|Shape=Rectangle|*
%AMROTATEDRECTD37*
4,1,4,0.00139,0.02645,0.02645,0.00139,-0.00139,-0.02645,-0.02645,-0.00139,0.00139,0.02645,0.0*
%
%ADD37ROTATEDRECTD37*%

%ADD38R,0.00945X0.03543*%
%ADD39R,0.03543X0.00945*%
%ADD40R,0.05906X0.08268*%
%ADD41R,0.02362X0.01181*%
%ADD42R,0.01181X0.02362*%
%ADD43R,0.06693X0.04331*%
%ADD44R,0.01378X0.02362*%
%AMCUSTOMSHAPE86*
4,1,61,0.11136,0.00000,0.08352,0.02784,0.07656,0.02088,0.06264,0.03480,0.06960,0.04176,0.04176,0.06960,0.03480,0.06264,0.02088,0.07656,0.02784,0.08352,0.00000,0.11136,-0.02784,0.08352,-0.02088,0.07656,-0.03480,0.06264,-0.04176,0.06960,-0.06960,0.04176,-0.06264,0.03480,-0.07656,0.02088,-0.08352,0.02784,-0.11136,0.00000,-0.08352,-0.02784,-0.07656,-0.02088,-0.06264,-0.03480,-0.06960,-0.04176,-0.04176,-0.06960,-0.03480,-0.06264,-0.02088,-0.07656,-0.02784,-0.08352,-0.01392,-0.09744,0.01392,-0.09744,0.02784,-0.08352,0.00000,-0.05568,-0.00696,-0.06264,-0.02088,-0.04872,-0.01392,-0.04176,-0.04176,-0.01392,-0.04872,-0.02088,-0.06264,-0.00696,-0.05568,0.00000,-0.06264,0.00696,-0.04872,0.02088,-0.04176,0.01392,-0.03480,0.02088,-0.02088,0.00696,-0.02784,0.00000,0.00000,-0.02784,0.02784,0.00000,0.00000,0.02784,-0.00696,0.02088,-0.02088,0.03480,-0.01392,0.04176,-0.02088,0.04872,-0.00696,0.06264,0.00000,0.05568,0.00696,0.06264,0.02088,0.04872,0.01392,0.04176,0.04176,0.01392,0.04872,0.02088,0.06264,0.00696,0.05568,0.00000,0.08352,-0.02784,0.11136,0.00000,0.0*%
%ADD86CUSTOMSHAPE86*%

%ADD87C,0.01575*%
%ADD88C,0.03150*%
%ADD89C,0.01968*%
%ADD90C,0.02756*%
%ADD91C,0.01378*%
%ADD92C,0.03937*%
%ADD93C,0.00700*%
%ADD94C,0.03937*%
%ADD95C,0.05118*%
%ADD96C,0.04331*%
%ADD97R,0.04331X0.04331*%
%ADD98R,0.04803X0.04803*%
%ADD99C,0.04803*%
%ADD100R,0.07677X0.07677*%
%ADD101C,0.07677*%
%ADD102C,0.06063*%
%ADD103C,0.05906*%
%ADD104R,0.07874X0.19685*%
%ADD105R,0.19685X0.07874*%
%ADD106C,0.23622*%
G36*
X187008Y234213D02*
X188420D01*
X188579Y233413D01*
X187868Y233119D01*
X187008Y232544D01*
Y222180D01*
X187868Y221605D01*
X189050Y221116D01*
X190305Y220866D01*
X191585D01*
X192840Y221116D01*
X194022Y221605D01*
X194528Y221943D01*
X195555Y221257D01*
X196809Y220737D01*
X198140Y220472D01*
X199497D01*
X200829Y220737D01*
X202082Y221257D01*
X203211Y222011D01*
X204170Y222970D01*
X204262Y223107D01*
X205062Y222865D01*
Y222747D01*
X209794D01*
Y228759D01*
X205566D01*
X205444Y229372D01*
X204925Y230626D01*
X204170Y231754D01*
X203211Y232714D01*
X202775Y233005D01*
X202599Y234080D01*
X202700Y234213D01*
X218504D01*
Y214567D01*
X179134D01*
Y218504D01*
Y222180D01*
D01*
Y232544D01*
Y234213D01*
Y234252D01*
X187008D01*
Y234213D01*
D02*
G37*
G36*
X237205Y209646D02*
Y190945D01*
X256890D01*
Y186286D01*
X256090Y185824D01*
X256067Y185837D01*
X255421Y186010D01*
Y183071D01*
Y180132D01*
X256067Y180305D01*
X256090Y180318D01*
X256890Y179856D01*
Y172441D01*
Y156496D01*
X251890D01*
Y172441D01*
X205709D01*
Y190945D01*
Y211417D01*
X221457D01*
Y234252D01*
X237205D01*
Y209646D01*
D02*
G37*
G36*
X268307Y176575D02*
X265945D01*
Y179724D01*
X268307D01*
Y176575D01*
D02*
G37*
G36*
X273584Y2007D02*
X115756D01*
X115514Y2807D01*
X115679Y2918D01*
X116562Y3801D01*
X117256Y4839D01*
X117734Y5992D01*
X117977Y7217D01*
Y8466D01*
X117734Y9690D01*
X117649Y9893D01*
X118184Y10694D01*
X119757D01*
Y13162D01*
X117485D01*
Y11941D01*
X116685Y11698D01*
X116562Y11882D01*
X115679Y12765D01*
X114641Y13458D01*
X113488Y13936D01*
X112263Y14180D01*
X111014D01*
X109790Y13936D01*
X108636Y13458D01*
X107598Y12765D01*
X107187Y12353D01*
X106639Y11940D01*
X106091Y12353D01*
X105679Y12765D01*
X104641Y13458D01*
X103488Y13936D01*
X102263Y14180D01*
X101014D01*
X99790Y13936D01*
X98636Y13458D01*
X97598Y12765D01*
X97187Y12353D01*
X96639Y11940D01*
X96091Y12353D01*
X95679Y12765D01*
X94641Y13458D01*
X93488Y13936D01*
X92263Y14180D01*
X92148D01*
Y15987D01*
X94285D01*
Y15516D01*
X101397D01*
Y21053D01*
X98246D01*
X98225Y21061D01*
X97557Y21149D01*
X92681D01*
Y21503D01*
X87065D01*
Y19148D01*
X87052Y19050D01*
X86199Y18703D01*
X86119Y18766D01*
Y20472D01*
X85935Y21394D01*
X85642Y21832D01*
Y24422D01*
X78531D01*
Y18885D01*
X81301D01*
Y18076D01*
X81130Y17779D01*
X80941Y17075D01*
Y16346D01*
X81130Y15642D01*
X81222Y15483D01*
X80828Y14591D01*
X80469Y14520D01*
X77735Y17254D01*
X77690Y17597D01*
X77432Y18220D01*
X77022Y18754D01*
X76981Y18795D01*
Y20682D01*
X73309D01*
X73227Y20693D01*
X68639D01*
Y20960D01*
X63024D01*
Y15659D01*
X65263D01*
X65361Y15618D01*
X66030Y15530D01*
X69869D01*
Y15145D01*
X72840D01*
X72961Y14851D01*
X73372Y14317D01*
X76351Y11337D01*
X76022Y10844D01*
X75544Y9690D01*
X75507Y9508D01*
X74669Y9395D01*
X74361Y9930D01*
X73727Y10563D01*
X72952Y11011D01*
X72139Y11229D01*
Y7841D01*
Y4454D01*
X72952Y4671D01*
X73727Y5119D01*
X74361Y5753D01*
X74669Y6287D01*
X75507Y6175D01*
X75544Y5992D01*
X76022Y4839D01*
X76715Y3801D01*
X77598Y2918D01*
X77764Y2807D01*
X77521Y2007D01*
X67977D01*
Y5780D01*
X68777Y5994D01*
X68917Y5753D01*
X69550Y5119D01*
X70326Y4671D01*
X71139Y4454D01*
Y7841D01*
Y11229D01*
X70326Y11011D01*
X69550Y10563D01*
X68917Y9930D01*
X68777Y9688D01*
X67977Y9903D01*
Y14180D01*
X55300D01*
Y2007D01*
X2007D01*
Y47244D01*
Y100394D01*
Y234213D01*
X163441D01*
X163542Y234080D01*
X163367Y233005D01*
X162931Y232714D01*
X161971Y231754D01*
X161217Y230626D01*
X160698Y229372D01*
X160433Y228041D01*
Y226684D01*
X160698Y225353D01*
X161217Y224099D01*
X161971Y222970D01*
X162931Y222011D01*
X164059Y221257D01*
X165313Y220737D01*
X166644Y220472D01*
X168001D01*
X169333Y220737D01*
X170586Y221257D01*
X170823Y221415D01*
X171623Y220987D01*
Y218016D01*
X157906Y204299D01*
X157338Y203559D01*
X156981Y202697D01*
X156859Y201772D01*
Y185804D01*
X156299Y185236D01*
X128953D01*
Y189461D01*
X124516D01*
Y179118D01*
X128740D01*
Y169488D01*
X156299D01*
Y173788D01*
X157677D01*
X158602Y173910D01*
X159464Y174267D01*
X160204Y174835D01*
X162960Y177591D01*
X162960Y177591D01*
X163528Y178331D01*
X163885Y179193D01*
X164007Y180118D01*
X164007Y180118D01*
Y200291D01*
X176940Y213224D01*
X177715Y213148D01*
X178366Y212713D01*
X179134Y212560D01*
X203216D01*
X203770Y211760D01*
X203702Y211417D01*
Y190945D01*
Y172441D01*
X203854Y171673D01*
X204290Y171022D01*
X204941Y170587D01*
X205709Y170434D01*
X244730D01*
Y168554D01*
X247502D01*
Y167554D01*
X244730D01*
Y165086D01*
X244730D01*
X244730Y165014D01*
X244730D01*
Y162546D01*
X247502D01*
Y161546D01*
X244730D01*
Y160556D01*
X243991Y160250D01*
X241981Y162260D01*
Y164225D01*
X236680D01*
Y158609D01*
X238331D01*
X239445Y157495D01*
X239139Y156756D01*
X237288D01*
Y155363D01*
X233194D01*
X233154Y155355D01*
X233029D01*
X232107Y155172D01*
X231326Y154649D01*
X229426Y152750D01*
X224198D01*
Y152991D01*
X218582D01*
Y152991D01*
X218292D01*
Y152991D01*
X212677D01*
Y152892D01*
X211914Y152802D01*
Y152802D01*
X206299D01*
Y147581D01*
X206298Y147501D01*
X206105Y146781D01*
X206099D01*
Y144431D01*
X209106D01*
Y143431D01*
X206099D01*
Y141080D01*
X208716D01*
X209017Y140715D01*
Y130747D01*
X203543D01*
X202775Y130595D01*
X202124Y130159D01*
X201689Y129508D01*
X201536Y128740D01*
Y125039D01*
X183109D01*
Y127953D01*
X182957Y128721D01*
X182522Y129372D01*
X181870Y129807D01*
X181102Y129960D01*
X165354D01*
X164586Y129807D01*
X163935Y129372D01*
X163500Y128721D01*
X163347Y127953D01*
Y107283D01*
X163500Y106515D01*
X163935Y105864D01*
X164586Y105429D01*
X165354Y105276D01*
X167799D01*
Y103465D01*
X170571D01*
Y102965D01*
X171071D01*
Y99996D01*
X171389D01*
X171809Y99368D01*
X172017Y99229D01*
X171774Y98429D01*
X171661D01*
Y96997D01*
X171512Y96248D01*
X171161D01*
Y95748D01*
X169473D01*
Y95280D01*
X169374D01*
Y92614D01*
X178067D01*
Y95026D01*
X178319Y95403D01*
X178487Y96248D01*
Y98492D01*
X179267Y98933D01*
X179287Y98929D01*
X180035Y98780D01*
X181064D01*
Y85668D01*
X178487D01*
Y87980D01*
X178319Y88825D01*
X178067Y89203D01*
Y91614D01*
X169374D01*
Y88949D01*
X169673D01*
Y85999D01*
X172031D01*
Y85799D01*
X173413D01*
X173630Y85372D01*
X173723Y84999D01*
X173685Y84942D01*
X173146Y84365D01*
X170874D01*
Y81397D01*
X170374D01*
Y80897D01*
X167602D01*
Y78779D01*
X166339D01*
X165570Y78626D01*
X164919Y78191D01*
X164484Y77540D01*
X164331Y76772D01*
Y56102D01*
X164484Y55334D01*
X164919Y54683D01*
X165570Y54248D01*
X166339Y54095D01*
X166526D01*
X167297Y54024D01*
X167297Y53295D01*
Y51555D01*
X170068D01*
Y50555D01*
X167297D01*
Y48436D01*
X167297Y47635D01*
X167297Y47287D01*
Y45167D01*
X170068D01*
Y44667D01*
X170568D01*
Y41699D01*
X172666D01*
X172840Y41699D01*
X173466Y41279D01*
Y17618D01*
X173457Y17594D01*
X173348Y16772D01*
X173457Y15950D01*
X173717Y15321D01*
Y14122D01*
X174190D01*
X174292Y14002D01*
X173920Y13202D01*
X173717D01*
Y11577D01*
X173581Y11249D01*
X173473Y10427D01*
X173581Y9605D01*
X173717Y9277D01*
Y7901D01*
X174767D01*
X175062Y7676D01*
X175828Y7358D01*
X176650Y7250D01*
X183440D01*
X184262Y7358D01*
X185028Y7676D01*
X185175Y7789D01*
X186275D01*
Y7789D01*
X187069Y7915D01*
X187837Y7763D01*
X190987D01*
X191549Y7874D01*
X192349Y7589D01*
Y7589D01*
X194817D01*
Y10360D01*
Y13132D01*
X192686D01*
X192406Y13551D01*
X191755Y13986D01*
X190987Y14139D01*
X187837D01*
X187069Y13986D01*
X186418Y13551D01*
X186110Y13091D01*
X185264Y12997D01*
X185028Y13178D01*
X184262Y13495D01*
X183440Y13604D01*
X179918D01*
X179333Y14122D01*
X179333Y14404D01*
Y15222D01*
X179394Y15302D01*
X179712Y16068D01*
X179820Y16890D01*
Y41300D01*
X210630D01*
X211398Y41453D01*
X212049Y41888D01*
X212484Y42539D01*
X212637Y43307D01*
Y112954D01*
X218504D01*
X219272Y113106D01*
X219923Y113541D01*
X220358Y114193D01*
X220511Y114961D01*
Y128993D01*
X220875Y129592D01*
X221135Y129788D01*
X221139Y129789D01*
X221160Y129793D01*
X224041D01*
X224473Y129627D01*
X224872Y128992D01*
Y127904D01*
X225056Y126983D01*
X225578Y126201D01*
X227064Y124715D01*
X227846Y124193D01*
X228767Y124009D01*
X243232D01*
X244154Y124193D01*
X244935Y124715D01*
X245561Y125341D01*
X246361Y125009D01*
Y121867D01*
X250749D01*
Y120117D01*
X231299D01*
X230531Y119965D01*
X229880Y119529D01*
X229445Y118878D01*
X229292Y118110D01*
Y89567D01*
X229445Y88799D01*
X229880Y88148D01*
X230531Y87713D01*
X231299Y87560D01*
X248031D01*
X248800Y87713D01*
X249451Y88148D01*
X249886Y88799D01*
X250039Y89567D01*
Y103308D01*
X266732D01*
X267500Y103461D01*
X268151Y103896D01*
X268587Y104547D01*
X268739Y105315D01*
Y118110D01*
Y135039D01*
X268587Y135807D01*
X268151Y136459D01*
X267500Y136894D01*
X266732Y137046D01*
X254757D01*
Y141777D01*
X247466D01*
Y136238D01*
X249435D01*
X249913Y135438D01*
X249893Y135402D01*
X247444D01*
X247288Y135402D01*
Y135402D01*
X246644D01*
Y135402D01*
X242288D01*
X242288Y135402D01*
X241644D01*
Y135402D01*
X241488Y135402D01*
X237288D01*
Y134449D01*
X235955D01*
Y134613D01*
X230779D01*
X230509Y134939D01*
X230381Y135352D01*
X230561Y135962D01*
X232686D01*
Y138734D01*
Y141506D01*
X230218D01*
Y141348D01*
X227781D01*
Y138498D01*
X226781D01*
Y141348D01*
X224947D01*
X224262Y141460D01*
X224198Y142117D01*
Y146771D01*
X219092D01*
X218582Y146771D01*
X217782Y146771D01*
X213028D01*
X212610Y147457D01*
X212599Y147573D01*
X212677Y147691D01*
X218292D01*
Y147691D01*
X218582D01*
Y147691D01*
X224198D01*
Y147933D01*
X230423D01*
X231345Y148116D01*
X232126Y148638D01*
X234034Y150546D01*
X237288D01*
Y149152D01*
X241644D01*
X241644Y149152D01*
X242288D01*
Y149152D01*
X242444Y149152D01*
X246270D01*
X246292Y149117D01*
X245845Y148317D01*
X239174D01*
Y142777D01*
X254757D01*
Y148317D01*
X253086D01*
X252640Y149117D01*
X252662Y149152D01*
X256644D01*
Y150942D01*
X257045Y151465D01*
X257342Y152183D01*
X257444Y152954D01*
Y154599D01*
X257658Y154642D01*
X258309Y155077D01*
X258744Y155728D01*
X258897Y156496D01*
Y169266D01*
X267717D01*
X268487Y169367D01*
X268749Y169476D01*
X270288D01*
Y170745D01*
X270296Y170755D01*
X270593Y171473D01*
X270695Y172244D01*
X270593Y173015D01*
X270296Y173733D01*
X270288Y173743D01*
Y175013D01*
X270288D01*
X270161Y175807D01*
X270314Y176575D01*
Y179724D01*
X270161Y180492D01*
X270288Y181287D01*
X270288D01*
Y186824D01*
X270025D01*
Y188137D01*
X270367D01*
Y193753D01*
X265066D01*
Y188137D01*
X265408D01*
Y186824D01*
X265145D01*
Y181557D01*
X264526Y181144D01*
X264091Y180492D01*
X263938Y179724D01*
Y176575D01*
X264048Y176022D01*
X263592Y175222D01*
X258897D01*
Y179856D01*
X258846Y180113D01*
X258828Y180375D01*
X258770Y180494D01*
X258744Y180624D01*
X258598Y180842D01*
X258482Y181078D01*
X258383Y181165D01*
X258309Y181275D01*
X258091Y181421D01*
X257893Y181594D01*
X257428Y181862D01*
Y181876D01*
X257501Y182002D01*
X257690Y182706D01*
Y183435D01*
X257501Y184140D01*
X257893Y184548D01*
X258091Y184721D01*
X258309Y184867D01*
X258383Y184977D01*
X258482Y185064D01*
X258598Y185300D01*
X258744Y185518D01*
X258770Y185648D01*
X258828Y185766D01*
X258846Y186028D01*
X258897Y186286D01*
Y188137D01*
X264146D01*
Y193753D01*
X262110D01*
X261967Y193896D01*
X261492Y194213D01*
X259191Y196514D01*
X258442Y197014D01*
X257559Y197190D01*
X244650D01*
X244179Y197462D01*
X243475Y197650D01*
X242746D01*
X242042Y197462D01*
X241410Y197097D01*
X240895Y196582D01*
X240530Y195950D01*
X240342Y195246D01*
Y194517D01*
X240530Y193813D01*
X240566Y193752D01*
X240104Y192952D01*
X239212D01*
Y211417D01*
Y234213D01*
X273584D01*
X273584Y2007D01*
D02*
G37*
G36*
X181102Y107283D02*
X181064D01*
Y100787D01*
X180035D01*
Y102465D01*
X177264D01*
X174492D01*
Y100787D01*
X173228D01*
Y107283D01*
X165354D01*
Y127953D01*
X181102D01*
Y107283D01*
D02*
G37*
G36*
X266732Y109843D02*
Y105315D01*
X248031D01*
Y89567D01*
X231299D01*
Y118110D01*
X252756D01*
Y135039D01*
X266732D01*
Y109843D01*
D02*
G37*
G36*
X212125Y140685D02*
X212162Y140583D01*
Y138880D01*
X214933D01*
Y137880D01*
X212162D01*
Y135411D01*
X212319D01*
Y133101D01*
X215170D01*
Y132601D01*
X215670D01*
Y129593D01*
X218020D01*
X218504Y128993D01*
Y114961D01*
X210630D01*
Y43307D01*
X175197D01*
Y53150D01*
Y56102D01*
X166339D01*
Y76772D01*
X175197D01*
Y83661D01*
X181102D01*
Y75787D01*
X181064D01*
Y53150D01*
X183071D01*
Y123031D01*
X203543D01*
Y128740D01*
X211024D01*
Y140715D01*
X211203Y140894D01*
X212125Y140685D01*
D02*
G37*
G36*
X190987Y9770D02*
X187837D01*
Y12132D01*
X190987D01*
Y9770D01*
D02*
G37*
%LPC*%
G36*
X215527Y228759D02*
X210794D01*
Y222747D01*
X215527D01*
Y228759D01*
D02*
G37*
G36*
Y221747D02*
X210794D01*
Y215735D01*
X215527D01*
Y221747D01*
D02*
G37*
G36*
X209794D02*
X205062D01*
Y215735D01*
X209794D01*
Y221747D01*
D02*
G37*
G36*
X234760Y190862D02*
X222941D01*
Y185539D01*
X234760D01*
Y190862D01*
D02*
G37*
G36*
X221941D02*
X210122D01*
Y190145D01*
Y185539D01*
X221941D01*
Y190862D01*
D02*
G37*
G36*
X254421Y186010D02*
X253776Y185837D01*
X253099Y185446D01*
X252546Y184894D01*
X252155Y184217D01*
X251982Y183571D01*
X254421D01*
Y186010D01*
D02*
G37*
G36*
Y182571D02*
X251982D01*
X252155Y181925D01*
X252546Y181248D01*
X253099Y180695D01*
X253776Y180305D01*
X254421Y180132D01*
Y182571D01*
D02*
G37*
G36*
X234760Y184539D02*
X222941D01*
Y179217D01*
X234760D01*
Y184539D01*
D02*
G37*
G36*
X221941D02*
X210122D01*
Y179217D01*
X221941D01*
Y184539D01*
D02*
G37*
G36*
X256914Y229346D02*
X256405D01*
Y217035D01*
X268717D01*
Y217544D01*
X268401Y219535D01*
X267778Y221453D01*
X266863Y223250D01*
X265677Y224881D01*
X264251Y226307D01*
X262620Y227492D01*
X260823Y228408D01*
X258905Y229031D01*
X256914Y229346D01*
D02*
G37*
G36*
X255405D02*
X254897D01*
X252906Y229031D01*
X250988Y228408D01*
X249191Y227492D01*
X247560Y226307D01*
X246134Y224881D01*
X244949Y223250D01*
X244033Y221453D01*
X243410Y219535D01*
X243094Y217544D01*
Y217035D01*
X255405D01*
Y229346D01*
D02*
G37*
G36*
X20693D02*
X20185D01*
Y217035D01*
X32496D01*
Y217544D01*
X32181Y219535D01*
X31558Y221453D01*
X30642Y223250D01*
X29457Y224881D01*
X28031Y226307D01*
X26399Y227492D01*
X24603Y228408D01*
X22685Y229031D01*
X20693Y229346D01*
D02*
G37*
G36*
X19185D02*
X18677D01*
X16685Y229031D01*
X14767Y228408D01*
X12971Y227492D01*
X11339Y226307D01*
X9913Y224881D01*
X8728Y223250D01*
X7813Y221453D01*
X7190Y219535D01*
X6874Y217544D01*
Y217035D01*
X19185D01*
Y229346D01*
D02*
G37*
G36*
X67661Y215453D02*
X67376Y215219D01*
X66202Y215453D01*
X64671D01*
X63168Y215154D01*
X61753Y214568D01*
X60480Y213717D01*
X60436Y213673D01*
X60393Y213717D01*
X59120Y214568D01*
X57705Y215154D01*
X56202Y215453D01*
X54671D01*
X53168Y215154D01*
X51753Y214568D01*
X50480Y213717D01*
X49397Y212634D01*
X48691Y211577D01*
X48408Y211549D01*
X47304Y212186D01*
X46073Y212516D01*
X45937D01*
Y207677D01*
Y202839D01*
X46073D01*
X47304Y203168D01*
X48408Y203805D01*
X48691Y203778D01*
X49397Y202720D01*
X50480Y201638D01*
X51753Y200786D01*
X53168Y200200D01*
X53474Y200140D01*
Y188658D01*
X53623Y187907D01*
X54049Y187270D01*
X58837Y182482D01*
X58596Y181592D01*
X58219Y181374D01*
X57703Y180859D01*
X57339Y180227D01*
X57150Y179523D01*
Y179092D01*
X54521Y176463D01*
X54085Y175810D01*
X53986Y175314D01*
X53294Y175052D01*
X52847D01*
Y175052D01*
X47953D01*
X47546Y175052D01*
X47153Y175689D01*
Y177622D01*
X47045Y178444D01*
X46727Y179210D01*
X46223Y179868D01*
X45565Y180373D01*
X44799Y180690D01*
X43976Y180798D01*
X43154Y180690D01*
X42388Y180373D01*
X41730Y179868D01*
X41225Y179210D01*
X40908Y178444D01*
X40800Y177622D01*
Y172244D01*
X40908Y171422D01*
X41225Y170656D01*
X41326Y170524D01*
Y169436D01*
X42525D01*
X43154Y169176D01*
X43565Y169122D01*
X44049Y168811D01*
X44197Y168289D01*
Y164083D01*
X48150D01*
X52102D01*
Y168636D01*
X52102Y168717D01*
X52198Y169072D01*
X52847Y169436D01*
X53294D01*
Y169436D01*
X58595D01*
Y174146D01*
X58715Y174226D01*
X59515Y173798D01*
Y169436D01*
X59515D01*
X59650Y169111D01*
X59055Y168517D01*
X54397D01*
Y158649D01*
X61902D01*
Y165669D01*
X63589Y167356D01*
X64026Y168009D01*
X64179Y168780D01*
Y169042D01*
X64816Y169436D01*
X65105D01*
Y169436D01*
X65616Y169436D01*
X66304D01*
X66934Y169176D01*
X67195Y169141D01*
X67782Y168742D01*
X67819Y168285D01*
Y164083D01*
X71772D01*
X75724D01*
Y168636D01*
X75724Y168717D01*
X75882Y169302D01*
X76627Y169436D01*
X76916D01*
Y169436D01*
X82217D01*
Y175052D01*
X76916D01*
Y175052D01*
X76632D01*
X75832Y175066D01*
Y179035D01*
X76521D01*
X77292Y179188D01*
X77945Y179625D01*
X77999Y179679D01*
X78100Y179830D01*
X79146D01*
X79193Y179437D01*
X80709D01*
Y178937D01*
X81209D01*
Y176165D01*
X82181D01*
Y176365D01*
X83950D01*
Y179150D01*
X84239Y179830D01*
X89383D01*
Y183026D01*
X102507D01*
Y182546D01*
X108123D01*
Y187847D01*
X102507D01*
Y187053D01*
X98354D01*
X98048Y187792D01*
X101781Y191526D01*
X102207Y192162D01*
X102356Y192913D01*
Y199210D01*
X102618Y199902D01*
X118169D01*
Y215453D01*
X102618D01*
Y215453D01*
X102334Y215219D01*
X101160Y215453D01*
X99628D01*
X98126Y215154D01*
X96711Y214568D01*
X95437Y213717D01*
X94354Y212634D01*
X93648Y211577D01*
X93365Y211549D01*
X92261Y212186D01*
X91031Y212516D01*
X90894D01*
Y207677D01*
Y202839D01*
X91031D01*
X92261Y203168D01*
X93365Y203805D01*
X93648Y203777D01*
X94354Y202720D01*
X95437Y201638D01*
X96711Y200786D01*
X98126Y200200D01*
X98431Y200140D01*
Y193726D01*
X93675Y188970D01*
X89583D01*
Y190449D01*
X87311D01*
Y188976D01*
X86311D01*
Y190449D01*
X85132D01*
X84625Y191067D01*
X84640Y191142D01*
Y195866D01*
X84490Y196617D01*
X84065Y197254D01*
X82156Y199162D01*
X82462Y199902D01*
X83212D01*
Y215453D01*
X67661D01*
Y215453D01*
D02*
G37*
G36*
X89894Y212516D02*
X89757D01*
X88526Y212186D01*
X87423Y211549D01*
X86522Y210648D01*
X85885Y209545D01*
X85555Y208314D01*
Y208177D01*
X89894D01*
Y212516D01*
D02*
G37*
G36*
X44936Y212516D02*
X44800D01*
X43569Y212186D01*
X42465Y211549D01*
X41565Y210648D01*
X40928Y209545D01*
X40598Y208314D01*
Y208177D01*
X44936D01*
Y212516D01*
D02*
G37*
G36*
X268717Y216035D02*
X256405D01*
Y203724D01*
X256914D01*
X258905Y204040D01*
X260823Y204663D01*
X262620Y205578D01*
X264251Y206764D01*
X265677Y208190D01*
X266863Y209821D01*
X267778Y211618D01*
X268401Y213535D01*
X268717Y215527D01*
Y216035D01*
D02*
G37*
G36*
X255405D02*
X243094D01*
Y215527D01*
X243410Y213535D01*
X244033Y211618D01*
X244949Y209821D01*
X246134Y208190D01*
X247560Y206764D01*
X249191Y205578D01*
X250988Y204663D01*
X252906Y204040D01*
X254897Y203724D01*
X255405D01*
Y216035D01*
D02*
G37*
G36*
X32496D02*
X20185D01*
Y203724D01*
X20693D01*
X22685Y204040D01*
X24603Y204663D01*
X26399Y205578D01*
X28031Y206764D01*
X29457Y208190D01*
X30642Y209821D01*
X31558Y211618D01*
X32181Y213535D01*
X32496Y215527D01*
Y216035D01*
D02*
G37*
G36*
X19185D02*
X6874D01*
Y215527D01*
X7190Y213535D01*
X7813Y211618D01*
X8728Y209821D01*
X9913Y208190D01*
X11339Y206764D01*
X12971Y205578D01*
X14767Y204663D01*
X16685Y204040D01*
X18677Y203724D01*
X19185D01*
Y216035D01*
D02*
G37*
G36*
X44936Y207177D02*
X40598D01*
Y207040D01*
X40928Y205810D01*
X41565Y204706D01*
X42465Y203805D01*
X43569Y203168D01*
X44800Y202839D01*
X44936D01*
Y207177D01*
D02*
G37*
G36*
X89894Y207177D02*
X85555D01*
Y207040D01*
X85885Y205809D01*
X86522Y204706D01*
X87423Y203805D01*
X88526Y203168D01*
X89757Y202839D01*
X89894D01*
Y207177D01*
D02*
G37*
G36*
X153362Y206709D02*
X143020D01*
Y202272D01*
X153362D01*
Y206709D01*
D02*
G37*
G36*
X142020D02*
X131677D01*
Y202272D01*
X142020D01*
Y206709D01*
D02*
G37*
G36*
X153362Y201272D02*
X143020D01*
Y196835D01*
X153362D01*
Y201272D01*
D02*
G37*
G36*
X142020D02*
X131677D01*
Y196835D01*
X142020D01*
Y201272D01*
D02*
G37*
G36*
X20506Y202319D02*
X18974D01*
X17472Y202020D01*
X16057Y201434D01*
X14784Y200583D01*
X13701Y199500D01*
X12849Y198226D01*
X12263Y196811D01*
X12185Y196418D01*
X11970Y196303D01*
X10623Y196571D01*
X9251D01*
X7904Y196303D01*
X6636Y195778D01*
X5495Y195015D01*
X4524Y194044D01*
X3762Y192903D01*
X3236Y191635D01*
X2968Y190289D01*
Y188916D01*
X3236Y187570D01*
X3762Y186302D01*
X4524Y185160D01*
X5495Y184190D01*
X6636Y183427D01*
X7904Y182902D01*
X9251Y182634D01*
X10623D01*
X11970Y182902D01*
X12258Y183021D01*
X12416Y182955D01*
X13239Y182847D01*
X23622D01*
X24444Y182955D01*
X25210Y183273D01*
X25868Y183777D01*
X26904Y184813D01*
X27704Y184482D01*
Y184365D01*
X27443Y183736D01*
X27335Y182913D01*
Y176575D01*
X27443Y175753D01*
X27743Y175028D01*
Y174003D01*
X28690D01*
X28923Y173824D01*
X29690Y173506D01*
X30090Y173453D01*
X30038Y172653D01*
X27543D01*
Y170516D01*
X26743Y170356D01*
X26631Y170628D01*
X25780Y171902D01*
X24697Y172985D01*
X23423Y173836D01*
X22008Y174422D01*
X20506Y174721D01*
X18974D01*
X17472Y174422D01*
X16057Y173836D01*
X14784Y172985D01*
X14674Y172875D01*
X13782Y173114D01*
X13694Y173442D01*
X13163Y174361D01*
X12412Y175112D01*
X11493Y175643D01*
X10468Y175917D01*
X10437D01*
Y171886D01*
Y167854D01*
X10468D01*
X11217Y168055D01*
X11530Y167911D01*
X11822Y167675D01*
X11965Y167478D01*
Y166179D01*
X12263Y164677D01*
X12849Y163262D01*
X13701Y161988D01*
X14630Y161059D01*
X13701Y160130D01*
X12849Y158856D01*
X12263Y157441D01*
X12185Y157048D01*
X11970Y156933D01*
X10623Y157201D01*
X9251D01*
X7904Y156933D01*
X6636Y156408D01*
X5495Y155645D01*
X4524Y154674D01*
X3762Y153533D01*
X3236Y152265D01*
X2968Y150919D01*
Y149546D01*
X3236Y148200D01*
X3762Y146932D01*
X4524Y145790D01*
X5495Y144819D01*
X6636Y144057D01*
X6760Y144006D01*
Y143606D01*
X6869Y142784D01*
X7186Y142018D01*
X7691Y141360D01*
X8978Y140072D01*
X9636Y139567D01*
X10402Y139250D01*
X11225Y139142D01*
X27335D01*
Y136658D01*
X27443Y135836D01*
X27704Y135207D01*
Y134008D01*
X28177D01*
X28278Y133888D01*
X27907Y133088D01*
X27704D01*
Y130758D01*
X26904Y130598D01*
X26631Y131258D01*
X25780Y132531D01*
X24697Y133615D01*
X23423Y134465D01*
X22008Y135052D01*
X20506Y135350D01*
X18974D01*
X17472Y135052D01*
X16057Y134465D01*
X14784Y133615D01*
X14674Y133505D01*
X13782Y133744D01*
X13694Y134072D01*
X13163Y134991D01*
X12412Y135742D01*
X11493Y136273D01*
X10468Y136547D01*
X10437D01*
Y132516D01*
Y128484D01*
X10468D01*
X11217Y128685D01*
X11530Y128541D01*
X11822Y128305D01*
X11965Y128107D01*
Y126809D01*
X12263Y125307D01*
X12849Y123892D01*
X13701Y122618D01*
X14784Y121535D01*
X16057Y120684D01*
X17397Y120129D01*
X17487Y119792D01*
X17463Y119284D01*
X16782Y118829D01*
X13577Y115624D01*
X13512Y115651D01*
X12333Y115886D01*
X11131D01*
X9952Y115651D01*
X8842Y115191D01*
X7842Y114523D01*
X6992Y113673D01*
X6324Y112674D01*
X5864Y111563D01*
X5630Y110385D01*
Y109182D01*
X5864Y108003D01*
X6163Y107283D01*
X5864Y106563D01*
X5630Y105385D01*
Y104182D01*
X5864Y103004D01*
X6324Y101893D01*
X6992Y100893D01*
X7842Y100043D01*
X8842Y99376D01*
X9952Y98916D01*
X11131Y98681D01*
X12333D01*
X13512Y98916D01*
X14232Y99214D01*
X14952Y98916D01*
X16131Y98681D01*
X17333D01*
X18512Y98916D01*
X18577Y98943D01*
X19694Y97826D01*
X19423Y96965D01*
X18969Y96703D01*
X18454Y96188D01*
X18090Y95557D01*
X17901Y94853D01*
Y94825D01*
X17101Y94499D01*
X17072Y94527D01*
X16441Y94892D01*
X15737Y95081D01*
X15008D01*
X14304Y94892D01*
X13673Y94527D01*
X13157Y94012D01*
X12793Y93381D01*
X12604Y92677D01*
Y91948D01*
X12793Y91243D01*
X13157Y90612D01*
X13299Y90470D01*
X13107Y89591D01*
X12476Y89226D01*
X11961Y88711D01*
X11596Y88079D01*
X11408Y87375D01*
Y86646D01*
X11515Y86246D01*
X11478Y85816D01*
X11024Y85333D01*
X10742Y85257D01*
X10111Y84892D01*
X9596Y84377D01*
X9231Y83746D01*
X9042Y83042D01*
Y82313D01*
X9231Y81609D01*
X9596Y80977D01*
X10111Y80462D01*
X10742Y80097D01*
X11446Y79909D01*
X12175D01*
X12880Y80097D01*
X13511Y80462D01*
X13705Y80656D01*
X16525D01*
X18610Y78572D01*
X17122Y77085D01*
X16981Y77226D01*
X16071Y76316D01*
X17891Y74495D01*
X19712Y72675D01*
X20622Y73585D01*
X20481Y73726D01*
X23551Y76797D01*
X23695Y76893D01*
X23791Y77036D01*
X24776Y78021D01*
X28006Y81251D01*
X28149Y81347D01*
X28245Y81490D01*
X30233Y83478D01*
X30376Y83574D01*
X30472Y83718D01*
X32460Y85705D01*
X32603Y85801D01*
X32699Y85945D01*
X34687Y87932D01*
X34830Y88028D01*
X34926Y88172D01*
X36914Y90159D01*
X37058Y90255D01*
X37154Y90399D01*
X38138Y91384D01*
X40366Y93611D01*
X42610Y95856D01*
X43217Y96323D01*
X44681Y94859D01*
X44822Y95001D01*
X45665Y94157D01*
X45761Y94014D01*
X45905Y93918D01*
X47893Y91930D01*
X47989Y91786D01*
X48132Y91691D01*
X51344Y88479D01*
X53571Y86251D01*
X56801Y83022D01*
X56897Y82878D01*
X57041Y82782D01*
X60252Y79570D01*
X63482Y76340D01*
X63578Y76197D01*
X63722Y76101D01*
X64707Y75116D01*
X67937Y71886D01*
X68032Y71743D01*
X68176Y71647D01*
X70164Y69659D01*
X70260Y69515D01*
X70403Y69420D01*
X72556Y67266D01*
X72290Y66401D01*
X72102Y66365D01*
X72102D01*
X71099Y65362D01*
X70956Y65266D01*
X70860Y65122D01*
X68872Y63135D01*
X68728Y63039D01*
X68633Y62895D01*
X67630Y61892D01*
X65403Y59665D01*
X63176Y57438D01*
X59964Y54226D01*
X59820Y54130D01*
X59724Y53987D01*
X56494Y50757D01*
X54267Y48530D01*
X52040Y46303D01*
X48828Y43091D01*
X48684Y42995D01*
X48589Y42851D01*
X47745Y42008D01*
X47604Y42149D01*
X46693Y41239D01*
X48514Y39418D01*
X50335Y37598D01*
X50505Y37768D01*
X52115Y36158D01*
X51863Y35905D01*
X52487Y35281D01*
X52526Y34989D01*
X52843Y34223D01*
X53089Y33902D01*
X52486Y33373D01*
X50767Y35092D01*
X49161Y33486D01*
X51260Y31387D01*
X50906Y31033D01*
X51260Y30680D01*
X49300Y28720D01*
X50977Y27044D01*
X50948Y27015D01*
X52693Y25269D01*
X54653Y27229D01*
X55007Y26875D01*
X55360Y27229D01*
X57459Y25130D01*
X59066Y26736D01*
X57054Y28748D01*
X57582Y29351D01*
X58151Y28915D01*
X58917Y28597D01*
X59143Y28568D01*
X59878Y27832D01*
X60702Y28655D01*
X61328Y28915D01*
X61985Y29419D01*
X62490Y30077D01*
X62750Y30703D01*
X63175Y31129D01*
X63857Y30993D01*
X64167Y30391D01*
X64222Y30216D01*
X63720Y29465D01*
X63536Y28543D01*
Y27181D01*
X63024D01*
Y21880D01*
X68639D01*
Y27181D01*
X68639D01*
X68710Y27686D01*
X69069Y27917D01*
X69869Y27479D01*
X69869Y22625D01*
X76981D01*
Y24756D01*
X77097Y24872D01*
X77619Y25653D01*
X77715Y26135D01*
X85405D01*
X86632Y24907D01*
X86949Y24433D01*
X87065Y24317D01*
Y22422D01*
X92681D01*
Y27723D01*
X90538D01*
X90355Y27996D01*
X90003Y28348D01*
X90309Y29088D01*
X93715D01*
X94285Y28533D01*
Y22996D01*
X101397D01*
Y28533D01*
X99849D01*
Y29528D01*
X99666Y30449D01*
X99144Y31231D01*
X97176Y33199D01*
X96394Y33721D01*
X95472Y33904D01*
X68898D01*
X67976Y33721D01*
X67272Y33251D01*
X66762Y33872D01*
X68172Y35282D01*
X66566Y36889D01*
X64467Y34789D01*
X63759Y35497D01*
X65859Y37596D01*
X64340Y39114D01*
X63987Y39892D01*
X65089Y40994D01*
X65509Y41317D01*
X66014Y41974D01*
X66331Y42741D01*
X66440Y43563D01*
X66408Y43801D01*
X66530Y44029D01*
X67096Y44539D01*
X68705D01*
X69002Y44368D01*
X69706Y44179D01*
X70435D01*
X71139Y44368D01*
X71771Y44732D01*
X72286Y45248D01*
X72650Y45879D01*
X72839Y46583D01*
Y47312D01*
X72650Y48016D01*
X72286Y48647D01*
X71771Y49163D01*
X71139Y49527D01*
X70435Y49716D01*
X69706D01*
X69002Y49527D01*
X68705Y49356D01*
X67799D01*
X64805Y52350D01*
X66534Y54080D01*
X68761Y56307D01*
X70372Y57917D01*
X70958Y57373D01*
Y54586D01*
X71050Y54124D01*
Y53769D01*
X71239Y53065D01*
X71604Y52434D01*
X72119Y51919D01*
X72750Y51554D01*
X73454Y51365D01*
X74183D01*
X74888Y51554D01*
X75519Y51919D01*
X76034Y52434D01*
X76399Y53065D01*
X76587Y53769D01*
Y54498D01*
X76399Y55203D01*
X76034Y55834D01*
X76100Y56555D01*
X76714Y57099D01*
X76781D01*
X77040Y56840D01*
X77672Y56475D01*
X78376Y56287D01*
X79105D01*
X79809Y56475D01*
X80440Y56840D01*
X80955Y57355D01*
X81320Y57986D01*
X81509Y58691D01*
Y59420D01*
X81320Y60124D01*
X80955Y60755D01*
X80440Y61270D01*
X79809Y61635D01*
X79105Y61824D01*
X78750D01*
X78288Y61916D01*
X77712D01*
X74362Y65266D01*
X73968Y65529D01*
X73918Y66474D01*
X76991Y69548D01*
X75345Y71195D01*
X77077Y72927D01*
X77304D01*
X77766Y73019D01*
X78120D01*
X78825Y73208D01*
X79456Y73572D01*
X79971Y74088D01*
X80336Y74719D01*
X80524Y75423D01*
Y76152D01*
X80336Y76856D01*
X79971Y77487D01*
X79456Y78003D01*
X78825Y78367D01*
X78120Y78556D01*
X77391D01*
X77185Y78501D01*
X76532Y79154D01*
X76587Y79360D01*
Y80089D01*
X76399Y80793D01*
X76034Y81424D01*
X75519Y81940D01*
X74888Y82304D01*
X74183Y82493D01*
X73454D01*
X73248Y82438D01*
X72595Y83091D01*
X72650Y83297D01*
Y84026D01*
X72462Y84730D01*
X72097Y85361D01*
X71582Y85877D01*
X71074Y86170D01*
X71077Y86589D01*
X71215Y86970D01*
X73994D01*
X89127Y71837D01*
Y52165D01*
X89310Y51244D01*
X89832Y50462D01*
X104094Y36201D01*
Y24793D01*
X102946D01*
Y19256D01*
X110058D01*
Y24793D01*
X108911D01*
Y37198D01*
X108728Y38120D01*
X108205Y38901D01*
X93944Y53163D01*
Y72835D01*
X93761Y73756D01*
X93239Y74538D01*
X87406Y80370D01*
X87412Y80513D01*
X87727Y81181D01*
X91308D01*
X92131Y81289D01*
X92859Y81591D01*
X94000D01*
Y82064D01*
X94120Y82165D01*
X94920Y81794D01*
Y81591D01*
X95047D01*
Y67454D01*
X95230Y66532D01*
X95753Y65751D01*
X109324Y52180D01*
X110105Y51658D01*
X111027Y51475D01*
X113121D01*
X113380Y51216D01*
X114011Y50851D01*
X114715Y50663D01*
X115444D01*
X115737Y50741D01*
X130892D01*
X133090Y48544D01*
Y45951D01*
X132848D01*
Y45680D01*
X132491Y45448D01*
X131928Y45728D01*
Y45951D01*
X130729D01*
X130100Y46211D01*
X129278Y46319D01*
X128701Y46244D01*
X123031D01*
X122209Y46135D01*
X121443Y45818D01*
X120785Y45313D01*
X120280Y44655D01*
X119963Y43889D01*
X119855Y43067D01*
Y35433D01*
X119963Y34611D01*
X120263Y33887D01*
Y32271D01*
X122835D01*
X123050Y32243D01*
X127652D01*
Y32193D01*
X130905D01*
Y31193D01*
X127652D01*
Y29610D01*
X127852D01*
Y27476D01*
X127652D01*
Y25894D01*
X130905D01*
Y24894D01*
X127652D01*
Y23311D01*
Y22744D01*
X130905D01*
Y21744D01*
X127652D01*
Y21515D01*
X127454Y21489D01*
X126831Y21231D01*
X126296Y20821D01*
X125143Y19668D01*
X124733Y19133D01*
X124475Y18511D01*
X124387Y17843D01*
Y16431D01*
X124378D01*
Y13734D01*
X124368Y13662D01*
Y8861D01*
X124181Y8162D01*
Y7433D01*
X124370Y6729D01*
X124734Y6098D01*
X125250Y5582D01*
X125881Y5218D01*
X126585Y5029D01*
X127314D01*
X128018Y5218D01*
X128649Y5582D01*
X129165Y6098D01*
X129529Y6729D01*
X129718Y7433D01*
Y8162D01*
X129531Y8861D01*
Y13536D01*
X129550Y13681D01*
Y16415D01*
X130807D01*
X131475Y16503D01*
X131673Y16585D01*
X132015Y16452D01*
X132473Y16091D01*
Y13819D01*
X132657Y12897D01*
X133179Y12116D01*
X134629Y10665D01*
X135411Y10143D01*
X136332Y9960D01*
X143846D01*
Y9561D01*
X149146D01*
Y9764D01*
X149946Y10135D01*
X150066Y10034D01*
Y9561D01*
X151265D01*
X151894Y9300D01*
X152717Y9191D01*
X152772Y9199D01*
X157701D01*
X158523Y9307D01*
X159290Y9624D01*
X159947Y10129D01*
X159955Y10137D01*
X160460Y10795D01*
X160777Y11561D01*
X160885Y12383D01*
X160777Y13205D01*
X160460Y13971D01*
X159955Y14629D01*
X159297Y15134D01*
X158531Y15452D01*
X157709Y15560D01*
X157653Y15552D01*
X156309D01*
X155567Y15693D01*
X155567Y16353D01*
Y18201D01*
X152717D01*
Y19201D01*
X155567D01*
Y21709D01*
X155367Y21798D01*
Y22887D01*
X155468Y23018D01*
X155785Y23784D01*
X155893Y24606D01*
X155815Y25204D01*
Y30276D01*
X155706Y31098D01*
X155389Y31864D01*
X155367Y31893D01*
Y33005D01*
X155683Y33674D01*
X156934D01*
X157757Y33782D01*
X158523Y34099D01*
X158663Y34207D01*
X158971Y34334D01*
X159629Y34839D01*
X160134Y35497D01*
X160451Y36263D01*
X160559Y37085D01*
X160451Y37908D01*
X160134Y38674D01*
X159629Y39332D01*
X159170Y39684D01*
X159101Y39982D01*
X159104Y40348D01*
X159175Y40618D01*
X159644Y40979D01*
X159727Y41061D01*
X160231Y41719D01*
X160549Y42485D01*
X160657Y43307D01*
X160549Y44129D01*
X160231Y44895D01*
X159727Y45553D01*
X159069Y46058D01*
X158302Y46376D01*
X157480Y46484D01*
X156856Y46402D01*
X152500D01*
X151677Y46294D01*
X150911Y45976D01*
X150878Y45951D01*
X150066D01*
Y45900D01*
X149946Y45815D01*
X149146Y45951D01*
Y45951D01*
X147252D01*
X134011Y59192D01*
X133229Y59714D01*
X132308Y59897D01*
X113730D01*
X111894Y61733D01*
X111806Y62064D01*
X111441Y62695D01*
X110926Y63211D01*
X110294Y63575D01*
X109963Y63664D01*
X103616Y70011D01*
Y82235D01*
X104388Y82651D01*
X105154Y82334D01*
X105976Y82226D01*
X106799Y82334D01*
X107565Y82651D01*
X108223Y83156D01*
X108727Y83814D01*
X108770Y83916D01*
X109285Y84431D01*
X109789Y85089D01*
X110107Y85855D01*
X110215Y86677D01*
Y89310D01*
X110382Y89714D01*
X110491Y90536D01*
X110382Y91358D01*
X110065Y92124D01*
X109964Y92256D01*
Y93344D01*
X108849D01*
X108834Y93355D01*
X108393Y93538D01*
X108297Y93649D01*
X108063Y94298D01*
X108062Y94480D01*
X108259Y94822D01*
X108461Y95577D01*
Y96359D01*
X108259Y97114D01*
X107868Y97790D01*
X107316Y98343D01*
X106639Y98734D01*
X105884Y98936D01*
X105102D01*
X104347Y98734D01*
X103920Y98487D01*
X103400Y98489D01*
X102936Y98741D01*
X102682Y99122D01*
X102666Y99915D01*
X102666D01*
Y101990D01*
X100681D01*
Y102990D01*
X102666D01*
Y105034D01*
X103134D01*
Y107502D01*
X100863D01*
Y105531D01*
X100313Y105239D01*
X99513Y105602D01*
Y110770D01*
X99350D01*
Y111720D01*
X99167Y112642D01*
X98644Y113423D01*
X97724Y114344D01*
X96942Y114866D01*
X96021Y115049D01*
X95878D01*
X95619Y115308D01*
X94988Y115673D01*
X94284Y115861D01*
X93555D01*
X92851Y115673D01*
X92219Y115308D01*
X91704Y114793D01*
X91483Y114410D01*
X90863Y114460D01*
X90643Y114534D01*
X90350Y115242D01*
X89845Y115900D01*
X89187Y116405D01*
X88421Y116722D01*
X87598Y116831D01*
X87561Y116826D01*
X85431D01*
X84791Y117214D01*
Y118413D01*
X85052Y119042D01*
X85160Y119864D01*
X85054Y120669D01*
Y122822D01*
X85524D01*
Y132690D01*
X78019D01*
Y122822D01*
X78701D01*
Y119970D01*
X78809Y119148D01*
X79126Y118382D01*
X79176Y118318D01*
Y117214D01*
X79430D01*
X79694Y116772D01*
X79414Y116294D01*
X79176D01*
Y115095D01*
X78915Y114466D01*
X78807Y113644D01*
X78915Y112822D01*
X79176Y112192D01*
Y110994D01*
X78385Y110970D01*
X78078D01*
Y108002D01*
X77578D01*
Y107502D01*
X74806D01*
Y105034D01*
X74963D01*
Y102557D01*
X77814D01*
Y101557D01*
X74963D01*
Y99373D01*
X74631Y99284D01*
X73819Y98816D01*
X73157Y98153D01*
X72688Y97342D01*
X72445Y96436D01*
Y95499D01*
X72688Y94594D01*
X73157Y93783D01*
X73819Y93120D01*
X74631Y92651D01*
X74872Y92587D01*
X74766Y91787D01*
X63397D01*
X62475Y91603D01*
X61694Y91081D01*
X58576Y87963D01*
X56930Y89610D01*
X54703Y91837D01*
X53074Y93466D01*
X54195Y94587D01*
X54717Y95368D01*
X54900Y96290D01*
Y103020D01*
X54717Y103942D01*
X54195Y104723D01*
X48863Y110055D01*
X49170Y110794D01*
X51345D01*
Y113144D01*
X48337D01*
Y114144D01*
X51345D01*
Y116494D01*
X51338D01*
X51145Y117214D01*
X51145D01*
Y118413D01*
X51405Y119042D01*
X51514Y119864D01*
X51420Y120575D01*
Y122822D01*
X51902D01*
Y132690D01*
X44397D01*
Y123061D01*
X42984D01*
X42835Y123081D01*
X42013Y122972D01*
X41247Y122655D01*
X40589Y122150D01*
X40574Y122131D01*
X39774Y122402D01*
Y125116D01*
X35927D01*
Y121852D01*
X35427D01*
Y121352D01*
X31081D01*
Y119535D01*
X22738D01*
X22579Y120334D01*
X23423Y120684D01*
X24697Y121535D01*
X25780Y122618D01*
X26631Y123892D01*
X27217Y125307D01*
X27516Y126809D01*
Y127065D01*
X27704Y127787D01*
X28316Y127787D01*
X33320D01*
Y128035D01*
X34179D01*
X34466Y127869D01*
X35170Y127681D01*
X35899D01*
X36603Y127869D01*
X37235Y128234D01*
X37750Y128749D01*
X38114Y129381D01*
X38303Y130085D01*
Y130814D01*
X38114Y131518D01*
X37750Y132149D01*
X37235Y132665D01*
X36603Y133029D01*
X35899Y133218D01*
X35170D01*
X34466Y133029D01*
X34159Y132852D01*
X33320D01*
Y133088D01*
X33116D01*
X32745Y133888D01*
X32846Y134008D01*
X33320D01*
Y135207D01*
X33580Y135836D01*
X33689Y136658D01*
Y142319D01*
X33580Y143141D01*
X33280Y143865D01*
Y144890D01*
X32334D01*
X32100Y145070D01*
X31334Y145387D01*
X30933Y145440D01*
X30986Y146240D01*
X33480D01*
Y148512D01*
X30512D01*
X27543D01*
Y146295D01*
X27543Y146240D01*
X27409Y145495D01*
X16115D01*
X15687Y146295D01*
X16112Y146932D01*
X16582Y148065D01*
X17472Y147696D01*
X18974Y147398D01*
X20506D01*
X22008Y147696D01*
X23423Y148283D01*
X24697Y149134D01*
X25780Y150217D01*
X26631Y151490D01*
X26663Y151568D01*
X26743Y151602D01*
X27543Y151202D01*
X27543Y151025D01*
X27543Y151025D01*
X27543Y151014D01*
Y149512D01*
X30012D01*
Y151783D01*
X28269D01*
X27618Y151783D01*
X27175Y152184D01*
X27142Y152236D01*
X27055Y152515D01*
X27217Y152905D01*
X27516Y154407D01*
Y155939D01*
X27217Y157441D01*
X26631Y158856D01*
X25780Y160130D01*
X24851Y161059D01*
X25780Y161988D01*
X26631Y163262D01*
X27217Y164677D01*
X27516Y166179D01*
Y166322D01*
X27543Y167110D01*
X28316Y167110D01*
X30012D01*
Y169882D01*
X30512D01*
Y170382D01*
X33480D01*
Y172653D01*
X30986D01*
X30933Y173453D01*
X31334Y173506D01*
X32100Y173824D01*
X32334Y174003D01*
X33280D01*
Y175028D01*
X33474Y175497D01*
X33693Y175624D01*
X34143Y175743D01*
X34385Y175739D01*
X34829Y175398D01*
X35595Y175081D01*
X36417Y174973D01*
X37240Y175081D01*
X38006Y175398D01*
X38664Y175903D01*
X39169Y176561D01*
X39486Y177327D01*
X39594Y178150D01*
Y182913D01*
X39486Y183736D01*
X39225Y184365D01*
Y185564D01*
X39895Y185878D01*
X40740D01*
X41339Y185800D01*
X42161Y185908D01*
X42927Y186225D01*
X43585Y186730D01*
X44090Y187388D01*
X44407Y188154D01*
X44515Y188976D01*
X44407Y189799D01*
X44090Y190565D01*
X43585Y191223D01*
X43506Y191301D01*
X42848Y191806D01*
X42082Y192124D01*
X41260Y192232D01*
X37016D01*
X36417Y192311D01*
X35595Y192202D01*
X34829Y191885D01*
X34698Y191784D01*
X33610D01*
Y191784D01*
X33320Y191784D01*
Y191784D01*
X32232D01*
X32100Y191885D01*
X31334Y192202D01*
X30512Y192311D01*
X29690Y192202D01*
X29286Y192035D01*
X27945D01*
X27328Y192835D01*
X27516Y193778D01*
Y195309D01*
X27217Y196811D01*
X26631Y198226D01*
X25780Y199500D01*
X24697Y200583D01*
X23423Y201434D01*
X22008Y202020D01*
X20506Y202319D01*
D02*
G37*
G36*
X128953Y200803D02*
X124516D01*
Y190461D01*
X128953D01*
Y200803D01*
D02*
G37*
G36*
X123516D02*
X119079D01*
Y190461D01*
X123516D01*
Y200803D01*
D02*
G37*
G36*
X52614Y194271D02*
X49850D01*
Y190424D01*
X52614D01*
Y194271D01*
D02*
G37*
G36*
X48850D02*
X46087D01*
Y190424D01*
X48850D01*
Y194271D01*
D02*
G37*
G36*
X52614Y189424D02*
X49850D01*
Y185578D01*
X52614D01*
Y189424D01*
D02*
G37*
G36*
X48850D02*
X46087D01*
Y185578D01*
X48850D01*
Y189424D01*
D02*
G37*
G36*
X191453Y190862D02*
X179634D01*
Y185539D01*
X191453D01*
Y190862D01*
D02*
G37*
G36*
X178634D02*
X166815D01*
Y185539D01*
X178634D01*
Y190862D01*
D02*
G37*
G36*
X191453Y184539D02*
X179634D01*
Y179217D01*
X191453D01*
Y184539D01*
D02*
G37*
G36*
X178634D02*
X166815D01*
Y179217D01*
X178634D01*
Y184539D01*
D02*
G37*
G36*
X123516Y189461D02*
X119079D01*
Y179118D01*
X123516D01*
Y189461D01*
D02*
G37*
G36*
X80209Y178437D02*
X79236D01*
Y176165D01*
X80209D01*
Y178437D01*
D02*
G37*
G36*
X9437Y175917D02*
X9406D01*
X8381Y175643D01*
X7462Y175112D01*
X6711Y174361D01*
X6180Y173442D01*
X5906Y172417D01*
Y172386D01*
X9437D01*
Y175917D01*
D02*
G37*
G36*
X99347Y175606D02*
X95894D01*
Y170972D01*
X99347D01*
Y175606D01*
D02*
G37*
G36*
X94894D02*
X91441D01*
Y170972D01*
X94894D01*
Y175606D01*
D02*
G37*
G36*
X88438Y175052D02*
X83137D01*
Y169436D01*
X83137D01*
X83272Y169111D01*
X82677Y168517D01*
X78019D01*
Y158649D01*
X85524D01*
Y165669D01*
X87211Y167356D01*
X87648Y168009D01*
X87801Y168780D01*
Y169436D01*
X88438D01*
Y175052D01*
D02*
G37*
G36*
X9437Y171386D02*
X5906D01*
Y171355D01*
X6180Y170330D01*
X6711Y169410D01*
X7462Y168660D01*
X8381Y168129D01*
X9406Y167854D01*
X9437D01*
Y171386D01*
D02*
G37*
G36*
X33480Y169382D02*
X31012D01*
Y167110D01*
X33480D01*
Y169382D01*
D02*
G37*
G36*
X108123Y181627D02*
X102507D01*
Y176326D01*
X102734D01*
Y175406D01*
X101641D01*
Y165539D01*
X109146D01*
Y175406D01*
X107896D01*
Y176326D01*
X108123D01*
Y181627D01*
D02*
G37*
G36*
X99347Y169972D02*
X95894D01*
Y165339D01*
X99347D01*
Y169972D01*
D02*
G37*
G36*
X94894D02*
X91441D01*
Y165339D01*
X94894D01*
Y169972D01*
D02*
G37*
G36*
X235761Y164225D02*
X230460D01*
Y158609D01*
X235761D01*
Y164225D01*
D02*
G37*
G36*
X75724Y163083D02*
X72272D01*
Y158449D01*
X75724D01*
Y163083D01*
D02*
G37*
G36*
X71272D02*
X67819D01*
Y158449D01*
X71272D01*
Y163083D01*
D02*
G37*
G36*
X52102D02*
X48650D01*
Y158449D01*
X52102D01*
Y163083D01*
D02*
G37*
G36*
X47650D02*
X44197D01*
Y158449D01*
X47650D01*
Y163083D01*
D02*
G37*
G36*
X31012Y151783D02*
Y149512D01*
X33480D01*
Y151783D01*
X31012D01*
D02*
G37*
G36*
X236155Y141506D02*
X233686D01*
Y139234D01*
X236155D01*
Y141506D01*
D02*
G37*
G36*
X246466Y141777D02*
X239174D01*
Y136238D01*
X246466D01*
Y141777D01*
D02*
G37*
G36*
X236155Y138234D02*
X233686D01*
Y135962D01*
X236155D01*
Y138234D01*
D02*
G37*
G36*
X9437Y136547D02*
X9406D01*
X8381Y136273D01*
X7462Y135742D01*
X6711Y134991D01*
X6180Y134072D01*
X5906Y133046D01*
Y133016D01*
X9437D01*
Y136547D01*
D02*
G37*
G36*
Y132016D02*
X5906D01*
Y131985D01*
X6180Y130960D01*
X6711Y130040D01*
X7462Y129290D01*
X8381Y128759D01*
X9406Y128484D01*
X9437D01*
Y132016D01*
D02*
G37*
G36*
X159358Y130921D02*
Y128453D01*
X161630D01*
Y130921D01*
X159358D01*
D02*
G37*
G36*
X89894Y128992D02*
X87543D01*
Y126484D01*
X89894D01*
Y128992D01*
D02*
G37*
G36*
X75524Y132690D02*
X68019D01*
Y123089D01*
X66437D01*
X66078Y123136D01*
X65256Y123028D01*
X64490Y122710D01*
X63832Y122205D01*
X63327Y121547D01*
X63010Y120781D01*
X62901Y119959D01*
X63010Y119137D01*
X63327Y118371D01*
X63832Y117713D01*
X63879Y117665D01*
X64537Y117160D01*
X65303Y116843D01*
X66126Y116735D01*
X67828D01*
X68528Y116494D01*
X68528Y115935D01*
Y114144D01*
X71536D01*
X74544D01*
Y116494D01*
X74538D01*
X74344Y117214D01*
X74344Y117294D01*
Y117853D01*
X74548Y118119D01*
X74865Y118885D01*
X74973Y119707D01*
X74961Y119802D01*
Y119864D01*
X74853Y120687D01*
X74831Y120739D01*
Y122822D01*
X75524D01*
Y132690D01*
D02*
G37*
G36*
X89894Y125484D02*
X87543D01*
Y122976D01*
X89894D01*
Y125484D01*
D02*
G37*
G36*
X34927Y125116D02*
X31081D01*
Y122352D01*
X34927D01*
Y125116D01*
D02*
G37*
G36*
X147654Y123516D02*
X146366D01*
Y122228D01*
X147654D01*
Y123516D01*
D02*
G37*
G36*
X161630Y121547D02*
X159358D01*
Y119079D01*
X161630D01*
Y121547D01*
D02*
G37*
G36*
X99146Y139579D02*
X91641D01*
Y129792D01*
X91641Y129712D01*
X91447Y128992D01*
X90894D01*
Y125984D01*
Y122976D01*
X92707D01*
X93244Y122976D01*
X93507Y122285D01*
Y120637D01*
X93616Y119815D01*
X93933Y119049D01*
X94438Y118391D01*
X94508Y118321D01*
X95165Y117816D01*
X95932Y117499D01*
X96754Y117391D01*
X97576Y117499D01*
X98342Y117816D01*
X99000Y118321D01*
X99505Y118979D01*
X99822Y119745D01*
X99931Y120567D01*
X99861Y121098D01*
Y125914D01*
X99791Y126445D01*
Y133425D01*
X99683Y134247D01*
X99365Y135014D01*
X99146Y135299D01*
Y139579D01*
D02*
G37*
G36*
X109146D02*
X101641D01*
Y129712D01*
X102178D01*
Y127127D01*
X102138Y126828D01*
X102246Y126006D01*
X102507Y125376D01*
Y124178D01*
X102752D01*
X103025Y123718D01*
X102752Y123258D01*
X102507D01*
Y122059D01*
X102246Y121430D01*
X102138Y120607D01*
Y120257D01*
X101324Y119442D01*
X101222Y119400D01*
X100564Y118895D01*
X100059Y118237D01*
X99741Y117471D01*
X99633Y116649D01*
X99741Y115827D01*
X100059Y115060D01*
X100564Y114402D01*
X101222Y113898D01*
X101988Y113580D01*
X102810Y113472D01*
X103023D01*
X103845Y113580D01*
X104611Y113898D01*
X105269Y114402D01*
X105684Y114817D01*
X105926Y114809D01*
X106549Y114550D01*
X106672Y114089D01*
X107037Y113458D01*
X107552Y112942D01*
X108183Y112578D01*
X108888Y112389D01*
X109616D01*
X110321Y112578D01*
X110952Y112942D01*
X111467Y113458D01*
X111832Y114089D01*
X111920Y114420D01*
X113844Y116344D01*
X122192D01*
Y115944D01*
X127493D01*
Y116147D01*
X128293Y116519D01*
X128413Y116418D01*
Y115944D01*
X129612D01*
X130241Y115683D01*
X131063Y115575D01*
X131547Y115639D01*
X136607D01*
X137429Y115747D01*
X138195Y116065D01*
X138853Y116569D01*
X138917Y116633D01*
X139422Y117291D01*
X139739Y118057D01*
X139847Y118880D01*
X139739Y119702D01*
X139422Y120468D01*
X138917Y121126D01*
X138817Y121202D01*
X139089Y122002D01*
X139567D01*
X140338Y122155D01*
X140746Y122428D01*
X141913D01*
Y122228D01*
X143201D01*
Y122428D01*
X143320D01*
Y124016D01*
X144201D01*
Y122228D01*
X145366D01*
Y124016D01*
X145866D01*
Y124516D01*
X147654D01*
Y125939D01*
X149485D01*
X149594Y125184D01*
Y124816D01*
X149594D01*
Y123882D01*
X149372Y123593D01*
X149054Y122827D01*
X148946Y122005D01*
Y117850D01*
X148903Y117526D01*
X149012Y116704D01*
X149329Y115938D01*
X149834Y115280D01*
X150492Y114775D01*
X151258Y114458D01*
X152080Y114350D01*
X152902Y114458D01*
X153669Y114775D01*
X154326Y115280D01*
X154369Y115323D01*
X154874Y115981D01*
X155191Y116747D01*
X155300Y117569D01*
Y119047D01*
X156087Y119079D01*
X156100Y119079D01*
X158358D01*
Y122047D01*
X158858D01*
Y122547D01*
X161630D01*
Y124984D01*
Y127453D01*
X158858D01*
Y127953D01*
X158358D01*
Y130921D01*
X156154D01*
X156087Y130921D01*
X155354Y131083D01*
Y135717D01*
X155245Y136539D01*
X154928Y137305D01*
X154423Y137963D01*
X154177Y138209D01*
X153519Y138714D01*
X152753Y139031D01*
X151931Y139139D01*
X146446D01*
X146379Y139167D01*
X145556Y139275D01*
X144734Y139167D01*
X144105Y138907D01*
X142906D01*
Y138433D01*
X142786Y138332D01*
X141986Y138703D01*
Y138907D01*
X136686D01*
Y138507D01*
X116460D01*
X115539Y138324D01*
X114757Y137802D01*
X112385Y135429D01*
X112054Y135341D01*
X111423Y134976D01*
X110907Y134461D01*
X110543Y133829D01*
X110354Y133125D01*
Y132396D01*
X110543Y131692D01*
X110907Y131061D01*
X111423Y130545D01*
X112054Y130181D01*
X112758Y129992D01*
X113487D01*
X114191Y130181D01*
X114822Y130545D01*
X115338Y131061D01*
X115702Y131692D01*
X115791Y132023D01*
X117458Y133690D01*
X122192D01*
Y129082D01*
X123797D01*
X123821Y129044D01*
X123380Y128244D01*
X121992D01*
Y125736D01*
X124843D01*
Y124736D01*
X121992D01*
Y122228D01*
X121992Y122228D01*
X121992Y122228D01*
X122069Y121955D01*
X121569Y121168D01*
X121557Y121160D01*
X112847D01*
X111925Y120977D01*
X111144Y120455D01*
X109292Y118603D01*
X108492Y118935D01*
Y120607D01*
X108492Y120607D01*
X108384Y121430D01*
X108123Y122059D01*
Y123258D01*
X107878D01*
X107605Y123718D01*
X107878Y124178D01*
X108123D01*
Y125321D01*
X108423Y126045D01*
X108531Y126867D01*
Y129712D01*
X109146D01*
Y139579D01*
D02*
G37*
G36*
X71036Y113144D02*
X68528D01*
Y110794D01*
X71036D01*
Y113144D01*
D02*
G37*
G36*
X74544D02*
X72036D01*
Y110794D01*
X74006D01*
X74544Y110794D01*
X74806Y110102D01*
Y108502D01*
X77078D01*
Y110970D01*
X75344D01*
X74806Y110970D01*
X74544Y111662D01*
Y113144D01*
D02*
G37*
G36*
X106406Y110970D02*
X104134D01*
Y108502D01*
X106406D01*
Y110970D01*
D02*
G37*
G36*
X103134D02*
X100863D01*
Y108502D01*
X103134D01*
Y110970D01*
D02*
G37*
G36*
X113554Y110052D02*
X112824D01*
X112120Y109863D01*
X111489Y109499D01*
X110974Y108983D01*
X110609Y108352D01*
X110421Y107648D01*
X109620Y107098D01*
X109616Y107099D01*
X108888D01*
X108183Y106911D01*
X107552Y106546D01*
X107206Y106200D01*
X106501Y106411D01*
X106406Y106478D01*
Y107502D01*
X104134D01*
Y105034D01*
X105746D01*
X106438Y104716D01*
X106483Y104266D01*
Y103966D01*
X106672Y103262D01*
X107037Y102631D01*
X107552Y102115D01*
X108183Y101751D01*
X108514Y101662D01*
X109517Y100659D01*
X110299Y100137D01*
X111221Y99954D01*
X134829D01*
X136748Y98035D01*
Y96187D01*
X136506D01*
Y91121D01*
X135723Y90580D01*
X134900Y90688D01*
X130166D01*
X129344Y90580D01*
X128925Y90406D01*
X127428D01*
Y89636D01*
X127309Y89527D01*
X126509Y89882D01*
Y90406D01*
X121208D01*
Y84791D01*
X121651D01*
Y83897D01*
X121208D01*
Y78971D01*
X121008Y78254D01*
X121008Y77564D01*
Y75746D01*
X123858D01*
Y74746D01*
X121008D01*
Y72326D01*
X120850D01*
Y69858D01*
X123622D01*
Y69358D01*
X124122D01*
Y66389D01*
X126394D01*
Y67789D01*
X127194Y68136D01*
X127196Y68134D01*
Y64122D01*
X127304Y63300D01*
X127621Y62534D01*
X128126Y61876D01*
X128183Y61819D01*
X128841Y61314D01*
X129607Y60996D01*
X130430Y60888D01*
X131252Y60996D01*
X132018Y61314D01*
X132676Y61819D01*
X133181Y62476D01*
X133498Y63243D01*
X133607Y64065D01*
X133549Y64501D01*
Y67308D01*
X135575D01*
X136345Y67461D01*
X136998Y67898D01*
X140203Y71102D01*
X140640Y71756D01*
X140695Y72031D01*
X142217D01*
Y74213D01*
X143217D01*
Y72031D01*
X144307D01*
Y72186D01*
X145107Y72823D01*
X145276Y72790D01*
X147163D01*
Y71204D01*
X146932Y70646D01*
X146824Y69824D01*
Y69611D01*
X146932Y68789D01*
X147249Y68023D01*
X147754Y67365D01*
X148412Y66860D01*
X149178Y66543D01*
X150000Y66434D01*
X150823Y66543D01*
X151589Y66860D01*
X152247Y67365D01*
X152752Y68023D01*
X152851Y68262D01*
X153091Y68575D01*
X153408Y69341D01*
X153516Y70164D01*
Y71701D01*
X154261Y71835D01*
X154316Y71835D01*
X156533D01*
Y74803D01*
X157033D01*
Y75303D01*
X159804D01*
Y77629D01*
X159804Y77772D01*
X159447Y78424D01*
X159447Y78572D01*
Y79369D01*
X159548Y79501D01*
X159865Y80267D01*
X159973Y81089D01*
Y87598D01*
X159892Y88211D01*
Y93392D01*
X159784Y94214D01*
X159467Y94980D01*
X158962Y95638D01*
X158304Y96143D01*
X157538Y96460D01*
X156716Y96568D01*
X155894Y96460D01*
X155127Y96143D01*
X154469Y95638D01*
X153964Y94980D01*
X153784Y94545D01*
X152984Y94704D01*
Y101393D01*
X152801Y102314D01*
X152279Y103096D01*
X148357Y107018D01*
X147575Y107540D01*
X146654Y107723D01*
X116290D01*
X115808Y108206D01*
X115769Y108352D01*
X115404Y108983D01*
X114889Y109499D01*
X114258Y109863D01*
X113554Y110052D01*
D02*
G37*
G36*
X61902Y132690D02*
X54397D01*
Y122822D01*
X55135D01*
Y120027D01*
X55243Y119204D01*
X55561Y118438D01*
X55666Y118301D01*
Y117214D01*
X55911D01*
X56183Y116754D01*
X55911Y116294D01*
X55666D01*
Y115235D01*
X55470Y114980D01*
X55153Y114214D01*
X55045Y113392D01*
Y110177D01*
X55002Y110074D01*
X54894Y109252D01*
X55002Y108430D01*
X55320Y107664D01*
X55825Y107006D01*
X56482Y106501D01*
X57249Y106183D01*
X58071Y106075D01*
X58893Y106183D01*
X59659Y106501D01*
X60317Y107006D01*
X60468Y107156D01*
X60973Y107814D01*
X61290Y108580D01*
X61398Y109403D01*
Y112474D01*
X61542Y112822D01*
X61651Y113644D01*
X61542Y114466D01*
X61282Y115095D01*
Y116294D01*
X61037D01*
X60764Y116754D01*
X61037Y117214D01*
X61282D01*
Y118413D01*
X61542Y119042D01*
X61651Y119864D01*
X61542Y120687D01*
X61488Y120817D01*
Y122822D01*
X61902D01*
Y132690D01*
D02*
G37*
G36*
X170071Y102465D02*
X167799D01*
Y99996D01*
X170071D01*
Y102465D01*
D02*
G37*
G36*
X170661Y98429D02*
X169473D01*
Y96748D01*
X170661D01*
Y98429D01*
D02*
G37*
G36*
X132538Y98772D02*
Y96333D01*
X134978D01*
X134805Y96978D01*
X134414Y97655D01*
X133861Y98208D01*
X133184Y98599D01*
X132538Y98772D01*
D02*
G37*
G36*
X131538D02*
X130893Y98599D01*
X130216Y98208D01*
X129663Y97655D01*
X129272Y96978D01*
X129099Y96333D01*
X131538D01*
Y98772D01*
D02*
G37*
G36*
X134978Y95333D02*
X132538D01*
Y92893D01*
X133184Y93067D01*
X133861Y93457D01*
X134414Y94010D01*
X134805Y94687D01*
X134978Y95333D01*
D02*
G37*
G36*
X131538D02*
X129099D01*
X129272Y94687D01*
X129663Y94010D01*
X130216Y93457D01*
X130893Y93067D01*
X131538Y92893D01*
Y95333D01*
D02*
G37*
G36*
X265879Y93474D02*
X259277D01*
Y88643D01*
X265879D01*
Y93474D01*
D02*
G37*
G36*
X258277D02*
X251674D01*
Y88643D01*
X258277D01*
Y93474D01*
D02*
G37*
G36*
X265879Y87643D02*
X259277D01*
Y82813D01*
X265879D01*
Y87643D01*
D02*
G37*
G36*
X258277D02*
X251674D01*
Y82813D01*
X258277D01*
Y87643D01*
D02*
G37*
G36*
X169874Y84365D02*
X167602D01*
Y81897D01*
X169874D01*
Y84365D01*
D02*
G37*
G36*
X159804Y74303D02*
X157533D01*
Y71835D01*
X159804D01*
Y74303D01*
D02*
G37*
G36*
X15363Y75609D02*
X14453Y74698D01*
X13844Y74089D01*
X15664Y72268D01*
X17485Y70447D01*
X18395Y71358D01*
X19005Y71967D01*
X17184Y73788D01*
X15363Y75609D01*
D02*
G37*
G36*
X10909Y71154D02*
X9999Y70244D01*
X11466Y68777D01*
X12376Y69687D01*
X10909Y71154D01*
D02*
G37*
G36*
X13136Y73382D02*
X12226Y72471D01*
X11616Y71861D01*
X13437Y70041D01*
X15258Y68220D01*
X15867Y68830D01*
X16778Y69740D01*
X14957Y71561D01*
X13136Y73382D01*
D02*
G37*
G36*
X42871Y78780D02*
X42481Y78703D01*
X42150Y78482D01*
X39366Y75698D01*
X39145Y75367D01*
X39068Y74977D01*
X38695Y74604D01*
X38305Y74527D01*
X37974Y74306D01*
X36936Y73267D01*
X42871Y67332D01*
X48806Y73267D01*
X47768Y74306D01*
X47437Y74527D01*
X47047Y74604D01*
X46674Y74977D01*
X46597Y75367D01*
X46376Y75698D01*
X43592Y78482D01*
X43261Y78703D01*
X42871Y78780D01*
D02*
G37*
G36*
X123122Y68858D02*
X120850D01*
Y66389D01*
X123122D01*
Y68858D01*
D02*
G37*
G36*
X49513Y72560D02*
X43578Y66625D01*
X45338Y64866D01*
X46376Y65904D01*
X46597Y66235D01*
X46604Y66270D01*
X46696Y66421D01*
X47457Y66433D01*
X47497Y66235D01*
X47718Y65904D01*
X50502Y63120D01*
X50832Y62899D01*
X51223Y62822D01*
X51613Y62899D01*
X51944Y63120D01*
X54728Y65904D01*
X54949Y66235D01*
X55026Y66625D01*
X54949Y67015D01*
X54728Y67346D01*
X51944Y70130D01*
X51613Y70351D01*
X51223Y70429D01*
X50850Y70801D01*
X50773Y71191D01*
X50552Y71522D01*
X49513Y72560D01*
D02*
G37*
G36*
X9935Y65169D02*
X8468Y63702D01*
X9378Y62792D01*
X10845Y64259D01*
X9935Y65169D01*
D02*
G37*
G36*
X36229Y72560D02*
X35190Y71522D01*
X34969Y71191D01*
X34892Y70801D01*
X34519Y70429D01*
X34129Y70351D01*
X33798Y70130D01*
X31014Y67346D01*
X30793Y67015D01*
X30716Y66625D01*
X30793Y66235D01*
X31014Y65904D01*
X33798Y63120D01*
X34129Y62899D01*
X34164Y62892D01*
X34892Y62449D01*
X34969Y62059D01*
X35190Y61728D01*
X36229Y60690D01*
X42164Y66625D01*
X36229Y72560D01*
D02*
G37*
G36*
X13083Y68980D02*
X12104Y68000D01*
X12109Y67343D01*
X11939Y67173D01*
X10642Y65876D01*
X11906Y64612D01*
X11552Y64259D01*
X11906Y63905D01*
X10085Y62085D01*
X10695Y61475D01*
X11605Y60565D01*
X13426Y62385D01*
X15247Y64206D01*
X13647Y65806D01*
X13640Y66603D01*
X13811Y66773D01*
X14551Y67513D01*
X13083Y68980D01*
D02*
G37*
G36*
X15954Y63499D02*
X14133Y61678D01*
X12312Y59857D01*
X13223Y58947D01*
X13832Y58337D01*
X15653Y60158D01*
X17474Y61979D01*
X16563Y62889D01*
X15954Y63499D01*
D02*
G37*
G36*
X18181Y61272D02*
X16360Y59451D01*
X14539Y57630D01*
X15149Y57021D01*
X16059Y56110D01*
X17880Y57931D01*
X19701Y59752D01*
X18790Y60662D01*
X18181Y61272D01*
D02*
G37*
G36*
X42871Y65918D02*
X36936Y59983D01*
X37974Y58944D01*
X38305Y58723D01*
X38695Y58646D01*
X39068Y58273D01*
X39145Y57883D01*
X39366Y57552D01*
X40758Y56160D01*
X41089Y55940D01*
X41479Y55862D01*
X44263D01*
X44653Y55940D01*
X44984Y56160D01*
X46376Y57552D01*
X46597Y57883D01*
X46674Y58273D01*
X46597Y58664D01*
X46376Y58994D01*
X43592Y61778D01*
X43261Y61999D01*
X43049Y62041D01*
Y62857D01*
X43261Y62899D01*
X43592Y63120D01*
X44630Y64159D01*
X42871Y65918D01*
D02*
G37*
G36*
X20408Y59045D02*
X18587Y57224D01*
X16767Y55403D01*
X17376Y54794D01*
X18286Y53883D01*
X20107Y55704D01*
X21928Y57525D01*
X21017Y58435D01*
X20408Y59045D01*
D02*
G37*
G36*
X22635Y56817D02*
X20814Y54997D01*
X18994Y53176D01*
X19603Y52566D01*
X20514Y51656D01*
X22334Y53477D01*
X24155Y55297D01*
X23245Y56208D01*
X22635Y56817D01*
D02*
G37*
G36*
X252252Y55257D02*
X240434D01*
Y49934D01*
X252252D01*
Y55257D01*
D02*
G37*
G36*
X239434D02*
X227615D01*
Y49934D01*
X239434D01*
Y55257D01*
D02*
G37*
G36*
X24862Y54590D02*
X23041Y52770D01*
X21221Y50949D01*
X21830Y50339D01*
X22741Y49429D01*
X24561Y51250D01*
X26382Y53070D01*
X25472Y53981D01*
X24862Y54590D01*
D02*
G37*
G36*
X27089Y52363D02*
X25269Y50543D01*
X23448Y48722D01*
X24058Y48112D01*
X24968Y47202D01*
X26788Y49023D01*
X28609Y50843D01*
X27699Y51754D01*
X27089Y52363D01*
D02*
G37*
G36*
X29316Y50136D02*
X27496Y48316D01*
X25675Y46495D01*
X26285Y45885D01*
X27195Y44975D01*
X29016Y46795D01*
X30836Y48616D01*
X29926Y49526D01*
X29316Y50136D01*
D02*
G37*
G36*
X252252Y48934D02*
X240434D01*
Y43611D01*
X252252D01*
Y48934D01*
D02*
G37*
G36*
X239434D02*
X227615D01*
Y43611D01*
X239434D01*
Y48934D01*
D02*
G37*
G36*
X31543Y47909D02*
X29723Y46088D01*
X27902Y44268D01*
X28512Y43658D01*
X29422Y42748D01*
X31243Y44568D01*
X33063Y46389D01*
X32153Y47299D01*
X31543Y47909D01*
D02*
G37*
G36*
X169568Y44167D02*
X167297D01*
Y41699D01*
X169568D01*
Y44167D01*
D02*
G37*
G36*
X33770Y45682D02*
X31950Y43861D01*
X30129Y42041D01*
X30739Y41431D01*
X31649Y40521D01*
X33470Y42341D01*
X35291Y44162D01*
X34380Y45072D01*
X33770Y45682D01*
D02*
G37*
G36*
X35998Y43455D02*
X34177Y41634D01*
X32356Y39814D01*
X32966Y39204D01*
X33876Y38293D01*
X35697Y40114D01*
X37518Y41935D01*
X36607Y42845D01*
X35998Y43455D01*
D02*
G37*
G36*
X38225Y41228D02*
X36404Y39407D01*
X34583Y37586D01*
X35193Y36977D01*
X36103Y36066D01*
X37924Y37887D01*
X39745Y39708D01*
X39135Y40317D01*
X38225Y41228D01*
D02*
G37*
G36*
X40452Y39001D02*
X38631Y37180D01*
X36810Y35359D01*
X37721Y34449D01*
X38331Y33839D01*
X40151Y35660D01*
X40505Y35306D01*
X40858Y35660D01*
X42122Y34396D01*
X43419Y35693D01*
X43589Y35863D01*
X44246Y35858D01*
X45226Y36838D01*
X43759Y38305D01*
X43019Y37565D01*
X42849Y37394D01*
X42052Y37401D01*
X41061Y38391D01*
X40452Y39001D01*
D02*
G37*
G36*
X45986Y40532D02*
X45076Y39621D01*
X44466Y39012D01*
X46287Y37191D01*
X48107Y35370D01*
X48717Y35980D01*
X49628Y36890D01*
X47807Y38711D01*
X45986Y40532D01*
D02*
G37*
G36*
X45933Y36130D02*
X45023Y35220D01*
X46490Y33753D01*
X47400Y34663D01*
X45933Y36130D01*
D02*
G37*
G36*
X40505Y34599D02*
X39038Y33132D01*
X39948Y32222D01*
X41415Y33689D01*
X40505Y34599D01*
D02*
G37*
G36*
X48454Y32779D02*
X46848Y31173D01*
X48593Y29427D01*
X50199Y31033D01*
X48454Y32779D01*
D02*
G37*
G36*
X126000Y30921D02*
X123531D01*
Y28650D01*
X126000D01*
Y30921D01*
D02*
G37*
G36*
X122531D02*
X120063D01*
Y28650D01*
X122531D01*
Y30921D01*
D02*
G37*
G36*
X126000Y27650D02*
X123531D01*
Y25378D01*
X126000D01*
Y27650D01*
D02*
G37*
G36*
X122531D02*
X120063D01*
Y25378D01*
X122531D01*
Y27650D01*
D02*
G37*
G36*
X55007Y26168D02*
X53400Y24562D01*
X55146Y22817D01*
X56752Y24423D01*
X55007Y26168D01*
D02*
G37*
G36*
X256914Y32496D02*
X256405D01*
Y20185D01*
X268717D01*
Y20693D01*
X268401Y22685D01*
X267778Y24603D01*
X266863Y26399D01*
X265677Y28031D01*
X264251Y29457D01*
X262620Y30642D01*
X260823Y31558D01*
X258905Y32181D01*
X256914Y32496D01*
D02*
G37*
G36*
X255405D02*
X254897D01*
X252906Y32181D01*
X250988Y31558D01*
X249191Y30642D01*
X247560Y29457D01*
X246134Y28031D01*
X244949Y26399D01*
X244033Y24603D01*
X243410Y22685D01*
X243094Y20693D01*
Y20185D01*
X255405D01*
Y32496D01*
D02*
G37*
G36*
X20693D02*
X20185D01*
Y20185D01*
X32496D01*
Y20693D01*
X32181Y22685D01*
X31558Y24603D01*
X30642Y26399D01*
X29457Y28031D01*
X28031Y29457D01*
X26399Y30642D01*
X24603Y31558D01*
X22685Y32181D01*
X20693Y32496D01*
D02*
G37*
G36*
X19185D02*
X18677D01*
X16685Y32181D01*
X14767Y31558D01*
X12971Y30642D01*
X11339Y29457D01*
X9913Y28031D01*
X8728Y26399D01*
X7813Y24603D01*
X7190Y22685D01*
X6874Y20693D01*
Y20185D01*
X19185D01*
Y32496D01*
D02*
G37*
G36*
X123028Y16631D02*
X120757D01*
Y14162D01*
X123028D01*
Y16631D01*
D02*
G37*
G36*
X119757D02*
X117485D01*
Y14162D01*
X119757D01*
Y16631D01*
D02*
G37*
G36*
X198286Y13132D02*
X195817D01*
Y10860D01*
X198286D01*
Y13132D01*
D02*
G37*
G36*
X123028Y13162D02*
X120757D01*
Y10694D01*
X123028D01*
Y13162D01*
D02*
G37*
G36*
X198286Y9860D02*
X195817D01*
Y7589D01*
X198286D01*
Y9860D01*
D02*
G37*
G36*
X268717Y19185D02*
X256405D01*
Y6874D01*
X256914D01*
X258905Y7190D01*
X260823Y7813D01*
X262620Y8728D01*
X264251Y9913D01*
X265677Y11339D01*
X266863Y12971D01*
X267778Y14767D01*
X268401Y16685D01*
X268717Y18677D01*
Y19185D01*
D02*
G37*
G36*
X255405D02*
X243094D01*
Y18677D01*
X243410Y16685D01*
X244033Y14767D01*
X244949Y12971D01*
X246134Y11339D01*
X247560Y9913D01*
X249191Y8728D01*
X250988Y7813D01*
X252906Y7190D01*
X254897Y6874D01*
X255405D01*
Y19185D01*
D02*
G37*
G36*
X32496D02*
X20185D01*
Y6874D01*
X20693D01*
X22685Y7190D01*
X24603Y7813D01*
X26399Y8728D01*
X28031Y9913D01*
X29457Y11339D01*
X30642Y12971D01*
X31558Y14767D01*
X32181Y16685D01*
X32496Y18677D01*
Y19185D01*
D02*
G37*
G36*
X19185D02*
X6874D01*
Y18677D01*
X7190Y16685D01*
X7813Y14767D01*
X8728Y12971D01*
X9913Y11339D01*
X11339Y9913D01*
X12971Y8728D01*
X14767Y7813D01*
X16685Y7190D01*
X18677Y6874D01*
X19185D01*
Y19185D01*
D02*
G37*
%LPD*%
G36*
X77661Y198107D02*
X77170Y197466D01*
X76812Y197673D01*
X76167Y197846D01*
Y194907D01*
X75667D01*
Y194407D01*
X72727D01*
X72886Y193816D01*
X72848Y193747D01*
X72072Y193498D01*
X67399Y198172D01*
Y199210D01*
X67661Y199902D01*
X75866D01*
X77661Y198107D01*
D02*
G37*
G36*
X60480Y201638D02*
X61753Y200786D01*
X63168Y200200D01*
X63474Y200140D01*
Y197359D01*
X63623Y196608D01*
X64049Y195971D01*
X64949Y195071D01*
X64618Y194271D01*
X62252D01*
Y189924D01*
X61252D01*
Y194271D01*
X58488D01*
Y189996D01*
X57688Y189597D01*
X57399Y189816D01*
Y200140D01*
X57705Y200200D01*
X59120Y200786D01*
X60393Y201638D01*
X60436Y201681D01*
X60480Y201638D01*
D02*
G37*
G36*
X83465Y182283D02*
X79921D01*
Y187795D01*
X83465D01*
Y182283D01*
D02*
G37*
%LPC*%
G36*
X75167Y197846D02*
X74521Y197673D01*
X73844Y197282D01*
X73291Y196729D01*
X72900Y196052D01*
X72727Y195407D01*
X75167D01*
Y197846D01*
D02*
G37*
%LPD*%
G36*
X35927Y106187D02*
X39774D01*
Y107350D01*
X40513Y107656D01*
X47109Y101060D01*
X47073Y100881D01*
X46205Y100617D01*
X45794Y101028D01*
X44327Y99561D01*
X45591Y98297D01*
X44884Y97590D01*
X43620Y98854D01*
X42153Y97387D01*
X41546Y96920D01*
X39252Y99214D01*
X37007Y96969D01*
X35378Y95341D01*
X34571Y96148D01*
Y100711D01*
X34388Y101633D01*
X33866Y102414D01*
X30761Y105519D01*
X31225Y106187D01*
X34927D01*
Y109451D01*
X35927D01*
Y106187D01*
D02*
G37*
%LPC*%
G36*
X180035Y105933D02*
X177764D01*
Y103465D01*
X180035D01*
Y105933D01*
D02*
G37*
G36*
X176764D02*
X174492D01*
Y103465D01*
X176764D01*
Y105933D01*
D02*
G37*
G36*
X214670Y132101D02*
X212319D01*
Y129593D01*
X214670D01*
Y132101D01*
D02*
G37*
%LPD*%
D13*
X173721Y87980D02*
Y92114D01*
X176279Y82184D02*
X177067Y81397D01*
X176279Y82184D02*
Y87980D01*
Y100177D02*
X176299Y100196D01*
X176279Y96248D02*
Y100177D01*
X176299Y100196D02*
Y102000D01*
X177264Y102965D01*
X173721Y96248D02*
X176279D01*
X123858Y81089D02*
Y87598D01*
X130079Y75246D02*
Y81089D01*
X130079Y75246D02*
X130079Y75246D01*
Y81089D02*
X130459Y80709D01*
X136221D01*
D15*
X142671Y74213D02*
X142694Y74236D01*
X61024Y190945D02*
X66929Y185039D01*
X140771Y74236D02*
X140794Y74213D01*
X130315Y69321D02*
X130315D01*
X126293Y130164D02*
Y130439D01*
X124843Y131890D02*
X126293Y130439D01*
X131063Y125236D02*
Y125394D01*
X126293Y130164D02*
X131063Y125394D01*
X145866Y124016D02*
Y125984D01*
X124843Y118910D02*
X128093Y122160D01*
X124843Y118752D02*
Y118910D01*
X133971Y122160D02*
X135827Y124016D01*
X139567D01*
X128093Y122160D02*
X133971D01*
X137931Y125984D02*
X139567D01*
X135827Y128089D02*
Y129921D01*
Y128089D02*
X137931Y125984D01*
X131063Y131890D02*
X133858D01*
X135827Y129921D01*
X139567D02*
Y135868D01*
X139336Y136099D02*
X139567Y135868D01*
X145669Y128150D02*
X145866Y127953D01*
X152165D02*
X152165Y127953D01*
X145866Y127953D02*
X152165D01*
X145669Y129724D02*
X145866Y129921D01*
X145669Y128150D02*
Y129724D01*
X143701Y88583D02*
X150576D01*
X75691Y194882D02*
X80240D01*
X80709Y191142D02*
Y194413D01*
X75667Y194907D02*
X75691Y194882D01*
X80240D02*
X80709Y194413D01*
X55945Y175039D02*
X60039Y179134D01*
X68273Y189601D02*
X70866Y187008D01*
X55945Y172244D02*
Y175039D01*
X58150Y163583D02*
Y164764D01*
X62165Y168780D02*
Y172244D01*
X58150Y164764D02*
X62165Y168780D01*
X50197Y172244D02*
X55945D01*
X73819Y172402D02*
Y180580D01*
Y172402D02*
X73976Y172244D01*
X73819Y180580D02*
X74287Y181049D01*
X76521D02*
X76575Y181102D01*
X74287Y181049D02*
X76521D01*
X85787Y168780D02*
Y172244D01*
X81772Y164764D02*
X85787Y168780D01*
X81772Y163583D02*
Y164764D01*
X73976Y172244D02*
X79567D01*
X105315Y170551D02*
X105394Y170472D01*
X86811Y185039D02*
X105157D01*
X105315Y185197D01*
X66929Y185039D02*
X76575D01*
X70866Y187008D02*
X76575D01*
X150340Y74803D02*
X150343D01*
X145276D02*
X150340D01*
X130905Y22244D02*
Y25394D01*
X140794Y74213D02*
X142671D01*
X130351Y69321D02*
X135575D01*
X138779Y72526D01*
Y81299D02*
Y93290D01*
Y72526D02*
Y74213D01*
X140748Y81299D02*
Y85630D01*
X143701Y88583D01*
X148194Y84646D02*
X149355Y83484D01*
X143898Y84646D02*
X148194D01*
X142717Y83465D02*
X143898Y84646D01*
X142717Y81299D02*
Y83465D01*
X149355Y83484D02*
X149513D01*
X150963Y81876D02*
Y82033D01*
X149513Y83484D02*
X150963Y82033D01*
D17*
X139567Y125984D02*
D03*
Y124016D02*
D03*
Y127953D02*
D03*
Y129921D02*
D03*
X143701Y124016D02*
D03*
X141732D02*
D03*
X145866D02*
D03*
X143701Y129921D02*
D03*
X141732D02*
D03*
X145866Y125984D02*
D03*
Y129921D02*
D03*
Y127953D02*
D03*
D18*
X146496Y24606D02*
D03*
X152717D02*
D03*
X129278Y43143D02*
D03*
X135498D02*
D03*
X152717D02*
D03*
X146496D02*
D03*
X146496Y18701D02*
D03*
X152717D02*
D03*
Y12368D02*
D03*
X146496D02*
D03*
X267717Y190945D02*
D03*
X261496D02*
D03*
X215170Y132601D02*
D03*
X221390D02*
D03*
X233110Y161417D02*
D03*
X239331D02*
D03*
X77814Y102057D02*
D03*
X84034D02*
D03*
X87335Y90285D02*
D03*
X93556D02*
D03*
X97570Y84399D02*
D03*
X91349D02*
D03*
X101093Y90536D02*
D03*
X107314D02*
D03*
X124843Y131890D02*
D03*
X131063D02*
D03*
Y125236D02*
D03*
X124843D02*
D03*
X139336Y136099D02*
D03*
X145556D02*
D03*
X124843Y118752D02*
D03*
X131063D02*
D03*
X96614Y125984D02*
D03*
X90394D02*
D03*
X79567Y172244D02*
D03*
X85787D02*
D03*
X67756D02*
D03*
X73976D02*
D03*
X43976D02*
D03*
X50197D02*
D03*
X55945D02*
D03*
X62165D02*
D03*
X123858Y81089D02*
D03*
X130079D02*
D03*
X123858Y75246D02*
D03*
X130079D02*
D03*
X156796Y87598D02*
D03*
X150576D02*
D03*
X145377Y93379D02*
D03*
X139157D02*
D03*
X123858Y87598D02*
D03*
X130079D02*
D03*
X156796Y81089D02*
D03*
X150576D02*
D03*
D19*
X130905Y34843D02*
D03*
Y31693D02*
D03*
Y28543D02*
D03*
Y25394D02*
D03*
Y22244D02*
D03*
Y19094D02*
D03*
X138858Y34843D02*
D03*
Y31693D02*
D03*
Y28543D02*
D03*
Y25394D02*
D03*
Y22244D02*
D03*
Y19094D02*
D03*
D20*
X134882Y34882D02*
D03*
Y19055D02*
D03*
D21*
X152559Y36575D02*
D03*
Y30354D02*
D03*
X176525Y10552D02*
D03*
Y16772D02*
D03*
X209106Y150151D02*
D03*
Y143931D02*
D03*
X215485Y144121D02*
D03*
Y150341D02*
D03*
X221390Y144121D02*
D03*
Y150341D02*
D03*
X227281Y132277D02*
D03*
Y138498D02*
D03*
X48337Y119864D02*
D03*
Y113644D02*
D03*
X58474Y113644D02*
D03*
Y119864D02*
D03*
X71536Y119864D02*
D03*
Y113644D02*
D03*
X81984D02*
D03*
Y119864D02*
D03*
X105315Y120607D02*
D03*
Y126828D02*
D03*
X65831Y18310D02*
D03*
Y24530D02*
D03*
X89873Y18852D02*
D03*
Y25073D02*
D03*
X105315Y185197D02*
D03*
Y178976D02*
D03*
X30512Y136658D02*
D03*
Y130438D02*
D03*
X36417Y182913D02*
D03*
Y189134D02*
D03*
X30512Y189134D02*
D03*
Y182913D02*
D03*
D22*
X123031Y34843D02*
D03*
Y28150D02*
D03*
X195317Y10360D02*
D03*
X183506D02*
D03*
X233186Y132041D02*
D03*
Y138734D02*
D03*
X30512Y142319D02*
D03*
Y149012D02*
D03*
X30512Y176575D02*
D03*
Y169882D02*
D03*
D23*
X267717Y184055D02*
D03*
Y172244D02*
D03*
X177067Y81397D02*
D03*
X170374D02*
D03*
X248933Y124636D02*
D03*
X255626D02*
D03*
X214933Y138380D02*
D03*
X221626D02*
D03*
X176761Y51055D02*
D03*
X170068D02*
D03*
X170068Y44667D02*
D03*
X176761D02*
D03*
X254195Y162046D02*
D03*
X247502D02*
D03*
X247502Y168054D02*
D03*
X254195D02*
D03*
X103634Y108002D02*
D03*
X96941D02*
D03*
X77578Y108002D02*
D03*
X84270D02*
D03*
X152165Y122047D02*
D03*
X158858D02*
D03*
X152165Y127953D02*
D03*
X158858D02*
D03*
X120257Y13662D02*
D03*
X126950D02*
D03*
X123622Y69358D02*
D03*
X130315D02*
D03*
X157033Y74803D02*
D03*
X150340D02*
D03*
X170571Y102965D02*
D03*
X177264D02*
D03*
D24*
X239933Y49434D02*
D03*
X196626D02*
D03*
X179134Y185039D02*
D03*
X222441D02*
D03*
D25*
X258777Y88143D02*
D03*
Y115702D02*
D03*
D26*
X239491Y102022D02*
D03*
X200514D02*
D03*
D27*
X254466Y152954D02*
D03*
X249466D02*
D03*
X244466D02*
D03*
X239466D02*
D03*
Y131600D02*
D03*
X244466D02*
D03*
X249466D02*
D03*
X254466D02*
D03*
D28*
X246966Y142277D02*
D03*
D29*
X61752Y189924D02*
D03*
X49350D02*
D03*
D30*
X35427Y121852D02*
D03*
Y109451D02*
D03*
D31*
X90052Y102490D02*
D03*
X93595D02*
D03*
X97138D02*
D03*
X100681D02*
D03*
Y97766D02*
D03*
X97138D02*
D03*
X93595D02*
D03*
X90052D02*
D03*
D32*
X210294Y222247D02*
D03*
X229625D02*
D03*
D33*
X40505Y35306D02*
D03*
X38278Y37534D02*
D03*
X36051Y39761D02*
D03*
X33823Y41988D02*
D03*
X31596Y44215D02*
D03*
X29369Y46442D02*
D03*
X27142Y48669D02*
D03*
X24915Y50896D02*
D03*
X22688Y53123D02*
D03*
X20461Y55350D02*
D03*
X18234Y57577D02*
D03*
X16006Y59805D02*
D03*
X13779Y62032D02*
D03*
X11552Y64259D02*
D03*
X45237Y97944D02*
D03*
X47464Y95717D02*
D03*
X49692Y93490D02*
D03*
X51919Y91263D02*
D03*
X54146Y89035D02*
D03*
X56373Y86808D02*
D03*
X58600Y84581D02*
D03*
X60827Y82354D02*
D03*
X63054Y80127D02*
D03*
X65281Y77900D02*
D03*
X67508Y75673D02*
D03*
X69735Y73446D02*
D03*
X71963Y71219D02*
D03*
X74190Y68991D02*
D03*
D34*
X13083Y69687D02*
D03*
X15311Y71914D02*
D03*
X17538Y74142D02*
D03*
X19765Y76369D02*
D03*
X21992Y78596D02*
D03*
X24219Y80823D02*
D03*
X26446Y83050D02*
D03*
X28673Y85277D02*
D03*
X30900Y87504D02*
D03*
X33127Y89731D02*
D03*
X35355Y91958D02*
D03*
X37582Y94186D02*
D03*
X39809Y96413D02*
D03*
X72659Y63563D02*
D03*
X70432Y61336D02*
D03*
X68204Y59109D02*
D03*
X65977Y56881D02*
D03*
X63750Y54654D02*
D03*
X61523Y52427D02*
D03*
X59296Y50200D02*
D03*
X57069Y47973D02*
D03*
X54842Y45746D02*
D03*
X52615Y43519D02*
D03*
X50388Y41292D02*
D03*
X48160Y39065D02*
D03*
X45933Y36838D02*
D03*
D35*
X55639Y35766D02*
D03*
X50906Y31033D02*
D03*
X59739Y31608D02*
D03*
X55007Y26875D02*
D03*
D36*
X82087Y21654D02*
D03*
X73425Y17913D02*
D03*
Y25394D02*
D03*
X106502Y22024D02*
D03*
X97841Y18284D02*
D03*
Y25765D02*
D03*
D37*
X59380Y39876D02*
D03*
X64113Y35143D02*
D03*
D38*
X80709Y191142D02*
D03*
Y178937D02*
D03*
X82677D02*
D03*
Y191142D02*
D03*
D39*
X76575Y188976D02*
D03*
Y187008D02*
D03*
Y185039D02*
D03*
Y183071D02*
D03*
Y181102D02*
D03*
X86811D02*
D03*
Y183071D02*
D03*
Y185039D02*
D03*
Y187008D02*
D03*
Y188976D02*
D03*
D40*
X105394Y134646D02*
D03*
X95394D02*
D03*
Y170472D02*
D03*
X105394D02*
D03*
X81772Y127756D02*
D03*
X71772D02*
D03*
Y163583D02*
D03*
X81772D02*
D03*
X58150Y127756D02*
D03*
X48150D02*
D03*
Y163583D02*
D03*
X58150D02*
D03*
D41*
X136221Y80709D02*
D03*
Y78740D02*
D03*
Y76772D02*
D03*
Y74803D02*
D03*
X145276D02*
D03*
Y76772D02*
D03*
Y78740D02*
D03*
Y80709D02*
D03*
D42*
X138779Y74213D02*
D03*
X140748D02*
D03*
X142717D02*
D03*
Y81299D02*
D03*
X140748D02*
D03*
X138779D02*
D03*
D43*
X173721Y92114D02*
D03*
D44*
X176279Y87980D02*
D03*
X173721D02*
D03*
X171161D02*
D03*
Y96248D02*
D03*
X173721D02*
D03*
X176279D02*
D03*
D86*
X42871Y66625D02*
D03*
D87*
X134882Y34882D02*
Y43675D01*
X135498Y44291D02*
Y49541D01*
X134882Y43675D02*
X135498Y44291D01*
X136332Y12368D02*
X146496D01*
X134882Y13819D02*
X136332Y12368D01*
X134882Y13819D02*
Y19055D01*
X145591Y31378D02*
X146496Y30472D01*
Y37182D02*
Y43143D01*
Y24606D02*
Y30472D01*
X146496Y18701D02*
X146637Y18842D01*
X146496Y18701D02*
Y24606D01*
X144176Y34863D02*
X146496Y37182D01*
X138879Y34863D02*
X144176D01*
X215052Y132719D02*
X215170Y132601D01*
X214933Y138380D02*
X215052Y138261D01*
Y132719D02*
Y138261D01*
X215209Y143845D02*
X215485Y144121D01*
X215209Y138655D02*
Y143845D01*
X214933Y138380D02*
X215209Y138655D01*
X30518Y130443D02*
X35529D01*
X35535Y130449D01*
X30512Y130438D02*
X30518Y130443D01*
X12199Y83065D02*
X17523D01*
X11811Y82677D02*
X12199Y83065D01*
X233186Y152946D02*
X233194Y152954D01*
X239466D01*
X209201Y150246D02*
X215390D01*
X209106Y150151D02*
X209201Y150246D01*
X215390D02*
X215485Y150341D01*
X249199Y131333D02*
X249466Y131600D01*
X249199Y124902D02*
Y131333D01*
X248933Y124636D02*
X249199Y124902D01*
X221508Y138498D02*
X221626Y138380D01*
X221390Y144121D02*
X221508Y144002D01*
Y138498D02*
Y144002D01*
X230423Y150341D02*
X233029Y152946D01*
X221390Y150341D02*
X230423D01*
X233029Y152946D02*
X233186D01*
X215485Y150341D02*
X221390D01*
X244155Y127340D02*
Y131289D01*
X227281Y127904D02*
X228767Y126418D01*
X244155Y131289D02*
X244466Y131600D01*
X243232Y126418D02*
X244155Y127340D01*
X228767Y126418D02*
X243232D01*
X227281Y127904D02*
Y132277D01*
X227202Y132356D02*
X227281Y132277D01*
X221626Y132356D02*
X227202D01*
X221548Y132435D02*
X221626Y132356D01*
X233186Y132041D02*
X239413D01*
X239587Y132215D01*
X134882Y34882D02*
X135190Y35190D01*
X69430Y82048D02*
Y83209D01*
X69882Y83661D01*
X65281Y77900D02*
X69430Y82048D01*
X69735Y73446D02*
X73819Y77529D01*
Y79724D01*
X66801Y46947D02*
X70071D01*
X62406Y51343D02*
Y51544D01*
X61523Y52427D02*
Y52427D01*
Y52427D02*
X62406Y51544D01*
Y51343D02*
X66801Y46947D01*
X18485Y117126D02*
X38386D01*
X11732Y109783D02*
Y110373D01*
X18485Y117126D01*
X19642Y114551D02*
X37024D01*
X17260Y112169D02*
X19642Y114551D01*
X17260Y110311D02*
Y112169D01*
X16732Y109783D02*
X17260Y110311D01*
X15372Y92312D02*
X15824Y91860D01*
X17350D01*
X24145Y96980D02*
X25591Y95534D01*
X16732Y104193D02*
X23946Y96980D01*
X24145D01*
X16732Y104193D02*
Y104783D01*
X21732Y104225D02*
X28543Y97414D01*
X21732Y104225D02*
Y104783D01*
X32163Y95150D02*
Y100711D01*
X24138Y108736D02*
X32163Y100711D01*
Y95150D02*
X35355Y91958D01*
X22780Y108736D02*
X24138D01*
X21732Y109783D02*
X22780Y108736D01*
X109252Y115157D02*
X112847Y118752D01*
X124843D01*
X101208Y69014D02*
Y90422D01*
Y69014D02*
X109226Y60996D01*
X101093Y90536D02*
X101208Y90422D01*
X89575Y107555D02*
X89629Y107609D01*
X93398Y102687D02*
Y105208D01*
X89629Y107609D02*
X90997D01*
X93398Y105208D01*
Y102687D02*
X93595Y102490D01*
X97456Y67454D02*
Y92772D01*
X89855Y102274D02*
X90052Y102471D01*
X84034Y102057D02*
X84251Y102274D01*
X90052Y102471D02*
Y102490D01*
X84251Y102274D02*
X89855D01*
X100681Y97766D02*
X100878Y97569D01*
Y90751D02*
Y97569D01*
Y90751D02*
X101093Y90536D01*
X97138Y93089D02*
X97456Y92772D01*
X97138Y93089D02*
Y97766D01*
X93575Y90305D02*
Y97746D01*
X93595Y97766D01*
X93556Y90285D02*
X93575Y90305D01*
X93919Y113093D02*
X94371Y112641D01*
X96021D01*
X96941Y111720D01*
Y108002D02*
Y111720D01*
Y108002D02*
X97040Y107904D01*
Y102589D02*
X97138Y102490D01*
X97040Y102589D02*
Y107904D01*
X55594Y36085D02*
X55639Y36040D01*
X50388Y41292D02*
X55594Y36085D01*
X111027Y53883D02*
X114628D01*
X97456Y67454D02*
X111027Y53883D01*
X114628D02*
X115080Y53431D01*
X91535Y52165D02*
X106502Y37198D01*
Y22024D02*
Y37198D01*
X37024Y114551D02*
X49917Y101658D01*
X38386Y117126D02*
X52492Y103020D01*
X47464Y95717D02*
X49917Y98169D01*
Y101658D01*
X52492Y96290D02*
Y103020D01*
X49692Y93490D02*
X52492Y96290D01*
X28543Y94315D02*
Y97414D01*
X25591Y92814D02*
Y95534D01*
Y92814D02*
X30900Y87504D01*
X20669Y94046D02*
X23511Y91205D01*
X20669Y94046D02*
Y94488D01*
X23511Y90440D02*
X28673Y85277D01*
X23511Y90440D02*
Y91205D01*
X17350Y91860D02*
X21855Y87356D01*
X14628Y86559D02*
X18483D01*
X24190Y80852D01*
X21855Y87356D02*
X22140D01*
X26446Y83050D01*
X14176Y87011D02*
X14628Y86559D01*
X17523Y83065D02*
X21992Y78596D01*
X28543Y94315D02*
X33127Y89731D01*
X116460Y136099D02*
X139336D01*
X113122Y132761D02*
X116460Y136099D01*
X109226Y60996D02*
X112733Y57489D01*
X111221Y102362D02*
X135827D01*
X139157Y99032D01*
X109252Y104331D02*
X111221Y102362D01*
X139157Y93379D02*
Y99032D01*
X115361Y53150D02*
X131890D01*
X115080Y53431D02*
X115361Y53150D01*
X112733Y57489D02*
X132308D01*
X146496Y43300D01*
X131890Y53150D02*
X135498Y49541D01*
X58600Y84581D02*
X63397Y89378D01*
X74992D02*
X91535Y72835D01*
X63397Y89378D02*
X74992D01*
X72659Y63563D02*
X76714Y59507D01*
X78288D01*
X78740Y59055D01*
X73367Y54586D02*
X73819Y54134D01*
X70432Y61336D02*
X73367Y58400D01*
Y54586D02*
Y58400D01*
X77304Y75335D02*
X77756Y75787D01*
X71963Y71219D02*
X76080Y75335D01*
X77304D01*
X91535Y52165D02*
Y72835D01*
X83710Y16710D02*
Y20472D01*
X82087Y21654D02*
X82529D01*
X83710Y20472D01*
X76575Y28543D02*
X86402D01*
X75394Y27362D02*
X76575Y28543D01*
X88652Y26136D02*
Y26293D01*
X73425Y25394D02*
X74213D01*
X75394Y26575D01*
Y27362D01*
X88652Y26136D02*
X89715Y25073D01*
X86402Y28543D02*
X88652Y26293D01*
X89715Y25073D02*
X89873D01*
X97441Y26164D02*
X97841Y25765D01*
X97441Y26164D02*
Y29528D01*
X68898Y31496D02*
X95472D01*
X97441Y29528D01*
X65945Y28543D02*
X68898Y31496D01*
X65831Y24530D02*
X65945Y24644D01*
Y28543D01*
X55639Y35766D02*
Y36040D01*
X50388Y41292D02*
Y41292D01*
X150576Y88583D02*
Y101393D01*
X115293Y105315D02*
X146654D01*
X150576Y101393D01*
X113189Y107283D02*
X113324D01*
X115293Y105315D01*
X150576Y87598D02*
Y88583D01*
X146496Y43143D02*
Y43300D01*
D88*
X152500Y43225D02*
X157398D01*
X123031Y35433D02*
Y43067D01*
X129202D01*
X152724Y12376D02*
X157701D01*
X152717Y12368D02*
X152724Y12376D01*
X157701D02*
X157709Y12383D01*
X129202Y43067D02*
X129278Y43143D01*
X152559Y36575D02*
Y43001D01*
X152417Y43143D02*
X152500Y43225D01*
X157398D02*
X157480Y43307D01*
X152835Y36850D02*
X156934D01*
X157169Y37085D01*
X152559Y36575D02*
X152835Y36850D01*
X157169Y37085D02*
X157383D01*
X152638Y24685D02*
Y30276D01*
Y24685D02*
X152717Y24606D01*
X152559Y30354D02*
X152638Y30276D01*
X176650Y10427D02*
X183440D01*
X176643Y44549D02*
X176761Y44667D01*
X176643Y16890D02*
Y44549D01*
X176525Y16772D02*
X176643Y16890D01*
X83088Y95898D02*
X83239Y95747D01*
Y92706D02*
Y95747D01*
X58222Y109403D02*
Y113392D01*
X58474Y113644D01*
X58071Y109252D02*
X58222Y109403D01*
X87594Y113649D02*
X87598Y113654D01*
X87059Y90719D02*
X87335Y90443D01*
X85226Y90719D02*
X87059D01*
X83239Y92706D02*
X85226Y90719D01*
X87335Y90285D02*
Y90443D01*
X81984Y113644D02*
X81989Y113649D01*
X87594D01*
X59478Y39876D02*
X63165Y43563D01*
X63263D01*
X59380Y39876D02*
X59478D01*
X96614Y125984D02*
X96684Y125914D01*
Y120637D02*
X96754Y120567D01*
X96684Y120637D02*
Y125914D01*
X102810Y116649D02*
X103023D01*
X104868Y118494D01*
X105315Y120607D02*
X105315Y120607D01*
X104868Y118494D02*
X105315D01*
Y120607D01*
X105315Y126828D02*
X105354Y126867D01*
Y134528D01*
X105315Y134567D02*
X105354Y134528D01*
X107038Y90260D02*
X107314Y90536D01*
X107038Y86677D02*
Y90260D01*
X105976Y85615D02*
X107038Y86677D01*
X105976Y85402D02*
Y85615D01*
X84300Y108032D02*
X89040D01*
X89070Y108061D01*
X84270Y108002D02*
X84300Y108032D01*
X87127Y84317D02*
X87168Y84358D01*
X91308D02*
X91349Y84399D01*
X87168Y84358D02*
X91308D01*
X107246Y90604D02*
X107314Y90536D01*
X130166Y87511D02*
X134900D01*
X156716Y87598D02*
Y93392D01*
X55594Y36085D02*
Y36089D01*
Y35811D02*
Y36085D01*
X152177Y127964D02*
Y135717D01*
X152067Y135827D02*
X152177Y135717D01*
X145692Y135963D02*
X151931D01*
X145556Y136099D02*
X145692Y135963D01*
X151931D02*
X152067Y135827D01*
X152165Y127953D02*
X152177Y127964D01*
X136607Y118816D02*
X136670Y118880D01*
X131063Y118752D02*
X131127Y118816D01*
X136607D01*
X152123Y122005D02*
X152165Y122047D01*
X152123Y117569D02*
Y122005D01*
X152080Y117526D02*
X152123Y117569D01*
X48243Y119958D02*
X48317Y119884D01*
X42854D02*
X48317D01*
X48337Y119864D01*
X42835Y119904D02*
X42854Y119884D01*
X71784Y119720D02*
Y119864D01*
X66126Y119912D02*
X71489D01*
X66078Y119959D02*
X66126Y119912D01*
X71489D02*
X71536Y119864D01*
X55594Y35811D02*
X55639Y35766D01*
X55594Y36089D02*
X59380Y39876D01*
X55639Y35766D02*
X59739Y31666D01*
X81878Y119970D02*
Y127650D01*
Y119970D02*
X81984Y119864D01*
X81772Y127756D02*
X81878Y127650D01*
X71654Y127613D02*
X71784Y127743D01*
X71536Y119864D02*
X71654Y119982D01*
Y127613D01*
X48243Y119958D02*
Y127662D01*
X48150Y127756D02*
X48243Y127662D01*
X58312Y120027D02*
X58474Y119864D01*
X58312Y120027D02*
Y126413D01*
X58150Y126575D02*
X58312Y126413D01*
X71772Y127756D02*
X71784Y127743D01*
Y119720D02*
X71797Y119707D01*
X96614Y125984D02*
Y133425D01*
X95394Y134646D02*
X96614Y133425D01*
X43976Y172244D02*
Y177622D01*
X67835Y172323D02*
Y178071D01*
X67913Y178150D01*
X67756Y172244D02*
X67835Y172323D01*
X9937Y189325D02*
X13239Y186024D01*
X23622D02*
X26457Y188858D01*
X9937Y189325D02*
Y189602D01*
X13239Y186024D02*
X23622D01*
X30236Y188858D02*
X30512Y189134D01*
X26457Y188858D02*
X30236D01*
X41260Y189055D02*
X41339Y188976D01*
X36417Y189134D02*
X36496Y189055D01*
X41260D01*
X9937Y143606D02*
Y150232D01*
X11225Y142319D02*
X30512D01*
X9937Y143606D02*
X11225Y142319D01*
X30512Y136658D02*
Y142319D01*
X36417Y178150D02*
Y182913D01*
X30512Y182913D02*
X36417D01*
X30512Y182913D02*
X30512Y182913D01*
X36417D02*
X36417Y182913D01*
X30512Y176575D02*
Y182913D01*
X150340Y74803D02*
Y75286D01*
Y70164D02*
Y74803D01*
X145377Y93379D02*
X145523Y93525D01*
Y98279D02*
X145669Y98425D01*
X145523Y93525D02*
Y98279D01*
X150000Y69611D02*
Y69824D01*
X150340Y70164D01*
X156796Y81089D02*
Y87598D01*
X130351Y69321D02*
X130372Y69300D01*
X130315Y69358D02*
X130351Y69321D01*
X130372Y64122D02*
X130430Y64065D01*
X130372Y64122D02*
Y69300D01*
D89*
X126950Y7798D02*
Y13662D01*
X130807Y18996D02*
X130905Y19094D01*
X126969Y17843D02*
X128122Y18996D01*
X130807D01*
X126969Y13681D02*
Y17843D01*
X123050Y34824D02*
X130887D01*
X138892Y31727D02*
X145242D01*
X145591Y31378D01*
X247502Y161849D02*
X248938Y160413D01*
Y155273D02*
X249072Y155139D01*
X248938Y155273D02*
Y160413D01*
X249072Y153348D02*
X249466Y152954D01*
X247502Y161849D02*
Y162046D01*
X249072Y153348D02*
Y155139D01*
X244072Y153348D02*
Y156519D01*
X239331Y161260D02*
X244072Y156519D01*
X239331Y161260D02*
Y161417D01*
X244072Y153348D02*
X244466Y152954D01*
X74213Y17913D02*
X75197Y16929D01*
Y16142D02*
X81096Y10242D01*
Y8384D02*
X81639Y7841D01*
X73425Y17913D02*
X74213D01*
X75197Y16142D02*
Y16929D01*
X81096Y8384D02*
Y10242D01*
X73227Y18112D02*
X73425Y17913D01*
X90157Y18568D02*
X97557D01*
X89873Y18852D02*
X90157Y18568D01*
X97557D02*
X97841Y18284D01*
X65831Y18310D02*
X66030Y18112D01*
X73227D01*
X89567Y10680D02*
Y18546D01*
X89873Y18852D01*
X91639Y7841D02*
Y8608D01*
X89567Y10680D02*
X91639Y8608D01*
X105315Y170551D02*
Y178976D01*
X126950Y13662D02*
X126969Y13681D01*
D90*
X255906Y172244D02*
X267717D01*
X249466Y142277D02*
Y152954D01*
X246966Y142277D02*
X249466D01*
X254466Y152954D02*
Y158465D01*
X254921D01*
D91*
X267717Y184055D02*
Y190945D01*
X260335Y192264D02*
X261496Y191102D01*
X257559Y194882D02*
X260177Y192264D01*
X243110Y194882D02*
X257559D01*
X261496Y190945D02*
Y191102D01*
X260177Y192264D02*
X260335D01*
D92*
X142520Y177362D02*
X157677D01*
X160433Y180118D02*
Y201772D01*
X157677Y177362D02*
X160433Y180118D01*
X175197Y216535D02*
Y227362D01*
X160433Y201772D02*
X175197Y216535D01*
D93*
X82677Y191142D02*
Y195866D01*
X76772Y201772D02*
X82677Y195866D01*
X61024Y183071D02*
X76575D01*
X73819Y188976D02*
X76575D01*
X65437Y197359D02*
X73819Y188976D01*
X65437Y197359D02*
Y207677D01*
X100394Y192913D02*
Y207677D01*
X94488Y187008D02*
X100394Y192913D01*
X86811Y187008D02*
X94488D01*
X55436Y188658D02*
Y207677D01*
Y188658D02*
X61024Y183071D01*
X76772Y201772D02*
Y206342D01*
X75437Y207677D02*
X76772Y206342D01*
Y201772D02*
X76772D01*
D94*
X105493Y95968D02*
D03*
X157709Y12383D02*
D03*
X157480Y43307D02*
D03*
X157383Y37085D02*
D03*
X243110Y194882D02*
D03*
X254921Y183071D02*
D03*
X35535Y130449D02*
D03*
X11811Y82677D02*
D03*
X170276Y112205D02*
D03*
Y124016D02*
D03*
Y118110D02*
D03*
X177165Y117746D02*
D03*
Y124016D02*
D03*
X169253Y68777D02*
D03*
X169291Y73819D02*
D03*
Y63976D02*
D03*
Y59055D02*
D03*
X177127Y68777D02*
D03*
X177165Y73819D02*
D03*
Y63976D02*
D03*
Y59055D02*
D03*
Y112205D02*
D03*
X250000Y142717D02*
D03*
X244094D02*
D03*
X132038Y95833D02*
D03*
X83088Y95898D02*
D03*
X58071Y109252D02*
D03*
X69882Y83661D02*
D03*
X73819Y79724D02*
D03*
X87598Y113654D02*
D03*
X70071Y46947D02*
D03*
X63263Y43563D02*
D03*
X15372Y92312D02*
D03*
X96754Y120567D02*
D03*
X109252Y115157D02*
D03*
X102810Y116649D02*
D03*
X105976Y85402D02*
D03*
X89070Y108061D02*
D03*
X87127Y84317D02*
D03*
X93919Y113093D02*
D03*
X42835Y119904D02*
D03*
X66078Y119959D02*
D03*
X20669Y94488D02*
D03*
X14176Y87011D02*
D03*
X109226Y60996D02*
D03*
X78740Y59055D02*
D03*
X73819Y54134D02*
D03*
X77756Y75787D02*
D03*
X83710Y16710D02*
D03*
X75667Y194907D02*
D03*
X43976Y177622D02*
D03*
X67913Y178150D02*
D03*
X59919Y179159D02*
D03*
X68654Y189376D02*
D03*
X41339Y188976D02*
D03*
X136670Y118880D02*
D03*
X152080Y117526D02*
D03*
X113122Y132761D02*
D03*
X109252Y104331D02*
D03*
X113189Y107283D02*
D03*
X145669Y98425D02*
D03*
X126950Y7798D02*
D03*
X123031Y43067D02*
D03*
X115080Y53431D02*
D03*
X152067Y135827D02*
D03*
X150000Y69611D02*
D03*
X130430Y64065D02*
D03*
X156716Y93392D02*
D03*
X134900Y87511D02*
D03*
X36417Y178150D02*
D03*
D95*
X76005Y95968D02*
D03*
X190945Y227362D02*
D03*
X183071D02*
D03*
X175197D02*
D03*
D96*
X11732Y104783D02*
D03*
Y109783D02*
D03*
X16732Y104783D02*
D03*
Y109783D02*
D03*
X21732Y104783D02*
D03*
D97*
Y109783D02*
D03*
D98*
X61639Y7841D02*
D03*
D99*
X71639D02*
D03*
X81639D02*
D03*
X91639D02*
D03*
X101639D02*
D03*
X111639D02*
D03*
D100*
X110394Y207677D02*
D03*
X75437Y207677D02*
D03*
D101*
X100394Y207677D02*
D03*
X90394D02*
D03*
X45436Y207677D02*
D03*
X65437D02*
D03*
X55436D02*
D03*
X19740Y166945D02*
D03*
Y194543D02*
D03*
Y127575D02*
D03*
Y155173D02*
D03*
D102*
X9937Y171886D02*
D03*
Y189602D02*
D03*
Y132516D02*
D03*
Y150232D02*
D03*
D103*
X198819Y227362D02*
D03*
X167323D02*
D03*
D104*
X124016Y189961D02*
D03*
D105*
X142520Y201772D02*
D03*
Y177362D02*
D03*
D106*
X255906Y216535D02*
D03*
X19685Y19685D02*
D03*
Y216535D02*
D03*
X255906Y19685D02*
D03*
M02*
