G04*
G04 #@! TF.GenerationSoftware,Altium Limited,Altium Designer,24.5.2 (23)*
G04*
G04 Layer_Color=65535*
%FSLAX25Y25*%
%MOIN*%
G70*
G04*
G04 #@! TF.SameCoordinates,843F1F9D-CF68-4CC6-824C-A0058C937974*
G04*
G04*
G04 #@! TF.FilePolarity,Positive*
G04*
G01*
G75*
%ADD10C,0.00394*%
%ADD11C,0.00787*%
%ADD12C,0.00500*%
%ADD13C,0.01181*%
%ADD14C,0.00197*%
%ADD15C,0.00800*%
%ADD16C,0.00799*%
G36*
X117519Y223416D02*
X83268D01*
Y233277D01*
X117519D01*
Y223416D01*
D02*
G37*
G36*
X24615Y175492D02*
X14755D01*
Y186712D01*
X24615D01*
Y175492D01*
D02*
G37*
G36*
X24616Y136122D02*
X14755D01*
Y147342D01*
X24616D01*
Y136122D01*
D02*
G37*
G36*
X77562Y223416D02*
X43312D01*
Y233277D01*
X77562D01*
Y223416D01*
D02*
G37*
%LPC*%
G36*
X111380Y230267D02*
X110603D01*
Y228663D01*
X110353D01*
X110275Y228668D01*
X110209Y228674D01*
X110153Y228685D01*
X110109Y228691D01*
X110081Y228702D01*
X110065Y228707D01*
X110059D01*
X110015Y228729D01*
X109970Y228752D01*
X109931Y228779D01*
X109892Y228802D01*
X109865Y228829D01*
X109843Y228852D01*
X109832Y228863D01*
X109826Y228868D01*
X109804Y228896D01*
X109776Y228924D01*
X109715Y229007D01*
X109648Y229096D01*
X109576Y229196D01*
X109515Y229284D01*
X109487Y229329D01*
X109465Y229362D01*
X109443Y229390D01*
X109426Y229412D01*
X109421Y229429D01*
X109415Y229434D01*
X108860Y230267D01*
X107928D01*
D01*
X108400Y229518D01*
X108449Y229440D01*
X108500Y229362D01*
X108544Y229295D01*
X108588Y229235D01*
X108627Y229179D01*
X108660Y229123D01*
X108727Y229040D01*
X108777Y228974D01*
X108810Y228929D01*
X108838Y228902D01*
X108844Y228896D01*
X108905Y228829D01*
X108977Y228768D01*
X109043Y228718D01*
X109110Y228668D01*
X109166Y228629D01*
X109210Y228602D01*
X109243Y228580D01*
X109249Y228574D01*
X109254D01*
X109160Y228557D01*
X109077Y228535D01*
X108999Y228513D01*
X108921Y228485D01*
X108855Y228457D01*
X108794Y228430D01*
X108733Y228402D01*
X108683Y228369D01*
X108638Y228341D01*
X108599Y228313D01*
X108566Y228285D01*
X108544Y228263D01*
X108522Y228247D01*
X108505Y228230D01*
X108500Y228224D01*
X108494Y228219D01*
X108449Y228163D01*
X108411Y228108D01*
X108344Y227986D01*
X108300Y227869D01*
X108272Y227753D01*
X108250Y227653D01*
X108244Y227614D01*
Y227575D01*
X108239Y227547D01*
Y227519D01*
Y227508D01*
Y227503D01*
X108244Y227381D01*
X108266Y227264D01*
X108294Y227164D01*
X108322Y227076D01*
X108355Y227003D01*
X108383Y226948D01*
X108394Y226931D01*
X108405Y226915D01*
X108411Y226909D01*
Y226904D01*
X108477Y226809D01*
X108549Y226731D01*
X108622Y226670D01*
X108694Y226615D01*
X108760Y226582D01*
X108810Y226554D01*
X108844Y226537D01*
X108849Y226532D01*
X108855D01*
X108910Y226515D01*
X108971Y226498D01*
X109110Y226471D01*
X109260Y226454D01*
X109404Y226437D01*
X109476D01*
X109537Y226432D01*
X109598D01*
X109648Y226426D01*
X107928D01*
X111380D01*
Y230267D01*
D02*
G37*
G36*
X107667Y230339D02*
D01*
Y228374D01*
X107661Y228541D01*
X107645Y228702D01*
X107623Y228852D01*
X107589Y228990D01*
X107550Y229118D01*
X107506Y229235D01*
X107462Y229345D01*
X107412Y229440D01*
X107367Y229529D01*
X107323Y229601D01*
X107279Y229667D01*
X107240Y229723D01*
X107206Y229762D01*
X107184Y229795D01*
X107167Y229812D01*
X107162Y229817D01*
X107062Y229912D01*
X106957Y229989D01*
X106851Y230061D01*
X106735Y230117D01*
X106624Y230167D01*
X106507Y230211D01*
X106402Y230245D01*
X106291Y230272D01*
X106191Y230294D01*
X106096Y230311D01*
X106013Y230322D01*
X105941Y230328D01*
X105885Y230333D01*
X105841Y230339D01*
X105802D01*
X105647Y230333D01*
X105502Y230317D01*
X105364Y230289D01*
X105236Y230256D01*
X105114Y230217D01*
X105003Y230172D01*
X104903Y230128D01*
X104809Y230078D01*
X104731Y230028D01*
X104659Y229984D01*
X104598Y229939D01*
X104548Y229901D01*
X104504Y229867D01*
X104476Y229839D01*
X104459Y229823D01*
X104454Y229817D01*
X104365Y229712D01*
X104287Y229601D01*
X104215Y229484D01*
X104159Y229368D01*
X104109Y229246D01*
X104065Y229123D01*
X104032Y229001D01*
X104004Y228885D01*
X103987Y228779D01*
X103971Y228674D01*
X103960Y228585D01*
X103948Y228507D01*
Y228441D01*
X103943Y228391D01*
Y228352D01*
X103948Y228180D01*
X103965Y228019D01*
X103987Y227869D01*
X104021Y227725D01*
X104060Y227597D01*
X104104Y227475D01*
X104148Y227364D01*
X104198Y227270D01*
X104248Y227181D01*
X104293Y227103D01*
X104337Y227037D01*
X104376Y226981D01*
X104404Y226942D01*
X104431Y226909D01*
X104448Y226892D01*
X104454Y226887D01*
X104553Y226793D01*
X104659Y226709D01*
X104770Y226637D01*
X104881Y226576D01*
X104997Y226526D01*
X105108Y226482D01*
X105219Y226448D01*
X105325Y226421D01*
X105425Y226398D01*
X105519Y226382D01*
X105602Y226371D01*
X105675Y226360D01*
X105730D01*
X105774Y226354D01*
X103943D01*
X107667D01*
Y230339D01*
D02*
G37*
G36*
X98271Y230267D02*
X97555D01*
Y227248D01*
X96800Y230267D01*
X96051D01*
X95296Y227248D01*
X95290Y230267D01*
X95821D01*
X94574D01*
Y226426D01*
X98271D01*
Y230267D01*
D02*
G37*
G36*
X92565D02*
D01*
Y227076D01*
X91428D01*
Y230267D01*
X89518D01*
X90651D01*
Y227076D01*
X89518D01*
Y226426D01*
X92565D01*
Y230267D01*
D02*
G37*
G36*
X114960D02*
X114183D01*
Y228818D01*
X113495D01*
X113411Y228813D01*
X113333D01*
X113261Y228807D01*
X113195Y228802D01*
X113134Y228796D01*
X113084Y228790D01*
X113034D01*
X112995Y228785D01*
X112956Y228779D01*
X112928Y228774D01*
X112906D01*
X112890Y228768D01*
X112878D01*
X112801Y228746D01*
X112729Y228718D01*
X112662Y228691D01*
X112601Y228657D01*
X112551Y228629D01*
X112512Y228607D01*
X112490Y228591D01*
X112479Y228585D01*
X112407Y228530D01*
X112346Y228469D01*
X112285Y228402D01*
X112240Y228346D01*
X112201Y228291D01*
X112174Y228247D01*
X112157Y228219D01*
X112151Y228208D01*
X112107Y228113D01*
X112074Y228013D01*
X112051Y227908D01*
X112035Y227814D01*
X112024Y227736D01*
Y227697D01*
X112018Y227669D01*
Y227608D01*
X112029Y227447D01*
X112051Y227297D01*
X112090Y227175D01*
X112129Y227064D01*
X112151Y227020D01*
X112174Y226981D01*
X112190Y226948D01*
X112212Y226915D01*
X112223Y226892D01*
X112235Y226876D01*
X112246Y226870D01*
Y226865D01*
X112335Y226765D01*
X112423Y226681D01*
X112518Y226615D01*
X112601Y226565D01*
X112679Y226532D01*
X112740Y226504D01*
X112762Y226498D01*
X112778Y226493D01*
X112790Y226487D01*
X112795D01*
X112840Y226476D01*
X112895Y226465D01*
X112962Y226460D01*
X113028Y226454D01*
X113184Y226443D01*
X113339Y226432D01*
X113483D01*
X113544Y226426D01*
X112018D01*
X114960D01*
Y230267D01*
D02*
G37*
G36*
X103726D02*
D01*
Y226426D01*
X103604D01*
X102400Y228269D01*
X103726Y230267D01*
X101942D01*
X102794D01*
X101939Y228968D01*
X101090Y230267D01*
X100158D01*
D01*
X101479Y228269D01*
X100274Y226426D01*
X101179D01*
X101939Y227575D01*
X102700Y226426D01*
X101455D01*
X103726D01*
Y230267D01*
D02*
G37*
G36*
X99780D02*
X99003D01*
Y226426D01*
X99780D01*
Y230267D01*
D02*
G37*
G36*
X93814D02*
X93037D01*
Y226426D01*
X93814D01*
Y230267D01*
D02*
G37*
G36*
X89413D02*
D01*
Y226426D01*
X88009Y228652D01*
Y230267D01*
X87232D01*
Y228657D01*
X85828Y226426D01*
D01*
X89413D01*
Y230267D01*
D02*
G37*
%LPD*%
G36*
X110603Y227076D02*
X109715D01*
X109665Y227081D01*
X109543D01*
X109493Y227087D01*
X109460D01*
X109443Y227092D01*
X109437D01*
X109371Y227109D01*
X109310Y227131D01*
X109260Y227153D01*
X109221Y227181D01*
X109188Y227209D01*
X109160Y227225D01*
X109149Y227242D01*
X109143Y227248D01*
X109110Y227292D01*
X109082Y227347D01*
X109066Y227397D01*
X109049Y227447D01*
X109043Y227492D01*
X109038Y227525D01*
Y227547D01*
Y227558D01*
X109043Y227619D01*
X109049Y227675D01*
X109066Y227725D01*
X109077Y227769D01*
X109093Y227803D01*
X109110Y227825D01*
X109116Y227841D01*
X109121Y227847D01*
X109154Y227886D01*
X109188Y227919D01*
X109260Y227969D01*
X109288Y227986D01*
X109315Y227997D01*
X109332Y228008D01*
X109337D01*
X109365Y228013D01*
X109410Y228025D01*
X109454Y228030D01*
X109504Y228036D01*
X109621Y228041D01*
X109737Y228047D01*
X109848Y228052D01*
X110603D01*
Y227076D01*
D02*
G37*
G36*
X105885Y229673D02*
X105969Y229662D01*
X106046Y229645D01*
X106119Y229623D01*
X106252Y229573D01*
X106357Y229506D01*
X106407Y229479D01*
X106446Y229445D01*
X106485Y229418D01*
X106513Y229390D01*
X106535Y229373D01*
X106551Y229357D01*
X106562Y229345D01*
X106568Y229340D01*
X106618Y229273D01*
X106668Y229201D01*
X106707Y229123D01*
X106740Y229040D01*
X106796Y228879D01*
X106829Y228718D01*
X106840Y228641D01*
X106851Y228574D01*
X106857Y228507D01*
X106862Y228452D01*
X106868Y228408D01*
Y228374D01*
Y228352D01*
Y228346D01*
X106862Y228224D01*
X106857Y228113D01*
X106840Y228008D01*
X106823Y227908D01*
X106801Y227819D01*
X106779Y227736D01*
X106751Y227664D01*
X106723Y227597D01*
X106696Y227536D01*
X106668Y227486D01*
X106646Y227447D01*
X106624Y227409D01*
X106607Y227381D01*
X106590Y227364D01*
X106585Y227353D01*
X106579Y227347D01*
X106524Y227286D01*
X106463Y227237D01*
X106396Y227192D01*
X106335Y227153D01*
X106268Y227120D01*
X106202Y227098D01*
X106080Y227053D01*
X105969Y227031D01*
X105924Y227026D01*
X105880Y227020D01*
X105847Y227014D01*
X105802D01*
X105713Y227020D01*
X105630Y227031D01*
X105552Y227042D01*
X105480Y227064D01*
X105353Y227120D01*
X105292Y227148D01*
X105242Y227175D01*
X105192Y227209D01*
X105153Y227237D01*
X105120Y227264D01*
X105086Y227292D01*
X105064Y227314D01*
X105047Y227325D01*
X105042Y227336D01*
X105036Y227342D01*
X104986Y227409D01*
X104936Y227481D01*
X104897Y227553D01*
X104864Y227636D01*
X104814Y227803D01*
X104781Y227963D01*
X104764Y228036D01*
X104759Y228108D01*
X104753Y228169D01*
X104748Y228224D01*
X104742Y228274D01*
Y228308D01*
Y228330D01*
Y228335D01*
X104748Y228457D01*
X104753Y228574D01*
X104770Y228679D01*
X104787Y228774D01*
X104809Y228868D01*
X104836Y228951D01*
X104864Y229024D01*
X104892Y229090D01*
X104920Y229151D01*
X104947Y229201D01*
X104970Y229246D01*
X104997Y229284D01*
X105014Y229312D01*
X105031Y229329D01*
X105036Y229340D01*
X105042Y229345D01*
X105097Y229406D01*
X105158Y229456D01*
X105225Y229501D01*
X105286Y229540D01*
X105353Y229568D01*
X105414Y229595D01*
X105536Y229634D01*
X105641Y229662D01*
X105686Y229667D01*
X105725Y229673D01*
X105758Y229679D01*
X105802D01*
X105885Y229673D01*
D02*
G37*
G36*
X107667Y226354D02*
X105813D01*
X105980Y226360D01*
X106141Y226376D01*
X106280Y226404D01*
X106402Y226432D01*
X106451Y226448D01*
X106501Y226460D01*
X106540Y226471D01*
X106574Y226487D01*
X106601Y226493D01*
X106624Y226504D01*
X106635Y226509D01*
X106640D01*
X106740Y226554D01*
X106834Y226609D01*
X106918Y226670D01*
X106990Y226726D01*
X107051Y226776D01*
X107101Y226820D01*
X107129Y226848D01*
X107134Y226853D01*
X107140Y226859D01*
X107217Y226948D01*
X107290Y227042D01*
X107351Y227126D01*
X107401Y227209D01*
X107439Y227281D01*
X107473Y227336D01*
X107478Y227359D01*
X107489Y227375D01*
X107495Y227381D01*
Y227386D01*
X107550Y227542D01*
X107595Y227708D01*
X107623Y227875D01*
X107645Y228030D01*
X107650Y228102D01*
X107656Y228169D01*
X107661Y228224D01*
Y228274D01*
X107667Y228319D01*
Y226354D01*
D02*
G37*
G36*
X97111Y226426D02*
X95740D01*
X96423Y229051D01*
X97111Y226426D01*
D02*
G37*
G36*
X114183Y227076D02*
X113605D01*
X113550Y227081D01*
X113500D01*
X113450Y227087D01*
X113378D01*
X113322Y227092D01*
X113284Y227098D01*
X113261Y227103D01*
X113256D01*
X113189Y227120D01*
X113128Y227142D01*
X113073Y227170D01*
X113028Y227203D01*
X112995Y227231D01*
X112967Y227253D01*
X112951Y227270D01*
X112945Y227275D01*
X112901Y227331D01*
X112873Y227386D01*
X112851Y227447D01*
X112834Y227503D01*
X112823Y227553D01*
X112817Y227592D01*
Y227614D01*
Y227625D01*
X112823Y227686D01*
X112829Y227742D01*
X112845Y227792D01*
X112862Y227836D01*
X112878Y227875D01*
X112890Y227903D01*
X112901Y227919D01*
X112906Y227925D01*
X112940Y227969D01*
X112984Y228008D01*
X113023Y228041D01*
X113062Y228069D01*
X113095Y228086D01*
X113123Y228102D01*
X113145Y228108D01*
X113150Y228113D01*
X113184Y228124D01*
X113223Y228130D01*
X113311Y228147D01*
X113411Y228158D01*
X113511Y228163D01*
X113611D01*
X113650Y228169D01*
X114183D01*
Y227076D01*
D02*
G37*
G36*
X88508Y226426D02*
X86721D01*
X87604Y227947D01*
X88508Y226426D01*
D02*
G37*
%LPC*%
G36*
X21605Y184418D02*
X17765D01*
Y181499D01*
X21605D01*
Y184418D01*
D02*
G37*
G36*
Y180839D02*
X17765D01*
Y177786D01*
X21605D01*
Y178502D01*
X19019D01*
X21605Y180089D01*
Y180839D01*
D02*
G37*
%LPD*%
G36*
X20956Y181571D02*
X21605D01*
Y181499D01*
X18414D01*
Y183642D01*
X19457D01*
Y181716D01*
X20107D01*
Y183642D01*
X20956D01*
Y181571D01*
D02*
G37*
G36*
X17765Y178563D02*
Y180123D01*
X20296D01*
X17765Y178563D01*
D02*
G37*
%LPC*%
G36*
X21605Y145742D02*
X17765D01*
Y144965D01*
X21605D01*
Y145742D01*
D02*
G37*
G36*
X21678Y144382D02*
D01*
Y142529D01*
X21672Y142695D01*
X21655Y142856D01*
X21628Y142995D01*
X21600Y143117D01*
X21583Y143167D01*
X21572Y143217D01*
X21561Y143256D01*
X21544Y143289D01*
X21539Y143317D01*
X21528Y143339D01*
X21522Y143350D01*
Y143356D01*
X21478Y143456D01*
X21422Y143550D01*
X21361Y143633D01*
X21306Y143705D01*
X21256Y143766D01*
X21211Y143816D01*
X21184Y143844D01*
X21178Y143850D01*
X21172Y143855D01*
X21084Y143933D01*
X20989Y144005D01*
X20906Y144066D01*
X20823Y144116D01*
X20751Y144155D01*
X20695Y144188D01*
X20673Y144194D01*
X20656Y144205D01*
X20651Y144210D01*
X20645D01*
X20490Y144266D01*
X20323Y144310D01*
X20157Y144338D01*
X20001Y144360D01*
X19929Y144366D01*
X19863Y144371D01*
X19807Y144377D01*
X19757D01*
X19713Y144382D01*
X19657D01*
X19491Y144377D01*
X19330Y144360D01*
X19180Y144338D01*
X19041Y144305D01*
X18914Y144266D01*
X18797Y144221D01*
X18686Y144177D01*
X18592Y144127D01*
X18503Y144083D01*
X18431Y144038D01*
X18364Y143994D01*
X18309Y143955D01*
X18270Y143922D01*
X18237Y143900D01*
X18220Y143883D01*
X18214Y143877D01*
X18120Y143777D01*
X18042Y143672D01*
X17970Y143567D01*
X17915Y143450D01*
X17865Y143339D01*
X17820Y143222D01*
X17787Y143117D01*
X17759Y143006D01*
X17737Y142906D01*
X17720Y142812D01*
X17709Y142728D01*
X17704Y142656D01*
X17698Y142601D01*
X17693Y142556D01*
Y142518D01*
X17698Y142362D01*
X17715Y142218D01*
X17743Y142079D01*
X17776Y141952D01*
X17815Y141829D01*
X17859Y141718D01*
X17904Y141619D01*
X17954Y141524D01*
X18003Y141446D01*
X18048Y141374D01*
X18092Y141313D01*
X18131Y141263D01*
X18164Y141219D01*
X18192Y141191D01*
X18209Y141174D01*
X18214Y141169D01*
X18320Y141080D01*
X18431Y141002D01*
X18547Y140930D01*
X18664Y140875D01*
X18786Y140825D01*
X18908Y140780D01*
X19030Y140747D01*
X19147Y140719D01*
X19252Y140703D01*
X19358Y140686D01*
X19446Y140675D01*
X19524Y140664D01*
X19591D01*
X19641Y140658D01*
X17693D01*
X21678D01*
Y144382D01*
D02*
G37*
G36*
X21628Y140214D02*
D01*
Y138971D01*
X21622Y139071D01*
X21611Y139165D01*
X21589Y139260D01*
X21567Y139343D01*
X21533Y139421D01*
X21500Y139493D01*
X21467Y139554D01*
X21428Y139615D01*
X21389Y139665D01*
X21356Y139715D01*
X21322Y139754D01*
X21289Y139781D01*
X21267Y139809D01*
X21245Y139826D01*
X21234Y139837D01*
X21228Y139842D01*
X21134Y139909D01*
X21023Y139965D01*
X20906Y140015D01*
X20784Y140059D01*
X20656Y140092D01*
X20523Y140126D01*
X20395Y140148D01*
X20268Y140170D01*
X20146Y140181D01*
X20035Y140192D01*
X19929Y140203D01*
X19840Y140209D01*
X19768Y140214D01*
X19663D01*
D01*
X17693D01*
X19663D01*
X19463Y140209D01*
X19280Y140198D01*
X19108Y140181D01*
X18952Y140159D01*
X18814Y140137D01*
X18686Y140109D01*
X18575Y140076D01*
X18475Y140042D01*
X18392Y140015D01*
X18314Y139981D01*
X18253Y139953D01*
X18203Y139926D01*
X18170Y139909D01*
X18142Y139892D01*
X18126Y139881D01*
X18120Y139876D01*
X18042Y139809D01*
X17981Y139737D01*
X17920Y139665D01*
X17876Y139587D01*
X17831Y139515D01*
X17798Y139437D01*
X17770Y139365D01*
X17748Y139293D01*
X17726Y139226D01*
X17715Y139165D01*
X17704Y139110D01*
X17698Y139066D01*
Y139027D01*
X17693Y138993D01*
Y138971D01*
X17698Y138871D01*
X17709Y138777D01*
X17731Y138682D01*
X17754Y138599D01*
X17782Y138522D01*
X17815Y138450D01*
X17854Y138388D01*
X17892Y138327D01*
X17926Y138277D01*
X17965Y138227D01*
X17998Y138189D01*
X18026Y138155D01*
X18048Y138133D01*
X18070Y138117D01*
X18081Y138105D01*
X18087Y138100D01*
X18181Y138033D01*
X18292Y137978D01*
X18409Y137922D01*
X18536Y137883D01*
X18664Y137845D01*
X18792Y137817D01*
X18925Y137789D01*
X19052Y137767D01*
X19174Y137756D01*
X19286Y137745D01*
X19391Y137733D01*
X19480Y137728D01*
X19552Y137722D01*
X17693D01*
X21628D01*
Y140214D01*
D02*
G37*
%LPD*%
G36*
X19807Y143578D02*
X19918Y143572D01*
X20024Y143555D01*
X20124Y143539D01*
X20212Y143517D01*
X20296Y143494D01*
X20368Y143467D01*
X20434Y143439D01*
X20495Y143411D01*
X20545Y143383D01*
X20584Y143361D01*
X20623Y143339D01*
X20651Y143322D01*
X20667Y143306D01*
X20679Y143300D01*
X20684Y143295D01*
X20745Y143239D01*
X20795Y143178D01*
X20840Y143111D01*
X20878Y143050D01*
X20912Y142984D01*
X20934Y142917D01*
X20978Y142795D01*
X21001Y142684D01*
X21006Y142640D01*
X21012Y142595D01*
X21017Y142562D01*
Y142518D01*
X21012Y142429D01*
X21001Y142346D01*
X20989Y142268D01*
X20967Y142196D01*
X20912Y142068D01*
X20884Y142007D01*
X20856Y141957D01*
X20823Y141907D01*
X20795Y141868D01*
X20767Y141835D01*
X20740Y141802D01*
X20717Y141779D01*
X20706Y141763D01*
X20695Y141757D01*
X20690Y141752D01*
X20623Y141702D01*
X20551Y141652D01*
X20479Y141613D01*
X20395Y141580D01*
X20229Y141530D01*
X20068Y141496D01*
X19996Y141480D01*
X19924Y141474D01*
X19863Y141469D01*
X19807Y141463D01*
X19757Y141457D01*
X19724D01*
X19702D01*
X19696D01*
X19574Y141463D01*
X19458Y141469D01*
X19352Y141485D01*
X19258Y141502D01*
X19163Y141524D01*
X19080Y141552D01*
X19008Y141580D01*
X18941Y141607D01*
X18880Y141635D01*
X18830Y141663D01*
X18786Y141685D01*
X18747Y141713D01*
X18719Y141729D01*
X18703Y141746D01*
X18692Y141752D01*
X18686Y141757D01*
X18625Y141813D01*
X18575Y141874D01*
X18531Y141940D01*
X18492Y142001D01*
X18464Y142068D01*
X18436Y142129D01*
X18397Y142251D01*
X18370Y142357D01*
X18364Y142401D01*
X18359Y142440D01*
X18353Y142473D01*
Y142518D01*
X18359Y142601D01*
X18370Y142684D01*
X18386Y142762D01*
X18409Y142834D01*
X18459Y142967D01*
X18525Y143073D01*
X18553Y143123D01*
X18586Y143161D01*
X18614Y143200D01*
X18642Y143228D01*
X18658Y143250D01*
X18675Y143267D01*
X18686Y143278D01*
X18692Y143283D01*
X18758Y143333D01*
X18830Y143383D01*
X18908Y143422D01*
X18991Y143456D01*
X19152Y143511D01*
X19313Y143544D01*
X19391Y143555D01*
X19458Y143567D01*
X19524Y143572D01*
X19580Y143578D01*
X19624Y143583D01*
X19657D01*
X19680D01*
X19685D01*
X19807Y143578D01*
D02*
G37*
G36*
X21678Y140658D02*
X19680D01*
X19852Y140664D01*
X20013Y140681D01*
X20162Y140703D01*
X20307Y140736D01*
X20434Y140775D01*
X20557Y140819D01*
X20667Y140864D01*
X20762Y140914D01*
X20851Y140964D01*
X20928Y141008D01*
X20995Y141052D01*
X21050Y141091D01*
X21089Y141119D01*
X21123Y141147D01*
X21139Y141163D01*
X21145Y141169D01*
X21239Y141269D01*
X21322Y141374D01*
X21395Y141485D01*
X21456Y141596D01*
X21506Y141713D01*
X21550Y141824D01*
X21583Y141935D01*
X21611Y142040D01*
X21633Y142140D01*
X21650Y142235D01*
X21661Y142318D01*
X21672Y142390D01*
Y142446D01*
X21678Y142490D01*
Y140658D01*
D02*
G37*
G36*
X19896Y139432D02*
X19996D01*
X20096Y139426D01*
X20179Y139421D01*
X20262Y139415D01*
X20329Y139410D01*
X20395Y139399D01*
X20451Y139393D01*
X20495Y139387D01*
X20534Y139382D01*
X20568Y139376D01*
X20590Y139371D01*
X20612D01*
X20617Y139365D01*
X20623D01*
X20701Y139343D01*
X20767Y139315D01*
X20817Y139293D01*
X20862Y139265D01*
X20889Y139243D01*
X20912Y139226D01*
X20923Y139215D01*
X20928Y139210D01*
X20956Y139171D01*
X20978Y139127D01*
X20995Y139088D01*
X21006Y139049D01*
X21012Y139021D01*
X21017Y138993D01*
Y138971D01*
X21012Y138921D01*
X21006Y138877D01*
X20989Y138838D01*
X20973Y138805D01*
X20956Y138777D01*
X20945Y138755D01*
X20934Y138744D01*
X20928Y138738D01*
X20889Y138705D01*
X20840Y138672D01*
X20784Y138644D01*
X20729Y138616D01*
X20673Y138599D01*
X20629Y138583D01*
X20601Y138577D01*
X20595Y138572D01*
X20590D01*
X20540Y138560D01*
X20479Y138549D01*
X20407Y138538D01*
X20335Y138527D01*
X20185Y138516D01*
X20029Y138511D01*
X19957Y138505D01*
X19885D01*
X19824Y138499D01*
X19768D01*
X19724D01*
X19685D01*
X19663D01*
X19657D01*
X19535D01*
X19419Y138505D01*
X19313D01*
X19219Y138511D01*
X19130Y138516D01*
X19052Y138522D01*
X18980Y138533D01*
X18919Y138538D01*
X18864Y138544D01*
X18819Y138555D01*
X18780Y138560D01*
X18747Y138566D01*
X18725Y138572D01*
X18703D01*
X18697Y138577D01*
X18692D01*
X18614Y138599D01*
X18553Y138627D01*
X18497Y138655D01*
X18459Y138677D01*
X18425Y138699D01*
X18403Y138721D01*
X18392Y138733D01*
X18386Y138738D01*
X18359Y138777D01*
X18337Y138816D01*
X18325Y138855D01*
X18314Y138893D01*
X18309Y138921D01*
X18303Y138949D01*
Y138971D01*
X18309Y139021D01*
X18314Y139066D01*
X18331Y139104D01*
X18348Y139138D01*
X18359Y139165D01*
X18375Y139188D01*
X18381Y139199D01*
X18386Y139204D01*
X18425Y139238D01*
X18475Y139271D01*
X18531Y139299D01*
X18586Y139326D01*
X18636Y139343D01*
X18681Y139360D01*
X18708Y139365D01*
X18719Y139371D01*
X18775Y139382D01*
X18836Y139393D01*
X18903Y139404D01*
X18975Y139410D01*
X19130Y139421D01*
X19286Y139426D01*
X19358Y139432D01*
X19430D01*
X19491Y139437D01*
X19546D01*
X19591D01*
X19630D01*
X19652D01*
X19657D01*
X19780D01*
X19896Y139432D01*
D02*
G37*
G36*
X21628Y137722D02*
X19657D01*
X19857Y137728D01*
X20040Y137739D01*
X20207Y137756D01*
X20362Y137783D01*
X20506Y137811D01*
X20634Y137839D01*
X20751Y137878D01*
X20851Y137911D01*
X20945Y137944D01*
X21017Y137978D01*
X21084Y138011D01*
X21139Y138039D01*
X21178Y138066D01*
X21206Y138083D01*
X21223Y138094D01*
X21228Y138100D01*
X21300Y138161D01*
X21361Y138227D01*
X21411Y138300D01*
X21461Y138372D01*
X21500Y138444D01*
X21528Y138516D01*
X21555Y138583D01*
X21578Y138655D01*
X21594Y138721D01*
X21605Y138777D01*
X21617Y138832D01*
X21622Y138877D01*
X21628Y138916D01*
Y137722D01*
D02*
G37*
%LPC*%
G36*
X50686Y230267D02*
X49909D01*
Y228663D01*
X49659D01*
X49581Y228668D01*
X49515Y228674D01*
X49459Y228685D01*
X49415Y228691D01*
X49387Y228702D01*
X49370Y228707D01*
X49365D01*
X49320Y228729D01*
X49276Y228752D01*
X49237Y228779D01*
X49198Y228802D01*
X49171Y228829D01*
X49148Y228852D01*
X49137Y228863D01*
X49132Y228868D01*
X49110Y228896D01*
X49082Y228924D01*
X49021Y229007D01*
X48954Y229096D01*
X48882Y229196D01*
X48821Y229284D01*
X48793Y229329D01*
X48771Y229362D01*
X48749Y229390D01*
X48732Y229412D01*
X48726Y229429D01*
X48721Y229434D01*
X48166Y230267D01*
X47234D01*
D01*
X47705Y229518D01*
X47755Y229440D01*
X47805Y229362D01*
X47850Y229295D01*
X47894Y229235D01*
X47933Y229179D01*
X47966Y229123D01*
X48033Y229040D01*
X48083Y228974D01*
X48116Y228929D01*
X48144Y228902D01*
X48149Y228896D01*
X48210Y228829D01*
X48283Y228768D01*
X48349Y228718D01*
X48416Y228668D01*
X48471Y228629D01*
X48516Y228602D01*
X48549Y228580D01*
X48555Y228574D01*
X48560D01*
X48466Y228557D01*
X48382Y228535D01*
X48305Y228513D01*
X48227Y228485D01*
X48160Y228457D01*
X48099Y228430D01*
X48038Y228402D01*
X47988Y228369D01*
X47944Y228341D01*
X47905Y228313D01*
X47872Y228285D01*
X47850Y228263D01*
X47827Y228247D01*
X47811Y228230D01*
X47805Y228224D01*
X47800Y228219D01*
X47755Y228163D01*
X47716Y228108D01*
X47650Y227986D01*
X47605Y227869D01*
X47578Y227753D01*
X47556Y227653D01*
X47550Y227614D01*
Y227575D01*
X47544Y227547D01*
Y227519D01*
Y227508D01*
Y227503D01*
X47550Y227381D01*
X47572Y227264D01*
X47600Y227164D01*
X47628Y227076D01*
X47661Y227003D01*
X47689Y226948D01*
X47700Y226931D01*
X47711Y226915D01*
X47716Y226909D01*
Y226904D01*
X47783Y226809D01*
X47855Y226731D01*
X47927Y226670D01*
X48000Y226615D01*
X48066Y226582D01*
X48116Y226554D01*
X48149Y226537D01*
X48155Y226532D01*
X48160D01*
X48216Y226515D01*
X48277Y226498D01*
X48416Y226471D01*
X48566Y226454D01*
X48710Y226437D01*
X48782D01*
X48843Y226432D01*
X48904D01*
X48954Y226426D01*
X47234D01*
X50686D01*
Y230267D01*
D02*
G37*
G36*
X66326Y230333D02*
D01*
Y228380D01*
X66320Y228546D01*
X66303Y228702D01*
X66281Y228852D01*
X66248Y228985D01*
X66215Y229112D01*
X66170Y229235D01*
X66126Y229340D01*
X66081Y229434D01*
X66037Y229523D01*
X65993Y229601D01*
X65948Y229662D01*
X65915Y229717D01*
X65882Y229756D01*
X65859Y229789D01*
X65843Y229806D01*
X65837Y229812D01*
X65743Y229906D01*
X65643Y229984D01*
X65538Y230056D01*
X65432Y230111D01*
X65327Y230161D01*
X65221Y230206D01*
X65121Y230239D01*
X65027Y230267D01*
X64933Y230289D01*
X64849Y230306D01*
X64772Y230317D01*
X64710Y230322D01*
X64655Y230328D01*
X64616Y230333D01*
X64583D01*
X64466Y230328D01*
X64361Y230322D01*
X64255Y230306D01*
X64161Y230283D01*
X64072Y230261D01*
X63989Y230239D01*
X63911Y230211D01*
X63839Y230178D01*
X63778Y230150D01*
X63723Y230122D01*
X63673Y230100D01*
X63634Y230078D01*
X63600Y230056D01*
X63578Y230039D01*
X63567Y230034D01*
X63562Y230028D01*
X63490Y229967D01*
X63423Y229901D01*
X63301Y229751D01*
X63201Y229595D01*
X63123Y229445D01*
X63090Y229373D01*
X63062Y229307D01*
X63040Y229246D01*
X63018Y229196D01*
X63001Y229151D01*
X62990Y229118D01*
X62985Y229096D01*
Y229090D01*
X63739Y228857D01*
X63784Y229007D01*
X63834Y229135D01*
X63884Y229240D01*
X63939Y229329D01*
X63984Y229395D01*
X64022Y229440D01*
X64050Y229468D01*
X64061Y229479D01*
X64150Y229545D01*
X64239Y229590D01*
X64328Y229623D01*
X64405Y229651D01*
X64477Y229662D01*
X64539Y229667D01*
X64561Y229673D01*
X64588D01*
X64666Y229667D01*
X64738Y229662D01*
X64872Y229623D01*
X64988Y229579D01*
X65082Y229518D01*
X65160Y229462D01*
X65216Y229418D01*
X65238Y229395D01*
X65254Y229379D01*
X65260Y229373D01*
X65266Y229368D01*
X65310Y229307D01*
X65349Y229235D01*
X65388Y229157D01*
X65415Y229074D01*
X65460Y228902D01*
X65493Y228729D01*
X65504Y228646D01*
X65510Y228574D01*
X65521Y228502D01*
Y228441D01*
X65526Y228396D01*
Y228358D01*
Y228330D01*
Y228324D01*
X65521Y228197D01*
X65515Y228080D01*
X65504Y227975D01*
X65487Y227875D01*
X65465Y227786D01*
X65443Y227703D01*
X65421Y227630D01*
X65393Y227564D01*
X65371Y227508D01*
X65349Y227459D01*
X65327Y227420D01*
X65304Y227386D01*
X65288Y227359D01*
X65277Y227342D01*
X65266Y227331D01*
Y227325D01*
X65216Y227270D01*
X65160Y227220D01*
X65105Y227181D01*
X65043Y227148D01*
X64927Y227092D01*
X64816Y227053D01*
X64722Y227031D01*
X64677Y227026D01*
X64644Y227020D01*
X64611Y227014D01*
X64572D01*
X64461Y227020D01*
X64361Y227042D01*
X64272Y227070D01*
X64194Y227103D01*
X64133Y227137D01*
X64089Y227164D01*
X64061Y227186D01*
X64050Y227192D01*
X63978Y227259D01*
X63911Y227336D01*
X63861Y227414D01*
X63823Y227492D01*
X63795Y227558D01*
X63778Y227608D01*
X63767Y227630D01*
Y227647D01*
X63762Y227653D01*
Y227658D01*
X62996Y227475D01*
X63051Y227314D01*
X63112Y227175D01*
X63179Y227053D01*
X63240Y226953D01*
X63301Y226876D01*
X63323Y226842D01*
X63345Y226815D01*
X63362Y226798D01*
X63379Y226781D01*
X63384Y226770D01*
X63390D01*
X63473Y226698D01*
X63567Y226631D01*
X63656Y226576D01*
X63750Y226532D01*
X63850Y226487D01*
X63945Y226454D01*
X64039Y226426D01*
X64128Y226404D01*
X64211Y226387D01*
X64289Y226376D01*
X64355Y226365D01*
X64416Y226360D01*
X64466Y226354D01*
X62985D01*
D01*
X66326D01*
Y230333D01*
D02*
G37*
G36*
X62474Y230339D02*
D01*
Y228374D01*
X62468Y228541D01*
X62452Y228702D01*
X62429Y228852D01*
X62396Y228990D01*
X62357Y229118D01*
X62313Y229235D01*
X62269Y229345D01*
X62219Y229440D01*
X62174Y229529D01*
X62130Y229601D01*
X62085Y229667D01*
X62046Y229723D01*
X62013Y229762D01*
X61991Y229795D01*
X61974Y229812D01*
X61969Y229817D01*
X61869Y229912D01*
X61764Y229989D01*
X61658Y230061D01*
X61541Y230117D01*
X61431Y230167D01*
X61314Y230211D01*
X61208Y230245D01*
X61098Y230272D01*
X60998Y230294D01*
X60903Y230311D01*
X60820Y230322D01*
X60748Y230328D01*
X60692Y230333D01*
X60648Y230339D01*
X60609D01*
X60454Y230333D01*
X60309Y230317D01*
X60171Y230289D01*
X60043Y230256D01*
X59921Y230217D01*
X59810Y230172D01*
X59710Y230128D01*
X59616Y230078D01*
X59538Y230028D01*
X59466Y229984D01*
X59405Y229939D01*
X59355Y229901D01*
X59310Y229867D01*
X59283Y229839D01*
X59266Y229823D01*
X59260Y229817D01*
X59172Y229712D01*
X59094Y229601D01*
X59022Y229484D01*
X58966Y229368D01*
X58916Y229246D01*
X58872Y229123D01*
X58839Y229001D01*
X58811Y228885D01*
X58794Y228779D01*
X58778Y228674D01*
X58767Y228585D01*
X58755Y228507D01*
Y228441D01*
X58750Y228391D01*
Y228352D01*
X58755Y228180D01*
X58772Y228019D01*
X58794Y227869D01*
X58828Y227725D01*
X58866Y227597D01*
X58911Y227475D01*
X58955Y227364D01*
X59005Y227270D01*
X59055Y227181D01*
X59100Y227103D01*
X59144Y227037D01*
X59183Y226981D01*
X59210Y226942D01*
X59238Y226909D01*
X59255Y226892D01*
X59260Y226887D01*
X59360Y226793D01*
X59466Y226709D01*
X59577Y226637D01*
X59688Y226576D01*
X59804Y226526D01*
X59915Y226482D01*
X60026Y226448D01*
X60132Y226421D01*
X60232Y226398D01*
X60326Y226382D01*
X60409Y226371D01*
X60481Y226360D01*
X60537D01*
X60581Y226354D01*
X58750D01*
X62474D01*
Y230339D01*
D02*
G37*
G36*
X70061Y230267D02*
X69345D01*
Y227736D01*
X67785Y230267D01*
X67008D01*
Y226426D01*
X70061D01*
Y230267D01*
D02*
G37*
G36*
X73641D02*
X70721D01*
Y229617D01*
X72864D01*
Y228574D01*
X70938D01*
Y227925D01*
X72864D01*
Y227076D01*
X70793D01*
Y226426D01*
X70721D01*
D01*
X73641D01*
Y230267D01*
D02*
G37*
G36*
X58139D02*
X56685D01*
X56535Y230261D01*
X56397Y230256D01*
X56280Y230245D01*
X56186Y230228D01*
X56108Y230211D01*
X56047Y230200D01*
X56030Y230195D01*
X56014D01*
X56008Y230189D01*
X56003D01*
X55880Y230145D01*
X55769Y230095D01*
X55681Y230045D01*
X55603Y229995D01*
X55542Y229950D01*
X55497Y229917D01*
X55470Y229895D01*
X55459Y229884D01*
X55364Y229778D01*
X55281Y229667D01*
X55209Y229551D01*
X55153Y229445D01*
X55109Y229345D01*
X55087Y229307D01*
X55076Y229273D01*
X55065Y229240D01*
X55054Y229218D01*
X55048Y229207D01*
Y229201D01*
X55009Y229068D01*
X54976Y228929D01*
X54954Y228796D01*
X54943Y228668D01*
X54937Y228607D01*
X54931Y228552D01*
Y228507D01*
X54926Y228463D01*
Y228385D01*
X54931Y228191D01*
X54948Y228019D01*
X54954Y227936D01*
X54965Y227864D01*
X54976Y227792D01*
X54987Y227730D01*
X55004Y227675D01*
X55015Y227625D01*
X55026Y227581D01*
X55031Y227547D01*
X55042Y227519D01*
X55048Y227497D01*
X55054Y227486D01*
Y227481D01*
X55103Y227347D01*
X55164Y227225D01*
X55226Y227120D01*
X55287Y227031D01*
X55337Y226959D01*
X55381Y226904D01*
X55409Y226870D01*
X55414Y226859D01*
X55420D01*
X55514Y226770D01*
X55608Y226698D01*
X55708Y226637D01*
X55797Y226587D01*
X55875Y226548D01*
X55941Y226520D01*
X55964Y226515D01*
X55980Y226509D01*
X55992Y226504D01*
X55997D01*
X56103Y226476D01*
X56219Y226460D01*
X56341Y226443D01*
X56458Y226437D01*
X56563Y226432D01*
X56608Y226426D01*
X58139D01*
Y230267D01*
D02*
G37*
G36*
X54265D02*
X51346D01*
Y229617D01*
X53488D01*
Y228574D01*
X51563D01*
Y227925D01*
X53488D01*
Y227076D01*
X51418D01*
Y226426D01*
X51346D01*
D01*
X54265D01*
Y230267D01*
D02*
G37*
%LPD*%
G36*
X49909Y227076D02*
X49021D01*
X48971Y227081D01*
X48849D01*
X48799Y227087D01*
X48765D01*
X48749Y227092D01*
X48743D01*
X48677Y227109D01*
X48616Y227131D01*
X48566Y227153D01*
X48527Y227181D01*
X48493Y227209D01*
X48466Y227225D01*
X48455Y227242D01*
X48449Y227248D01*
X48416Y227292D01*
X48388Y227347D01*
X48371Y227397D01*
X48355Y227447D01*
X48349Y227492D01*
X48344Y227525D01*
Y227547D01*
Y227558D01*
X48349Y227619D01*
X48355Y227675D01*
X48371Y227725D01*
X48382Y227769D01*
X48399Y227803D01*
X48416Y227825D01*
X48421Y227841D01*
X48427Y227847D01*
X48460Y227886D01*
X48493Y227919D01*
X48566Y227969D01*
X48593Y227986D01*
X48621Y227997D01*
X48638Y228008D01*
X48643D01*
X48671Y228013D01*
X48715Y228025D01*
X48760Y228030D01*
X48810Y228036D01*
X48926Y228041D01*
X49043Y228047D01*
X49154Y228052D01*
X49909D01*
Y227076D01*
D02*
G37*
G36*
X66326Y226354D02*
X64533D01*
X64677Y226360D01*
X64821Y226376D01*
X64949Y226404D01*
X65077Y226437D01*
X65188Y226476D01*
X65299Y226520D01*
X65393Y226571D01*
X65482Y226620D01*
X65565Y226670D01*
X65632Y226720D01*
X65693Y226765D01*
X65743Y226804D01*
X65782Y226837D01*
X65809Y226865D01*
X65826Y226881D01*
X65832Y226887D01*
X65920Y226992D01*
X65993Y227103D01*
X66059Y227220D01*
X66115Y227342D01*
X66165Y227470D01*
X66203Y227592D01*
X66237Y227714D01*
X66264Y227830D01*
X66287Y227947D01*
X66298Y228047D01*
X66309Y228141D01*
X66320Y228219D01*
Y228285D01*
X66326Y228335D01*
Y226354D01*
D02*
G37*
G36*
X60692Y229673D02*
X60776Y229662D01*
X60853Y229645D01*
X60925Y229623D01*
X61059Y229573D01*
X61164Y229506D01*
X61214Y229479D01*
X61253Y229445D01*
X61292Y229418D01*
X61320Y229390D01*
X61342Y229373D01*
X61358Y229357D01*
X61369Y229345D01*
X61375Y229340D01*
X61425Y229273D01*
X61475Y229201D01*
X61514Y229123D01*
X61547Y229040D01*
X61602Y228879D01*
X61636Y228718D01*
X61647Y228641D01*
X61658Y228574D01*
X61664Y228507D01*
X61669Y228452D01*
X61675Y228408D01*
Y228374D01*
Y228352D01*
Y228346D01*
X61669Y228224D01*
X61664Y228113D01*
X61647Y228008D01*
X61630Y227908D01*
X61608Y227819D01*
X61586Y227736D01*
X61558Y227664D01*
X61530Y227597D01*
X61503Y227536D01*
X61475Y227486D01*
X61453Y227447D01*
X61431Y227409D01*
X61414Y227381D01*
X61397Y227364D01*
X61392Y227353D01*
X61386Y227347D01*
X61331Y227286D01*
X61269Y227237D01*
X61203Y227192D01*
X61142Y227153D01*
X61075Y227120D01*
X61009Y227098D01*
X60887Y227053D01*
X60776Y227031D01*
X60731Y227026D01*
X60687Y227020D01*
X60654Y227014D01*
X60609D01*
X60520Y227020D01*
X60437Y227031D01*
X60359Y227042D01*
X60287Y227064D01*
X60159Y227120D01*
X60098Y227148D01*
X60049Y227175D01*
X59999Y227209D01*
X59960Y227237D01*
X59926Y227264D01*
X59893Y227292D01*
X59871Y227314D01*
X59854Y227325D01*
X59849Y227336D01*
X59843Y227342D01*
X59793Y227409D01*
X59743Y227481D01*
X59704Y227553D01*
X59671Y227636D01*
X59621Y227803D01*
X59588Y227963D01*
X59571Y228036D01*
X59566Y228108D01*
X59560Y228169D01*
X59555Y228224D01*
X59549Y228274D01*
Y228308D01*
Y228330D01*
Y228335D01*
X59555Y228457D01*
X59560Y228574D01*
X59577Y228679D01*
X59593Y228774D01*
X59616Y228868D01*
X59643Y228951D01*
X59671Y229024D01*
X59699Y229090D01*
X59727Y229151D01*
X59754Y229201D01*
X59777Y229246D01*
X59804Y229284D01*
X59821Y229312D01*
X59838Y229329D01*
X59843Y229340D01*
X59849Y229345D01*
X59904Y229406D01*
X59965Y229456D01*
X60032Y229501D01*
X60093Y229540D01*
X60159Y229568D01*
X60221Y229595D01*
X60343Y229634D01*
X60448Y229662D01*
X60492Y229667D01*
X60531Y229673D01*
X60565Y229679D01*
X60609D01*
X60692Y229673D01*
D02*
G37*
G36*
X62474Y226354D02*
X60620D01*
X60787Y226360D01*
X60948Y226376D01*
X61086Y226404D01*
X61208Y226432D01*
X61258Y226448D01*
X61308Y226460D01*
X61347Y226471D01*
X61380Y226487D01*
X61408Y226493D01*
X61431Y226504D01*
X61442Y226509D01*
X61447D01*
X61547Y226554D01*
X61641Y226609D01*
X61725Y226670D01*
X61797Y226726D01*
X61858Y226776D01*
X61908Y226820D01*
X61936Y226848D01*
X61941Y226853D01*
X61947Y226859D01*
X62024Y226948D01*
X62097Y227042D01*
X62157Y227126D01*
X62208Y227209D01*
X62246Y227281D01*
X62280Y227336D01*
X62285Y227359D01*
X62296Y227375D01*
X62302Y227381D01*
Y227386D01*
X62357Y227542D01*
X62402Y227708D01*
X62429Y227875D01*
X62452Y228030D01*
X62457Y228102D01*
X62463Y228169D01*
X62468Y228224D01*
Y228274D01*
X62474Y228319D01*
Y226354D01*
D02*
G37*
G36*
X69311Y226426D02*
X67724D01*
Y229012D01*
X69311Y226426D01*
D02*
G37*
G36*
X57362Y227076D02*
X56857D01*
X56785Y227081D01*
X56718D01*
X56663Y227087D01*
X56613D01*
X56563Y227092D01*
X56524D01*
X56463Y227103D01*
X56419Y227109D01*
X56391Y227114D01*
X56385D01*
X56308Y227137D01*
X56241Y227164D01*
X56180Y227192D01*
X56125Y227225D01*
X56086Y227253D01*
X56053Y227275D01*
X56036Y227292D01*
X56030Y227297D01*
X55980Y227353D01*
X55936Y227414D01*
X55897Y227475D01*
X55864Y227531D01*
X55842Y227586D01*
X55825Y227630D01*
X55814Y227658D01*
X55808Y227664D01*
Y227669D01*
X55781Y227769D01*
X55758Y227875D01*
X55747Y227991D01*
X55736Y228102D01*
X55731Y228197D01*
X55725Y228241D01*
Y228280D01*
Y228308D01*
Y228330D01*
Y228346D01*
Y228352D01*
X55731Y228507D01*
X55736Y228652D01*
X55753Y228768D01*
X55764Y228868D01*
X55781Y228951D01*
X55786Y228985D01*
X55797Y229007D01*
X55803Y229029D01*
Y229046D01*
X55808Y229051D01*
Y229057D01*
X55842Y229146D01*
X55869Y229223D01*
X55908Y229284D01*
X55936Y229334D01*
X55964Y229373D01*
X55986Y229401D01*
X56003Y229418D01*
X56008Y229423D01*
X56058Y229462D01*
X56108Y229495D01*
X56158Y229523D01*
X56208Y229545D01*
X56252Y229562D01*
X56286Y229573D01*
X56308Y229584D01*
X56319D01*
X56380Y229595D01*
X56452Y229601D01*
X56530Y229612D01*
X56608D01*
X56680Y229617D01*
X57362D01*
Y227076D01*
D02*
G37*
D10*
X185728Y7412D02*
X186129Y6498D01*
X186747Y5714D01*
X187542Y5111D01*
X188463Y4727D01*
X189451Y4586D01*
X190443Y4699D01*
X191374Y5058D01*
X192185Y5640D01*
X192824Y6406D01*
X193250Y7309D01*
X270665Y174466D02*
X271579Y174866D01*
X272363Y175484D01*
X272966Y176279D01*
X273350Y177200D01*
X273490Y178189D01*
X273377Y179180D01*
X273019Y180112D01*
X272437Y180923D01*
X271670Y181562D01*
X270768Y181988D01*
X144166Y55118D02*
X143948Y56073D01*
X143337Y56839D01*
X142454Y57264D01*
X141475D01*
X140592Y56839D01*
X139982Y56073D01*
X139764Y55118D01*
X139982Y54163D01*
X140592Y53397D01*
X141475Y52972D01*
X142454D01*
X143337Y53397D01*
X143948Y54163D01*
X144166Y55118D01*
X144917Y101378D02*
X144699Y102333D01*
X144089Y103099D01*
X143206Y103524D01*
X142227D01*
X141344Y103099D01*
X140734Y102333D01*
X140516Y101378D01*
X140734Y100423D01*
X141344Y99657D01*
X142227Y99232D01*
X143206D01*
X144089Y99657D01*
X144699Y100423D01*
X144917Y101378D01*
Y150591D02*
X144699Y151546D01*
X144089Y152311D01*
X143206Y152736D01*
X142227D01*
X141344Y152311D01*
X140734Y151546D01*
X140516Y150591D01*
X140734Y149636D01*
X141344Y148870D01*
X142227Y148445D01*
X143206D01*
X144089Y148870D01*
X144699Y149636D01*
X144917Y150591D01*
X137795Y131890D02*
X139764D01*
X137795Y129921D02*
Y131890D01*
X127008Y34843D02*
Y38780D01*
X130945D01*
X198426Y13417D02*
Y13571D01*
X198227Y13770D02*
X198426Y13571D01*
X197779Y13770D02*
X198227D01*
X197779D02*
X198503Y13046D01*
Y13035D02*
Y13046D01*
X180175Y7407D02*
X185713D01*
X180175D02*
Y13818D01*
X198535D01*
X193250Y7309D02*
X198535D01*
Y13818D01*
X264505Y187163D02*
X264660D01*
X264306Y186964D02*
X264505Y187163D01*
X264306Y186516D02*
Y186964D01*
Y186516D02*
X265031Y187241D01*
X265042D01*
X270669Y168913D02*
Y174450D01*
X264259Y168913D02*
X270669D01*
X264259D02*
Y187273D01*
X270768Y181988D02*
Y187273D01*
X264259D02*
X270768D01*
X53780Y186971D02*
X57323D01*
X53780Y192877D02*
X57323D01*
X38380Y113880D02*
Y117423D01*
X32474Y113880D02*
Y117423D01*
X87493Y94222D02*
X91430D01*
X87493D02*
Y98159D01*
X142717Y143701D02*
X144685Y145669D01*
X140748D02*
X144685D01*
X140748D02*
X142717Y143701D01*
X42013Y28971D02*
X43024D01*
X42746Y28693D02*
X43024Y28971D01*
X42620Y28693D02*
X42746D01*
X42607Y28680D02*
X42620Y28693D01*
X42367Y28920D02*
X42607Y28680D01*
X42013Y28920D02*
X42367D01*
X42013D02*
X42557Y28377D01*
Y28301D02*
Y28377D01*
Y28301D02*
X42658Y28402D01*
X42809Y28554D01*
X42885D01*
X43214Y28882D01*
Y29135D01*
X43150Y29199D02*
X43214Y29135D01*
X41710Y29199D02*
X43150D01*
X41710D02*
X42038Y28870D01*
X43176D01*
X43593Y29287D01*
X43846D01*
X43833Y29300D02*
X43846Y29287D01*
X41222Y29300D02*
X43833D01*
X40922Y29599D02*
X41222Y29300D01*
X40922Y29599D02*
X44263D01*
X44263D01*
X4175Y66347D02*
X42593Y27929D01*
X4175Y66347D02*
X43149Y105321D01*
X81567Y66904D01*
X42593Y27929D02*
X81567Y66904D01*
X69488Y14567D02*
X86024D01*
X69488D02*
Y28740D01*
X86024D01*
Y14567D02*
Y28740D01*
X93904Y14938D02*
X110439D01*
X93904D02*
Y29111D01*
X110439D01*
Y14938D02*
Y29111D01*
X74803Y191929D02*
Y192913D01*
X77756D01*
X105823Y164348D02*
X109055Y164204D01*
X105994Y164072D02*
X109055Y164204D01*
X105994Y164072D02*
X109094Y163915D01*
X106073Y163901D02*
X109094Y163915D01*
X106073Y163901D02*
X108989Y163639D01*
X106546Y163547D02*
X108989Y163639D01*
X106546Y163547D02*
X109239Y163363D01*
X106940Y163258D02*
X109239Y163363D01*
X106940Y163258D02*
X109226Y163048D01*
X107176Y163034D02*
X109226Y163048D01*
X107176Y163034D02*
X109134Y162877D01*
X107334Y162772D02*
X109134Y162877D01*
X107334Y162772D02*
X109199Y162548D01*
X107636Y162443D02*
X109199Y162548D01*
X107636Y162443D02*
X109370Y162378D01*
X108083Y162128D02*
X109370Y162378D01*
X108083Y162128D02*
X109226Y162102D01*
X108227Y161878D02*
X109226Y162102D01*
X108227Y161878D02*
X109239Y161747D01*
X108490Y161616D02*
X109239Y161747D01*
X108490Y161616D02*
X109199Y161405D01*
X109160Y161156D02*
X109199Y161405D01*
X109055Y161182D02*
X109160Y161156D01*
X108753Y161432D02*
X109055Y161182D01*
X108109Y162062D02*
X108753Y161432D01*
X107820Y162483D02*
X108109Y162062D01*
X107505Y162864D02*
X107820Y162483D01*
X105654Y164379D02*
X109280Y160998D01*
X105487Y164199D02*
X109228Y160689D01*
X82201Y157458D02*
X85433Y157314D01*
X82372Y157183D02*
X85433Y157314D01*
X82372Y157183D02*
X85472Y157025D01*
X82450Y157012D02*
X85472Y157025D01*
X82450Y157012D02*
X85367Y156749D01*
X82924Y156657D02*
X85367Y156749D01*
X82924Y156657D02*
X85617Y156473D01*
X83318Y156368D02*
X85617Y156473D01*
X83318Y156368D02*
X85603Y156158D01*
X83554Y156145D02*
X85603Y156158D01*
X83554Y156145D02*
X85512Y155987D01*
X83712Y155882D02*
X85512Y155987D01*
X83712Y155882D02*
X85577Y155659D01*
X84014Y155553D02*
X85577Y155659D01*
X84014Y155553D02*
X85748Y155488D01*
X84461Y155238D02*
X85748Y155488D01*
X84461Y155238D02*
X85603Y155212D01*
X84605Y154989D02*
X85603Y155212D01*
X84605Y154989D02*
X85617Y154857D01*
X84868Y154726D02*
X85617Y154857D01*
X84868Y154726D02*
X85577Y154516D01*
X85538Y154266D02*
X85577Y154516D01*
X85433Y154292D02*
X85538Y154266D01*
X85131Y154542D02*
X85433Y154292D01*
X84487Y155173D02*
X85131Y154542D01*
X84198Y155593D02*
X84487Y155173D01*
X83883Y155974D02*
X84198Y155593D01*
X82032Y157489D02*
X85658Y154108D01*
X81865Y157309D02*
X85606Y153799D01*
X58579Y157458D02*
X61811Y157314D01*
X58750Y157183D02*
X61811Y157314D01*
X58750Y157183D02*
X61850Y157025D01*
X58829Y157012D02*
X61850Y157025D01*
X58829Y157012D02*
X61745Y156749D01*
X59302Y156657D02*
X61745Y156749D01*
X59302Y156657D02*
X61995Y156473D01*
X59696Y156368D02*
X61995Y156473D01*
X59696Y156368D02*
X61981Y156158D01*
X59932Y156145D02*
X61981Y156158D01*
X59932Y156145D02*
X61890Y155987D01*
X60090Y155882D02*
X61890Y155987D01*
X60090Y155882D02*
X61955Y155659D01*
X60392Y155553D02*
X61955Y155659D01*
X60392Y155553D02*
X62126Y155488D01*
X60839Y155238D02*
X62126Y155488D01*
X60839Y155238D02*
X61981Y155212D01*
X60983Y154989D02*
X61981Y155212D01*
X60983Y154989D02*
X61995Y154857D01*
X61246Y154726D02*
X61995Y154857D01*
X61246Y154726D02*
X61955Y154516D01*
X61916Y154266D02*
X61955Y154516D01*
X61811Y154292D02*
X61916Y154266D01*
X61509Y154542D02*
X61811Y154292D01*
X60865Y155173D02*
X61509Y154542D01*
X60576Y155593D02*
X60865Y155173D01*
X60260Y155974D02*
X60576Y155593D01*
X58410Y157489D02*
X62036Y154108D01*
X58243Y157309D02*
X61984Y153799D01*
X116925Y195448D02*
X116956Y195478D01*
Y195479D01*
X116612Y195135D02*
X116956Y195479D01*
X116205Y195135D02*
X116612D01*
X116205D02*
X116987Y195917D01*
Y196214D01*
X116064Y195291D02*
X116987Y196214D01*
X115251Y195291D02*
X116064D01*
X115251D02*
X116862Y196903D01*
Y197169D01*
X115094Y195401D02*
X116862Y197169D01*
X115094Y195182D02*
Y195401D01*
X114985Y195072D02*
X115094Y195182D01*
X114985Y195072D02*
Y195510D01*
X114356Y195011D02*
X117061Y197716D01*
X114356Y195011D02*
X115456D01*
X117056Y196611D01*
Y197211D01*
X83661Y194882D02*
X117126D01*
X83661D02*
Y222441D01*
X117126D01*
Y194882D02*
Y222441D01*
X38783Y194882D02*
Y222441D01*
X82090D01*
X38783Y194882D02*
X82090D01*
Y222441D01*
X80222Y195049D02*
X80629D01*
X80972Y195392D01*
X81582Y194937D02*
X82006Y195491D01*
X80907Y194928D02*
X81582Y194937D01*
X80907Y194928D02*
X82050Y196435D01*
X81349Y195041D02*
X82050Y196435D01*
X81349Y195041D02*
X81937Y195742D01*
X80361Y194911D02*
X81937Y195742D01*
X80361Y194911D02*
X82041Y196946D01*
X80275Y194963D02*
X82041Y196946D01*
X79807Y194963D02*
X80275D01*
X79807D02*
X82015Y197439D01*
X82033Y197863D01*
X79574Y194972D02*
X82033Y197863D01*
X135075Y55118D02*
X141965D01*
X135075D02*
X137043Y57087D01*
Y53150D02*
Y57087D01*
X135075Y55118D02*
X137043Y53150D01*
X139996Y60039D02*
X141965Y62008D01*
X139996Y60039D02*
X143933D01*
X141965Y62008D02*
X143933Y60039D01*
X141965Y55118D02*
Y62008D01*
X142717Y101378D02*
Y108268D01*
X140748Y106299D02*
X142717Y108268D01*
X140748Y106299D02*
X144685D01*
X142717Y108268D02*
X144685Y106299D01*
X147638Y99410D02*
X149606Y101378D01*
X147638Y99410D02*
Y103347D01*
X149606Y101378D01*
X142717D02*
X149606D01*
X142717Y150591D02*
X149606D01*
X147638Y148622D02*
X149606Y150591D01*
X147638Y148622D02*
Y152559D01*
X149606Y150591D01*
X142717Y143701D02*
Y150591D01*
X136267Y83661D02*
Y83671D01*
X135827Y83661D02*
X136267D01*
X133858D02*
X135827D01*
X133858Y80709D02*
Y83661D01*
X937Y166748D02*
Y194740D01*
X13874D01*
X937Y166748D02*
X13874D01*
X25685Y194740D02*
X25724D01*
X25685Y166748D02*
X25724D01*
Y194740D01*
X937Y127378D02*
Y155370D01*
X13874D01*
X937Y127378D02*
X13874D01*
X25685Y155370D02*
X25724D01*
X25685Y127378D02*
X25724D01*
Y155370D01*
X200000Y218898D02*
Y223425D01*
X166142Y218898D02*
X200000D01*
X166142D02*
Y223425D01*
X200000Y231299D02*
Y235827D01*
X166142D02*
X200000D01*
X166142Y231299D02*
Y235827D01*
D11*
X205681Y24237D02*
X243477D01*
X192689Y36639D02*
X205681Y24237D01*
X192689Y62229D02*
X205091Y74631D01*
X205710D01*
X243477D01*
X175591Y210236D02*
X213386D01*
X226378Y197835D01*
X213976Y159843D02*
X226378Y172244D01*
X213358Y159843D02*
X213976D01*
X175591D02*
X213358D01*
X247155Y86293D02*
Y117553D01*
X270399Y86293D02*
Y120033D01*
X254840Y158025D02*
X257792D01*
Y154088D02*
Y158025D01*
X25591Y109252D02*
Y114173D01*
X21654D02*
X25591D01*
X20669D02*
X21654D01*
X91339Y164247D02*
X109449D01*
X91339Y140628D02*
Y164247D01*
Y140628D02*
X109449D01*
Y164247D01*
X67716Y157357D02*
X85827D01*
X67716Y133738D02*
Y157357D01*
Y133738D02*
X85827D01*
Y157357D01*
X44094D02*
X62205D01*
X44094Y133738D02*
Y157357D01*
Y133738D02*
X62205D01*
Y157357D01*
X177122Y98969D02*
X177148D01*
X178580Y97537D01*
Y98635D01*
X178422Y98793D02*
X178580Y98635D01*
X177983Y98793D02*
X178422D01*
X177948Y98758D02*
X177983Y98793D01*
D12*
X196380Y125644D02*
X243625D01*
X196380Y78400D02*
X243625D01*
X116639Y2841D02*
Y12841D01*
X56639Y2841D02*
Y12841D01*
Y2841D02*
X116639D01*
X56639Y12841D02*
X116639D01*
D13*
X204212Y214373D02*
X235708D01*
Y227168D01*
Y230121D01*
X204212D02*
X235708D01*
X204212Y214373D02*
Y230121D01*
X124016Y177362D02*
X127559D01*
X156102Y177559D02*
X160039D01*
Y232480D01*
X124016Y203346D02*
Y232480D01*
X160039D01*
D14*
X57782Y12694D02*
X58022D01*
X56756Y11668D02*
X57782Y12694D01*
X56756Y11668D02*
Y11808D01*
X57617Y12669D01*
X57452D02*
X57617D01*
X56819Y12036D02*
X57452Y12669D01*
X56819Y12036D02*
Y12150D01*
X57376Y12707D01*
X57225D02*
X57376D01*
X56794Y12276D02*
X57225Y12707D01*
X56794Y12276D02*
Y12453D01*
X57072Y12732D01*
D15*
X168799Y99004D02*
X178642D01*
X168799Y85224D02*
Y99004D01*
Y85224D02*
X178642D01*
Y99004D01*
D16*
X140051Y121049D02*
Y118425D01*
X140576Y117900D01*
X141626D01*
X142151Y118425D01*
Y121049D01*
X145299D02*
X144250Y120524D01*
X143200Y119474D01*
Y118425D01*
X143725Y117900D01*
X144774D01*
X145299Y118425D01*
Y118950D01*
X144774Y119474D01*
X143200D01*
X156837Y23134D02*
Y26282D01*
X158411D01*
X158936Y25758D01*
Y24708D01*
X158411Y24183D01*
X156837D01*
X157886D02*
X158936Y23134D01*
X159985Y25758D02*
X160510Y26282D01*
X161560D01*
X162084Y25758D01*
Y25233D01*
X161560Y24708D01*
X161035D01*
X161560D01*
X162084Y24183D01*
Y23659D01*
X161560Y23134D01*
X160510D01*
X159985Y23659D01*
X163134Y25758D02*
X163659Y26282D01*
X164708D01*
X165233Y25758D01*
Y25233D01*
X164708Y24708D01*
X164184D01*
X164708D01*
X165233Y24183D01*
Y23659D01*
X164708Y23134D01*
X163659D01*
X163134Y23659D01*
X120479Y41219D02*
Y38595D01*
X121004Y38070D01*
X122053D01*
X122578Y38595D01*
Y41219D01*
X125202Y38070D02*
Y41219D01*
X123627Y39645D01*
X125726D01*
X127692Y46654D02*
Y49803D01*
X129266D01*
X129791Y49278D01*
Y48228D01*
X129266Y47704D01*
X127692D01*
X128741D02*
X129791Y46654D01*
X132939D02*
X130840D01*
X132939Y48753D01*
Y49278D01*
X132414Y49803D01*
X131365D01*
X130840Y49278D01*
X133989D02*
X134514Y49803D01*
X135563D01*
X136088Y49278D01*
Y48753D01*
X135563Y48228D01*
X135038D01*
X135563D01*
X136088Y47704D01*
Y47179D01*
X135563Y46654D01*
X134514D01*
X133989Y47179D01*
X145707Y46654D02*
Y49803D01*
X147282D01*
X147806Y49278D01*
Y48228D01*
X147282Y47704D01*
X145707D01*
X146757D02*
X147806Y46654D01*
X150955D02*
X148856D01*
X150955Y48753D01*
Y49278D01*
X150430Y49803D01*
X149381D01*
X148856Y49278D01*
X154104Y46654D02*
X152005D01*
X154104Y48753D01*
Y49278D01*
X153579Y49803D01*
X152529D01*
X152005Y49278D01*
X156806Y16777D02*
Y19925D01*
X158380D01*
X158905Y19401D01*
Y18351D01*
X158380Y17826D01*
X156806D01*
X157855D02*
X158905Y16777D01*
X159954D02*
X161004D01*
X160479D01*
Y19925D01*
X159954Y19401D01*
X162578Y17301D02*
X163103Y16777D01*
X164153D01*
X164677Y17301D01*
Y19401D01*
X164153Y19925D01*
X163103D01*
X162578Y19401D01*
Y18876D01*
X163103Y18351D01*
X164677D01*
X148993Y29897D02*
X145844D01*
Y31471D01*
X146369Y31996D01*
X147418D01*
X147943Y31471D01*
Y29897D01*
Y30946D02*
X148993Y31996D01*
Y33046D02*
Y34095D01*
Y33570D01*
X145844D01*
X146369Y33046D01*
Y35669D02*
X145844Y36194D01*
Y37244D01*
X146369Y37768D01*
X146894D01*
X147418Y37244D01*
X147943Y37768D01*
X148468D01*
X148993Y37244D01*
Y36194D01*
X148468Y35669D01*
X147943D01*
X147418Y36194D01*
X146894Y35669D01*
X146369D01*
X147418Y36194D02*
Y37244D01*
X134540Y11287D02*
Y14435D01*
X136115D01*
X136639Y13911D01*
Y12861D01*
X136115Y12336D01*
X134540D01*
X135590D02*
X136639Y11287D01*
X137689D02*
X138739D01*
X138214D01*
Y14435D01*
X137689Y13911D01*
X140313Y14435D02*
X142412D01*
Y13911D01*
X140313Y11812D01*
Y11287D01*
X116715Y29930D02*
X116190Y29405D01*
Y28355D01*
X116715Y27830D01*
X118814D01*
X119339Y28355D01*
Y29405D01*
X118814Y29930D01*
X119339Y30979D02*
Y32029D01*
Y31504D01*
X116190D01*
X116715Y30979D01*
Y33603D02*
X116190Y34128D01*
Y35177D01*
X116715Y35702D01*
X118814D01*
X119339Y35177D01*
Y34128D01*
X118814Y33603D01*
X116715D01*
X141770Y142448D02*
X143869Y139299D01*
Y142448D02*
X141770Y139299D01*
X142902Y63966D02*
X140803Y67114D01*
Y63966D02*
X142902Y67114D01*
X131705Y57097D02*
Y56573D01*
X132754Y55523D01*
X133804Y56573D01*
Y57097D01*
X132754Y55523D02*
Y53949D01*
X147913Y53383D02*
X145814D01*
Y53908D01*
X147913Y56007D01*
Y56532D01*
X145814D01*
X137090Y102711D02*
X139189D01*
Y102187D01*
X137090Y100088D01*
Y99563D01*
X139189D01*
X143886Y113200D02*
Y112675D01*
X142836Y111626D01*
X141787Y112675D01*
Y113200D01*
X142836Y111626D02*
Y110051D01*
X151390Y99399D02*
X153489Y102547D01*
Y99399D02*
X151390Y102547D01*
X137436Y152038D02*
X139535D01*
Y151513D01*
X137436Y149414D01*
Y148889D01*
X139535D01*
X151139Y152315D02*
Y151790D01*
X152188Y150741D01*
X153238Y151790D01*
Y152315D01*
X152188Y150741D02*
Y149166D01*
X166289Y86113D02*
X166814Y86637D01*
Y87687D01*
X166289Y88212D01*
X164190D01*
X163665Y87687D01*
Y86637D01*
X164190Y86113D01*
X163665Y82964D02*
Y85063D01*
X165765Y82964D01*
X166289D01*
X166814Y83489D01*
Y84538D01*
X166289Y85063D01*
X166814Y79816D02*
X166289Y80865D01*
X165240Y81915D01*
X164190D01*
X163665Y81390D01*
Y80340D01*
X164190Y79816D01*
X164715D01*
X165240Y80340D01*
Y81915D01*
X225706Y150412D02*
X228855D01*
Y148838D01*
X228330Y148313D01*
X227281D01*
X226756Y148838D01*
Y150412D01*
Y149363D02*
X225706Y148313D01*
X228855Y145165D02*
Y147264D01*
X227281D01*
X227805Y146214D01*
Y145689D01*
X227281Y145165D01*
X226231D01*
X225706Y145689D01*
Y146739D01*
X226231Y147264D01*
X228330Y144115D02*
X228855Y143590D01*
Y142541D01*
X228330Y142016D01*
X226231D01*
X225706Y142541D01*
Y143590D01*
X226231Y144115D01*
X228330D01*
X202166Y150852D02*
X205314D01*
Y149277D01*
X204790Y148753D01*
X203740D01*
X203215Y149277D01*
Y150852D01*
Y149802D02*
X202166Y148753D01*
Y146129D02*
X205314D01*
X203740Y147703D01*
Y145604D01*
X202691Y144554D02*
X202166Y144030D01*
Y142980D01*
X202691Y142455D01*
X204790D01*
X205314Y142980D01*
Y144030D01*
X204790Y144554D01*
X204265D01*
X203740Y144030D01*
Y142455D01*
X203484Y131028D02*
Y134176D01*
X205058D01*
X205583Y133652D01*
Y132602D01*
X205058Y132077D01*
X203484D01*
X204533D02*
X205583Y131028D01*
X208207D02*
Y134176D01*
X206632Y132602D01*
X208732D01*
X209781Y133652D02*
X210306Y134176D01*
X211355D01*
X211880Y133652D01*
Y133127D01*
X211355Y132602D01*
X211880Y132077D01*
Y131553D01*
X211355Y131028D01*
X210306D01*
X209781Y131553D01*
Y132077D01*
X210306Y132602D01*
X209781Y133127D01*
Y133652D01*
X210306Y132602D02*
X211355D01*
X221196Y153937D02*
Y157086D01*
X222770D01*
X223295Y156561D01*
Y155512D01*
X222770Y154987D01*
X221196D01*
X222245D02*
X223295Y153937D01*
X225919D02*
Y157086D01*
X224344Y155512D01*
X226443D01*
X227493Y157086D02*
X229592D01*
Y156561D01*
X227493Y154462D01*
Y153937D01*
X210369D02*
Y157086D01*
X211943D01*
X212468Y156561D01*
Y155512D01*
X211943Y154987D01*
X210369D01*
X211418D02*
X212468Y153937D01*
X215092D02*
Y157086D01*
X213517Y155512D01*
X215616D01*
X218765Y157086D02*
X217716Y156561D01*
X216666Y155512D01*
Y154462D01*
X217191Y153937D01*
X218240D01*
X218765Y154462D01*
Y154987D01*
X218240Y155512D01*
X216666D01*
X205573Y138835D02*
X205048Y139360D01*
X203999D01*
X203474Y138835D01*
Y136736D01*
X203999Y136211D01*
X205048D01*
X205573Y136736D01*
X208722Y136211D02*
X206623D01*
X208722Y138310D01*
Y138835D01*
X208197Y139360D01*
X207147D01*
X206623Y138835D01*
X211870Y139360D02*
X209771D01*
Y137785D01*
X210821Y138310D01*
X211346D01*
X211870Y137785D01*
Y136736D01*
X211346Y136211D01*
X210296D01*
X209771Y136736D01*
X171505Y57525D02*
X170980Y58050D01*
X169930D01*
X169406Y57525D01*
Y55426D01*
X169930Y54901D01*
X170980D01*
X171505Y55426D01*
X174653Y54901D02*
X172554D01*
X174653Y57000D01*
Y57525D01*
X174128Y58050D01*
X173079D01*
X172554Y57525D01*
X177277Y54901D02*
Y58050D01*
X175703Y56475D01*
X177802D01*
X171457Y40657D02*
X170933Y41181D01*
X169883D01*
X169358Y40657D01*
Y38558D01*
X169883Y38033D01*
X170933D01*
X171457Y38558D01*
X174606Y38033D02*
X172507D01*
X174606Y40132D01*
Y40657D01*
X174081Y41181D01*
X173032D01*
X172507Y40657D01*
X175655D02*
X176180Y41181D01*
X177230D01*
X177755Y40657D01*
Y40132D01*
X177230Y39607D01*
X176705D01*
X177230D01*
X177755Y39082D01*
Y38558D01*
X177230Y38033D01*
X176180D01*
X175655Y38558D01*
X191640Y29224D02*
X191115Y28699D01*
Y27650D01*
X191640Y27125D01*
X193739D01*
X194264Y27650D01*
Y28699D01*
X193739Y29224D01*
X191115Y32373D02*
X191640Y31323D01*
X192689Y30274D01*
X193739D01*
X194264Y30798D01*
Y31848D01*
X193739Y32373D01*
X193214D01*
X192689Y31848D01*
Y30274D01*
X246457Y79594D02*
X249606D01*
Y81693D01*
Y82742D02*
Y83792D01*
Y83267D01*
X246457D01*
X246982Y82742D01*
X269209Y129153D02*
X266061D01*
Y127579D01*
X266585Y127054D01*
X268685D01*
X269209Y127579D01*
Y129153D01*
X266061Y123905D02*
Y126004D01*
X268160Y123905D01*
X268685D01*
X269209Y124430D01*
Y125480D01*
X268685Y126004D01*
X261795Y130597D02*
X262319Y131122D01*
Y132171D01*
X261795Y132696D01*
X259696D01*
X259171Y132171D01*
Y131122D01*
X259696Y130597D01*
X259171Y127448D02*
Y129547D01*
X261270Y127448D01*
X261795D01*
X262319Y127973D01*
Y129022D01*
X261795Y129547D01*
X259171Y124300D02*
Y126399D01*
X261270Y124300D01*
X261795D01*
X262319Y124824D01*
Y125874D01*
X261795Y126399D01*
X234299Y147133D02*
X234824Y147658D01*
Y148708D01*
X234299Y149232D01*
X232200D01*
X231676Y148708D01*
Y147658D01*
X232200Y147133D01*
X231676Y143985D02*
Y146084D01*
X233775Y143985D01*
X234299D01*
X234824Y144510D01*
Y145559D01*
X234299Y146084D01*
X231676Y142935D02*
Y141886D01*
Y142411D01*
X234824D01*
X234299Y142935D01*
X169357Y208530D02*
X169881Y209054D01*
Y210104D01*
X169357Y210629D01*
X167257D01*
X166733Y210104D01*
Y209054D01*
X167257Y208530D01*
X166733Y207480D02*
Y206431D01*
Y206955D01*
X169881D01*
X169357Y207480D01*
Y204856D02*
X169881Y204331D01*
Y203282D01*
X169357Y202757D01*
X168832D01*
X168307Y203282D01*
X167782Y202757D01*
X167257D01*
X166733Y203282D01*
Y204331D01*
X167257Y204856D01*
X167782D01*
X168307Y204331D01*
X168832Y204856D01*
X169357D01*
X168307Y204331D02*
Y203282D01*
X231871Y165309D02*
Y168458D01*
X233445D01*
X233970Y167933D01*
Y166884D01*
X233445Y166359D01*
X231871D01*
X232920D02*
X233970Y165309D01*
X235019D02*
X236069D01*
X235544D01*
Y168458D01*
X235019Y167933D01*
X239742Y168458D02*
X238693Y167933D01*
X237643Y166884D01*
Y165834D01*
X238168Y165309D01*
X239218D01*
X239742Y165834D01*
Y166359D01*
X239218Y166884D01*
X237643D01*
X260131Y167432D02*
X259606Y167957D01*
X258556D01*
X258032Y167432D01*
Y165333D01*
X258556Y164808D01*
X259606D01*
X260131Y165333D01*
X263279Y164808D02*
X261180D01*
X263279Y166907D01*
Y167432D01*
X262755Y167957D01*
X261705D01*
X261180Y167432D01*
X264329D02*
X264854Y167957D01*
X265903D01*
X266428Y167432D01*
Y165333D01*
X265903Y164808D01*
X264854D01*
X264329Y165333D01*
Y167432D01*
X250551Y174322D02*
X250026Y174846D01*
X248976D01*
X248451Y174322D01*
Y172223D01*
X248976Y171698D01*
X250026D01*
X250551Y172223D01*
X251600Y171698D02*
X252650D01*
X252125D01*
Y174846D01*
X251600Y174322D01*
X254224Y172223D02*
X254749Y171698D01*
X255798D01*
X256323Y172223D01*
Y174322D01*
X255798Y174846D01*
X254749D01*
X254224Y174322D01*
Y173797D01*
X254749Y173272D01*
X256323D01*
X259246Y145598D02*
X256622D01*
X256097Y145073D01*
Y144024D01*
X256622Y143499D01*
X259246D01*
X256097Y142449D02*
Y141400D01*
Y141925D01*
X259246D01*
X258721Y142449D01*
X256097Y137726D02*
Y139825D01*
X258196Y137726D01*
X258721D01*
X259246Y138251D01*
Y139301D01*
X258721Y139825D01*
X47398Y182135D02*
Y185284D01*
X48972D01*
X49497Y184759D01*
Y183709D01*
X48972Y183185D01*
X47398D01*
X48447D02*
X49497Y182135D01*
X50547D02*
X51596D01*
X51071D01*
Y185284D01*
X50547Y184759D01*
X55269Y185284D02*
X53170D01*
Y183709D01*
X54220Y184234D01*
X54745D01*
X55269Y183709D01*
Y182660D01*
X54745Y182135D01*
X53695D01*
X53170Y182660D01*
X30208Y116094D02*
X27059D01*
Y117668D01*
X27584Y118193D01*
X28633D01*
X29158Y117668D01*
Y116094D01*
Y117143D02*
X30208Y118193D01*
Y119243D02*
Y120292D01*
Y119767D01*
X27059D01*
X27584Y119243D01*
X30208Y123441D02*
X27059D01*
X28633Y121866D01*
Y123965D01*
X30196Y112198D02*
Y113248D01*
Y112723D01*
X27573D01*
X27048Y113248D01*
Y113772D01*
X27573Y114297D01*
X29672Y111149D02*
X30196Y110624D01*
Y109574D01*
X29672Y109049D01*
X29147D01*
X28622Y109574D01*
X28097Y109049D01*
X27573D01*
X27048Y109574D01*
Y110624D01*
X27573Y111149D01*
X28097D01*
X28622Y110624D01*
X29147Y111149D01*
X29672D01*
X28622Y110624D02*
Y109574D01*
X66471Y192519D02*
Y189895D01*
X66996Y189371D01*
X68045D01*
X68570Y189895D01*
Y192519D01*
X69620Y189371D02*
X70669D01*
X70144D01*
Y192519D01*
X69620Y191994D01*
X72243Y189371D02*
X73293D01*
X72768D01*
Y192519D01*
X72243Y191994D01*
X63386Y125001D02*
X66010D01*
X66535Y125526D01*
Y126576D01*
X66010Y127100D01*
X63386D01*
X66535Y128150D02*
Y129199D01*
Y128675D01*
X63386D01*
X63911Y128150D01*
Y130774D02*
X63386Y131298D01*
Y132348D01*
X63911Y132873D01*
X66010D01*
X66535Y132348D01*
Y131298D01*
X66010Y130774D01*
X63911D01*
X38780Y125329D02*
X41404D01*
X41929Y125854D01*
Y126903D01*
X41404Y127428D01*
X38780D01*
X41404Y128478D02*
X41929Y129002D01*
Y130052D01*
X41404Y130577D01*
X39305D01*
X38780Y130052D01*
Y129002D01*
X39305Y128478D01*
X39830D01*
X40354Y129002D01*
Y130577D01*
X87008Y131234D02*
X89632D01*
X90157Y131759D01*
Y132809D01*
X89632Y133334D01*
X87008D01*
X87533Y134383D02*
X87008Y134908D01*
Y135957D01*
X87533Y136482D01*
X88058D01*
X88583Y135957D01*
X89107Y136482D01*
X89632D01*
X90157Y135957D01*
Y134908D01*
X89632Y134383D01*
X89107D01*
X88583Y134908D01*
X88058Y134383D01*
X87533D01*
X88583Y134908D02*
Y135957D01*
X78275Y112425D02*
X75126D01*
Y114000D01*
X75651Y114524D01*
X76701D01*
X77225Y114000D01*
Y112425D01*
Y113475D02*
X78275Y114524D01*
Y117148D02*
X75126D01*
X76701Y115574D01*
Y117673D01*
X75126Y120822D02*
Y118723D01*
X76701D01*
X76176Y119772D01*
Y120297D01*
X76701Y120822D01*
X77750D01*
X78275Y120297D01*
Y119247D01*
X77750Y118723D01*
X78479Y175591D02*
Y178740D01*
X80053D01*
X80578Y178215D01*
Y177165D01*
X80053Y176641D01*
X78479D01*
X79529D02*
X80578Y175591D01*
X83202D02*
Y178740D01*
X81628Y177165D01*
X83727D01*
X86351Y175591D02*
Y178740D01*
X84776Y177165D01*
X86875D01*
X89489Y112480D02*
X86340D01*
Y114054D01*
X86865Y114579D01*
X87914D01*
X88439Y114054D01*
Y112480D01*
Y113530D02*
X89489Y114579D01*
Y117203D02*
X86340D01*
X87914Y115629D01*
Y117728D01*
X86865Y118777D02*
X86340Y119302D01*
Y120352D01*
X86865Y120876D01*
X87389D01*
X87914Y120352D01*
Y119827D01*
Y120352D01*
X88439Y120876D01*
X88964D01*
X89489Y120352D01*
Y119302D01*
X88964Y118777D01*
X44575Y108197D02*
X41426D01*
Y109771D01*
X41951Y110296D01*
X43001D01*
X43525Y109771D01*
Y108197D01*
Y109247D02*
X44575Y110296D01*
Y112920D02*
X41426D01*
X43001Y111346D01*
Y113445D01*
X44575Y116593D02*
Y114494D01*
X42476Y116593D01*
X41951D01*
X41426Y116069D01*
Y115019D01*
X41951Y114494D01*
X67193Y175591D02*
Y178740D01*
X68767D01*
X69292Y178215D01*
Y177165D01*
X68767Y176641D01*
X67193D01*
X68242D02*
X69292Y175591D01*
X71916D02*
Y178740D01*
X70341Y177165D01*
X72440D01*
X73490Y175591D02*
X74540D01*
X74015D01*
Y178740D01*
X73490Y178215D01*
X43046Y175591D02*
Y178740D01*
X44620D01*
X45145Y178215D01*
Y177165D01*
X44620Y176641D01*
X43046D01*
X44096D02*
X45145Y175591D01*
X47769D02*
Y178740D01*
X46195Y177165D01*
X48294D01*
X49343Y178215D02*
X49868Y178740D01*
X50918D01*
X51442Y178215D01*
Y176116D01*
X50918Y175591D01*
X49868D01*
X49343Y176116D01*
Y178215D01*
X91274Y119489D02*
Y122637D01*
X92849D01*
X93373Y122113D01*
Y121063D01*
X92849Y120538D01*
X91274D01*
X92324D02*
X93373Y119489D01*
X94423Y122113D02*
X94948Y122637D01*
X95997D01*
X96522Y122113D01*
Y121588D01*
X95997Y121063D01*
X95472D01*
X95997D01*
X96522Y120538D01*
Y120013D01*
X95997Y119489D01*
X94948D01*
X94423Y120013D01*
X97571D02*
X98096Y119489D01*
X99146D01*
X99671Y120013D01*
Y122113D01*
X99146Y122637D01*
X98096D01*
X97571Y122113D01*
Y121588D01*
X98096Y121063D01*
X99671D01*
X109646Y186285D02*
X112795D01*
Y184710D01*
X112270Y184186D01*
X111221D01*
X110696Y184710D01*
Y186285D01*
Y185235D02*
X109646Y184186D01*
X112270Y183136D02*
X112795Y182611D01*
Y181562D01*
X112270Y181037D01*
X111745D01*
X111221Y181562D01*
Y182087D01*
Y181562D01*
X110696Y181037D01*
X110171D01*
X109646Y181562D01*
Y182611D01*
X110171Y183136D01*
X112270Y179988D02*
X112795Y179463D01*
Y178413D01*
X112270Y177889D01*
X111745D01*
X111221Y178413D01*
X110696Y177889D01*
X110171D01*
X109646Y178413D01*
Y179463D01*
X110171Y179988D01*
X110696D01*
X111221Y179463D01*
X111745Y179988D01*
X112270D01*
X111221Y179463D02*
Y178413D01*
X108682Y127827D02*
X111831D01*
Y126253D01*
X111306Y125728D01*
X110257D01*
X109732Y126253D01*
Y127827D01*
Y126778D02*
X108682Y125728D01*
X111306Y124679D02*
X111831Y124154D01*
Y123104D01*
X111306Y122580D01*
X110781D01*
X110257Y123104D01*
Y123629D01*
Y123104D01*
X109732Y122580D01*
X109207D01*
X108682Y123104D01*
Y124154D01*
X109207Y124679D01*
X111831Y119431D02*
X111306Y120481D01*
X110257Y121530D01*
X109207D01*
X108682Y121005D01*
Y119956D01*
X109207Y119431D01*
X109732D01*
X110257Y119956D01*
Y121530D01*
X55119Y175591D02*
Y178740D01*
X56694D01*
X57218Y178215D01*
Y177165D01*
X56694Y176641D01*
X55119D01*
X56169D02*
X57218Y175591D01*
X58268D02*
X59317D01*
X58793D01*
Y178740D01*
X58268Y178215D01*
X60892D02*
X61417Y178740D01*
X62466D01*
X62991Y178215D01*
Y177690D01*
X62466Y177165D01*
X61941D01*
X62466D01*
X62991Y176641D01*
Y176116D01*
X62466Y175591D01*
X61417D01*
X60892Y176116D01*
X55175Y112711D02*
X52026D01*
Y114285D01*
X52551Y114810D01*
X53601D01*
X54125Y114285D01*
Y112711D01*
Y113760D02*
X55175Y114810D01*
Y115859D02*
Y116909D01*
Y116384D01*
X52026D01*
X52551Y115859D01*
X55175Y120582D02*
Y118483D01*
X53076Y120582D01*
X52551D01*
X52026Y120057D01*
Y119008D01*
X52551Y118483D01*
X42848Y190355D02*
X43897D01*
X43372D01*
Y192979D01*
X43897Y193503D01*
X44422D01*
X44947Y192979D01*
X41798Y190355D02*
X39699D01*
Y190880D01*
X41798Y192979D01*
Y193503D01*
X115682Y190355D02*
X116732D01*
X116207D01*
Y192979D01*
X116732Y193503D01*
X117256D01*
X117781Y192979D01*
X112534Y190355D02*
X113583Y190880D01*
X114633Y191929D01*
Y192979D01*
X114108Y193503D01*
X113058D01*
X112534Y192979D01*
Y192454D01*
X113058Y191929D01*
X114633D01*
X123755Y135237D02*
Y138385D01*
X125329D01*
X125854Y137861D01*
Y136811D01*
X125329Y136286D01*
X123755D01*
X124804D02*
X125854Y135237D01*
X126903Y137861D02*
X127428Y138385D01*
X128478D01*
X129002Y137861D01*
Y137336D01*
X128478Y136811D01*
X127953D01*
X128478D01*
X129002Y136286D01*
Y135761D01*
X128478Y135237D01*
X127428D01*
X126903Y135761D01*
X131626Y135237D02*
Y138385D01*
X130052Y136811D01*
X132151D01*
X111944Y79134D02*
Y82283D01*
X113518D01*
X114043Y81758D01*
Y80709D01*
X113518Y80184D01*
X111944D01*
X112993D02*
X114043Y79134D01*
X115092Y81758D02*
X115617Y82283D01*
X116666D01*
X117191Y81758D01*
Y81233D01*
X116666Y80709D01*
X116142D01*
X116666D01*
X117191Y80184D01*
Y79659D01*
X116666Y79134D01*
X115617D01*
X115092Y79659D01*
X118241Y82283D02*
X120340D01*
Y81758D01*
X118241Y79659D01*
Y79134D01*
X65892Y100684D02*
Y103833D01*
X67466D01*
X67991Y103308D01*
Y102259D01*
X67466Y101734D01*
X65892D01*
X66941D02*
X67991Y100684D01*
X71139D02*
X69040D01*
X71139Y102783D01*
Y103308D01*
X70615Y103833D01*
X69565D01*
X69040Y103308D01*
X72189Y101209D02*
X72714Y100684D01*
X73763D01*
X74288Y101209D01*
Y103308D01*
X73763Y103833D01*
X72714D01*
X72189Y103308D01*
Y102783D01*
X72714Y102259D01*
X74288D01*
X74900Y88546D02*
Y91694D01*
X76474D01*
X76999Y91170D01*
Y90120D01*
X76474Y89595D01*
X74900D01*
X75950D02*
X76999Y88546D01*
X80148D02*
X78049D01*
X80148Y90645D01*
Y91170D01*
X79623Y91694D01*
X78573D01*
X78049Y91170D01*
X81197D02*
X81722Y91694D01*
X82771D01*
X83296Y91170D01*
Y90645D01*
X82771Y90120D01*
X83296Y89595D01*
Y89071D01*
X82771Y88546D01*
X81722D01*
X81197Y89071D01*
Y89595D01*
X81722Y90120D01*
X81197Y90645D01*
Y91170D01*
X81722Y90120D02*
X82771D01*
X101227Y83004D02*
Y86152D01*
X102802D01*
X103326Y85627D01*
Y84578D01*
X102802Y84053D01*
X101227D01*
X102277D02*
X103326Y83004D01*
X106475D02*
X104376D01*
X106475Y85103D01*
Y85627D01*
X105950Y86152D01*
X104901D01*
X104376Y85627D01*
X107525Y83004D02*
X108574D01*
X108049D01*
Y86152D01*
X107525Y85627D01*
X110649Y88814D02*
Y91963D01*
X112223D01*
X112748Y91438D01*
Y90389D01*
X112223Y89864D01*
X110649D01*
X111699D02*
X112748Y88814D01*
X115897D02*
X113798D01*
X115897Y90913D01*
Y91438D01*
X115372Y91963D01*
X114323D01*
X113798Y91438D01*
X116946D02*
X117471Y91963D01*
X118521D01*
X119045Y91438D01*
Y89339D01*
X118521Y88814D01*
X117471D01*
X116946Y89339D01*
Y91438D01*
X81101Y97375D02*
Y94751D01*
X81625Y94226D01*
X82675D01*
X83200Y94751D01*
Y97375D01*
X84249D02*
X86348D01*
Y96850D01*
X84249Y94751D01*
Y94226D01*
X138347Y88094D02*
Y85470D01*
X138872Y84945D01*
X139922D01*
X140446Y85470D01*
Y88094D01*
X143595D02*
X141496D01*
Y86520D01*
X142545Y87044D01*
X143070D01*
X143595Y86520D01*
Y85470D01*
X143070Y84945D01*
X142021D01*
X141496Y85470D01*
X120523Y121532D02*
X117375D01*
Y123106D01*
X117899Y123631D01*
X118949D01*
X119474Y123106D01*
Y121532D01*
Y122581D02*
X120523Y123631D01*
X117899Y124680D02*
X117375Y125205D01*
Y126255D01*
X117899Y126779D01*
X118424D01*
X118949Y126255D01*
Y125730D01*
Y126255D01*
X119474Y126779D01*
X119998D01*
X120523Y126255D01*
Y125205D01*
X119998Y124680D01*
X117375Y129928D02*
Y127829D01*
X118949D01*
X118424Y128878D01*
Y129403D01*
X118949Y129928D01*
X119998D01*
X120523Y129403D01*
Y128354D01*
X119998Y127829D01*
X150329Y134253D02*
Y137401D01*
X151904D01*
X152428Y136876D01*
Y135827D01*
X151904Y135302D01*
X150329D01*
X151379D02*
X152428Y134253D01*
X153478Y136876D02*
X154003Y137401D01*
X155052D01*
X155577Y136876D01*
Y136352D01*
X155052Y135827D01*
X154528D01*
X155052D01*
X155577Y135302D01*
Y134777D01*
X155052Y134253D01*
X154003D01*
X153478Y134777D01*
X158726Y134253D02*
X156627D01*
X158726Y136352D01*
Y136876D01*
X158201Y137401D01*
X157151D01*
X156627Y136876D01*
X124279Y111615D02*
Y114763D01*
X125854D01*
X126379Y114239D01*
Y113189D01*
X125854Y112664D01*
X124279D01*
X125329D02*
X126379Y111615D01*
X127428Y114239D02*
X127953Y114763D01*
X129002D01*
X129527Y114239D01*
Y113714D01*
X129002Y113189D01*
X128478D01*
X129002D01*
X129527Y112664D01*
Y112139D01*
X129002Y111615D01*
X127953D01*
X127428Y112139D01*
X130577Y111615D02*
X131626D01*
X131101D01*
Y114763D01*
X130577Y114239D01*
X111944Y73229D02*
Y76377D01*
X113518D01*
X114043Y75853D01*
Y74803D01*
X113518Y74278D01*
X111944D01*
X112993D02*
X114043Y73229D01*
X115092Y75853D02*
X115617Y76377D01*
X116666D01*
X117191Y75853D01*
Y75328D01*
X116666Y74803D01*
X116142D01*
X116666D01*
X117191Y74278D01*
Y73754D01*
X116666Y73229D01*
X115617D01*
X115092Y73754D01*
X118241Y75853D02*
X118766Y76377D01*
X119815D01*
X120340Y75853D01*
Y73754D01*
X119815Y73229D01*
X118766D01*
X118241Y73754D01*
Y75853D01*
X153879Y66207D02*
Y69355D01*
X155453D01*
X155978Y68831D01*
Y67781D01*
X155453Y67256D01*
X153879D01*
X154929D02*
X155978Y66207D01*
X159127D02*
X157028D01*
X159127Y68306D01*
Y68831D01*
X158602Y69355D01*
X157552D01*
X157028Y68831D01*
X160176Y69355D02*
X162275D01*
Y68831D01*
X160176Y66732D01*
Y66207D01*
X135925Y90435D02*
X132776D01*
Y92009D01*
X133301Y92534D01*
X134350D01*
X134875Y92009D01*
Y90435D01*
Y91484D02*
X135925Y92534D01*
Y95682D02*
Y93583D01*
X133826Y95682D01*
X133301D01*
X132776Y95158D01*
Y94108D01*
X133301Y93583D01*
X132776Y98831D02*
X133301Y97781D01*
X134350Y96732D01*
X135400D01*
X135925Y97257D01*
Y98306D01*
X135400Y98831D01*
X134875D01*
X134350Y98306D01*
Y96732D01*
X112208Y84134D02*
Y87283D01*
X113782D01*
X114307Y86758D01*
Y85709D01*
X113782Y85184D01*
X112208D01*
X113257D02*
X114307Y84134D01*
X117455D02*
X115357D01*
X117455Y86233D01*
Y86758D01*
X116931Y87283D01*
X115881D01*
X115357Y86758D01*
X120604Y87283D02*
X118505D01*
Y85709D01*
X119555Y86233D01*
X120079D01*
X120604Y85709D01*
Y84659D01*
X120079Y84134D01*
X119030D01*
X118505Y84659D01*
X153879Y59647D02*
Y62795D01*
X155453D01*
X155978Y62270D01*
Y61221D01*
X155453Y60696D01*
X153879D01*
X154929D02*
X155978Y59647D01*
X159127D02*
X157028D01*
X159127Y61746D01*
Y62270D01*
X158602Y62795D01*
X157552D01*
X157028Y62270D01*
X161750Y59647D02*
Y62795D01*
X160176Y61221D01*
X162275D01*
X99090Y114273D02*
X98565Y114798D01*
X97515D01*
X96991Y114273D01*
Y112174D01*
X97515Y111650D01*
X98565D01*
X99090Y112174D01*
X100139Y111650D02*
X101189D01*
X100664D01*
Y114798D01*
X100139Y114273D01*
X102763Y114798D02*
X104862D01*
Y114273D01*
X102763Y112174D01*
Y111650D01*
X68045Y109317D02*
X67520Y109842D01*
X66471D01*
X65946Y109317D01*
Y107218D01*
X66471Y106693D01*
X67520D01*
X68045Y107218D01*
X69095Y106693D02*
X70144D01*
X69620D01*
Y109842D01*
X69095Y109317D01*
X73818Y109842D02*
X72768Y109317D01*
X71719Y108268D01*
Y107218D01*
X72243Y106693D01*
X73293D01*
X73818Y107218D01*
Y107743D01*
X73293Y108268D01*
X71719D01*
X153675Y109317D02*
X153150Y109842D01*
X152101D01*
X151576Y109317D01*
Y107218D01*
X152101Y106693D01*
X153150D01*
X153675Y107218D01*
X154725Y106693D02*
X155774D01*
X155249D01*
Y109842D01*
X154725Y109317D01*
X159448Y109842D02*
X157349D01*
Y108268D01*
X158398Y108792D01*
X158923D01*
X159448Y108268D01*
Y107218D01*
X158923Y106693D01*
X157873D01*
X157349Y107218D01*
X153675Y114239D02*
X153150Y114763D01*
X152101D01*
X151576Y114239D01*
Y112139D01*
X152101Y111615D01*
X153150D01*
X153675Y112139D01*
X154725Y111615D02*
X155774D01*
X155249D01*
Y114763D01*
X154725Y114239D01*
X158923Y111615D02*
Y114763D01*
X157349Y113189D01*
X159448D01*
X155677Y56183D02*
X155152Y56707D01*
X154102D01*
X153578Y56183D01*
Y54084D01*
X154102Y53559D01*
X155152D01*
X155677Y54084D01*
X156726Y53559D02*
X157776D01*
X157251D01*
Y56707D01*
X156726Y56183D01*
X159350D02*
X159875Y56707D01*
X160924D01*
X161449Y56183D01*
Y55658D01*
X160924Y55133D01*
X160400D01*
X160924D01*
X161449Y54608D01*
Y54084D01*
X160924Y53559D01*
X159875D01*
X159350Y54084D01*
X114215Y70127D02*
X113691Y70651D01*
X112641D01*
X112116Y70127D01*
Y68028D01*
X112641Y67503D01*
X113691D01*
X114215Y68028D01*
X115265Y67503D02*
X116314D01*
X115790D01*
Y70651D01*
X115265Y70127D01*
X119988Y67503D02*
X117889D01*
X119988Y69602D01*
Y70127D01*
X119463Y70651D01*
X118413D01*
X117889Y70127D01*
X119274Y19963D02*
X118749Y20487D01*
X117699D01*
X117175Y19963D01*
Y17864D01*
X117699Y17339D01*
X118749D01*
X119274Y17864D01*
X120323Y17339D02*
X121373D01*
X120848D01*
Y20487D01*
X120323Y19963D01*
X122947Y17339D02*
X123997D01*
X123472D01*
Y20487D01*
X122947Y19963D01*
X183449Y98546D02*
X180825D01*
X180301Y98021D01*
Y96972D01*
X180825Y96447D01*
X183449D01*
X180301Y93298D02*
Y95398D01*
X182400Y93298D01*
X182924D01*
X183449Y93823D01*
Y94873D01*
X182924Y95398D01*
X158989Y171654D02*
X160039D01*
X159514D01*
Y174278D01*
X160039Y174803D01*
X160564D01*
X161088Y174278D01*
X157940Y172179D02*
X157415Y171654D01*
X156366D01*
X155841Y172179D01*
Y172704D01*
X156366Y173228D01*
X156890D01*
X156366D01*
X155841Y173753D01*
Y174278D01*
X156366Y174803D01*
X157415D01*
X157940Y174278D01*
X192783Y216601D02*
X192258Y217126D01*
X191209D01*
X190684Y216601D01*
Y216076D01*
X191209Y215551D01*
X192258D01*
X192783Y215026D01*
Y214502D01*
X192258Y213977D01*
X191209D01*
X190684Y214502D01*
X193832Y217126D02*
Y213977D01*
X194882Y215026D01*
X195931Y213977D01*
Y217126D01*
X196981Y216601D02*
X197506Y217126D01*
X198555D01*
X199080Y216601D01*
Y216076D01*
X198555Y215551D01*
X198030D01*
X198555D01*
X199080Y215026D01*
Y214502D01*
X198555Y213977D01*
X197506D01*
X196981Y214502D01*
X5775Y200853D02*
X5250Y201377D01*
X4201D01*
X3676Y200853D01*
Y200328D01*
X4201Y199803D01*
X5250D01*
X5775Y199278D01*
Y198754D01*
X5250Y198229D01*
X4201D01*
X3676Y198754D01*
X6825Y201377D02*
Y198229D01*
X7874Y199278D01*
X8924Y198229D01*
Y201377D01*
X12072Y198229D02*
X9973D01*
X12072Y200328D01*
Y200853D01*
X11547Y201377D01*
X10498D01*
X9973Y200853D01*
X5316Y161483D02*
X4791Y162007D01*
X3741D01*
X3216Y161483D01*
Y160958D01*
X3741Y160433D01*
X4791D01*
X5316Y159908D01*
Y159383D01*
X4791Y158859D01*
X3741D01*
X3216Y159383D01*
X6365Y162007D02*
Y158859D01*
X7414Y159908D01*
X8464Y158859D01*
Y162007D01*
X9514Y158859D02*
X10563D01*
X10038D01*
Y162007D01*
X9514Y161483D01*
X32086Y192258D02*
X28938D01*
Y193832D01*
X29462Y194357D01*
X30512D01*
X31037Y193832D01*
Y192258D01*
Y193308D02*
X32086Y194357D01*
X29462Y195407D02*
X28938Y195931D01*
Y196981D01*
X29462Y197506D01*
X29987D01*
X30512Y196981D01*
X31037Y197506D01*
X31561D01*
X32086Y196981D01*
Y195931D01*
X31561Y195407D01*
X31037D01*
X30512Y195931D01*
X29987Y195407D01*
X29462D01*
X30512Y195931D02*
Y196981D01*
X37992Y130924D02*
X34843D01*
Y132498D01*
X35368Y133023D01*
X36417D01*
X36942Y132498D01*
Y130924D01*
Y131974D02*
X37992Y133023D01*
X34843Y134073D02*
Y136172D01*
X35368D01*
X37467Y134073D01*
X37992D01*
X37007Y192258D02*
X33859D01*
Y193832D01*
X34383Y194357D01*
X35433D01*
X35958Y193832D01*
Y192258D01*
Y193308D02*
X37007Y194357D01*
X33859Y197506D02*
X34383Y196456D01*
X35433Y195407D01*
X36483D01*
X37007Y195931D01*
Y196981D01*
X36483Y197506D01*
X35958D01*
X35433Y196981D01*
Y195407D01*
X173557Y20079D02*
Y23228D01*
X175132D01*
X175656Y22703D01*
Y21654D01*
X175132Y21129D01*
X173557D01*
X174607D02*
X175656Y20079D01*
X178805Y23228D02*
X176706D01*
Y21654D01*
X177755Y22178D01*
X178280D01*
X178805Y21654D01*
Y20604D01*
X178280Y20079D01*
X177231D01*
X176706Y20604D01*
X258464Y188321D02*
X255315D01*
Y189895D01*
X255840Y190420D01*
X256890D01*
X257415Y189895D01*
Y188321D01*
Y189371D02*
X258464Y190420D01*
X255840Y191470D02*
X255315Y191994D01*
Y193044D01*
X255840Y193569D01*
X256365D01*
X256890Y193044D01*
Y192519D01*
Y193044D01*
X257415Y193569D01*
X257939D01*
X258464Y193044D01*
Y191994D01*
X257939Y191470D01*
X62204Y16691D02*
X59055D01*
Y18265D01*
X59580Y18790D01*
X60630D01*
X61155Y18265D01*
Y16691D01*
Y17740D02*
X62204Y18790D01*
Y21939D02*
Y19840D01*
X60105Y21939D01*
X59580D01*
X59055Y21414D01*
Y20364D01*
X59580Y19840D01*
X91382Y28743D02*
X88233D01*
Y30317D01*
X88758Y30842D01*
X89807D01*
X90332Y30317D01*
Y28743D01*
Y29792D02*
X91382Y30842D01*
Y31892D02*
Y32941D01*
Y32416D01*
X88233D01*
X88758Y31892D01*
X107743Y31431D02*
Y33530D01*
X107218Y34055D01*
X106169D01*
X105644Y33530D01*
Y31431D01*
X106169Y30906D01*
X107218D01*
X106693Y31956D02*
X107743Y30906D01*
X107218D02*
X107743Y31431D01*
X110892Y30906D02*
X108792D01*
X110892Y33005D01*
Y33530D01*
X110367Y34055D01*
X109317D01*
X108792Y33530D01*
X83661Y30446D02*
Y32546D01*
X83137Y33070D01*
X82087D01*
X81562Y32546D01*
Y30446D01*
X82087Y29922D01*
X83137D01*
X82612Y30971D02*
X83661Y29922D01*
X83137D02*
X83661Y30446D01*
X84711Y29922D02*
X85760D01*
X85236D01*
Y33070D01*
X84711Y32546D01*
X41320Y27240D02*
X39094Y25014D01*
Y26498D01*
X37609D01*
X39836Y28725D01*
X39094Y29467D02*
X38352Y30209D01*
X38723Y29838D01*
X36496Y27612D01*
X37238Y27612D01*
X51575Y9318D02*
Y8268D01*
Y8793D01*
X54199D01*
X54724Y8268D01*
Y7744D01*
X54199Y7219D01*
X54724Y12466D02*
Y10367D01*
X52625Y12466D01*
X52100D01*
X51575Y11942D01*
Y10892D01*
X52100Y10367D01*
X235826Y209646D02*
Y211745D01*
X234252D01*
Y210695D01*
Y211745D01*
X232678D01*
Y208596D02*
Y207547D01*
Y208071D01*
X235826D01*
X235301Y208596D01*
X180447Y18307D02*
Y15158D01*
X182021D01*
X182546Y15683D01*
Y17782D01*
X182021Y18307D01*
X180447D01*
X183596Y17782D02*
X184120Y18307D01*
X185170D01*
X185695Y17782D01*
Y17257D01*
X185170Y16732D01*
X184645D01*
X185170D01*
X185695Y16207D01*
Y15683D01*
X185170Y15158D01*
X184120D01*
X183596Y15683D01*
X259253Y182940D02*
X262401D01*
Y184515D01*
X261876Y185039D01*
X259777D01*
X259253Y184515D01*
Y182940D01*
X262401Y186089D02*
Y187138D01*
Y186614D01*
X259253D01*
X259777Y186089D01*
X166076Y102865D02*
X166600Y103389D01*
Y104439D01*
X166076Y104964D01*
X163976D01*
X163452Y104439D01*
Y103389D01*
X163976Y102865D01*
Y101815D02*
X163452Y101290D01*
Y100241D01*
X163976Y99716D01*
X166076D01*
X166600Y100241D01*
Y101290D01*
X166076Y101815D01*
X165551D01*
X165026Y101290D01*
Y99716D01*
X29462Y162861D02*
X28938Y162336D01*
Y161287D01*
X29462Y160762D01*
X31561D01*
X32086Y161287D01*
Y162336D01*
X31561Y162861D01*
X28938Y166010D02*
Y163911D01*
X30512D01*
X29987Y164960D01*
Y165485D01*
X30512Y166010D01*
X31561D01*
X32086Y165485D01*
Y164435D01*
X31561Y163911D01*
X35368Y145140D02*
X34843Y144616D01*
Y143566D01*
X35368Y143041D01*
X37467D01*
X37992Y143566D01*
Y144616D01*
X37467Y145140D01*
X37992Y147764D02*
X34843D01*
X36417Y146190D01*
Y148289D01*
X45222Y26972D02*
X44480D01*
X43737Y26230D01*
X43737Y25488D01*
X45222Y24003D01*
X45964D01*
X46706Y24746D01*
X46706Y25488D01*
X45964Y27714D02*
X45964Y28456D01*
X46706Y29198D01*
X47448D01*
X47819Y28827D01*
Y28085D01*
X47448Y27714D01*
X47819Y28085D01*
X48561Y28085D01*
X48932Y27714D01*
X48932Y26972D01*
X48190Y26230D01*
X47448D01*
X49209Y22646D02*
X48467D01*
X47725Y21904D01*
X47725Y21162D01*
X49209Y19678D01*
X49951D01*
X50694Y20420D01*
X50694Y21162D01*
X53291Y23017D02*
X51807Y21533D01*
Y24502D01*
X51436Y24873D01*
X50694D01*
X49951Y24131D01*
X49951Y23389D01*
X65703Y42081D02*
Y42823D01*
X64961Y43565D01*
X64218Y43565D01*
X62734Y42081D01*
Y41339D01*
X63476Y40596D01*
X64218Y40597D01*
X64590Y39483D02*
X65332Y38741D01*
X64961Y39112D01*
X67187Y41339D01*
X66445Y41339D01*
M02*
